<?xml version="1.0" encoding="utf-8"?>
<!-- Generator: Adobe Illustrator 18.0.0, SVG Export Plug-In . SVG Version: 6.00 Build 0)  -->
<!DOCTYPE svg PUBLIC "-//W3C//DTD SVG 1.1//EN" "http://www.w3.org/Graphics/SVG/1.1/DTD/svg11.dtd">
<svg version="1.1" id="Layer_1" xmlns="http://www.w3.org/2000/svg" xmlns:xlink="http://www.w3.org/1999/xlink" x="0px" y="0px"
	 viewBox="0 0 178 40" enable-background="new 0 0 178 40" xml:space="preserve">
<g>
	<path fill="#848685" stroke="#808080" stroke-width="3" stroke-miterlimit="10" d="M10.9,26l-3.1,9.3H3.9L14,5.7h4.6l10.1,29.5
		h-4.1L21.4,26H10.9z M20.6,23l-2.9-8.5c-0.7-1.9-1.1-3.7-1.5-5.4h-0.1c-0.4,1.8-0.9,3.5-1.5,5.3L11.7,23H20.6z"/>
	<path fill="#848685" stroke="#808080" stroke-width="3" stroke-miterlimit="10" d="M34.8,35.2L25.1,5.7h4.1l4.6,14.5
		c1.3,4,2.4,7.6,3.2,11h0.1c0.8-3.4,2.1-7.1,3.4-11l5-14.6h4.1L39,35.2H34.8z"/>
	<path fill="#848685" stroke="#808080" stroke-width="3" stroke-miterlimit="10" d="M61.1,9h-9V5.7h21.8V9h-9v26.3h-3.9V9z"/>
	<g>
		<path fill="#4E4A3E" d="M103.7,21.6l1.1-1l-0.3-1.9l-0.3-1.9l-1.4-0.6l0.7-1.3l-0.9-1.6l-0.9-1.6l-1.5-0.1l0.2-1.5L98.7,9
			l-1.5-1.2L96,8.2l-0.3-1.4l-1.8-0.6l-1.8-0.6L91,6.5l-0.8-1.2h-1.9h-1.9l-0.8,1.3l-1.1-1l-1.8,0.6l-1.8,0.6l-0.3,1.6l-1.5-0.5
			l-1.4,1.2l-1.4,1.2l0.3,1.5l-1.5,0l-0.9,1.6l-0.9,1.6l0.8,1.3l-1.5,0.5l-0.3,1.8l-0.3,1.8l1.2,1l-1.2,1l0.3,1.8l0.3,1.8l1.5,0.5
			l-0.8,1.4l0.9,1.6l0.9,1.6l1.6,0L76.4,33l1.4,1.2l1.4,1.2l1.4-0.5l0.3,1.5l1.8,0.6l1.8,0.6l1.2-1l0.8,1.3h1.9h1.9l0.7-1.3l1.2,0.9
			l1.8-0.6l1.8-0.6l0.3-1.5l1.5,0.4l1.4-1.2l1.4-1.2l-0.2-1.4l1.4-0.1l0.9-1.6l0.9-1.6l-0.7-1.3l1.3-0.6l0.3-1.9l0.3-1.9L103.7,21.6
			z M88.3,33.7c-6.7,0-12.1-5.4-12.1-12.1c0-6.7,5.4-12.1,12.1-12.1s12.1,5.4,12.1,12.1C100.4,28.3,95,33.7,88.3,33.7z"/>
		<linearGradient id="SVGID_1_" gradientUnits="userSpaceOnUse" x1="77.6572" y1="21.6181" x2="98.9194" y2="21.6181">
			<stop  offset="0" style="stop-color:#ABA6AD"/>
			<stop  offset="0.1094" style="stop-color:#C1BEC3"/>
			<stop  offset="0.2522" style="stop-color:#D8D7DA"/>
			<stop  offset="0.3829" style="stop-color:#E5E6E7"/>
			<stop  offset="0.4896" style="stop-color:#EAEBEC"/>
			<stop  offset="0.6815" style="stop-color:#E8E9EA"/>
			<stop  offset="0.7885" style="stop-color:#E1E1E2"/>
			<stop  offset="0.8746" style="stop-color:#D5D3D5"/>
			<stop  offset="0.9491" style="stop-color:#C5BFC3"/>
			<stop  offset="1" style="stop-color:#B5ADB2"/>
		</linearGradient>
		<path fill="url(#SVGID_1_)" d="M88.3,11c-5.9,0-10.6,4.8-10.6,10.6c0,5.9,4.8,10.6,10.6,10.6c5.9,0,10.6-4.8,10.6-10.6
			C98.9,15.7,94.2,11,88.3,11z M88.3,12.2c1.6,0,3.1,0.4,4.4,1.1c-0.5,2.2-2.2,3.9-4.4,3.9c-2.2,0-3.9-1.7-4.4-3.9
			C85.2,12.6,86.7,12.2,88.3,12.2z M92.6,22.5c0.4,0,0.6,0.3,0.6,0.6c0,0.4-0.3,0.6-0.6,0.6S92,23.5,92,23.1
			C92,22.8,92.2,22.5,92.6,22.5z M88.3,18.6c1.7,0,3,1.4,3,3c0,1.7-1.4,3-3,3c-1.7,0-3-1.4-3-3C85.2,19.9,86.6,18.6,88.3,18.6z
			 M84.9,18.1c0-0.4,0.3-0.6,0.6-0.6c0.4,0,0.6,0.3,0.6,0.6s-0.3,0.6-0.6,0.6C85.2,18.7,84.9,18.4,84.9,18.1z M90.8,18.7
			c-0.4,0-0.6-0.3-0.6-0.6s0.3-0.6,0.6-0.6c0.4,0,0.6,0.3,0.6,0.6S91.2,18.7,90.8,18.7z M84.8,23.1c0,0.4-0.3,0.6-0.6,0.6
			s-0.6-0.3-0.6-0.6c0-0.4,0.3-0.6,0.6-0.6S84.8,22.8,84.8,23.1z M79,23.4c-0.1-0.6-0.2-1.2-0.2-1.8c0-2.6,1-4.9,2.7-6.7
			c2,1.1,3,3.3,2.4,5.3C83.4,22.4,81.3,23.6,79,23.4z M87.1,31c-3.2-0.4-5.8-2.3-7.2-5c1.6-1.6,4.1-1.9,5.8-0.7
			C87.5,26.5,88,28.9,87.1,31z M88.3,26.6c-0.4,0-0.6-0.3-0.6-0.6c0-0.4,0.3-0.6,0.6-0.6c0.4,0,0.6,0.3,0.6,0.6
			C88.9,26.3,88.6,26.6,88.3,26.6z M89.8,30.9c-1-2-0.5-4.5,1.2-5.7c1.7-1.3,4.2-1,5.8,0.5C95.5,28.4,92.9,30.4,89.8,30.9z
			 M97.6,23.1c-2.2,0.3-4.4-0.9-5.1-2.9c-0.7-2,0.3-4.3,2.3-5.4c1.8,1.7,2.9,4.2,2.9,6.9C97.7,22.1,97.7,22.6,97.6,23.1z"/>
		<linearGradient id="SVGID_2_" gradientUnits="userSpaceOnUse" x1="86.3933" y1="21.6181" x2="90.1833" y2="21.6181">
			<stop  offset="0" style="stop-color:#ABA6AD"/>
			<stop  offset="0.1094" style="stop-color:#C1BEC3"/>
			<stop  offset="0.2522" style="stop-color:#D8D7DA"/>
			<stop  offset="0.3829" style="stop-color:#E5E6E7"/>
			<stop  offset="0.4896" style="stop-color:#EAEBEC"/>
			<stop  offset="0.6815" style="stop-color:#E8E9EA"/>
			<stop  offset="0.7885" style="stop-color:#E1E1E2"/>
			<stop  offset="0.8746" style="stop-color:#D5D3D5"/>
			<stop  offset="0.9491" style="stop-color:#C5BFC3"/>
			<stop  offset="1" style="stop-color:#B5ADB2"/>
		</linearGradient>
		<circle fill="url(#SVGID_2_)" cx="88.3" cy="21.6" r="1.9"/>
	</g>
</g>
<g>
	<path fill="#FF6600" stroke="#FF6600" stroke-miterlimit="10" d="M115.6,36.4c-0.1,0.1-0.1,0.2-0.1,0.3c0,0.1-0.1,0.1-0.3,0.1h-1
		c-0.3,0-0.5-0.1-0.5-0.3l-6.3-17.6c-0.1-0.3,0-0.4,0.3-0.4h1c0.2,0,0.3,0,0.4,0.1c0.1,0.1,0.1,0.2,0.2,0.3l3.5,10l1.8,5.5
		c0.1,0.3,0.2,0.3,0.3,0l1.8-5.4L120,19c0.1-0.1,0.1-0.3,0.2-0.3c0.1-0.1,0.2-0.1,0.4-0.1h1.1c0.3,0,0.3,0.1,0.3,0.4L115.6,36.4z"/>
	<path fill="#FF6600" stroke="#FF6600" stroke-miterlimit="10" d="M127.2,13.2c0,0.4-0.1,0.7-0.4,0.9c-0.3,0.2-0.5,0.4-0.9,0.4
		c-0.3,0-0.6-0.1-0.9-0.4c-0.3-0.2-0.4-0.5-0.4-0.9c0-0.4,0.1-0.7,0.4-0.9c0.3-0.2,0.5-0.4,0.9-0.4c0.4,0,0.7,0.1,0.9,0.4
		C127.1,12.5,127.2,12.8,127.2,13.2z M125,18.8c0-0.2,0.1-0.3,0.3-0.3h1.2c0.2,0,0.3,0.1,0.3,0.3v17.7c0,0.2-0.1,0.3-0.3,0.3h-1.2
		c-0.2,0-0.3-0.1-0.3-0.3V18.8z"/>
	<path fill="#FF6600" stroke="#FF6600" stroke-miterlimit="10" d="M137.6,37c-0.9,0-1.6-0.1-2.1-0.4c-0.6-0.3-1-0.6-1.3-1
		c-0.3-0.4-0.5-1-0.7-1.6c-0.1-0.6-0.2-1.3-0.2-2V20.4c0-0.3-0.1-0.4-0.3-0.4h-2.3c-0.2,0-0.3-0.1-0.3-0.3v-1c0-0.2,0.1-0.3,0.3-0.3
		h2.4c0.2,0,0.3-0.1,0.3-0.3v-4.3c0-0.2,0.1-0.3,0.3-0.3l1.1-0.3c0.2,0,0.3,0.1,0.3,0.3v4.6c0,0.2,0.1,0.3,0.3,0.3h4.7
		c0.2,0,0.3,0.1,0.3,0.3v1c0,0.2-0.1,0.3-0.3,0.3h-4.6c-0.2,0-0.3,0.1-0.3,0.4v11.2c0,1.3,0.2,2.3,0.7,2.9c0.4,0.6,1.2,0.9,2.2,0.9
		c0.4,0,0.9,0,1.4-0.1c0.5-0.1,1-0.2,1.3-0.3c0.2-0.1,0.3,0,0.3,0c0.1,0.1,0.1,0.1,0.1,0.2l0.2,0.9c0,0.2,0,0.3-0.2,0.4
		c-0.4,0.2-1,0.3-1.6,0.3C138.6,36.9,138.1,37,137.6,37z"/>
	<path fill="#FF6600" stroke="#FF6600" stroke-miterlimit="10" d="M145.1,18.5c0.2,0,0.3,0.1,0.3,0.3v2c0,0.4,0.1,0.4,0.3,0.1
		c0.5-0.7,1.2-1.4,2-1.9c0.8-0.5,1.7-0.8,2.7-0.8c0.2,0,0.4,0,0.6,0c0.2,0,0.4,0,0.6,0.1c0.2,0.1,0.3,0.2,0.3,0.4l-0.3,1.2
		c0,0.2-0.2,0.3-0.5,0.3c-0.1,0-0.3,0-0.5-0.1c-0.2,0-0.4,0-0.5,0c-1.5,0-2.6,0.5-3.4,1.5c-0.8,1-1.2,2.3-1.2,3.8v11
		c0,0.2-0.1,0.3-0.3,0.3H144c-0.2,0-0.3-0.1-0.3-0.3V18.8c0-0.2,0.1-0.3,0.3-0.3H145.1z"/>
	<path fill="#FF6600" stroke="#FF6600" stroke-miterlimit="10" d="M156.8,13.2c0,0.4-0.1,0.7-0.4,0.9c-0.3,0.2-0.5,0.4-0.9,0.4
		c-0.3,0-0.6-0.1-0.9-0.4c-0.3-0.2-0.4-0.5-0.4-0.9c0-0.4,0.1-0.7,0.4-0.9c0.3-0.2,0.5-0.4,0.9-0.4c0.4,0,0.7,0.1,0.9,0.4
		C156.7,12.5,156.8,12.8,156.8,13.2z M154.6,18.8c0-0.2,0.1-0.3,0.3-0.3h1.2c0.2,0,0.3,0.1,0.3,0.3v17.7c0,0.2-0.1,0.3-0.3,0.3h-1.2
		c-0.2,0-0.3-0.1-0.3-0.3V18.8z"/>
	<path fill="#FF6600" stroke="#FF6600" stroke-miterlimit="10" d="M174.8,36.8h-1.2c-0.2,0-0.3-0.1-0.3-0.3V25.2
		c0-0.7-0.1-1.4-0.3-2c-0.2-0.7-0.5-1.2-0.9-1.7c-0.4-0.5-0.9-0.9-1.6-1.2c-0.7-0.3-1.4-0.4-2.4-0.4c-0.8,0-1.4,0.1-2.1,0.4
		c-0.6,0.3-1.1,0.7-1.6,1.1c-0.4,0.5-0.8,1-1,1.7c-0.3,0.6-0.4,1.3-0.4,2v11.4c0,0.2-0.1,0.3-0.3,0.3h-1.2c-0.2,0-0.3-0.1-0.3-0.3
		V18.8c0-0.2,0.1-0.3,0.3-0.3h1.1c0.2,0,0.3,0.1,0.3,0.3v1.6c0,0.2,0,0.3,0.1,0.3c0.1,0,0.2,0,0.3-0.2c0.6-0.7,1.4-1.2,2.3-1.6
		c0.9-0.4,1.9-0.6,2.8-0.6c1.2,0,2.2,0.2,3,0.6c0.8,0.4,1.5,0.9,2,1.5c0.5,0.6,0.9,1.4,1.1,2.2c0.2,0.8,0.3,1.7,0.3,2.6v11.3
		C175.1,36.7,175,36.8,174.8,36.8z"/>
</g>
</svg>
