<?xml version="1.0" encoding="utf-8"?>
<!-- Generator: Adobe Illustrator 23.0.0, SVG Export Plug-In . SVG Version: 6.00 Build 0)  -->
<svg version="1.1" id="Layer_1" xmlns="http://www.w3.org/2000/svg" xmlns:xlink="http://www.w3.org/1999/xlink" x="0px" y="0px"
	 viewBox="0 0 1000 1000" style="enable-background:new 0 0 1000 1000;" xml:space="preserve">
<style type="text/css">
	.st0{display:none;fill:none;stroke:#808080;stroke-miterlimit:10;}
	.st1{fill:#848685;stroke:#808080;stroke-width:3;stroke-miterlimit:10;}
	.st2{fill:#FF6600;}
	.st3{fill:#4E4A3E;}
	.st4{fill:url(#SVGID_1_);}
	.st5{fill:url(#SVGID_2_);}
</style>
<rect x="25" y="25" class="st0" width="950" height="950"/>
<g>
	<path class="st1" d="M104.1,414.6l-27.8,84.3H40.5l91-267.9h41.7l91.4,267.9h-37l-28.6-84.3H104.1z M192,387.6l-26.2-77.1
		c-6-17.5-9.9-33.4-13.9-48.9H151c-4,15.9-8.3,32.2-13.5,48.5l-26.2,77.5H192z"/>
	<path class="st1" d="M320.4,498.9L232.9,231h37.4l41.7,132c11.5,36.2,21.5,68.8,28.6,100.2h0.8c7.6-31,18.7-64.8,30.6-99.8
		L417.3,231h37l-95.8,267.9H320.4z"/>
	<path class="st1" d="M559.2,260.4h-81.5V231h198.3v29.4h-81.9v238.5h-35V260.4z"/>
	<g>
		<path class="st2" d="M103.3,738c-0.4,0.9-0.7,1.5-0.9,1.9c-0.3,0.4-0.9,0.5-2,0.5h-6.4c-2,0-3.1-0.7-3.5-2.1l-39.9-112
			c-0.5-1.6,0-2.4,1.6-2.4h6.7c1.1,0,1.8,0.2,2.3,0.7c0.4,0.4,0.8,1.1,1.2,2l22.2,64L96,725.7c0.5,1.6,1.2,1.6,1.9,0l11.3-34.3
			l22-64.6c0.4-0.9,0.7-1.6,1.1-2.1c0.4-0.5,1.2-0.8,2.4-0.8h7c1.6,0,2.1,0.8,1.6,2.4L103.3,738z"/>
		<path class="st2" d="M177.2,590c0,2.3-0.8,4.2-2.4,5.8c-1.6,1.6-3.5,2.4-5.6,2.4c-2.1,0-4-0.7-5.6-2.2c-1.6-1.5-2.4-3.5-2.4-5.9
			c0-2.3,0.8-4.2,2.4-5.7c1.6-1.5,3.5-2.2,5.6-2.2c2.3,0,4.2,0.7,5.8,2.2C176.4,585.9,177.2,587.7,177.2,590z M163.3,625.8
			c0-1.2,0.6-1.9,1.9-1.9h7.5c1.2,0,1.9,0.6,1.9,1.9v113c0,1.1-0.6,1.6-1.9,1.6h-7.5c-1.3,0-1.9-0.5-1.9-1.6V625.8z"/>
		<path class="st2" d="M243.6,741.8c-5.5,0-10.1-0.8-13.7-2.4c-3.6-1.6-6.4-3.8-8.4-6.7c-2.1-2.9-3.5-6.2-4.3-10.2
			c-0.8-3.9-1.2-8.1-1.2-12.6v-73.7c0-1.6-0.7-2.4-2.1-2.4h-14.7c-1.1,0-1.6-0.6-1.6-1.9v-6.1c0-1.2,0.5-1.9,1.6-1.9h15
			c1.2,0,1.9-0.7,1.9-2.1v-27.3c0-1.2,0.6-2,1.9-2.1l7.2-1.9c1.4-0.2,2.1,0.4,2.1,1.9v29.5c0,1.4,0.5,2.1,1.6,2.1h29.7
			c1.2,0,1.9,0.6,1.9,1.9v6.1c0,1.3-0.6,1.9-1.9,1.9h-29.5c-1.3,0-1.9,0.8-1.9,2.4v71.7c0,8.3,1.4,14.4,4.2,18.3
			c2.8,3.8,7.4,5.7,13.8,5.7c2.5,0,5.4-0.3,8.8-0.8c3.4-0.5,6.1-1.1,8-1.6c1.1-0.4,1.8-0.3,2.1,0.1c0.4,0.4,0.6,0.9,0.8,1.5l1.1,5.5
			c0.2,1.3-0.3,2.1-1.3,2.5c-2.7,1.1-6.2,1.8-10.4,2.2C250.1,741.6,246.5,741.8,243.6,741.8z"/>
		<path class="st2" d="M291,623.9c1.1,0,1.6,0.6,1.6,1.9v12.9c0,2.3,0.7,2.5,2.1,0.5c3.2-4.6,7.4-8.7,12.6-12.1
			c5.2-3.4,10.9-5.1,17.1-5.1c1.2,0,2.6,0,4,0.1c1.4,0.1,2.7,0.3,3.8,0.7c1.4,0.5,2.1,1.4,1.9,2.7l-1.9,7.8c-0.2,1.4-1.2,2-2.9,1.6
			c-0.9-0.2-2-0.3-3.2-0.4c-1.3-0.1-2.4-0.1-3.5-0.1c-9.5,0-16.7,3.2-21.7,9.6c-5,6.4-7.5,14.6-7.5,24.4v70.2c0,1.3-0.5,1.9-1.6,1.9
			h-7.5c-1.4,0-2.1-0.5-2.1-1.6v-113c0-1.2,0.6-1.9,1.9-1.9H291z"/>
		<path class="st2" d="M365.8,590c0,2.3-0.8,4.2-2.4,5.8c-1.6,1.6-3.5,2.4-5.6,2.4c-2.1,0-4-0.7-5.6-2.2c-1.6-1.5-2.4-3.5-2.4-5.9
			c0-2.3,0.8-4.2,2.4-5.7c1.6-1.5,3.5-2.2,5.6-2.2c2.3,0,4.2,0.7,5.8,2.2C365,585.9,365.8,587.7,365.8,590z M351.8,625.8
			c0-1.2,0.6-1.9,1.9-1.9h7.5c1.2,0,1.9,0.6,1.9,1.9v113c0,1.1-0.6,1.6-1.9,1.6h-7.5c-1.3,0-1.9-0.5-1.9-1.6V625.8z"/>
		<path class="st2" d="M480.9,740.4h-7.8c-1.3,0-1.9-0.5-1.9-1.6v-72.4c0-4.5-0.6-8.8-1.7-13c-1.2-4.2-3-7.8-5.5-10.8
			c-2.5-3-5.9-5.5-10-7.3c-4.2-1.9-9.2-2.8-15.1-2.8c-4.8,0-9.2,0.9-13.1,2.7c-3.9,1.8-7.3,4.2-10,7.2c-2.8,3-5,6.5-6.6,10.6
			c-1.6,4-2.4,8.3-2.4,13v72.7c0,1.3-0.6,1.9-1.9,1.9h-7.5c-1.3,0-1.9-0.5-1.9-1.6v-113c0-1.2,0.6-1.9,1.9-1.9h7.2
			c1.1,0,1.6,0.6,1.6,1.9v9.9c0,1.1,0.2,1.7,0.7,1.9c0.4,0.2,1.1-0.2,2-1.1c3.9-4.5,8.8-7.9,14.6-10.3c5.8-2.4,11.8-3.6,18.1-3.6
			c7.5,0,13.8,1.2,19,3.6c5.2,2.4,9.4,5.7,12.7,9.8c3.3,4.1,5.7,8.8,7.1,14.1c1.4,5.3,2.1,10.8,2.1,16.5v72.1
			C482.6,739.8,482,740.4,480.9,740.4z"/>
		<path class="st2" d="M517.6,723.8c2.9,0,5.1,0.8,6.8,2.5c1.7,1.7,2.5,3.9,2.5,6.6c0,2.5-0.8,4.6-2.5,6.4c-1.7,1.8-4,2.7-6.8,2.7
			c-2.5,0-4.6-0.9-6.4-2.7c-1.8-1.8-2.7-3.9-2.7-6.4c0-2.5,0.9-4.6,2.7-6.4C513,724.7,515.1,723.8,517.6,723.8z"/>
		<path class="st2" d="M632,639.7c0.9,1.4,0.7,2.5-0.5,3.2l-4.8,4c-1.1,0.7-2.2,0.4-3.5-0.8c-3-4.3-7-7.6-11.8-10
			c-4.8-2.4-10-3.6-15.5-3.6c-9.6,0-17.5,3.1-23.6,9.2c-6.1,6.1-9.1,13.9-9.1,23.3v34.4c0,10.1,3.1,18.1,9.2,23.8
			c6.2,5.8,14.1,8.7,23.7,8.7c6.4,0,11.9-1.2,16.3-3.6c4.5-2.4,8.2-5.7,11.3-9.8c0.7-1.2,1.7-1.4,2.9-0.5l4.8,2.9
			c0.9,0.7,1.4,1.3,1.5,1.9c0.1,0.5,0,1.1-0.4,1.6c-4.1,5.9-9.3,10.3-15.7,13.1c-6.3,2.8-13.4,4.3-21,4.3
			c-13.8,0-24.5-3.8-32.3-11.5c-7.8-7.7-11.7-17.9-11.7-30.8v-34.3c0-6.4,1.1-12.3,3.4-17.5c2.3-5.3,5.4-9.7,9.4-13.4
			c4-3.7,8.6-6.5,14-8.6c5.4-2.1,11.2-3.1,17.4-3.1C611.5,622.6,623.4,628.3,632,639.7z"/>
		<path class="st2" d="M739.4,698.6c0,13.8-3.8,24.4-11.4,31.9c-7.6,7.5-18.2,11.2-31.8,11.2c-14.2,0-25-3.8-32.5-11.5
			c-7.5-7.7-11.3-18-11.3-31.1v-34.3c0-12.7,3.9-22.9,11.7-30.7c7.8-7.8,18.5-11.7,32.1-11.7c13.4,0,24,3.8,31.7,11.4
			c7.7,7.6,11.6,18,11.6,31.2V698.6z M728.2,665.6c0-9.6-2.7-17.5-8-23.8c-5.3-6.2-13.3-9.3-24-9.3c-9.6,0-17.4,3.1-23.5,9.2
			c-6,6.1-9.1,14-9.1,23.6V699c0,10.2,2.8,18.3,8.3,24.3c5.5,6.1,13.6,9.1,24.3,9.1c10.7,0,18.7-3,24-9.1c5.3-6.1,8-14.2,8-24.6
			V665.6z"/>
		<path class="st2" d="M914.9,740.4h-7.8c-1.3,0-1.9-0.5-1.9-1.6v-75.6c0-8.7-2.3-16-7-21.9c-4.6-5.9-12.1-8.8-22.5-8.8
			c-3.8,0-7.4,0.8-10.8,2.4c-3.5,1.6-6.6,3.8-9.2,6.7c-2.7,2.8-4.8,6.1-6.4,9.8c-1.6,3.6-2.4,7.6-2.4,11.9v75.3
			c0,1.3-0.6,1.9-1.9,1.9h-7.5c-1.3,0-1.9-0.5-1.9-1.6v-75.6c0-4.3-0.8-8.3-2.3-12c-1.5-3.7-3.6-7-6.2-9.8c-2.6-2.8-5.6-4.9-9.1-6.5
			c-3.5-1.6-7.2-2.4-11.1-2.4c-10,0-17.5,2.9-22.5,8.8c-5,5.9-7.5,13.2-7.5,21.9v75.3c0,1.3-0.5,1.9-1.6,1.9h-7.8
			c-1.3,0-1.9-0.5-1.9-1.6V663c0-6.1,1.1-11.6,3.2-16.6c2.1-5,5-9.3,8.7-12.9c3.7-3.6,7.9-6.3,12.9-8.2c4.9-1.9,10.2-2.8,15.9-2.8
			c6.2,0,12.4,1.4,18.3,4.3c6,2.9,11.1,7.7,15.4,14.5c0.9,1.1,1.8,1.1,2.7,0c3.6-5.9,8.7-10.5,15.3-13.8c6.6-3.3,13.1-5,19.6-5
			c12.7,0,22.3,3.6,28.9,10.8c6.6,7.2,9.9,17.1,9.9,29.6v75.5C916.5,739.8,915.9,740.4,914.9,740.4z"/>
	</g>
	<g>
		<path class="st3" d="M946.1,375.2l9.7-8.9l-3-16.9l-3-16.9l-12.3-5.1l6.1-11.8l-8.6-14.8l-8.6-14.8l-13.9-0.6l1.7-13.8l-13.2-10.9
			l-13.2-10.9l-12,3.8l-2.8-12.3l-16.1-5.9l-16.1-5.9l-10.4,8l-7.1-11h-17.1h-17.1l-7.5,11.8l-10.3-8.6l-16,5.8l-16,5.8l-2.6,14.7
			l-14-5l-12.9,11L697,273l2.4,13.3l-13.5,0l-8.5,14.7l-8.5,14.7l7,12.2l-13.2,4.8l-2.9,16.7l-2.9,16.7l10.7,9l-10.7,9l2.9,16.7
			l2.9,16.7l13.4,4.9l-7.1,12.3l8.5,14.7l8.5,14.7l14.9,0l-2.5,14.7l13.1,10.8l13.1,10.8l12.7-4.7l2.4,13.3l16,5.8l16,5.8l10.8-9
			l7,12.2h17h17l6.7-11.6l11.1,8.5l16.1-5.9l16.1-5.9l3-13.6l13.3,4.1l13.1-11.1l13.1-11.1l-1.7-12.5l12.6-0.6l8.6-14.9l8.6-14.9
			l-6-11.6l12.1-5l3-16.9l3-16.9L946.1,375.2z M806.3,485.2c-60.8,0-110-49.3-110-110c0-60.8,49.3-110,110-110s110,49.3,110,110
			C916.4,436,867.1,485.2,806.3,485.2z"/>
		<linearGradient id="SVGID_1_" gradientUnits="userSpaceOnUse" x1="709.8397" y1="375.2111" x2="902.8534" y2="375.2111">
			<stop  offset="0" style="stop-color:#ABA6AD"/>
			<stop  offset="0.1094" style="stop-color:#C1BEC3"/>
			<stop  offset="0.2522" style="stop-color:#D8D7DA"/>
			<stop  offset="0.3829" style="stop-color:#E5E6E7"/>
			<stop  offset="0.4896" style="stop-color:#EAEBEC"/>
			<stop  offset="0.6815" style="stop-color:#E8E9EA"/>
			<stop  offset="0.7885" style="stop-color:#E1E1E2"/>
			<stop  offset="0.8746" style="stop-color:#D5D3D5"/>
			<stop  offset="0.9491" style="stop-color:#C5BFC3"/>
			<stop  offset="1" style="stop-color:#B5ADB2"/>
		</linearGradient>
		<path class="st4" d="M806.3,278.7c-53.3,0-96.5,43.2-96.5,96.5c0,53.3,43.2,96.5,96.5,96.5c53.3,0,96.5-43.2,96.5-96.5
			C902.9,321.9,859.6,278.7,806.3,278.7z M806.3,289.5c14.4,0,28,3.6,40,9.9c-4.1,20.1-20.4,35.2-40,35.2c-19.5,0-35.8-15.1-40-35.2
			C778.3,293.1,791.9,289.5,806.3,289.5z M845.4,383c3.2,0,5.8,2.6,5.8,5.8c0,3.2-2.6,5.8-5.8,5.8c-3.2,0-5.8-2.6-5.8-5.8
			C839.6,385.6,842.2,383,845.4,383z M806.3,347.6c15.2,0,27.6,12.3,27.6,27.6c0,15.2-12.3,27.6-27.6,27.6
			c-15.2,0-27.6-12.3-27.6-27.6C778.8,360,791.1,347.6,806.3,347.6z M775.7,343.1c0-3.2,2.6-5.8,5.8-5.8c3.2,0,5.8,2.6,5.8,5.8
			c0,3.2-2.6,5.8-5.8,5.8C778.3,348.9,775.7,346.3,775.7,343.1z M829.3,348.9c-3.2,0-5.8-2.6-5.8-5.8c0-3.2,2.6-5.8,5.8-5.8
			c3.2,0,5.8,2.6,5.8,5.8C835.1,346.3,832.5,348.9,829.3,348.9z M774.3,388.8c0,3.2-2.6,5.8-5.8,5.8c-3.2,0-5.8-2.6-5.8-5.8
			c0-3.2,2.6-5.8,5.8-5.8C771.7,383,774.3,385.6,774.3,388.8z M722.1,391.2c-1-5.2-1.5-10.5-1.5-16c0-23.6,9.5-44.9,24.9-60.4
			c18.1,9.8,27.7,29.8,22,48.5C761.8,382,742.6,393.2,722.1,391.2z M795.9,460.3c-28.6-3.5-52.9-21-65.6-45.6
			c14.9-14.2,36.8-17.3,52.9-6.1C799.2,419.7,804,441.4,795.9,460.3z M806.3,420.1c-3.2,0-5.8-2.6-5.8-5.8c0-3.2,2.6-5.8,5.8-5.8
			c3.2,0,5.8,2.6,5.8,5.8C812.1,417.5,809.5,420.1,806.3,420.1z M819.8,459.8c-8.8-18.6-4.8-40.4,10.9-52.1
			c15.6-11.7,37.7-9.4,53.1,4.2C871.9,437,848.2,455.4,819.8,459.8z M891,388.6c-20.4,2.6-39.9-8-46.2-26.5
			c-6.3-18.5,2.7-38.8,20.5-49.1c16.5,15.6,26.8,37.7,26.8,62.2C892,379.8,891.7,384.3,891,388.6z"/>
		<linearGradient id="SVGID_2_" gradientUnits="userSpaceOnUse" x1="789.144" y1="375.2111" x2="823.549" y2="375.2111">
			<stop  offset="0" style="stop-color:#ABA6AD"/>
			<stop  offset="0.1094" style="stop-color:#C1BEC3"/>
			<stop  offset="0.2522" style="stop-color:#D8D7DA"/>
			<stop  offset="0.3829" style="stop-color:#E5E6E7"/>
			<stop  offset="0.4896" style="stop-color:#EAEBEC"/>
			<stop  offset="0.6815" style="stop-color:#E8E9EA"/>
			<stop  offset="0.7885" style="stop-color:#E1E1E2"/>
			<stop  offset="0.8746" style="stop-color:#D5D3D5"/>
			<stop  offset="0.9491" style="stop-color:#C5BFC3"/>
			<stop  offset="1" style="stop-color:#B5ADB2"/>
		</linearGradient>
		<circle class="st5" cx="806.3" cy="375.2" r="17.2"/>
	</g>
	<line class="st1" x1="108" y1="553.5" x2="891" y2="553.5"/>
</g>
</svg>
