<?xml version="1.0" encoding="utf-8"?>
<!-- Generator: Adobe Illustrator 18.0.0, SVG Export Plug-In . SVG Version: 6.00 Build 0)  -->
<!DOCTYPE svg PUBLIC "-//W3C//DTD SVG 1.1 Basic//EN" "http://www.w3.org/Graphics/SVG/1.1/DTD/svg11-basic.dtd">
<svg version="1.1" baseProfile="basic" id="Layer_1"
	 xmlns="http://www.w3.org/2000/svg" xmlns:xlink="http://www.w3.org/1999/xlink" x="0px" y="0px" viewBox="0 0 250 250"
	 xml:space="preserve">
<g>
	<path fill="#4E4A3E" d="M231.7,125l7.4-6.8l-2.3-12.9l-2.3-12.9l-9.4-3.9l4.7-9l-6.5-11.3l-6.5-11.3l-10.6-0.5l1.3-10.5l-10.1-8.3
		l-10.1-8.3l-9.1,2.9l-2.1-9.4l-12.3-4.5l-12.3-4.5l-7.9,6.1l-5.4-8.4H125h-13.1l-5.7,9l-7.9-6.6l-12.2,4.4L74,22.8L72,34l-10.7-3.8
		l-9.9,8.4L41.5,47l1.9,10.2l-10.3,0l-6.5,11.2l-6.5,11.2l5.4,9.3l-10.1,3.7l-2.2,12.8L11,118.1l8.2,6.9l-8.2,6.9l2.2,12.8l2.2,12.8
		l10.2,3.7l-5.4,9.4l6.5,11.2l6.5,11.2l11.4,0l-1.9,11.2l10,8.3l10,8.3l9.7-3.6l1.8,10.2l12.2,4.4l12.2,4.4l8.2-6.9l5.4,9.3h13h13
		l5.1-8.9l8.5,6.5l12.3-4.5l12.3-4.5l2.3-10.3l10.2,3.1l10-8.5l10-8.5l-1.3-9.5l9.6-0.4l6.5-11.3l6.5-11.3l-4.6-8.9l9.2-3.8
		l2.3-12.9l2.3-12.9L231.7,125z M125,209c-46.4,0-84-37.6-84-84c0-46.4,37.6-84,84-84s84,37.6,84,84C209,171.4,171.4,209,125,209z"
		/>
	<path fill="#FF6600" d="M125,51.3c-40.7,0-73.7,33-73.7,73.7c0,40.7,33,73.7,73.7,73.7c40.7,0,73.7-33,73.7-73.7
		C198.7,84.3,165.7,51.3,125,51.3z M125,59.6c11,0,21.4,2.7,30.5,7.5C152.4,82.5,139.9,94,125,94c-14.9,0-27.4-11.5-30.5-26.9
		C103.6,62.3,114,59.6,125,59.6z M154.8,131c2.4,0,4.4,2,4.4,4.4c0,2.4-2,4.4-4.4,4.4c-2.4,0-4.4-2-4.4-4.4
		C150.4,132.9,152.4,131,154.8,131z M125,103.9c11.6,0,21.1,9.4,21.1,21.1c0,11.6-9.4,21.1-21.1,21.1c-11.6,0-21.1-9.4-21.1-21.1
		C103.9,113.4,113.4,103.9,125,103.9z M101.6,100.5c0-2.4,2-4.4,4.4-4.4c2.4,0,4.4,2,4.4,4.4s-2,4.4-4.4,4.4
		C103.6,104.9,101.6,103,101.6,100.5z M142.5,104.9c-2.4,0-4.4-2-4.4-4.4s2-4.4,4.4-4.4c2.4,0,4.4,2,4.4,4.4S145,104.9,142.5,104.9z
		 M100.6,135.4c0,2.4-2,4.4-4.4,4.4c-2.4,0-4.4-2-4.4-4.4c0-2.4,2-4.4,4.4-4.4C98.6,131,100.6,132.9,100.6,135.4z M60.7,137.2
		c-0.7-4-1.1-8-1.1-12.2c0-18,7.3-34.3,19-46.1c13.8,7.5,21.1,22.8,16.8,37C91,130.2,76.4,138.7,60.7,137.2z M117.1,189.9
		c-21.8-2.6-40.4-16.1-50.1-34.8c11.3-10.8,28.1-13.2,40.4-4.7C119.6,159,123.2,175.5,117.1,189.9z M125,159.3c-2.4,0-4.4-2-4.4-4.4
		c0-2.4,2-4.4,4.4-4.4c2.4,0,4.4,2,4.4,4.4C129.4,157.3,127.4,159.3,125,159.3z M135.3,189.6c-6.7-14.2-3.6-30.8,8.3-39.8
		c11.9-8.9,28.8-7.2,40.5,3.2C175,172.2,156.9,186.2,135.3,189.6z M189.6,135.2c-15.6,2-30.5-6.1-35.3-20.2
		c-4.8-14.1,2.1-29.6,15.6-37.5c12.6,11.9,20.4,28.8,20.4,47.5C190.4,128.5,190.1,131.9,189.6,135.2z"/>
	<circle fill="#848685" cx="125" cy="125" r="13.1"/>
</g>
</svg>
