<?xml version="1.0" standalone="no"?>
<!DOCTYPE svg PUBLIC "-//W3C//DTD SVG 20010904//EN"
 "http://www.w3.org/TR/2001/REC-SVG-20010904/DTD/svg10.dtd">
<svg version="1.0" xmlns="http://www.w3.org/2000/svg"
 width="500.000000pt" height="500.000000pt" viewBox="0 0 500.000000 500.000000"
 preserveAspectRatio="xMidYMid meet">
<metadata>
Created by potrace 1.11, written by Peter Selinger 2001-2013
</metadata>
<g transform="translate(0.000000,500.000000) scale(0.100000,-0.100000)"
fill="#000000" stroke="none">
<path d="M2457 4194 c-1 -1 -139 -5 -307 -8 -604 -13 -677 -16 -760 -31 -42
-8 -138 -48 -180 -75 -75 -48 -186 -189 -390 -495 -51 -77 -100 -146 -109
-152 -8 -7 -12 -13 -8 -13 4 0 0 -12 -10 -26 l-17 -27 -33 38 c-25 29 -30 41
-21 47 10 5 8 8 -4 8 -10 0 -20 10 -24 24 -3 13 -17 35 -31 48 -23 21 -32 23
-121 21 -226 -5 -275 -29 -286 -138 -9 -87 25 -145 93 -160 17 -4 31 -11 31
-16 0 -6 -8 -5 -20 1 -29 15 -25 5 6 -15 15 -9 24 -13 20 -7 -7 12 30 23 50
15 9 -3 12 -13 9 -24 -4 -11 -2 -19 5 -19 6 0 8 5 5 10 -3 6 -1 10 5 10 7 0
10 7 6 18 -6 16 -5 16 7 0 10 -12 17 -14 31 -6 9 5 20 7 23 4 4 -3 1 -6 -6 -6
-7 0 -10 -4 -6 -9 3 -5 0 -13 -6 -17 -8 -4 -9 -3 -5 4 4 7 2 12 -3 12 -6 0
-11 -6 -11 -12 0 -9 -4 -8 -10 2 -5 8 -10 11 -10 5 0 -5 5 -17 10 -25 9 -13
10 -13 10 0 1 11 6 8 20 -9 11 -13 20 -19 20 -14 0 5 -5 14 -12 21 -7 7 -8 12
-2 12 6 0 15 -5 22 -12 15 -15 24 -6 16 16 -5 14 -9 15 -15 4 -5 -7 -9 -8 -9
-3 0 6 5 17 10 25 7 11 10 11 10 2 0 -7 4 -10 10 -7 5 3 7 0 4 -8 -3 -8 0 -18
6 -22 8 -5 7 -11 -2 -23 -12 -15 -11 -16 4 -3 10 7 15 17 12 22 -3 5 2 9 10 9
19 0 20 -11 4 -29 -9 -9 -9 -12 -1 -7 6 3 14 0 16 -6 4 -10 6 -10 6 0 1 7 6
10 13 6 7 -4 8 -3 4 4 -4 7 -1 12 6 12 7 1 1 8 -14 16 -16 8 -28 17 -28 21 0
3 3 3 7 0 3 -4 14 0 23 8 14 13 17 13 17 0 0 -8 -4 -12 -9 -9 -4 3 -8 0 -8 -5
0 -6 9 -11 21 -11 14 0 19 5 16 13 -3 8 1 14 9 14 10 0 8 -9 -8 -36 -37 -61
-120 -141 -206 -198 -98 -66 -162 -127 -206 -197 -48 -76 -63 -119 -90 -263
-27 -139 -27 -1071 0 -1114 2 -4 7 -46 9 -91 2 -46 7 -108 11 -138 4 -30 7
-71 8 -90 0 -19 3 -37 6 -40 4 -3 12 -25 19 -50 7 -25 23 -66 36 -92 13 -25
23 -48 22 -50 -1 -1 0 -2 2 -1 10 6 42 -37 36 -49 -6 -10 -5 -10 5 -1 8 7 20
9 35 3 13 -5 26 -6 30 -2 4 4 6 0 5 -8 -1 -8 -2 -24 0 -35 1 -18 2 -19 9 -2 6
17 8 17 33 -3 16 -12 29 -16 33 -10 10 16 -4 30 -22 23 -10 -4 -14 -2 -10 4 4
6 -3 9 -19 7 -21 -2 -23 0 -13 12 13 16 23 19 14 4 -3 -5 -1 -10 4 -10 6 0 11
6 11 13 0 9 3 8 9 -2 7 -10 13 -11 32 -1 21 10 22 10 7 -3 -10 -8 -15 -17 -11
-20 3 -4 12 -2 20 4 7 6 13 8 13 3 0 -4 7 1 15 12 15 19 15 19 8 -1 -7 -19 -6
-20 20 -2 15 9 27 13 27 8 0 -10 -39 -27 -52 -23 -4 1 -2 -9 4 -23 6 -13 16
-23 22 -22 6 1 10 -3 9 -10 -2 -7 4 -10 13 -6 13 5 11 9 -10 22 -14 9 -26 20
-26 25 0 5 3 7 6 3 4 -3 19 0 35 8 34 18 53 19 22 2 -20 -11 -31 -28 -17 -26
4 0 11 -5 16 -13 6 -9 7 -6 3 10 -5 17 -2 22 13 22 16 0 19 5 15 22 -4 18 -2
17 11 -6 9 -16 14 -31 11 -34 -3 -3 -5 1 -5 8 0 7 -2 11 -5 8 -3 -3 -3 -13 1
-22 6 -15 7 -15 19 1 11 15 11 21 -3 37 -14 17 -12 16 12 -2 15 -12 33 -19 39
-15 6 4 1 10 -11 14 -12 5 -22 11 -22 13 0 7 32 -4 48 -17 7 -5 12 -6 12 0 0
5 -6 15 -12 22 -10 11 -8 10 9 0 13 -8 23 -17 23 -22 0 -4 4 -6 10 -2 5 3 7
13 4 23 -4 12 -2 12 7 -3 17 -25 20 -45 8 -45 -5 0 -9 5 -9 12 0 6 -2 9 -5 6
-3 -3 -3 -12 0 -20 8 -20 50 -17 76 6 12 9 27 15 34 12 9 -3 12 0 8 9 -3 11
-10 12 -23 5 -9 -5 -21 -6 -25 -2 -5 4 -5 1 0 -7 5 -9 -1 -7 -19 4 -27 18 -34
35 -15 35 5 0 8 -4 5 -9 -3 -5 1 -11 9 -15 8 -3 17 -1 20 4 3 4 -1 11 -7 13
-9 4 -10 6 -1 6 6 1 15 -3 18 -9 9 -15 25 -12 25 4 0 8 5 18 11 22 8 4 9 -1 4
-16 -5 -17 -4 -21 5 -15 8 5 11 4 7 -1 -3 -6 -1 -16 4 -24 9 -13 10 -13 8 0
-3 29 1 41 11 35 6 -4 8 -11 5 -16 -3 -5 1 -6 10 -3 14 6 14 8 -2 19 -10 7
-21 11 -25 9 -15 -10 0 27 17 40 18 13 18 13 -1 24 -14 9 -15 12 -4 13 8 1 18
1 22 0 5 0 8 3 8 7 0 5 7 9 15 9 9 0 14 -5 12 -11 -2 -6 -10 -11 -18 -11 -8 0
-14 -9 -13 -22 1 -13 -3 -20 -9 -16 -6 3 -7 1 -3 -5 5 -8 1 -10 -11 -6 -15 5
-15 4 -3 -4 8 -6 17 -9 21 -6 4 2 10 -2 13 -8 2 -7 3 -2 2 12 -2 13 5 33 16
44 10 11 16 28 13 37 -4 11 1 22 12 28 10 6 13 11 7 11 -5 0 -15 -5 -21 -11
-8 -8 -13 -5 -18 10 -3 12 -11 19 -16 15 -7 -4 -6 -10 0 -18 11 -14 3 -30 -19
-34 -8 -2 -12 0 -8 4 4 4 2 14 -4 23 -10 13 -10 14 2 3 18 -16 33 -16 23 1
-20 32 -2 62 20 32 16 -21 47 -10 42 16 -3 13 2 19 15 19 10 0 22 5 25 10 4 6
10 8 14 6 4 -3 8 4 8 15 1 10 -3 19 -8 19 -6 0 -8 -4 -4 -9 3 -5 0 -13 -6 -17
-7 -4 -9 -3 -6 2 3 6 -3 11 -14 11 -10 1 -19 -3 -19 -8 0 -6 4 -8 9 -4 5 3 13
0 17 -6 5 -9 -1 -10 -20 -5 -17 4 -25 3 -22 -3 4 -5 2 -12 -3 -16 -6 -3 -8
-12 -4 -20 3 -8 0 -15 -7 -15 -6 0 -9 4 -5 9 3 6 -3 14 -12 20 -11 6 -13 11
-5 11 8 0 10 5 6 13 -4 6 -3 9 1 4 11 -9 45 21 41 36 -2 7 -1 9 1 4 7 -11 23
2 19 16 -1 7 -1 9 1 4 3 -4 10 -4 16 -1 8 5 8 2 -1 -7 -16 -17 -16 -34 1 -22
6 6 19 12 28 16 13 4 16 -1 13 -26 -3 -21 -1 -27 5 -18 6 9 11 10 15 2 4 -6
12 -11 18 -11 5 0 0 9 -13 20 -29 24 -13 27 20 3 14 -9 21 -11 17 -5 -8 14 20
12 43 -2 10 -6 12 -5 7 2 -4 7 -2 12 4 12 6 0 8 5 4 11 -5 8 -8 8 -13 0 -5 -7
-15 -4 -31 11 -19 18 -22 19 -17 5 5 -12 3 -16 -5 -11 -7 5 -8 3 -3 -6 5 -9 4
-11 -3 -6 -9 5 -9 13 -2 27 13 23 14 23 36 2 16 -16 18 -16 36 6 10 13 22 21
25 17 4 -4 1 -11 -6 -15 -11 -7 -11 -9 0 -13 8 -3 20 3 29 11 8 9 12 12 7 7
-10 -14 -9 -26 2 -26 5 0 13 9 16 20 6 17 8 18 21 6 18 -19 18 -32 0 -17 -11
10 -16 8 -21 -8 -6 -20 -25 -30 -25 -13 0 4 -10 9 -22 9 -18 2 -20 0 -8 -7 8
-5 10 -10 4 -10 -6 0 -11 -7 -11 -16 0 -15 1 -15 12 0 7 9 19 14 29 10 10 -4
18 0 22 10 3 9 10 13 15 10 6 -3 17 0 26 8 12 9 15 9 9 1 -13 -23 11 -14 26 9
13 19 18 21 31 10 9 -8 13 -20 10 -28 -8 -21 -22 -17 -18 6 2 11 -1 20 -7 20
-5 0 -7 -7 -4 -16 4 -10 2 -13 -7 -8 -9 6 -9 5 0 -7 10 -12 10 -18 0 -29 -10
-12 -9 -12 6 -1 14 11 20 11 35 0 16 -13 16 -13 2 5 -13 18 -13 19 1 14 9 -4
16 -1 16 8 0 7 -5 10 -10 7 -6 -3 -7 -1 -3 6 4 6 2 18 -4 26 -9 11 -9 15 -1
15 6 0 11 -5 11 -11 0 -8 4 -8 14 0 10 9 15 8 19 -3 4 -10 1 -13 -9 -9 -7 3
-14 0 -14 -6 0 -6 11 -11 25 -11 23 0 25 2 14 23 -9 17 -9 19 0 11 7 -6 13
-18 15 -27 1 -9 14 -26 29 -37 31 -24 36 -20 9 7 -11 10 -22 27 -26 37 -5 15
-1 14 20 -7 14 -15 31 -24 37 -20 7 4 8 -1 4 -13 -7 -18 -7 -18 8 0 8 11 15
16 15 12 0 -5 7 -2 16 5 15 12 16 11 11 -11 -4 -14 -4 -19 -1 -12 3 6 10 12
15 12 6 0 7 -6 3 -12 -4 -7 -4 -10 1 -6 4 4 15 2 24 -4 9 -7 13 -8 9 -4 -11
13 11 36 28 29 12 -4 12 -8 2 -22 -11 -14 -11 -14 3 -4 9 7 19 9 24 5 4 -4 2
3 -6 15 -7 12 -20 20 -31 18 -10 -2 -16 0 -13 6 4 5 11 7 16 4 5 -4 9 -2 9 3
0 6 -7 12 -15 16 -8 3 -15 11 -15 18 0 9 3 8 10 -2 5 -8 10 -10 10 -5 0 6 9
-5 20 -23 18 -28 23 -32 36 -21 12 10 16 9 21 -9 3 -12 9 -22 14 -22 5 0 6 6
3 14 -4 10 0 13 13 11 10 -1 17 -8 15 -14 -1 -6 3 -11 9 -11 6 0 9 7 6 15 -8
19 10 30 27 16 7 -6 17 -7 21 -3 5 4 5 -2 2 -13 -7 -19 -7 -19 8 -1 17 23 3
58 -20 50 -8 -4 -12 -10 -9 -15 10 -16 -3 -9 -17 9 -7 9 -9 14 -5 10 5 -4 15
-3 22 3 8 6 19 7 26 2 7 -4 23 -8 36 -8 16 -1 21 3 17 15 -3 10 0 9 9 -4 14
-17 16 -17 38 -2 12 9 27 16 33 16 5 0 -3 -9 -18 -19 -20 -13 -25 -20 -15 -24
7 -3 3 -4 -9 -4 -13 1 -23 4 -23 7 0 3 -9 6 -20 7 -11 1 -20 -4 -20 -12 0 -8
8 -11 23 -8 18 4 19 3 7 -6 -9 -7 -10 -11 -3 -11 6 0 15 5 18 10 4 6 18 2 36
-10 16 -12 29 -17 29 -12 0 6 -7 13 -15 16 -12 4 -13 10 -6 25 12 22 43 37 35
16 -4 -9 1 -12 13 -10 10 2 22 4 26 4 5 1 6 5 2 10 -3 5 0 13 6 17 8 4 9 3 5
-4 -7 -12 27 -35 38 -25 12 13 6 22 -11 17 -15 -5 -16 -4 -3 5 11 8 18 7 28
-6 6 -9 12 -22 12 -27 0 -6 -4 -5 -9 3 -7 10 -10 10 -13 1 -3 -10 -9 -10 -24
-2 -16 9 -26 7 -44 -5 -18 -12 -21 -13 -15 -2 4 8 5 11 0 7 -4 -4 -13 -3 -20
2 -8 7 -12 5 -12 -5 0 -8 4 -12 9 -9 4 3 8 0 8 -6 0 -7 6 -10 14 -7 7 3 20 0
27 -6 11 -10 11 -9 1 4 -11 15 -8 17 28 15 22 0 40 -5 40 -10 0 -6 6 -1 14 9
13 18 14 18 27 -3 8 -12 21 -22 29 -22 12 1 11 3 -3 11 -14 8 -16 14 -6 25 8
10 8 14 0 14 -6 0 -11 -5 -11 -12 0 -6 -9 -3 -20 7 -11 10 -20 23 -20 29 0 7
3 7 8 1 4 -5 16 -11 27 -13 11 -2 33 -5 49 -7 26 -4 27 -3 15 13 -11 14 -10
14 8 -2 19 -15 25 -16 38 -6 9 7 15 8 15 2 0 -14 46 -8 67 9 16 13 17 12 4 -3
-15 -20 -2 -25 17 -6 18 18 48 19 62 3 11 -13 16 -12 41 6 16 11 29 17 28 12
-3 -20 2 -34 11 -28 6 4 8 10 6 14 -3 3 3 7 12 7 9 1 26 4 37 8 11 4 6 -1 -11
-11 -19 -11 -29 -24 -27 -33 4 -13 3 -13 -6 0 -13 19 -14 0 -1 -20 8 -13 11
-12 16 6 6 23 49 48 65 39 5 -4 9 0 9 7 0 10 3 9 9 -2 12 -18 2 -35 -12 -21
-6 6 -16 11 -22 11 -5 0 -4 -4 4 -9 9 -6 10 -11 2 -15 -6 -4 -11 -2 -11 4 0 7
-5 10 -11 8 -6 -2 -10 -7 -10 -11 1 -4 3 -6 6 -4 2 1 11 -7 20 -18 13 -17 14
-17 9 -2 -7 19 14 21 29 2 5 -6 7 -3 3 7 -4 13 0 17 13 15 25 -4 52 -27 45
-38 -3 -5 0 -9 5 -9 6 0 11 7 11 15 0 8 -4 15 -10 15 -5 0 -7 6 -4 14 7 18
-13 31 -29 17 -10 -7 -13 -5 -14 9 -1 11 2 22 8 25 5 3 6 0 4 -7 -4 -9 2 -14
15 -14 11 0 20 5 20 11 0 5 4 3 9 -5 6 -8 7 -18 5 -22 -3 -4 0 -16 5 -25 6
-11 11 -13 11 -5 0 7 5 10 10 7 6 -3 10 -1 10 6 0 8 4 8 15 -1 8 -7 12 -16 9
-21 -3 -5 -3 -9 0 -9 3 0 10 9 16 19 7 14 7 22 -2 27 -7 4 -8 3 -4 -4 4 -7 3
-12 -3 -12 -5 0 -11 5 -13 11 -3 9 -10 9 -28 0 -22 -11 -23 -11 -7 2 18 15 24
32 7 22 -5 -3 -10 -1 -10 4 0 16 16 13 30 -4 11 -13 15 -13 33 0 12 8 26 15
32 15 5 -1 -1 -7 -14 -14 -13 -7 -19 -16 -14 -19 6 -4 22 2 36 13 14 11 29 20
33 20 4 0 -1 -7 -12 -15 -14 -11 -15 -15 -4 -14 30 3 41 -1 34 -12 -4 -8 -9
-7 -15 2 -5 8 -9 9 -9 3 0 -17 27 -37 42 -31 8 3 5 6 -6 6 -18 1 -18 2 -3 19
20 22 22 33 5 28 -7 -1 -10 -1 -5 1 4 3 4 10 0 16 -5 8 -2 8 9 0 8 -7 18 -10
22 -6 4 4 4 1 1 -8 -4 -10 1 -15 15 -15 15 0 19 5 15 21 -6 20 -6 20 7 0 7
-11 22 -22 32 -23 18 -3 18 -2 6 15 -14 17 -14 17 6 0 20 -17 22 -16 50 5 l29
22 -19 -22 c-20 -23 -9 -31 13 -9 10 8 12 8 7 0 -10 -18 43 -11 54 7 9 13 10
13 11 0 1 -8 1 -19 0 -24 -1 -4 3 -14 10 -22 6 -7 7 -19 3 -26 -4 -7 2 -5 14
5 20 18 20 53 0 41 -6 -4 -5 -10 3 -15 10 -6 10 -9 2 -9 -16 0 -26 17 -14 25
6 3 9 11 7 18 -1 7 -1 8 2 4 2 -4 11 -2 20 5 15 12 16 11 3 -4 -15 -20 -2 -25
17 -6 9 9 15 9 24 0 9 -9 9 -12 -2 -13 -8 -1 -18 -1 -22 0 -5 0 -8 -4 -8 -10
0 -6 9 -8 23 -4 16 5 18 4 8 -3 -11 -8 -7 -14 20 -27 l34 -16 -24 19 -24 20
21 11 c14 7 19 17 16 29 -5 14 -4 15 5 2 10 -13 12 -13 21 0 7 11 10 11 10 2
0 -7 -7 -15 -15 -18 -8 -4 -12 -11 -8 -17 4 -6 16 1 30 19 16 20 21 23 16 9
-6 -18 -5 -18 10 -7 9 8 21 10 29 5 7 -4 23 -8 36 -8 16 -1 21 3 17 15 -4 13
-4 13 8 0 16 -19 36 -23 52 -10 9 8 14 6 19 -6 9 -23 7 -31 -4 -14 -5 8 -12
11 -16 7 -10 -10 28 -37 41 -29 15 10 29 9 37 -2 4 -6 12 -5 21 3 9 7 18 8 21
2 3 -5 0 -12 -6 -14 -8 -4 -7 -6 3 -6 9 -1 19 5 22 12 6 17 49 15 55 -3 3 -8
0 -10 -9 -5 -8 5 -11 4 -6 -1 10 -11 58 -14 51 -2 -3 4 0 9 5 9 21 3 26 4 39
12 8 6 15 0 21 -15 6 -13 11 -18 12 -13 6 34 5 55 -3 55 -6 0 -7 -8 -3 -17 5
-15 4 -16 -6 -5 -18 17 2 35 44 37 24 1 33 -2 34 -15 1 -9 -4 -17 -12 -17 -7
0 -11 5 -9 12 3 6 -5 11 -17 12 -16 1 -18 -1 -10 -11 6 -7 7 -16 3 -20 -4 -4
-2 -7 3 -6 25 5 28 -2 5 -16 -21 -12 -22 -14 -5 -12 11 2 23 7 27 12 11 15 38
15 38 0 0 -8 4 -14 10 -14 5 0 7 7 3 15 -7 20 17 16 35 -5 11 -13 11 -11 2 8
-7 14 -16 20 -23 15 -9 -5 -9 -3 0 8 10 12 10 18 1 27 -9 9 -9 12 0 12 11 0
16 -13 13 -32 0 -5 6 -8 14 -8 8 0 14 5 13 11 -2 6 7 15 19 19 17 7 23 5 28
-11 4 -10 11 -19 16 -19 6 0 5 9 -2 23 -6 12 5 4 25 -18 21 -22 32 -30 26 -18
-14 30 -13 31 15 31 14 0 32 -9 39 -20 8 -11 17 -15 20 -10 3 5 -1 15 -9 22
-8 7 -15 17 -15 22 0 6 8 0 19 -13 16 -20 21 -21 35 -10 9 7 16 10 16 5 -1
-16 -51 -46 -66 -40 -8 3 -12 10 -9 16 4 6 -1 7 -12 4 -15 -5 -15 -4 -3 5 12
8 10 10 -9 8 -23 -1 -23 -2 6 -24 31 -26 44 -28 60 -12 8 8 13 8 17 0 4 -6 2
-11 -5 -11 -7 0 -10 -2 -7 -5 3 -3 13 -3 22 1 15 6 15 7 -1 20 -22 17 -9 18
20 2 19 -10 21 -9 9 4 -10 12 -10 18 -1 23 8 6 7 10 -2 16 -10 6 -10 9 -2 9 6
0 15 -5 18 -10 4 -6 10 -8 15 -5 5 3 12 0 16 -6 4 -8 9 -7 16 2 8 11 9 11 6 1
-2 -8 -8 -14 -13 -15 -16 -2 -53 -41 -47 -51 2 -5 9 -1 14 8 5 9 14 13 20 10
7 -4 8 -2 4 4 -4 7 0 12 10 12 10 0 15 -3 12 -6 -4 -3 -3 -18 2 -34 5 -18 4
-32 -3 -40 -8 -9 -9 -11 -1 -7 7 4 14 -6 17 -28 6 -34 51 -111 65 -109 4 1 18
-2 30 -7 13 -5 28 -7 33 -3 5 3 8 0 7 -7 -2 -6 3 -14 11 -17 8 -2 11 0 7 6 -8
14 21 9 36 -6 7 -7 16 -8 23 -2 6 5 16 5 25 -2 13 -8 12 -9 -2 -5 -9 3 -19 3
-22 -1 -11 -11 -36 -11 -30 0 5 7 2 8 -6 3 -9 -6 -11 -4 -5 5 5 8 4 11 -3 6
-6 -3 -9 -15 -7 -26 2 -11 -1 -20 -7 -20 -6 0 -8 -3 -5 -7 4 -3 15 2 26 11 11
10 22 13 25 8 3 -6 1 -12 -6 -14 -7 -3 -2 -7 11 -11 18 -4 26 1 43 29 11 19
21 34 22 32 1 -2 7 -10 14 -19 9 -13 9 -16 -3 -16 -8 0 -11 5 -8 10 3 6 1 7
-6 3 -6 -4 -9 -11 -6 -16 3 -4 -2 -13 -10 -20 -8 -7 -15 -17 -15 -22 0 -5 10
2 23 14 12 13 28 23 35 22 6 -1 17 -2 23 -3 5 0 8 -5 5 -10 -7 -10 13 -9 30 1
12 8 12 37 -1 58 -8 13 -6 13 8 1 13 -11 17 -11 17 -1 0 8 3 10 6 7 4 -4 2
-12 -4 -19 -7 -9 -6 -20 3 -38 8 -14 14 -20 15 -15 0 14 38 17 45 4 4 -5 11
-6 17 -3 17 10 70 15 64 6 -3 -5 1 -9 9 -9 12 0 12 4 -2 19 -11 12 -19 15 -21
8 -3 -8 -8 -8 -18 1 -10 8 -14 8 -14 0 0 -6 -5 -11 -12 -11 -6 0 -8 3 -5 7 4
3 3 11 -2 17 -6 7 -3 16 6 25 13 12 14 11 9 -10 l-7 -24 20 24 c12 13 21 19
21 14 0 -5 -5 -14 -12 -21 -19 -19 3 -14 26 5 20 17 20 17 7 1 -7 -10 -9 -18
-3 -18 12 0 34 25 27 32 -3 2 2 5 10 5 8 0 12 -4 9 -9 -3 -4 0 -8 5 -8 6 0 11
-4 11 -9 0 -6 -9 -8 -20 -6 -13 3 -18 0 -14 -7 5 -7 2 -8 -5 -3 -9 5 -9 1 1
-14 13 -21 28 -28 28 -13 0 5 6 17 14 28 10 13 14 14 13 4 -2 -8 -6 -21 -10
-27 -5 -9 -3 -11 6 -7 15 6 20 54 6 54 -5 0 0 9 11 20 11 11 27 20 36 20 8 0
13 4 10 8 -9 15 9 31 24 22 13 -8 13 -10 -1 -10 -9 0 -16 -7 -16 -15 0 -21 14
-19 27 4 8 16 5 23 -18 41 -29 22 0 11 31 -12 17 -13 17 -15 3 -27 -18 -15
-21 -31 -6 -31 5 0 9 6 7 13 -1 6 3 11 10 10 12 -2 11 10 -1 39 -15 35 2 42
18 8 8 -19 13 -25 10 -13 -12 49 -12 63 -3 64 5 1 13 2 18 3 5 0 13 5 18 9 4
5 3 8 -2 7 -21 -5 -36 0 -30 9 3 5 0 13 -6 17 -8 4 -9 3 -5 -4 5 -8 2 -10 -8
-6 -9 3 -16 1 -16 -6 0 -6 4 -9 9 -5 5 3 13 0 17 -6 4 -8 3 -9 -5 -5 -6 4 -10
4 -9 -1 2 -4 -5 -19 -15 -33 -9 -13 -17 -19 -17 -13 0 6 7 18 15 27 9 9 11 17
5 21 -5 3 -15 -3 -22 -15 -7 -11 -17 -20 -22 -20 -5 0 1 11 13 24 12 13 21 30
19 37 -2 9 4 13 16 11 17 -3 18 -2 6 13 -10 12 -10 19 -2 27 17 17 15 28 -5
28 -17 1 -17 1 0 11 13 8 15 14 7 23 -8 10 -4 13 16 10 31 -3 39 -10 25 -19
-6 -3 -11 0 -11 7 0 9 -3 9 -10 -2 -12 -19 -13 -33 -1 -26 4 3 7 -6 5 -19 -1
-14 2 -23 6 -20 5 3 7 13 4 23 -4 11 2 8 15 -8 16 -19 20 -20 14 -6 -5 15 -3
17 8 11 8 -5 11 -5 6 1 -5 5 -14 9 -19 9 -6 0 -13 6 -16 13 -2 8 3 10 15 6 10
-3 14 -2 8 3 -17 14 -17 36 0 29 10 -3 14 -2 10 5 -4 6 -13 8 -21 5 -7 -3 -16
-1 -19 4 -3 5 -13 7 -23 4 -13 -5 -14 -4 -3 4 11 8 10 12 -5 21 -17 11 -16 11
6 5 20 -5 23 -4 13 7 -21 22 -14 30 7 9 22 -22 50 -17 49 9 0 10 -2 11 -6 3
-2 -6 -9 -9 -14 -6 -6 3 -5 12 3 22 10 12 10 14 1 8 -8 -4 -13 -2 -13 8 0 8
-8 17 -19 21 -28 9 -24 70 5 70 11 0 21 -5 21 -12 0 -6 -6 -9 -13 -6 -6 2 -15
-1 -19 -8 -5 -7 -3 -10 6 -7 8 3 22 1 32 -4 16 -8 17 -7 8 10 -6 11 -7 22 -4
26 4 4 8 13 9 22 2 13 0 13 -14 2 -14 -11 -15 -10 -9 5 4 10 7 21 7 23 0 3 3
3 8 1 4 -3 7 93 7 213 0 189 -2 217 -15 213 -10 -3 -8 1 4 11 11 9 17 19 13
22 -4 4 -14 1 -23 -7 -16 -13 -16 -12 -4 8 8 12 16 20 20 18 3 -2 5 44 6 101
0 57 -2 104 -5 104 -4 0 -12 10 -20 23 -13 21 -13 21 5 5 19 -16 20 -16 20 2
0 10 -4 16 -8 14 -4 -3 -8 0 -8 5 0 6 3 11 8 11 4 0 7 85 7 189 0 104 -3 187
-7 185 -5 -3 -8 -1 -8 5 0 5 6 12 13 14 9 4 9 6 0 6 -6 1 -15 -3 -18 -9 -8
-13 -25 -13 -25 1 0 5 5 7 10 4 6 -3 10 5 10 19 0 20 4 24 18 20 9 -3 5 3 -10
12 -26 18 -41 43 -16 28 7 -5 8 -3 3 5 -5 10 -10 10 -19 1 -8 -8 -6 -15 8 -25
18 -14 18 -14 -1 -12 -15 1 -20 8 -19 27 1 14 5 31 10 39 7 11 5 13 -6 8 -11
-4 -15 0 -13 11 1 9 -3 21 -9 25 -6 5 0 6 14 3 14 -3 19 -3 12 0 -6 3 -9 11
-6 16 4 7 2 8 -4 4 -17 -10 -32 2 -26 19 4 8 10 12 15 9 5 -3 9 0 9 5 0 15
-13 14 -29 -1 -11 -11 -12 -9 -6 11 5 18 4 22 -5 16 -9 -5 -11 -4 -6 3 4 7 2
12 -4 12 -10 0 -35 48 -32 63 1 4 -3 7 -9 7 -6 0 -9 8 -7 18 3 11 0 19 -8 19
-7 0 -10 -5 -7 -10 4 -6 1 -7 -6 -3 -7 5 -10 14 -7 22 3 8 0 13 -7 11 -7 -1
-11 6 -11 15 1 9 -4 15 -10 12 -6 -2 -23 6 -38 18 -61 52 -69 58 -77 58 -4 0
-20 11 -35 25 -14 13 -29 23 -31 22 -3 -1 -29 20 -60 46 -47 42 -53 51 -43 67
16 25 31 14 17 -12 -9 -16 -8 -19 2 -13 8 6 10 4 4 -5 -5 -8 -4 -11 3 -6 6 4
8 14 5 23 -5 12 -3 14 8 8 12 -7 12 -6 1 7 -10 12 -10 17 -1 20 8 3 10 11 6
22 -4 9 -12 14 -18 10 -8 -5 -8 -9 1 -14 9 -5 9 -9 1 -14 -6 -4 -11 -1 -11 6
0 7 -7 2 -16 -10 -8 -12 -20 -22 -26 -22 -7 0 -3 7 8 16 15 12 15 15 2 10 -19
-6 -33 20 -16 30 7 5 8 3 3 -5 -5 -9 0 -12 16 -9 13 1 29 14 36 28 9 18 13 20
13 8 0 -23 15 -23 39 1 18 18 18 18 30 -1 11 -18 31 -17 31 3 0 6 -4 8 -9 4
-5 -3 -12 -1 -15 4 -7 10 20 9 30 -2 12 -12 26 -8 18 6 -6 9 -5 9 8 -1 12 -10
18 -9 28 3 9 11 16 12 25 5 6 -5 14 -7 18 -4 3 3 14 1 26 -5 13 -8 22 -8 26
-1 4 6 11 8 16 5 5 -4 9 -1 9 4 0 6 -5 11 -12 11 -6 0 -8 3 -5 6 4 4 13 1 22
-6 9 -8 15 -8 15 -2 0 6 -4 14 -10 17 -5 3 -10 12 -10 18 0 9 2 9 8 0 6 -10
12 -10 28 2 17 13 17 14 2 15 -10 0 -18 5 -18 10 0 7 6 7 18 1 10 -5 24 -6 33
0 13 7 16 4 15 -13 0 -12 -8 -24 -16 -26 -13 -5 -13 -3 -1 11 16 21 5 23 -15
3 -11 -11 -11 -16 -1 -20 6 -3 1 -3 -12 0 -17 5 -21 3 -16 -6 5 -8 -1 -19 -15
-30 -22 -17 -21 -40 3 -40 7 0 6 4 -3 10 -8 5 -11 12 -7 16 3 4 13 1 22 -6 10
-8 15 -9 15 -1 0 6 -5 11 -11 11 -5 0 -7 5 -4 10 5 7 11 8 19 1 7 -6 17 -6 26
-1 10 7 11 10 3 10 -7 0 -13 5 -13 10 0 6 8 10 17 8 13 -2 17 4 18 22 0 14 7
31 15 38 13 10 12 11 -4 5 -13 -4 -17 -3 -12 5 4 7 2 12 -4 12 -6 0 -8 5 -5
10 4 7 14 6 28 -1 12 -6 7 1 -11 16 -31 26 -32 28 -15 42 10 8 13 12 6 9 -6
-4 -14 0 -16 6 -6 14 -7 10 -11 -44 -2 -15 0 -25 3 -23 4 2 7 -4 8 -14 2 -22
-33 -25 -41 -4 -5 13 -4 14 9 3 13 -11 15 -10 12 6 -1 11 -6 25 -11 33 -5 8
-4 16 4 21 9 5 9 9 1 14 -6 4 -11 16 -11 27 0 11 -7 31 -16 44 -9 14 -12 25
-8 26 30 1 -100 41 -148 45 -32 2 -85 6 -119 9 -81 6 -123 -12 -146 -62 -10
-21 -21 -39 -25 -41 -5 -2 -8 -10 -8 -17 0 -8 -12 -23 -26 -34 -28 -22 -50
-28 -39 -11 3 6 -1 13 -9 16 -9 3 -16 10 -16 16 0 5 -22 42 -49 82 -35 51 -47
76 -39 84 7 7 5 10 -8 9 -11 -1 -20 7 -25 23 -4 14 -7 21 -8 16 -1 -6 -12 6
-26 24 -16 21 -21 36 -14 39 6 2 0 9 -13 15 -14 8 -22 19 -20 30 3 13 -1 17
-11 13 -9 -3 -18 1 -21 9 -3 9 -1 12 4 9 6 -3 10 -1 10 4 0 6 -7 11 -15 11
-17 0 -38 34 -27 45 4 3 3 6 -3 5 -21 -5 -29 1 -15 10 13 8 13 10 -2 10 -9 0
-27 15 -39 33 -13 17 -28 35 -34 39 -6 5 -4 8 5 8 9 0 5 5 -9 13 -13 6 -29 20
-35 30 -13 22 -74 85 -84 88 -4 0 -6 6 -4 12 2 7 0 9 -3 5 -4 -4 -28 3 -54 16
-102 52 -182 66 -406 71 -93 2 -305 7 -470 10 -165 4 -326 8 -358 9 -32 1 -59
1 -60 0z m-169 -116 c-6 -16 -21 -14 -24 4 -1 11 3 15 12 11 8 -3 13 -10 12
-15z m380 4 c5 -15 -10 -16 -26 0 -9 9 -12 9 -12 0 0 -7 5 -12 11 -12 5 0 7
-5 3 -11 -4 -8 -12 -3 -20 12 -7 13 -13 19 -14 12 0 -12 -24 -12 -36 0 -4 4
-12 7 -18 7 -5 0 -2 -6 8 -13 16 -12 16 -14 2 -14 -9 0 -16 3 -16 7 0 4 -7 7
-15 7 -8 0 -12 -5 -8 -10 3 -5 -4 -4 -15 2 -14 7 -23 8 -27 1 -3 -6 1 -13 9
-16 9 -3 13 -11 9 -18 -3 -6 3 -3 14 7 26 23 32 22 27 -5 -4 -21 -4 -22 5 -3
7 14 10 15 10 5 1 -13 2 -13 11 0 9 13 13 11 31 -10 l21 -25 -17 28 c-9 16
-15 30 -13 32 5 6 39 -23 38 -31 -1 -5 3 -9 10 -10 7 -2 7 -1 0 3 -8 3 -7 9 1
19 17 21 28 17 23 -8 l-5 -23 10 23 c12 26 26 30 16 5 -5 -15 -4 -16 7 -5 10
10 16 8 31 -10 l19 -23 -16 28 c-9 15 -15 31 -12 36 3 4 -1 8 -9 8 -8 0 -11
-5 -8 -10 3 -6 1 -7 -5 -3 -17 11 -15 29 3 22 8 -3 15 -1 15 5 0 6 5 7 10 4 6
-4 9 -14 8 -23 -2 -10 3 -16 11 -14 8 2 11 -3 8 -11 -3 -8 3 -13 15 -14 15 -2
18 3 13 18 -6 18 -5 19 14 8 15 -10 17 -16 9 -26 -6 -8 -8 -16 -4 -20 3 -3 6
-1 6 6 0 8 6 9 18 3 9 -4 24 -8 32 -7 8 1 21 -4 29 -9 11 -8 13 -8 7 2 -4 7
-1 15 8 18 9 3 13 10 10 15 -8 14 4 11 31 -7 14 -9 23 -20 20 -24 -3 -5 -1
-11 4 -14 11 -7 9 13 -2 32 -10 15 -2 15 25 1 20 -11 20 -11 2 20 -14 23 -21
28 -31 19 -7 -5 -10 -14 -7 -19 3 -5 1 -9 -5 -9 -18 0 -23 20 -7 26 9 3 14 9
11 13 -2 5 8 7 23 6 15 0 27 -5 27 -11 1 -5 6 -19 13 -31 7 -13 10 -23 6 -23
-4 0 -4 -3 -1 -7 4 -3 18 4 32 17 25 23 37 16 13 -8 -9 -9 -9 -12 0 -12 7 0
12 4 12 10 0 5 7 7 15 4 8 -4 17 1 21 10 3 9 12 16 20 16 19 0 18 -16 -1 -24
-8 -3 -15 -10 -15 -16 0 -11 24 10 48 42 12 14 10 16 -15 12 -28 -5 -87 -6
-122 -2 -10 1 -17 8 -14 14 5 13 27 13 39 1 12 -11 26 -8 18 4 -4 7 1 7 16 -1
15 -8 25 -9 33 -1 5 5 17 7 26 2 9 -4 51 -7 93 -6 63 1 75 -1 66 -12 -15 -19
2 -16 24 4 18 16 18 16 12 -3 -6 -15 -5 -17 7 -8 8 6 22 11 31 11 19 0 32 -23
19 -32 -5 -3 -11 2 -15 10 -3 8 -11 15 -18 15 -10 0 -10 -2 1 -9 9 -6 10 -11
2 -15 -6 -4 -11 -3 -11 3 0 10 -31 7 -50 -4 -9 -6 -14 8 -11 28 0 4 -4 7 -10
7 -6 0 -8 -7 -5 -17 4 -10 4 -14 0 -11 -4 4 -15 3 -25 -2 -12 -7 -20 -7 -24 0
-4 6 -11 8 -16 5 -5 -3 -6 1 -3 9 3 9 1 16 -6 16 -6 0 -8 -5 -4 -12 4 -6 3 -8
-3 -5 -6 4 -17 -1 -24 -11 -13 -15 -12 -16 4 -3 19 15 24 2 5 -17 -9 -9 -9
-12 0 -12 7 0 12 4 12 10 0 11 28 9 49 -4 9 -6 12 -5 8 1 -12 19 20 22 44 6
12 -9 19 -12 16 -6 -4 6 9 10 33 10 26 0 37 -4 33 -11 -4 -6 1 -5 10 3 15 12
20 11 37 -4 11 -10 23 -15 27 -12 3 4 0 7 -8 7 -12 0 -11 2 1 10 13 8 13 11 1
22 -8 7 -11 8 -8 2 3 -6 0 -11 -8 -11 -18 0 -28 24 -14 33 6 3 19 -2 30 -12
17 -15 19 -16 14 -2 -5 13 -1 16 17 14 13 -1 28 -5 33 -7 6 -3 27 -4 47 -3 21
1 35 -2 33 -7 -3 -4 -1 -10 5 -14 5 -3 10 -1 10 4 0 9 37 9 48 0 4 -3 22 -6
44 -8 12 0 18 -4 14 -8 -11 -11 -36 -12 -36 -1 0 6 -7 4 -17 -3 -14 -12 -16
-12 -8 0 6 10 4 12 -5 6 -8 -5 -11 -4 -7 2 3 5 0 10 -8 10 -13 0 -13 -3 0 -17
8 -9 15 -22 15 -28 0 -6 4 -13 9 -16 5 -4 7 3 4 14 -3 12 0 20 6 20 7 0 9 -5
5 -12 -5 -7 -3 -8 7 -2 8 4 19 9 24 10 6 1 17 3 25 5 9 3 14 -3 14 -13 -1 -10
2 -15 7 -12 5 3 9 0 9 -6 0 -6 5 -8 12 -4 9 6 9 9 0 12 -7 2 -12 8 -12 13 0 5
11 2 25 -7 18 -12 24 -23 21 -40 -3 -13 0 -24 6 -24 5 0 8 7 5 15 -4 8 -2 17
3 20 10 6 15 -9 10 -30 -1 -5 2 -7 6 -3 12 12 33 -12 27 -29 -4 -10 -2 -14 4
-10 7 4 25 -17 44 -50 17 -32 40 -73 51 -90 46 -82 57 -103 95 -173 23 -41 57
-106 77 -144 l36 -69 -158 7 c-86 4 -193 8 -237 11 -44 2 -154 7 -245 10 -91
3 -196 8 -235 10 -114 6 -660 18 -795 18 -192 -1 -748 -16 -1010 -28 -524 -23
-548 -24 -554 -8 -3 8 -1 11 4 8 6 -3 10 -1 10 5 0 6 5 8 10 5 6 -4 7 -11 4
-17 -4 -7 -2 -8 5 -4 9 6 9 11 0 22 -6 8 -9 18 -5 21 4 4 11 1 16 -7 7 -11 10
-11 10 -2 0 7 -7 15 -15 18 -8 4 -13 10 -10 15 3 4 12 6 20 2 8 -3 15 0 15 6
0 6 8 8 17 4 16 -6 16 -5 -1 12 -12 12 -14 21 -7 23 6 2 11 10 11 18 0 7 6 11
14 8 18 -7 30 12 15 22 -8 4 -9 3 -5 -4 4 -7 3 -12 -3 -12 -23 0 -18 41 5 42
29 1 33 11 13 29 -25 22 -33 24 -23 7 5 -7 3 -8 -6 -3 -9 6 -11 4 -5 -6 5 -8
-1 -6 -13 4 -17 16 -20 16 -18 3 1 -8 5 -18 9 -22 3 -4 2 -16 -4 -27 -9 -15
-8 -18 3 -12 7 3 5 0 -5 -8 -12 -10 -14 -17 -8 -22 6 -3 11 -1 11 6 0 7 3 9 6
6 4 -4 1 -13 -6 -22 -9 -11 -17 -12 -31 -4 -11 5 -17 14 -14 19 3 5 1 12 -5
15 -8 5 -7 11 1 21 9 11 15 11 25 3 11 -9 14 -9 14 0 0 6 -7 14 -16 18 -9 3
-12 9 -7 12 4 3 13 15 20 26 6 11 16 19 22 18 6 -2 11 2 11 7 0 6 -6 10 -12
10 -9 0 -8 4 2 10 8 5 11 10 5 10 -5 0 -1 7 10 16 11 8 18 17 17 20 -8 11 80
164 90 158 7 -4 8 -2 4 4 -9 16 36 83 52 77 7 -3 10 -1 7 4 -8 14 53 58 105
76 48 17 67 13 27 -6 -15 -7 -24 -16 -21 -20 3 -5 0 -9 -7 -9 -7 0 -5 -8 6
-20 10 -11 13 -20 7 -20 -7 0 -17 9 -24 20 -7 11 -17 20 -22 20 -4 0 -3 -6 3
-14 9 -11 6 -22 -14 -51 -14 -21 -25 -43 -24 -49 0 -6 8 4 17 22 9 18 21 31
27 28 6 -2 19 2 30 10 15 11 21 11 28 1 6 -8 7 -7 3 5 -4 14 0 16 25 13 16 -2
27 0 24 5 -3 5 -13 9 -23 9 -57 2 -63 8 -36 35 20 20 31 20 31 1 0 -9 -6 -14
-14 -11 -8 4 -11 1 -8 -5 4 -6 14 -8 22 -5 9 4 23 1 31 -6 10 -8 13 -9 9 -2
-4 7 0 15 8 18 9 3 18 0 21 -8 3 -7 12 -13 21 -13 14 0 14 2 -1 13 -11 8 -13
14 -7 19 11 6 44 -19 36 -27 -3 -3 2 -5 10 -5 10 0 12 4 5 12 -5 7 -7 15 -3
18 3 4 12 -1 20 -11 12 -16 13 -16 6 2 -5 14 -3 17 7 11 18 -11 61 -15 55 -5
-3 4 3 14 12 21 14 12 15 11 9 -11 -4 -14 -4 -20 1 -15 10 13 47 19 39 7 -3
-5 1 -9 9 -9 8 0 13 3 11 6 -6 9 17 26 39 29 18 2 17 0 -5 -18 -14 -12 -18
-18 -10 -14 8 4 22 13 32 21 14 13 18 12 28 -4 9 -15 11 -15 6 -1 -2 9 2 22 9
28 12 10 14 7 10 -19 -2 -17 0 -33 5 -36 5 -3 7 6 4 20 -4 25 -4 25 20 10 23
-15 25 -15 35 2 6 10 11 12 11 6 0 -19 17 -16 40 7 11 11 21 18 21 15 1 -3 2
-11 3 -17 1 -12 16 -13 56 -4 8 2 19 -2 23 -8 5 -6 5 0 2 12 -7 23 -7 24 20 6
14 -9 25 -13 24 -8 -4 21 2 28 11 14 6 -10 10 -11 10 -2 0 6 5 12 10 12 6 0 9
-3 9 -7 -4 -27 2 -33 21 -23 11 6 25 8 30 5 11 -7 32 30 22 40 -4 4 0 6 8 3
19 -6 20 -30 0 -45 -8 -7 -10 -13 -4 -13 6 0 17 7 24 15 7 8 17 15 22 15 6 0
5 -7 -2 -15 -9 -10 -9 -15 -1 -15 6 0 11 5 11 11 0 6 6 9 13 6 6 -2 11 -10 9
-16 -1 -7 2 -10 8 -6 8 5 8 11 1 19 -6 7 -8 16 -5 19 4 3 15 -4 25 -16 16 -19
18 -19 12 -3 -4 13 -3 17 5 12 7 -4 12 -2 12 4 0 7 -7 10 -15 7 -8 -4 -17 -2
-20 2 -3 5 1 11 8 14 15 6 50 -17 40 -26 -3 -4 -1 -7 6 -7 7 0 10 7 7 18 -7
22 8 47 23 38 6 -4 11 -4 11 1 0 4 75 8 167 8 124 0 167 -3 171 -13z m150 4
c17 1 32 -2 32 -7 0 -5 5 -9 11 -9 5 0 8 3 6 8 -3 4 10 8 29 8 22 1 33 -3 31
-10 -2 -6 -12 -10 -22 -8 -9 2 -15 -1 -12 -5 8 -13 -9 -36 -27 -39 -9 -1 -16
4 -16 12 0 8 6 14 13 12 6 -2 13 2 14 7 1 6 -9 9 -23 9 -13 -1 -22 2 -20 5 2
3 -8 7 -22 8 l-27 1 28 -14 c28 -15 39 -48 12 -38 -8 4 -13 10 -10 14 6 10
-41 41 -49 33 -4 -4 -13 -8 -22 -9 -11 -2 -12 1 -5 10 6 7 8 16 4 20 -4 4 4 3
17 -1 14 -5 40 -8 58 -7z m-922 -16 c5 1 19 6 30 10 13 5 26 4 33 -3 6 -6 11
-7 11 -1 0 6 11 10 24 10 14 0 23 -3 20 -7 -2 -4 3 -9 11 -12 8 -4 12 -1 9 7
-3 9 18 12 86 12 49 0 90 -3 90 -8 0 -4 -3 -7 -7 -7 -5 1 -15 1 -23 0 -13 -1
-13 -3 -1 -10 16 -10 53 8 45 21 -3 4 2 8 10 8 23 0 20 -13 -6 -30 -23 -15
-70 -22 -62 -9 6 11 -24 31 -36 24 -6 -3 -8 -11 -5 -16 4 -5 1 -9 -5 -9 -6 0
-8 -5 -4 -12 5 -9 2 -9 -9 1 -11 9 -17 10 -17 2 0 -6 -6 -11 -14 -11 -9 0 -13
7 -11 19 2 11 -3 22 -11 25 -7 3 -13 1 -11 -3 1 -5 -1 -8 -4 -7 -3 0 -13 -5
-22 -12 -17 -14 -41 -7 -32 9 4 5 3 9 0 9 -10 0 -35 -27 -30 -32 3 -3 -1 -5
-7 -5 -7 0 -22 -4 -32 -9 -13 -5 -17 -4 -13 3 4 6 0 16 -7 22 -11 10 -16 8
-24 -5 -9 -16 -10 -15 -16 4 -4 12 -12 22 -19 22 -8 0 -8 -3 1 -12 7 -7 12
-18 12 -26 0 -11 -3 -12 -14 -3 -11 10 -16 9 -23 -4 -8 -14 -12 -13 -34 9 -18
19 -27 22 -37 13 -17 -14 -44 -19 -36 -6 3 5 11 6 17 3 7 -4 9 -3 4 1 -11 13
-46 13 -44 1 1 -5 -2 -10 -8 -11 -5 0 -17 -5 -25 -10 -18 -11 -51 -14 -45 -4
11 17 -25 16 -41 -2 -10 -12 -24 -17 -33 -13 -28 11 -46 12 -58 2 -13 -11 -28
7 -18 22 4 7 13 7 25 0 16 -8 18 -7 14 4 -5 12 -22 14 -44 6 -3 -1 -9 -2 -13
-1 -5 1 -6 -3 -3 -8 7 -11 -14 -28 -34 -26 -8 0 -19 -4 -23 -10 -5 -6 -6 -2
-3 9 5 15 4 16 -7 8 -10 -9 -13 -5 -14 16 -1 15 1 21 4 13 4 -11 7 -11 14 0 5
8 30 13 73 13 42 0 62 4 58 11 -3 5 2 4 11 -4 9 -7 17 -9 17 -3 0 6 19 9 45 7
25 -1 48 2 51 7 3 5 15 1 27 -9 15 -14 19 -14 15 -3 -5 13 10 15 94 15 55 0
102 4 105 9 3 4 9 3 13 -4 4 -6 11 -11 16 -10z m1079 -20 c3 -6 -1 -7 -9 -4
-18 7 -21 14 -7 14 6 0 13 -4 16 -10z m69 -11 c-8 -13 -21 -11 -27 5 -4 10 0
12 14 9 10 -3 16 -9 13 -14z m56 1 c0 -5 -5 -10 -11 -10 -5 0 -7 5 -4 10 3 6
8 10 11 10 2 0 4 -4 4 -10z m-1810 -94 c0 -3 -4 -8 -10 -11 -5 -3 -10 -1 -10
4 0 6 5 11 10 11 6 0 10 -2 10 -4z m-265 -356 c3 6 11 8 16 4 5 -3 7 -10 3
-15 -3 -5 -9 -7 -14 -4 -5 3 -14 -3 -20 -12 -9 -14 -10 -15 -7 -2 3 9 0 23 -6
30 -10 11 -9 11 5 1 11 -9 18 -10 23 -2z m-92 -90 c2 -13 10 -26 17 -28 7 -3
10 0 6 7 -4 6 -2 11 3 11 6 0 11 -6 11 -12 0 -9 4 -8 11 2 7 10 9 11 7 2 -2
-8 -8 -14 -13 -14 -15 0 -35 -19 -30 -28 2 -4 -7 -16 -20 -28 l-24 -21 5 36
c4 33 3 35 -13 22 -17 -13 -17 -13 0 7 9 11 14 24 10 29 -5 4 -3 5 4 1 6 -3
14 -2 18 4 3 5 2 10 -4 10 -6 0 -8 7 -4 15 7 20 12 15 16 -15z m-46 -82 c-2
-7 -1 -20 3 -28 6 -11 2 -15 -18 -17 -22 -1 -23 0 -9 9 10 5 15 13 12 19 -4 5
-3 14 0 19 9 14 18 12 12 -2z m3888 -186 c-3 -3 -11 0 -18 7 -9 10 -8 11 6 5
10 -3 15 -9 12 -12z m-265 -12 c0 -5 -5 -10 -11 -10 -5 0 -7 5 -4 10 3 6 8 10
11 10 2 0 4 -4 4 -10z m-4029 -23 c-10 -9 -11 -8 -5 6 3 10 9 15 12 12 3 -3 0
-11 -7 -18z m3975 1 c-10 -6 -22 -6 -26 -2 -5 5 3 10 18 11 22 1 24 0 8 -9z
m-3952 -439 c4 6 2 11 -3 11 -6 0 -11 5 -11 11 0 8 4 9 13 0 8 -6 17 -7 21 -3
4 4 6 1 4 -7 -1 -7 3 -16 11 -19 8 -3 11 0 7 7 -4 6 -2 11 3 11 6 0 11 -5 11
-11 0 -5 5 -7 10 -4 16 10 11 -1 -7 -16 -9 -8 -14 -9 -10 -3 7 12 -22 12 -42
-1 -10 -6 -12 -4 -6 5 5 9 4 11 -3 6 -13 -8 5 -46 21 -46 4 0 6 4 2 9 -10 16
15 23 32 9 12 -9 15 -9 9 0 -4 6 -3 12 2 12 6 0 12 -7 16 -15 6 -16 36 -10 36
7 0 7 -5 6 -14 -1 -10 -9 -15 -8 -19 3 -4 9 -2 18 2 20 10 7 61 -16 61 -27 0
-5 -5 -5 -11 -1 -6 3 -4 -5 5 -18 9 -14 14 -27 10 -30 -3 -3 1 -9 8 -14 7 -4
10 -4 6 1 -4 4 0 14 10 22 14 11 14 12 1 7 -10 -3 -19 1 -22 10 -4 9 -2 16 3
16 6 0 10 -4 10 -8 0 -5 7 -9 14 -9 8 0 31 -11 50 -24 27 -18 34 -29 30 -44
l-6 -20 16 20 c16 19 16 19 12 -8 -3 -16 -1 -25 5 -22 5 4 7 11 4 16 -9 14 17
10 38 -5 9 -7 17 -18 17 -25 0 -6 5 -11 11 -11 5 0 7 5 3 11 -3 6 5 3 20 -6
32 -21 34 -30 4 -15 -21 10 -22 10 -5 -4 11 -8 25 -12 33 -9 8 3 14 1 14 -5 0
-6 -5 -12 -10 -14 -6 -2 -1 -9 9 -15 15 -9 22 -10 27 -1 4 6 3 8 -4 4 -6 -3
-13 -2 -17 4 -3 5 1 10 9 10 23 0 29 -20 12 -39 -14 -15 -14 -18 -1 -18 8 0
13 3 10 5 -3 3 0 11 6 18 8 10 17 7 41 -14 56 -48 97 -95 92 -104 -3 -4 -1 -8
5 -8 5 0 9 -14 8 -32 -3 -50 -48 -75 -153 -83 -121 -10 -360 7 -349 25 3 5 -3
6 -13 3 -23 -6 -132 25 -132 38 0 5 -5 9 -11 9 -18 0 -70 41 -64 51 4 5 0 9
-7 9 -7 0 -19 9 -25 19 -9 15 -9 23 3 37 14 18 14 17 4 -6 -11 -24 -10 -24 5
-5 15 18 13 21 -21 50 -30 26 -33 31 -16 31 11 0 18 -4 16 -8 -3 -4 3 -5 12
-1 11 4 15 2 11 -4 -4 -6 3 -19 16 -29 l22 -19 -19 23 c-11 12 -16 22 -11 22
4 0 2 6 -4 13 -6 8 -7 17 -3 22 4 4 -3 3 -15 -4 -15 -7 -24 -8 -28 -1 -4 6
-10 8 -14 6 -4 -3 -8 1 -8 9 0 8 5 11 10 8 5 -3 7 0 5 8 -3 8 -11 13 -17 11
-7 -1 -10 2 -6 8 4 6 12 5 25 -2 10 -7 17 -15 14 -19 -11 -19 16 -16 32 4 12
13 13 17 3 9 -9 -6 -19 -9 -23 -5 -4 4 4 13 16 20 13 7 17 12 10 13 -7 0 -11
4 -7 10 3 5 13 7 23 4 9 -3 7 1 -6 8 -12 8 -20 17 -16 21 4 4 14 1 22 -6 11
-9 11 -4 -2 16 -10 15 -23 27 -28 27 -6 0 -6 -6 1 -14 8 -9 8 -16 2 -20 -6 -4
-8 -13 -4 -22 3 -9 0 -14 -7 -12 -7 2 -15 -4 -17 -12 -4 -12 -3 -12 5 -1 6 8
12 9 16 3 3 -5 -1 -12 -9 -16 -21 -8 -28 10 -13 34 11 17 11 22 -2 31 -11 8
-9 9 10 3 22 -6 23 -5 11 10 -7 9 -12 17 -10 17 19 6 58 6 55 0 -3 -4 0 -13 6
-21 8 -12 9 -12 4 2 -3 10 -1 20 4 23 6 4 10 1 10 -4 0 -6 5 -11 10 -11 6 0 9
6 8 13 -2 6 3 11 11 9 11 -2 12 0 3 11 -7 8 -8 18 -4 22 4 5 2 6 -3 2 -13 -7
-17 30 -4 38 5 3 6 0 4 -7 -4 -9 2 -14 15 -15 19 -2 19 0 4 25 l-16 27 19 -24
c14 -16 22 -20 27 -12z m4026 27 c0 -3 -4 -8 -10 -11 -5 -3 -10 -1 -10 4 0 6
5 11 10 11 6 0 10 -2 10 -4z m53 -36 c7 0 7 4 -1 12 -7 7 -12 17 -12 23 0 5 7
2 15 -9 7 -10 17 -16 22 -13 4 3 16 -1 26 -8 12 -8 14 -15 8 -20 -6 -3 -11 -1
-11 5 0 6 -5 8 -11 4 -8 -4 -7 -9 2 -16 11 -8 11 -9 -1 -5 -8 2 -14 10 -12 16
1 6 -2 11 -8 11 -5 0 -10 -5 -10 -12 0 -6 -8 -4 -19 6 -12 11 -21 14 -26 7 -3
-6 1 -11 9 -11 8 0 20 -8 25 -17 7 -12 10 -14 11 -4 0 11 3 11 15 1 12 -10 19
-10 27 -2 15 15 38 15 38 1 0 -6 7 -18 16 -26 9 -9 14 -26 11 -40 -2 -12 -1
-23 4 -23 4 0 6 -11 3 -25 -10 -57 -12 -71 -19 -100 -29 -116 -127 -199 -266
-225 -30 -6 -65 -13 -79 -16 -45 -10 -330 -14 -330 -4 0 5 -6 7 -14 4 -7 -3
-29 2 -47 11 -19 8 -26 13 -16 10 9 -2 17 0 17 5 0 17 18 11 22 -7 3 -15 5
-14 10 4 3 12 3 22 -1 21 -17 -2 -31 3 -31 11 0 6 9 8 20 6 11 -2 18 0 15 5
-9 14 -40 4 -39 -13 1 -8 -4 -14 -10 -13 -17 3 -53 25 -40 26 5 0 15 -5 22
-12 9 -9 12 -9 12 -1 0 7 -4 15 -10 18 -5 3 -10 11 -10 18 0 6 6 3 13 -8 10
-12 16 -14 21 -7 4 7 1 12 -6 12 -9 1 -8 3 3 10 9 5 14 21 13 39 -1 17 2 31 7
31 5 0 6 -12 2 -27 l-6 -28 31 29 c17 17 29 33 26 38 -3 4 -2 13 1 18 9 14 45
-7 45 -26 0 -8 -5 -12 -10 -9 -6 4 -8 10 -5 15 3 4 -2 10 -9 13 -10 4 -14 -1
-13 -14 1 -10 7 -19 14 -19 7 0 16 0 21 0 4 0 7 14 8 30 1 22 -3 29 -12 26 -7
-3 -16 0 -20 7 -4 7 -4 9 1 5 11 -10 47 11 40 22 -3 6 1 7 9 4 9 -3 16 -10 16
-16 0 -5 -4 -7 -9 -3 -5 3 -12 1 -16 -5 -3 -5 1 -10 10 -10 9 0 13 -5 10 -10
-4 -6 -12 -7 -18 -3 -9 5 -9 3 -1 -8 6 -8 14 -21 17 -29 5 -10 6 -9 5 5 0 11
4 31 9 45 6 14 8 32 6 40 -4 13 -3 13 5 1 6 -8 8 -21 5 -30 -4 -14 -3 -14 6
-1 10 13 15 8 12 -12 0 -4 6 -5 14 -2 12 5 11 9 -7 23 l-21 17 27 27 c30 30
46 37 25 10 -12 -15 -12 -16 4 -10 14 5 16 2 11 -17 -3 -13 -1 -27 4 -30 6 -4
8 3 5 16 -5 23 -5 23 11 3 17 -20 17 -20 7 2 -15 30 -14 38 4 23 13 -10 18
-11 28 -1 9 10 8 11 -8 5 -16 -6 -18 -5 -7 7 15 16 16 29 1 29 -5 0 -7 -4 -4
-10 3 -6 -1 -7 -9 -4 -10 4 -16 1 -16 -7 0 -7 -3 -9 -6 -6 -11 10 17 37 37 37
21 0 26 16 7 23 -10 4 -10 6 -1 6 7 1 17 -9 24 -20 6 -13 7 -19 1 -15 -12 7
-10 -20 3 -31 4 -4 5 -3 2 3 -8 14 18 38 32 29 7 -4 8 1 4 12 -6 16 -5 16 10
4 9 -7 14 -18 10 -24 -3 -6 -1 -7 6 -3 9 6 9 11 1 21 -7 9 -6 16 7 26 15 12
16 12 10 -6 -6 -16 -3 -14 15 6 27 31 51 41 67 28 7 -6 8 -5 2 2 -5 6 -7 19
-3 28 5 13 3 13 -12 -2 -10 -10 -25 -16 -33 -13 -9 4 -11 2 -7 -6 5 -7 2 -9
-9 -5 -12 4 -15 2 -11 -11 5 -14 4 -15 -5 -2 -8 11 -11 12 -11 2 0 -7 -5 -10
-12 -6 -7 5 -8 2 -3 -7 5 -8 4 -11 0 -6 -5 4 -19 -3 -33 -15 -13 -13 -23 -18
-21 -13 1 6 -1 18 -6 28 -4 10 -5 21 -1 24 3 4 6 -1 6 -11 0 -9 4 -15 10 -11
5 3 6 13 3 23 -5 14 -3 14 9 -2 10 -13 17 -15 22 -8 4 7 2 12 -3 12 -6 0 -11
5 -11 11 0 8 4 8 15 -1 11 -9 20 -8 42 8 15 10 35 17 43 14 13 -5 13 -3 1 11
-9 11 -10 17 -2 17 6 0 11 -5 11 -11 0 -5 4 -8 9 -4 6 3 15 -3 21 -12 10 -16
10 -16 5 3 -4 18 -1 21 17 19 13 -1 23 -3 23 -5 0 -1 12 -3 27 -4 14 -1 24 2
22 6 -3 4 -13 8 -22 8 -15 0 -15 2 -2 10 9 6 18 6 24 0 6 -6 14 -10 20 -10 5
0 1 6 -9 14 -13 9 -25 11 -36 5 -9 -4 -20 -5 -24 -1 -5 4 -6 3 -3 -3 4 -6 -8
-10 -28 -10 -19 0 -34 3 -34 8 0 7 23 11 47 8 6 -1 14 3 18 8 3 6 12 8 21 4 9
-3 14 0 12 8 -2 8 3 13 11 11 9 -2 11 3 7 15 -4 12 -1 11 10 -4 9 -13 21 -23
27 -23z m-4157 -19 c-3 -5 1 -12 10 -15 8 -3 13 -10 10 -15 -6 -10 -31 -9 -42
1 -3 4 -11 5 -17 4 -7 -2 -9 -1 -4 1 4 3 5 9 2 13 -3 5 0 12 6 16 7 4 9 3 6
-3 -4 -6 0 -16 8 -23 12 -10 14 -6 10 27 -4 29 -2 34 6 20 5 -9 8 -21 5 -26z
m4068 27 c-3 -4 -9 -8 -15 -8 -5 0 -9 4 -9 8 0 5 7 9 15 9 8 0 12 -4 9 -9z
m-74 -22 c0 -2 -7 -7 -16 -10 -8 -3 -12 -2 -9 4 6 10 25 14 25 6z m-4050 -12
c0 -8 -19 -13 -24 -6 -3 5 1 9 9 9 8 0 15 -2 15 -3z m3999 -36 c-12 -10 -26
-18 -33 -18 -6 1 1 7 16 16 19 10 26 20 22 32 -5 14 -4 15 5 2 8 -12 6 -19
-10 -32z m-4023 10 c5 -7 3 -8 -6 -3 -10 6 -12 4 -7 -8 4 -11 2 -14 -9 -10
-11 4 -12 9 -3 19 14 17 16 17 25 2z m-11 -68 c-3 -5 -14 -10 -23 -9 -14 0
-13 2 3 9 27 11 27 11 20 0z m3875 -4 c0 -2 -7 -7 -16 -10 -8 -3 -12 -2 -9 4
6 10 25 14 25 6z m19 -19 c-2 -1 -13 -9 -24 -17 -19 -14 -19 -14 -6 3 7 9 18
17 24 17 6 0 8 -1 6 -3z m-49 -22 c0 -2 -6 -5 -13 -8 -8 -3 -14 1 -14 8 0 7 6
11 14 8 7 -3 13 -6 13 -8z m-2640 -21 c0 -8 -19 -13 -24 -6 -3 5 1 9 9 9 8 0
15 -2 15 -3z m50 1 c0 -2 -12 -11 -26 -18 -16 -8 -22 -17 -16 -21 6 -3 25 6
44 21 25 20 28 22 14 5 -22 -26 -11 -30 16 -5 17 15 19 15 38 -2 11 -10 23
-15 27 -12 4 4 -2 14 -13 23 -17 13 -15 13 14 -1 24 -12 32 -13 32 -3 0 7 5 5
11 -5 8 -14 14 -16 25 -6 8 6 14 8 14 3 0 -5 5 -2 10 6 6 10 10 11 10 3 0 -7
5 -13 11 -13 6 0 8 7 5 18 -7 16 -6 16 9 1 14 -13 15 -21 6 -38 -7 -11 -17
-21 -23 -21 -7 0 -6 5 2 15 7 8 9 15 5 15 -4 0 -14 -8 -22 -17 -12 -15 -14
-15 -10 -2 3 9 -1 16 -9 16 -17 0 -18 -11 -1 -24 18 -15 58 -9 68 10 5 9 16
22 24 30 8 8 11 17 8 21 -4 3 -4 6 -1 6 3 0 13 -9 23 -20 17 -19 17 -19 -3
-15 -16 3 -20 0 -15 -13 4 -15 3 -15 -6 -2 -9 13 -11 13 -11 -1 0 -9 7 -19 15
-23 8 -3 14 -2 14 2 -3 17 2 32 9 31 4 -1 16 -1 27 0 19 1 18 3 -5 21 -24 19
-24 19 -2 13 12 -3 22 -9 22 -12 0 -4 7 -8 15 -8 8 0 15 5 15 11 0 6 5 4 10
-4 16 -26 77 -11 62 15 -3 6 6 0 20 -13 13 -12 28 -19 31 -15 10 10 8 25 -2
18 -5 -3 -12 -1 -15 4 -4 5 1 8 10 7 8 -1 19 -8 23 -15 5 -7 11 -12 15 -11 3
0 14 -4 24 -10 14 -8 12 -9 -10 -6 -16 3 -28 1 -28 -4 0 -11 41 -9 58 3 13 10
17 28 5 26 -21 -3 -33 2 -27 12 4 8 9 7 15 -2 5 -8 9 -10 9 -6 0 4 9 3 20 -3
15 -8 20 -8 20 2 0 8 5 5 11 -5 8 -14 14 -16 25 -6 8 6 14 8 14 3 0 -5 5 -2
10 6 6 10 10 11 10 3 0 -7 5 -13 11 -13 6 0 8 7 5 18 -7 16 -6 16 9 1 14 -13
15 -21 6 -38 -7 -11 -17 -21 -23 -21 -7 0 -6 5 2 15 7 8 9 15 5 15 -4 0 -14
-8 -22 -17 -12 -15 -14 -15 -10 -2 3 9 -1 16 -9 16 -17 0 -18 -11 -1 -24 18
-15 58 -9 68 10 5 9 16 22 24 30 8 8 11 17 8 21 -4 3 -4 6 -1 6 3 0 13 -9 23
-20 17 -19 17 -19 -3 -15 -16 3 -20 0 -15 -13 4 -15 3 -15 -6 -2 -9 13 -11 13
-11 -1 0 -9 7 -19 15 -23 8 -3 14 -2 14 2 -3 17 2 32 9 31 4 -1 16 -1 27 0 19
1 18 3 -5 21 -24 19 -24 19 -2 13 12 -3 22 -9 22 -12 0 -4 7 -8 15 -8 8 0 15
5 15 11 0 6 5 4 10 -4 16 -26 77 -11 62 15 -3 6 6 0 20 -13 13 -12 28 -19 31
-15 10 10 8 25 -2 18 -5 -3 -12 -1 -15 4 -4 5 1 8 10 7 8 -1 19 -8 23 -15 5
-7 11 -12 15 -11 3 0 14 -4 24 -10 14 -8 12 -9 -10 -6 -16 3 -28 1 -28 -4 0
-11 41 -9 58 3 13 10 17 28 5 26 -21 -3 -33 2 -27 12 4 8 9 7 15 -2 5 -8 9
-10 9 -6 0 4 9 3 20 -3 15 -8 20 -8 20 2 0 8 5 5 11 -5 8 -14 14 -16 25 -6 8
6 14 8 14 3 0 -5 5 -2 10 6 6 10 10 11 10 3 0 -7 5 -13 11 -13 6 0 8 7 5 18
-7 16 -6 16 9 1 14 -13 15 -21 6 -38 -7 -11 -17 -21 -23 -21 -7 0 -6 5 2 15 7
8 9 15 5 15 -4 0 -14 -8 -22 -17 -12 -15 -14 -15 -10 -2 3 9 -1 16 -9 16 -17
0 -18 -11 -1 -24 18 -15 58 -9 68 10 5 9 16 22 24 30 8 8 11 17 8 21 -4 3 -4
6 -1 6 3 0 13 -9 23 -20 17 -19 17 -19 -3 -15 -16 3 -20 0 -15 -13 4 -15 3
-15 -6 -2 -9 13 -11 13 -11 -1 0 -9 7 -19 15 -23 8 -3 14 -2 14 2 -3 17 2 32
9 31 4 -1 16 -1 27 0 19 1 18 3 -5 21 -24 19 -24 19 -2 13 12 -3 22 -9 22 -12
0 -4 7 -8 15 -8 8 0 15 5 15 11 0 6 5 4 10 -4 16 -26 78 -11 62 15 -3 6 9 -2
27 -18 32 -27 63 -29 38 -3 -6 8 -15 12 -19 10 -4 -2 -9 0 -12 5 -8 13 22 7
36 -7 9 -9 16 -8 30 5 11 10 18 11 18 5 0 -7 -5 -12 -11 -12 -5 0 -7 -5 -4
-10 4 -6 11 -8 16 -5 5 4 14 -5 21 -19 8 -18 15 -23 23 -16 7 5 14 8 17 5 2
-3 5 2 5 10 0 8 -5 11 -10 8 -6 -3 -7 -1 -3 5 4 7 -1 10 -13 7 -11 -2 -22 3
-25 11 -4 12 -2 12 14 4 15 -8 20 -8 20 2 0 8 5 5 11 -5 9 -15 13 -16 27 -5
12 10 14 10 8 1 -4 -8 -2 -13 4 -13 6 0 8 -5 4 -11 -5 -8 -9 -8 -14 1 -4 7 -7
1 -7 -15 0 -15 2 -23 6 -18 8 11 22 10 41 -2 13 -8 13 -7 0 10 -8 10 -15 25
-15 34 0 9 -4 23 -10 31 -8 13 -7 13 8 1 13 -11 17 -11 17 -1 0 8 3 10 6 7 4
-4 1 -13 -6 -22 -8 -10 -9 -15 -1 -15 6 0 10 -6 9 -12 -2 -8 5 -12 17 -10 11
2 28 3 38 3 9 0 17 4 17 8 0 4 -11 7 -25 7 -14 0 -25 -4 -25 -8 0 -4 -4 -8 -8
-8 -16 0 -9 30 11 47 11 10 17 13 14 6 -4 -6 -3 -14 3 -18 5 -3 10 0 10 7 0 7
8 1 18 -14 19 -32 25 -34 42 -12 8 8 9 14 4 13 -20 -4 -32 2 -38 18 -6 14 -3
14 15 -3 22 -19 22 -19 16 1 -6 17 -5 18 6 5 16 -19 37 -24 37 -8 0 8 5 6 11
-4 5 -9 16 -15 24 -12 8 4 13 10 10 14 -3 5 0 12 6 16 7 4 9 3 6 -3 -4 -6 1
-17 10 -24 20 -17 16 -18 44 6 18 15 20 15 10 3 -15 -21 -2 -24 18 -5 11 10
13 10 7 0 -4 -7 -3 -13 3 -13 13 0 6 -58 -12 -100 -40 -92 -178 -234 -275
-284 -78 -40 -223 -50 -747 -50 -415 0 -653 8 -668 23 -5 5 -16 7 -24 4 -21
-8 -105 27 -99 42 3 8 -2 11 -13 8 -15 -4 -56 29 -56 46 0 3 -4 5 -9 3 -13 -4
-56 39 -56 57 0 14 -1 14 -10 1 -8 -13 -10 -13 -10 2 0 9 6 19 13 22 6 3 2 3
-10 0 -17 -4 -23 -1 -23 10 0 9 5 16 11 16 5 0 7 5 4 11 -5 6 -12 4 -20 -7
-12 -17 -13 -16 -22 2 -6 10 -10 41 -10 67 -1 42 1 46 13 30 12 -17 13 -16 8
4 -9 32 -41 26 -39 -7 1 -15 5 -32 9 -38 4 -7 4 -12 -1 -12 -12 1 -44 70 -37
81 3 5 10 7 15 4 5 -4 9 0 9 8 0 7 11 19 25 25 31 14 38 15 30 3 -3 -5 -1 -13
5 -16 6 -4 9 -1 8 6 -2 6 4 14 12 17 8 2 12 1 8 -3 -9 -10 10 -35 26 -35 6 0
3 5 -7 11 -9 6 -15 15 -11 21 4 6 10 5 15 -3 7 -11 9 -11 9 1 0 13 1 13 10 0
5 -8 10 -10 10 -5 0 6 -5 17 -10 25 -5 8 -10 10 -10 4 0 -11 -55 -12 -66 -1
-4 4 -13 2 -21 -4 -7 -6 -13 -7 -13 -2 0 5 17 19 38 31 40 24 42 24 42 17z
m1910 -7 c0 -4 -7 -8 -15 -8 -8 0 -15 4 -15 8 0 5 7 9 15 9 8 0 15 -4 15 -9z
m646 0 c4 -7 3 -8 -4 -4 -7 4 -12 2 -12 -5 0 -7 -3 -10 -6 -6 -6 5 3 27 11 27
2 0 7 -5 11 -12z m-2643 -11 c7 3 9 2 4 -2 -4 -5 -16 -9 -27 -10 -16 -1 -17 1
-8 13 8 9 14 10 16 3 2 -6 9 -8 15 -4z m2599 -1 c7 4 8 2 4 -5 -9 -13 -26 -5
-25 12 0 9 2 8 6 -1 2 -6 10 -9 15 -6z m-947 -26 c3 -5 1 -10 -4 -10 -6 0 -11
5 -11 10 0 6 2 10 4 10 3 0 8 -4 11 -10z m-1662 -17 c-7 -2 -19 -2 -25 0 -7 3
-2 5 12 5 14 0 19 -2 13 -5z m-23 -17 c0 -3 -4 -8 -10 -11 -5 -3 -10 -1 -10 4
0 6 5 11 10 11 6 0 10 -2 10 -4z m-1111 -27 c-15 -9 -32 -2 -24 11 3 5 13 6
21 3 12 -4 13 -8 3 -14z m3635 -14 c3 -8 1 -15 -4 -15 -6 0 -10 7 -10 15 0 8
2 15 4 15 2 0 6 -7 10 -15z m992 -35 c0 -32 -3 -38 -18 -37 -17 1 -17 3 -4 13
19 14 21 25 4 20 -7 -1 -10 -1 -5 1 4 3 7 9 7 14 0 6 -5 7 -11 3 -7 -4 -7 1 1
16 15 29 25 18 26 -30z m-1055 -38 c-7 -2 -18 1 -23 6 -8 8 -4 9 13 5 13 -4
18 -8 10 -11z m1056 -27 c-2 -12 -18 -25 -32 -25 -5 0 -3 5 5 10 13 9 13 11 0
20 -12 7 -10 9 7 7 12 0 21 -6 20 -12z m0 -55 c2 -24 -10 -26 -28 -3 -10 11
-10 14 -1 9 6 -4 12 -2 12 3 0 20 16 11 17 -9z m0 -47 c0 -10 -4 -10 -16 -1
-9 7 -18 13 -20 15 -2 1 5 1 16 0 11 0 20 -7 20 -14z m3 -28 c0 -2 -6 -5 -13
-8 -8 -3 -14 1 -14 8 0 7 6 11 14 8 7 -3 13 -6 13 -8z m-3 -30 c0 -8 -4 -12
-9 -9 -5 3 -6 10 -3 15 9 13 12 11 12 -6z m-14 -80 c-3 -9 -8 -14 -10 -11 -3
3 -2 9 2 15 9 16 15 13 8 -4z m-2 -108 c-10 -9 -11 -8 -5 6 3 10 9 15 12 12 3
-3 0 -11 -7 -18z m16 -27 c-1 -22 -17 -28 -17 -7 0 12 9 27 16 27 2 0 2 -9 1
-20z m-2 -40 c3 -6 -1 -7 -9 -4 -18 7 -21 14 -7 14 6 0 13 -4 16 -10z m5 -26
c0 -8 -19 -13 -24 -6 -3 5 1 9 9 9 8 0 15 -2 15 -3z m-15 -34 c-3 -5 -1 -10 6
-10 7 0 10 -3 6 -6 -9 -9 -28 6 -22 17 4 5 8 9 11 9 3 0 2 -4 -1 -10z m10
-120 c3 -6 -1 -7 -9 -4 -18 7 -21 14 -7 14 6 0 13 -4 16 -10z m1 -45 c1 -9 1
-15 -1 -13 -2 1 -3 6 -2 10 1 4 -7 14 -18 23 -18 15 -19 16 -1 7 11 -5 21 -17
22 -27z m-4616 -5 c0 -5 -8 -10 -17 -10 -15 0 -16 2 -3 10 19 12 20 12 20 0z
m4255 0 c-3 -5 -14 -10 -23 -9 -14 0 -13 2 3 9 27 11 27 11 20 0z m-4298 -15
c0 -8 -4 -15 -9 -15 -10 0 -11 14 -1 23 9 10 10 9 10 -8z m55 -7 c-17 -17 -15
-33 2 -19 11 9 16 9 22 0 5 -8 3 -9 -6 -4 -9 6 -11 4 -5 -5 6 -9 4 -11 -5 -5
-9 5 -11 4 -6 -3 4 -7 3 -12 -3 -12 -5 0 -11 6 -14 13 -2 6 -8 8 -13 4 -5 -4
-4 -11 2 -15 6 -4 10 -15 8 -25 -1 -9 2 -15 7 -11 5 3 6 10 3 16 -5 8 -1 9 10
5 9 -4 14 -3 11 2 -6 11 12 24 38 28 10 2 15 -1 12 -7 -9 -14 8 -12 24 3 11
10 13 9 8 -6 -4 -11 -3 -16 3 -12 19 12 11 37 -9 30 -11 -3 -23 -1 -26 6 -6 8
-10 8 -15 -1 -6 -9 -11 -7 -19 8 -11 21 0 25 27 9 7 -5 12 -3 13 5 0 10 2 10
6 1 2 -7 13 -13 24 -13 17 0 24 -11 20 -32 -2 -14 17 -8 22 6 7 17 29 15 51
-3 9 -7 16 -10 16 -6 0 5 8 1 18 -7 9 -9 25 -14 34 -13 23 4 18 -17 -7 -33
-19 -12 -19 -13 4 -6 18 5 22 3 15 -7 -6 -11 -3 -10 12 1 29 22 30 24 12 17
-12 -4 -15 -2 -12 7 4 11 10 11 30 2 22 -10 34 -28 17 -25 -20 3 -31 -2 -37
-18 -6 -16 -6 -16 12 0 18 17 20 17 33 0 12 -15 12 -16 -3 -10 -10 3 -20 2
-23 -3 -6 -10 37 -6 55 5 10 6 12 4 7 -9 -4 -10 -3 -15 3 -11 6 3 10 1 10 -4
0 -6 4 -11 10 -11 5 0 1 13 -8 30 -9 16 -18 25 -20 20 -2 -6 -8 -10 -13 -10
-6 0 -7 5 -3 12 5 7 3 8 -6 3 -8 -5 -11 -4 -7 3 9 13 36 10 45 -5 4 -6 21 -13
39 -16 17 -3 37 -8 43 -12 12 -8 4 -25 -13 -25 -7 0 -6 4 3 11 13 9 12 10 -2
5 -10 -3 -20 -1 -23 4 -4 6 -11 10 -17 10 -6 0 -1 -9 12 -20 14 -12 31 -18 39
-14 35 14 47 10 73 -20 16 -17 28 -34 28 -38 0 -3 10 -4 22 0 14 3 19 2 14 -6
-4 -7 -20 -12 -36 -12 -22 0 -28 4 -24 15 4 8 1 15 -5 15 -6 0 -10 -6 -9 -12
4 -16 -64 -19 -74 -4 -5 7 -8 7 -8 -2 0 -7 -3 -11 -7 -9 -5 3 -30 8 -58 11
-115 15 -133 17 -185 27 -30 6 -64 12 -75 14 -53 9 -130 34 -133 43 -1 5 -12
8 -22 5 -14 -4 -20 0 -20 11 0 10 -4 14 -10 11 -5 -3 -10 -2 -10 3 0 5 14 9
31 10 18 0 36 5 41 10 6 6 0 8 -15 5 -22 -4 -24 -2 -20 19 3 18 0 25 -11 25
-19 0 -21 -14 -4 -19 6 -2 8 -10 4 -16 -13 -21 -25 -13 -22 16 1 16 7 26 15
24 9 -2 11 3 7 13 -3 9 -2 13 3 10 6 -3 18 5 28 19 10 13 20 22 22 20 3 -2 -1
-10 -7 -16z m4196 -13 c-3 -3 -9 2 -12 12 -6 14 -5 15 5 6 7 -7 10 -15 7 -18z
m122 14 c0 -4 -5 -11 -12 -15 -7 -5 -8 -3 -3 6 5 9 4 11 -4 6 -6 -4 -8 -12 -5
-18 4 -7 2 -8 -5 -4 -6 4 -8 12 -5 18 4 6 1 9 -7 6 -19 -6 -18 -50 1 -55 13
-4 13 -3 0 6 -8 5 -11 14 -6 18 4 4 14 -1 22 -11 13 -18 19 -12 16 16 -1 3 5
9 14 12 8 3 12 2 9 -4 -3 -6 -1 -10 4 -10 18 0 12 -56 -9 -83 -17 -21 -53 -40
-105 -54 -5 -1 -39 -10 -74 -19 -53 -14 -67 -15 -85 -4 -18 12 -19 11 -8 -2
11 -13 0 -17 -80 -27 -51 -7 -108 -14 -126 -17 -18 -2 -31 0 -28 4 3 5 -8 8
-24 8 -16 0 -28 -4 -27 -10 3 -16 -26 -14 -45 2 -10 8 -18 22 -17 31 0 12 2
12 8 -3 6 -17 9 -17 23 -3 9 9 19 13 23 9 5 -4 5 1 2 11 -4 10 -3 16 2 12 5
-3 13 0 17 6 5 9 10 8 18 -3 6 -8 19 -17 29 -21 10 -4 15 -11 12 -17 -4 -6 1
-7 10 -3 13 5 14 7 3 14 -10 7 -9 9 5 9 9 0 17 4 17 10 0 5 7 7 15 4 10 -4 15
0 14 12 0 13 -2 14 -6 5 -5 -11 -7 -11 -14 0 -7 11 -9 11 -9 1 0 -7 -5 -10
-12 -6 -7 4 -8 3 -4 -4 4 -7 3 -12 -2 -12 -5 0 -9 12 -9 28 0 15 2 21 4 15 3
-7 9 -13 14 -13 6 0 7 6 3 13 -5 8 -2 8 9 -2 22 -18 22 -3 0 23 -10 12 -11 16
-4 9 11 -10 17 -9 28 5 13 16 13 15 5 -3 -10 -22 -5 -48 8 -40 5 3 7 13 4 23
-5 14 -4 15 5 2 10 -13 12 -13 21 0 7 11 5 17 -8 22 -14 7 -14 7 3 5 14 -2 19
-9 17 -22 -3 -16 -2 -17 12 -6 13 11 14 17 4 30 -7 9 -3 8 11 -4 l24 -20 -8
25 c-7 25 -7 25 10 5 15 -19 16 -19 11 -1 -5 15 -4 17 8 7 11 -10 18 -7 31 11
10 13 15 16 12 7 -3 -9 0 -22 6 -28 8 -8 5 -9 -11 -6 -12 2 -22 -1 -22 -7 0
-6 -3 -8 -6 -5 -4 3 -16 1 -28 -5 -11 -7 -25 -11 -29 -10 -5 1 -5 -3 -1 -9 4
-8 3 -9 -4 -5 -7 4 -12 1 -12 -6 0 -9 -3 -9 -10 2 -5 8 -10 11 -10 5 0 -5 10
-21 21 -35 15 -18 18 -19 11 -5 -9 17 -5 24 25 44 27 18 34 19 30 7 -4 -9 -2
-16 3 -16 6 0 10 8 10 18 0 14 4 12 21 -8 17 -21 19 -22 10 -3 -15 31 -16 31
32 28 41 -1 44 0 41 22 -2 17 2 23 11 20 7 -3 18 0 25 6 10 9 12 8 7 -5 -5
-14 -2 -15 24 -6 26 9 30 14 25 34 -4 14 -2 24 4 24 6 0 9 4 6 8 -2 4 11 8 30
9 19 0 34 -3 34 -8z m-163 -5 c-3 -3 -12 -4 -19 -1 -8 3 -5 6 6 6 11 1 17 -2
13 -5z m70 -1 c-4 -3 -2 -12 5 -20 16 -20 -6 -43 -24 -25 -10 10 -10 15 2 22
8 5 11 10 7 10 -9 0 1 20 10 20 4 0 3 -3 0 -7z m-4304 -18 c4 -8 3 -16 -1 -19
-4 -3 -9 4 -9 15 -2 23 3 25 10 4z m4259 -27 c-13 -13 -24 5 -16 27 7 16 8 16
17 0 6 -11 6 -20 -1 -27z m-72 10 c0 7 5 12 10 12 6 0 2 -12 -7 -27 -12 -19
-14 -24 -4 -19 10 7 12 5 6 -4 -5 -9 -4 -11 4 -6 6 4 9 11 6 16 -3 4 3 14 13
21 15 13 16 12 3 -3 -8 -11 -9 -18 -3 -18 6 0 9 -6 6 -14 -3 -8 -13 -13 -22
-11 -9 2 -21 4 -26 4 -4 1 -6 7 -3 15 3 7 -2 24 -11 37 l-16 24 22 -19 c12
-11 22 -14 22 -8z m-58 -5 c-6 -2 -9 -10 -6 -15 4 -7 2 -8 -5 -4 -13 9 -5 26
12 25 9 0 8 -2 -1 -6z m-2966 -15 c-1 -7 -5 -19 -9 -25 -6 -9 -2 -12 14 -10
14 1 23 -4 25 -16 3 -21 14 -36 14 -19 0 6 9 9 21 7 17 -4 19 -2 9 11 -10 12
-16 12 -28 2 -13 -11 -14 -11 -8 0 4 7 2 19 -4 27 -16 20 -3 19 16 0 18 -18
38 -20 28 -3 -4 7 -3 8 5 4 6 -4 10 -10 7 -14 -2 -4 0 -16 5 -27 7 -18 8 -18
8 -1 1 12 6 16 17 12 8 -3 12 -2 9 4 -3 6 1 10 9 10 9 0 15 -4 14 -9 -2 -5 1
-8 7 -7 5 0 10 7 11 14 1 6 -3 9 -8 6 -7 -4 -8 -2 -4 4 9 15 1 15 -26 1 -21
-11 -38 1 -38 26 1 6 5 2 11 -7 5 -9 16 -15 24 -12 8 4 12 11 8 18 -4 6 5 3
20 -6 28 -19 48 -23 46 -10 -1 4 -1 14 0 22 1 13 3 12 11 -2 6 -9 18 -14 29
-11 10 3 22 0 25 -6 4 -6 12 -11 18 -11 6 0 3 10 -8 22 -19 22 -19 23 1 8 26
-20 35 -32 29 -42 -3 -4 -1 -8 4 -8 19 0 21 14 7 37 -9 13 -11 23 -5 23 5 0
10 -4 10 -10 0 -5 7 -10 15 -10 8 0 15 -5 15 -11 0 -5 4 -8 10 -4 5 3 7 12 3
20 -3 8 -1 15 4 15 5 0 9 -11 9 -24 0 -23 -10 -27 -31 -14 -6 4 -11 -2 -11
-12 0 -10 4 -16 8 -14 4 3 8 0 8 -5 0 -6 4 -11 10 -11 5 0 7 7 3 15 -3 9 -2
15 3 14 22 -4 33 2 28 16 -7 17 21 21 31 5 8 -13 35 -13 35 1 0 5 -4 8 -9 5
-5 -3 -15 2 -22 12 -12 15 -12 16 2 5 9 -7 18 -10 22 -7 3 3 10 -4 17 -15 6
-12 15 -21 21 -21 6 0 8 4 4 9 -3 5 2 16 10 25 13 13 20 13 36 3 20 -13 20
-34 -1 -29 -7 2 -20 -4 -30 -13 -9 -8 -20 -12 -25 -8 -4 5 -5 2 -1 -4 4 -8 2
-13 -5 -13 -7 0 -9 -3 -6 -6 4 -4 13 -2 20 4 8 7 18 8 22 4 5 -4 5 -2 2 4 -11
19 22 25 33 6 8 -12 10 -12 7 -2 -2 8 2 21 9 28 8 7 14 8 14 2 0 -5 4 -10 8
-10 5 0 9 7 9 15 0 8 -4 15 -9 15 -4 0 -8 5 -8 10 0 6 8 5 20 -2 14 -9 16 -14
7 -20 -9 -6 -8 -8 2 -8 12 0 12 -3 3 -12 -15 -15 -16 -28 -2 -28 6 0 9 5 8 11
-2 6 3 14 11 17 10 3 11 0 5 -9 -7 -12 -5 -12 9 0 17 13 14 36 -4 26 -5 -4 -9
-1 -9 4 0 6 7 11 15 11 8 0 15 -5 15 -11 0 -5 5 -7 10 -4 8 5 7 11 -1 21 -8
10 -8 14 0 14 6 0 11 -5 11 -11 0 -5 5 -7 10 -4 6 3 13 0 16 -8 6 -17 19 -17
52 1 16 10 22 10 20 1 -2 -6 3 -14 11 -17 8 -2 11 0 8 5 -8 13 10 39 20 29 4
-5 2 -11 -5 -13 -6 -3 -9 -9 -6 -15 4 -5 13 -3 23 6 16 15 19 14 37 -6 10 -13
15 -20 10 -16 -5 4 -23 0 -40 -8 -27 -13 -29 -13 -12 0 18 15 18 15 -1 13 -11
0 -20 -9 -20 -19 -2 -20 26 -22 40 -3 4 6 11 4 17 -5 9 -13 10 -13 11 0 0 10
3 9 10 -5 9 -19 9 -18 5 2 -2 13 0 26 5 29 8 5 13 -9 10 -28 0 -3 7 -5 17 -3
9 1 21 -3 25 -9 6 -7 7 -4 3 7 -5 16 8 25 17 10 2 -5 2 -2 1 5 -5 19 15 14 28
-8 7 -11 20 -20 28 -20 12 0 12 2 1 9 -9 6 -10 11 -2 15 6 4 11 12 11 19 0 6
-6 3 -13 -8 -8 -10 -16 -14 -18 -9 -3 5 8 21 23 36 15 15 28 23 28 18 0 -5 -5
-12 -10 -15 -6 -4 -8 -11 -5 -16 7 -11 26 -12 24 -1 -3 19 2 30 18 36 15 6 15
4 -2 -14 -19 -21 -8 -29 13 -8 9 9 15 9 24 0 11 -11 2 -17 -24 -14 -3 1 -11
-5 -18 -13 -10 -12 -7 -13 15 -9 20 3 25 1 19 -8 -4 -7 -4 -10 1 -6 4 4 14 3
22 -4 7 -6 16 -8 20 -4 3 3 1 6 -6 6 -7 0 -9 5 -5 12 4 6 3 8 -4 4 -6 -3 -13
-2 -17 4 -3 5 1 10 10 10 13 0 14 4 5 21 -7 11 -9 23 -7 26 3 2 8 -5 12 -16 7
-23 13 -25 35 -11 14 9 13 11 -9 14 -5 0 -12 4 -16 8 -13 13 22 2 48 -15 25
-16 27 -16 41 5 9 12 19 18 23 14 4 -4 1 -11 -7 -16 -13 -9 -13 -10 0 -10 13
0 13 -2 0 -9 -8 -6 -18 -7 -22 -5 -4 3 -8 1 -8 -4 0 -12 30 -37 30 -26 0 5 5
2 10 -6 7 -11 10 -11 10 -2 0 7 5 10 10 7 6 -4 9 -1 8 6 -2 6 3 14 11 17 8 2
11 0 8 -5 -12 -19 32 -8 48 12 9 11 14 14 10 8 -11 -22 14 -14 25 7 6 11 16
20 23 19 9 0 9 -2 0 -6 -20 -7 -15 -19 7 -20 11 -1 18 2 16 6 -7 11 12 36 21
27 4 -5 2 -11 -5 -13 -6 -3 -9 -9 -6 -14 3 -6 11 -5 20 2 11 9 20 9 37 0 29
-16 78 -11 94 9 10 13 12 13 18 -2 4 -10 11 -15 17 -12 5 3 4 11 -3 20 -8 10
-8 14 0 14 6 0 11 -5 11 -11 0 -5 4 -8 9 -4 6 3 15 -4 21 -15 6 -11 16 -20 22
-20 6 0 8 3 5 6 -3 4 -2 15 4 26 10 19 11 19 45 -1 36 -22 55 -26 53 -13 -1 4
-1 14 0 22 1 12 3 12 11 -2 6 -10 19 -15 30 -13 11 2 18 0 15 -6 -4 -5 -2 -9
3 -9 16 0 22 13 11 27 -9 9 -8 13 0 13 6 0 11 -5 11 -12 0 -6 3 -8 7 -5 3 4
17 0 29 -8 21 -14 24 -13 37 6 12 17 15 17 20 5 4 -9 13 -13 21 -10 36 14 68
-46 36 -66 -12 -7 -10 -9 7 -8 17 2 20 7 17 28 -4 24 -4 24 11 6 8 -11 15 -15
15 -10 0 6 7 11 15 11 8 0 15 -7 15 -14 0 -8 -5 -11 -12 -7 -7 4 -8 3 -4 -5 9
-14 26 -5 26 15 0 22 17 16 23 -8 19 -72 -115 -153 -288 -174 -27 -4 -53 -8
-56 -10 -43 -25 -1397 -26 -1524 -1 -11 3 -41 7 -66 11 -82 12 -103 17 -116
28 -7 6 -13 8 -13 5 0 -3 -13 -1 -30 4 -16 6 -27 15 -24 20 3 5 -2 6 -10 3 -9
-3 -16 -1 -16 5 0 6 -6 11 -13 11 -8 0 -12 13 -10 40 1 30 -3 43 -18 54 -17
11 -17 14 -5 19 9 4 18 2 21 -4 4 -5 11 -6 17 -3 7 4 4 10 -6 16 -9 5 -13 14
-9 21 4 7 8 15 9 20 3 14 4 17 8 17 2 0 3 -6 2 -12z m62 -13 c-3 -3 -9 2 -12
12 -6 14 -5 15 5 6 7 -7 10 -15 7 -18z m682 15 c0 -5 -4 -10 -10 -10 -5 0 -10
5 -10 10 0 6 5 10 10 10 6 0 10 -4 10 -10z m140 0 c0 -5 6 -10 14 -10 8 0 16
-5 18 -11 2 -6 13 -2 27 10 19 16 26 18 42 8 20 -13 20 -34 -1 -29 -7 1 -22
-4 -34 -12 -20 -13 -24 -12 -35 5 -6 11 -15 18 -19 15 -5 -3 -13 4 -20 15 -7
11 -8 19 -2 19 5 0 10 -4 10 -10z m440 0 c0 -5 5 -9 11 -7 16 3 21 -15 9 -33
-8 -12 -11 -12 -28 3 -20 18 -37 23 -27 8 6 -10 -11 -24 -32 -27 -7 -1 -13 2
-13 7 0 5 9 9 20 9 13 0 18 5 14 15 -7 18 17 20 34 3 7 -7 12 -8 12 -2 0 6 -5
15 -12 22 -9 9 -9 12 0 12 7 0 12 -4 12 -10z m60 0 c0 -5 -4 -10 -10 -10 -5 0
-10 5 -10 10 0 6 5 10 10 10 6 0 10 -4 10 -10z m140 -1 c0 -5 4 -8 9 -4 5 3
12 1 15 -4 8 -13 -22 -7 -36 7 -9 9 -9 12 0 12 7 0 12 -5 12 -11z m60 1 c0 -5
-4 -10 -10 -10 -5 0 -10 5 -10 10 0 6 5 10 10 10 6 0 10 -4 10 -10z m490 -10
c21 13 24 13 50 -10 13 -11 27 -20 32 -20 4 0 8 -8 8 -17 -1 -17 -1 -17 -11 0
-7 11 -18 16 -34 13 -19 -4 -23 -1 -20 15 2 10 0 19 -5 19 -5 0 -10 -9 -12
-21 -3 -19 -5 -18 -33 13 -16 18 -21 25 -10 16 14 -12 25 -14 35 -8z m850 16
c0 -2 -7 -7 -16 -10 -8 -3 -12 -2 -9 4 6 10 25 14 25 6z m580 -6 c0 -5 -5 -10
-11 -10 -5 0 -7 5 -4 10 3 6 8 10 11 10 2 0 4 -4 4 -10z m-4673 -22 c-3 -8 -6
-5 -6 6 -1 11 2 17 5 13 3 -3 4 -12 1 -19z m1116 -5 c-5 -12 -3 -14 8 -8 8 4
11 4 6 0 -11 -12 -47 -13 -54 -2 -3 6 -1 7 4 4 6 -4 16 0 23 8 16 20 21 19 13
-2z m3577 -12 c0 -14 -29 -21 -36 -9 -4 6 -3 8 4 4 6 -3 13 -2 17 4 8 12 15
13 15 1z m-20 -41 c0 -5 -5 -10 -11 -10 -5 0 -7 5 -4 10 3 6 8 10 11 10 2 0 4
-4 4 -10z m-3550 -15 c5 3 11 1 15 -4 3 -6 -2 -14 -12 -20 -15 -7 -18 -5 -19
17 -1 15 1 21 3 14 3 -6 9 -10 13 -7z m2797 1 c-3 -7 0 -19 6 -25 6 -6 9 -11
6 -11 -3 0 -14 10 -25 22 -10 12 -13 18 -6 14 6 -4 12 -2 12 3 0 6 3 11 6 11
3 0 4 -6 1 -14z m770 -10 c0 -7 -8 -18 -17 -24 -12 -7 -17 -7 -17 4 0 7 4 11
8 9 4 -3 9 2 13 10 7 19 13 19 13 1z m-864 -11 c-3 -9 -8 -14 -10 -11 -3 3 -2
9 2 15 9 16 15 13 8 -4z m-3158 -44 c-6 -5 -25 10 -25 20 0 5 6 4 14 -3 8 -7
12 -15 11 -17z m475 19 c0 -5 -4 -10 -10 -10 -5 0 -10 5 -10 10 0 6 5 10 10
10 6 0 10 -4 10 -10z m2627 -4 c0 -8 -6 -12 -15 -9 -11 5 -11 7 0 14 7 5 13 9
14 9 0 0 1 -6 1 -14z m917 -18 c4 4 6 0 4 -8 -6 -30 -33 -38 -42 -14 -5 14 -4
15 9 4 18 -15 20 0 3 20 -11 12 -10 12 3 2 9 -6 19 -8 23 -4z m-889 -18 c3 -6
-1 -7 -9 -4 -18 7 -21 14 -7 14 6 0 13 -4 16 -10z m95 6 c0 -3 -4 -8 -10 -11
-5 -3 -10 -1 -10 4 0 6 5 11 10 11 6 0 10 -2 10 -4z m794 -41 c-7 -17 -30 -20
-39 -5 -3 5 0 7 8 4 8 -3 18 -1 22 5 9 16 15 13 9 -4z m-2 -42 c-6 -9 -19 -17
-31 -18 -28 -2 -27 1 7 19 35 19 35 19 24 -1z m-22 -37 c0 -2 -7 -7 -16 -10
-8 -3 -12 -2 -9 4 6 10 25 14 25 6z m5 -144 c-3 -3 1 -12 8 -21 11 -14 10 -14
-5 -2 -10 7 -15 17 -12 22 3 5 1 9 -4 9 -6 0 -13 8 -16 17 -6 15 -4 15 14 -2
11 -10 18 -20 15 -23z m-2725 -62 c-8 -5 -19 -10 -25 -10 -5 0 -3 5 5 10 8 5
20 10 25 10 6 0 3 -5 -5 -10z m130 6 c0 -3 -4 -8 -10 -11 -5 -3 -10 -1 -10 4
0 6 5 11 10 11 6 0 10 -2 10 -4z m320 0 c0 -3 -4 -8 -10 -11 -5 -3 -10 -1 -10
4 0 6 5 11 10 11 6 0 10 -2 10 -4z m-1445 -27 c-4 -5 -12 -9 -18 -8 -9 0 -8 2
1 6 6 2 9 10 6 15 -4 7 -2 8 5 4 6 -4 9 -12 6 -17z m264 14 c-3 -20 2 -24 16
-13 8 7 16 9 16 4 9 -61 1 -74 -26 -44 -10 11 -23 16 -29 12 -19 -12 -50 -8
-63 8 -16 20 -16 27 1 27 8 0 12 -6 8 -15 -3 -10 -1 -13 6 -8 7 4 12 2 12 -6
0 -10 2 -10 9 1 5 7 13 11 19 7 6 -3 13 -2 17 4 3 5 -2 10 -12 11 -16 0 -16 1
2 9 26 11 25 11 24 3z m124 -15 c12 10 16 9 22 -5 6 -17 7 -17 19 -1 11 15 13
15 24 -2 13 -22 8 -27 -28 -25 -14 0 -24 6 -22 13 3 18 -15 15 -22 -4 -3 -8
-10 -12 -16 -9 -6 4 -8 10 -5 15 3 5 1 11 -5 15 -5 3 -10 11 -10 18 0 6 6 2
14 -8 11 -16 17 -17 29 -7z m94 16 c-3 -3 -12 -4 -19 -1 -8 3 -5 6 6 6 11 1
17 -2 13 -5z m1437 -24 c-6 -6 -10 -3 -10 10 0 13 4 16 10 10 7 -7 7 -13 0
-20z m324 21 c-2 -18 3 -33 9 -28 3 4 12 2 20 -4 9 -8 13 -8 13 -1 0 6 -8 15
-17 21 -16 9 -16 10 4 8 12 0 19 -5 16 -10 -7 -11 30 -5 38 7 4 5 10 -1 14
-13 3 -12 11 -19 16 -15 6 3 5 12 -3 22 -7 10 -8 14 -4 10 5 -4 16 -2 24 5 9
7 13 7 9 1 -4 -6 3 -20 15 -30 20 -19 21 -19 14 2 -4 14 -2 21 8 21 10 0 12
-6 6 -21 -4 -12 -16 -21 -26 -21 -11 1 -23 -6 -28 -13 -6 -11 -12 -8 -27 14
-10 16 -19 23 -19 15 0 -7 -6 -11 -15 -8 -8 4 -17 2 -21 -4 -4 -7 -10 -6 -19
1 -10 8 -15 8 -20 0 -5 -8 -11 -8 -19 -1 -7 6 -15 10 -17 8 -2 -1 -1 2 3 8 21
25 4 26 -18 0 -15 -16 -23 -23 -19 -15 14 27 35 47 49 47 8 0 15 -3 14 -6z
m318 -38 c-4 -4 -14 -8 -23 -9 -11 -2 -12 1 -5 8 6 6 8 18 4 27 -5 13 -3 13
12 -2 10 -10 15 -21 12 -24z m-2793 20 c-7 -2 -19 -2 -25 0 -7 3 -2 5 12 5 14
0 19 -2 13 -5z m-172 -26 c-10 -9 -11 -8 -5 6 3 10 9 15 12 12 3 -3 0 -11 -7
-18z m1749 13 c0 -5 -2 -10 -4 -10 -3 0 -8 5 -11 10 -3 6 -1 10 4 10 6 0 11
-4 11 -10z m-826 -8 c3 -5 -1 -9 -9 -9 -8 0 -12 4 -9 9 3 4 7 8 9 8 2 0 6 -4
9 -8z m-874 -11 c0 -17 -21 -24 -33 -12 -9 9 -7 10 7 5 13 -5 17 -4 12 4 -4 7
-2 12 3 12 6 0 11 -4 11 -9z m-42 -36 c-3 -3 -9 2 -12 12 -6 14 -5 15 5 6 7
-7 10 -15 7 -18z m3997 -166 c-4 -5 -12 -9 -18 -8 -9 0 -8 2 1 6 6 2 9 10 6
15 -4 7 -2 8 5 4 6 -4 9 -12 6 -17z m-4025 6 c0 -7 -30 -13 -34 -7 -3 4 4 9
15 9 10 1 19 0 19 -2z m-52 -35 c-7 -10 -14 -17 -17 -15 -4 4 18 35 25 35 2 0
-1 -9 -8 -20z m4037 -10 c-3 -5 -12 -10 -18 -10 -7 0 -6 4 3 10 19 12 23 12
15 0z m-308 -32 c-3 -8 -6 -5 -6 6 -1 11 2 17 5 13 3 -3 4 -12 1 -19z m107 7
c-5 -11 -1 -14 12 -9 16 5 16 4 4 -5 -13 -9 -12 -11 6 -11 12 0 21 -7 21 -15
0 -10 -4 -12 -12 -5 -6 5 -21 8 -33 5 -16 -3 -20 1 -17 16 4 21 14 39 20 39 3
0 2 -7 -1 -15z m-69 -26 c-5 -16 -4 -19 5 -14 9 6 11 4 5 -5 -6 -10 -11 -10
-20 3 -7 9 -15 14 -19 10 -4 -4 -4 0 0 10 10 26 37 22 29 -4z m-3815 -9 c8 -5
13 -10 10 -11 -3 0 -12 -2 -21 -4 -9 -1 -16 4 -16 11 0 16 6 17 27 4z m3710 1
c0 -17 -18 -21 -24 -6 -3 9 0 15 9 15 8 0 15 -4 15 -9z m340 -1 c0 -5 -5 -10
-11 -10 -5 0 -7 5 -4 10 3 6 8 10 11 10 2 0 4 -4 4 -10z"/>
<path d="M2371 4084 c-1 -7 -14 -10 -31 -9 -17 1 -33 -2 -37 -8 -4 -6 -1 -7 7
-2 10 6 12 4 7 -9 -4 -9 -3 -14 2 -11 5 3 12 -3 14 -12 4 -17 5 -17 6 0 0 10
5 15 11 12 6 -4 7 1 3 10 -5 15 -3 15 15 4 15 -10 18 -16 9 -21 -9 -6 -9 -8 1
-8 7 0 10 -4 7 -10 -4 -6 1 -7 11 -3 12 4 14 8 6 11 -10 3 -10 7 -1 18 17 21
28 17 23 -8 l-5 -23 10 23 c12 26 26 30 16 5 -5 -15 -4 -16 7 -5 10 10 16 8
31 -10 19 -23 19 -23 3 5 -12 20 -14 32 -7 41 7 9 4 12 -10 13 -15 1 -19 -3
-15 -15 5 -13 3 -13 -9 2 -8 11 -15 14 -15 8 0 -7 -5 -12 -11 -12 -5 0 -8 4
-5 8 3 5 -1 9 -9 9 -8 0 -12 -4 -9 -9 3 -4 1 -8 -5 -8 -5 0 -12 6 -14 13 -4 7
-6 8 -6 1z"/>
<path d="M3230 4056 c7 -7 13 -7 20 0 6 6 3 10 -10 10 -13 0 -16 -4 -10 -10z"/>
<path d="M3464 4033 c-1 -13 3 -23 10 -22 27 3 35 -2 29 -18 -7 -17 -6 -17 11
0 18 18 41 24 32 8 -7 -10 9 -8 37 4 12 5 23 2 33 -11 13 -17 13 -17 3 8 -7
15 -15 25 -19 23 -4 -3 -13 2 -20 10 -8 10 -24 14 -41 11 -15 -2 -30 -1 -34 2
-15 16 -40 7 -41 -15z m79 2 c31 2 45 -11 28 -28 -7 -7 -12 -6 -17 7 -5 12
-10 14 -20 6 -9 -8 -19 -8 -32 -1 -11 6 -23 7 -28 3 -5 -4 -2 1 5 11 8 10 18
14 25 9 6 -5 24 -8 39 -7z"/>
<path d="M2310 4021 c0 -6 4 -13 10 -16 6 -3 7 1 4 9 -7 18 -14 21 -14 7z"/>
<path d="M2350 4020 c0 -5 5 -10 11 -10 5 0 7 5 4 10 -3 6 -8 10 -11 10 -2 0
-4 -4 -4 -10z"/>
<path d="M2456 4021 c-3 -5 2 -15 12 -22 15 -12 16 -12 5 2 -7 9 -10 19 -6 22
3 4 4 7 0 7 -3 0 -8 -4 -11 -9z"/>
<path d="M2515 4021 c-3 -5 -2 -12 3 -15 5 -3 9 1 9 9 0 17 -3 19 -12 6z"/>
<path d="M2576 4021 c-3 -5 2 -15 12 -22 15 -12 16 -12 5 2 -7 9 -10 19 -6 22
3 4 4 7 0 7 -3 0 -8 -4 -11 -9z"/>
<path d="M2696 4021 c-3 -5 2 -15 12 -22 15 -12 16 -12 5 2 -7 9 -10 19 -6 22
3 4 4 7 0 7 -3 0 -8 -4 -11 -9z"/>
<path d="M2030 4009 c0 -5 5 -7 10 -4 6 3 10 8 10 11 0 2 -4 4 -10 4 -5 0 -10
-5 -10 -11z"/>
<path d="M2910 4009 c0 -5 5 -7 10 -4 6 3 10 8 10 11 0 2 -4 4 -10 4 -5 0 -10
-5 -10 -11z"/>
<path d="M3257 4005 c-4 -8 -3 -16 1 -19 4 -3 9 4 9 15 2 23 -3 25 -10 4z"/>
<path d="M1713 3991 c0 -11 5 -18 9 -15 4 3 5 11 1 19 -7 21 -12 19 -10 -4z"/>
<path d="M1856 4001 c-4 -5 3 -7 14 -4 23 6 26 13 6 13 -8 0 -17 -4 -20 -9z"/>
<path d="M1930 3999 c0 -5 5 -7 10 -4 6 3 10 8 10 11 0 2 -4 4 -10 4 -5 0 -10
-5 -10 -11z"/>
<path d="M3215 4000 c3 -5 8 -10 11 -10 2 0 4 5 4 10 0 6 -5 10 -11 10 -5 0
-7 -4 -4 -10z"/>
<path d="M3395 4000 c3 -5 8 -10 11 -10 2 0 4 5 4 10 0 6 -5 10 -11 10 -5 0
-7 -4 -4 -10z"/>
<path d="M3472 3991 c-11 -7 -11 -9 0 -14 9 -3 15 1 15 9 0 8 -1 14 -1 14 -1
0 -7 -4 -14 -9z"/>
<path d="M3675 3980 c-3 -6 1 -7 9 -4 18 7 21 14 7 14 -6 0 -13 -4 -16 -10z"/>
<path d="M1230 3973 c5 -2 8 -9 4 -14 -3 -5 0 -9 6 -9 15 0 7 23 -8 26 -7 1
-8 0 -2 -3z"/>
<path d="M3710 3976 c0 -2 7 -9 15 -16 9 -7 15 -8 15 -2 0 5 -7 12 -15 16 -8
3 -15 4 -15 2z"/>
<path d="M3770 3969 c0 -5 5 -7 10 -4 6 3 10 8 10 11 0 2 -4 4 -10 4 -5 0 -10
-5 -10 -11z"/>
<path d="M1207 3943 c10 -3 10 -10 2 -24 -5 -11 -14 -17 -19 -14 -14 8 -18 -8
-9 -32 8 -23 29 -32 29 -12 0 5 -4 7 -10 4 -5 -3 -10 1 -10 9 0 9 4 16 8 16
12 0 32 46 25 54 -4 3 -11 6 -17 5 -6 0 -6 -3 1 -6z"/>
<path d="M1160 3920 c-8 -5 -10 -10 -5 -10 6 0 17 5 25 10 8 5 11 10 5 10 -5
0 -17 -5 -25 -10z"/>
<path d="M1722 3903 c-6 -15 -30 -89 -55 -163 l-44 -135 35 0 c32 0 36 4 51
45 16 43 18 45 58 46 40 1 43 -1 54 -35 6 -20 15 -41 20 -47 9 -11 53 -13 64
-3 3 3 -19 75 -49 160 l-54 154 -34 3 c-31 3 -37 -1 -46 -25z m57 -113 c9 -28
8 -30 -14 -30 -22 0 -23 2 -12 30 6 17 12 30 13 30 1 0 7 -13 13 -30z"/>
<path d="M1840 3923 c0 -12 95 -297 102 -309 6 -9 29 -11 59 -5 4 0 28 61 53
134 l47 132 49 -3 49 -4 3 -131 3 -132 30 0 30 0 3 133 3 132 44 0 c43 0 45 1
45 30 l0 30 -158 0 -157 0 -18 -62 c-10 -35 -26 -81 -36 -103 l-18 -40 -32
103 -32 102 -34 0 c-19 0 -35 -3 -35 -7z"/>
<path d="M2478 3924 c-3 -3 -18 -7 -34 -10 -16 -3 -30 -9 -32 -15 -2 -5 -9 -9
-16 -9 -15 0 -44 -34 -58 -68 -13 -34 -18 -112 -7 -112 5 0 9 -8 9 -17 0 -26
75 -90 114 -97 85 -16 177 43 192 121 9 46 -1 102 -24 133 -23 31 -82 72 -96
67 -6 -3 -18 -1 -27 4 -9 5 -19 6 -21 3z m78 -69 c33 -21 56 -79 48 -120 -9
-48 -63 -95 -111 -95 -44 0 -101 34 -114 67 -24 63 -4 118 55 154 34 21 83 19
122 -6z"/>
<path d="M2444 3854 c-71 -35 -83 -128 -23 -178 71 -60 172 -8 172 89 0 40
-24 72 -70 91 -40 17 -41 17 -79 -2z m81 -13 c5 -10 -20 -41 -34 -41 -17 0
-44 28 -37 38 9 14 62 16 71 3z m-70 -43 c5 4 -2 -8 -14 -26 -13 -18 -28 -31
-35 -29 -14 5 -10 45 6 65 10 12 14 12 23 -2 7 -9 16 -12 20 -8z m115 3 c5
-11 10 -29 10 -40 0 -17 -4 -19 -22 -12 -24 9 -34 32 -24 57 8 20 23 18 36 -5z
m-92 -31 c-14 -22 -6 -35 18 -26 10 4 14 12 9 24 -4 12 -3 14 5 6 15 -15 1
-44 -21 -44 -25 0 -35 26 -19 45 18 21 22 19 8 -5z m-14 -56 c9 -8 16 -22 16
-29 0 -25 -18 -25 -47 0 -24 21 -26 26 -13 35 20 13 26 13 44 -6z m101 7 c7
-12 -33 -51 -52 -51 -7 0 -13 9 -13 20 0 29 51 53 65 31z"/>
<path d="M1250 3890 c-6 -11 -8 -20 -6 -20 3 0 10 9 16 20 6 11 8 20 6 20 -3
0 -10 -9 -16 -20z"/>
<path d="M1156 3873 c4 -15 -30 -35 -41 -25 -5 4 -5 2 -1 -5 4 -7 14 -9 24 -6
15 6 15 5 3 -10 -11 -14 -16 -15 -29 -5 -10 9 -13 9 -9 1 4 -6 2 -13 -3 -15
-6 -2 -2 -13 10 -25 24 -26 25 -30 5 -30 -8 0 -17 9 -21 19 -3 10 -10 16 -15
13 -5 -4 -2 -13 6 -21 19 -20 19 -31 0 -31 -10 0 -14 6 -10 16 3 11 0 9 -10
-4 -19 -24 -14 -41 11 -37 18 2 18 2 1 -9 -13 -8 -22 -8 -32 1 -10 9 -13 8
-11 -4 1 -9 5 -19 9 -22 12 -12 8 -24 -9 -24 -8 0 -13 4 -9 9 3 5 1 12 -3 15
-5 3 -9 -7 -8 -22 1 -17 -4 -26 -12 -24 -8 1 -11 -2 -7 -8 3 -6 12 -7 18 -3
22 14 58 11 53 -4 -3 -8 -1 -11 4 -8 6 3 10 1 10 -6 0 -7 3 -10 6 -7 3 4 0 16
-6 28 -16 29 -5 57 15 40 10 -9 15 -9 15 -1 0 6 -5 11 -10 11 -11 0 -9 45 3
56 7 7 11 -9 8 -32 -1 -7 6 -15 15 -18 14 -5 15 -4 4 9 -9 11 -9 15 -1 15 8 0
7 6 -3 16 -22 21 -20 34 3 29 18 -3 19 -1 9 21 -6 13 -15 24 -20 24 -18 0 -7
16 12 17 11 1 18 -2 15 -8 -4 -5 1 -19 9 -31 9 -12 16 -17 16 -11 0 7 -4 14
-9 17 -5 3 -8 17 -8 31 0 20 2 23 12 15 10 -8 15 -8 21 1 4 7 -1 18 -12 26
-10 8 -18 16 -16 19 2 2 2 8 -1 12 -2 4 -2 1 -1 -5z m24 -45 c0 -6 -6 -5 -15
2 -8 7 -15 14 -15 16 0 2 7 1 15 -2 8 -4 15 -11 15 -16z m-107 -146 c4 9 6 9
6 1 2 -20 -16 -24 -30 -5 -13 15 -12 16 3 4 13 -10 17 -10 21 0z"/>
<path d="M1276 3878 c3 -5 10 -6 15 -3 13 9 11 12 -6 12 -8 0 -12 -4 -9 -9z"/>
<path d="M1226 3847 c-16 -12 -16 -13 2 -13 10 0 19 6 19 13 0 7 -1 13 -2 13
-1 0 -9 -6 -19 -13z"/>
<path d="M2852 3844 c4 -21 22 -23 26 -1 2 10 -3 17 -13 17 -10 0 -15 -6 -13
-16z"/>
<path d="M3144 3849 c-3 -6 -1 -16 5 -22 9 -9 14 -8 21 3 9 15 4 30 -10 30 -5
0 -12 -5 -16 -11z"/>
<path d="M2930 3815 c0 -16 -6 -25 -15 -25 -8 0 -15 -4 -15 -10 0 -5 7 -10 15
-10 12 0 15 -14 15 -66 0 -84 11 -104 55 -104 26 0 35 4 35 16 0 12 -6 15 -24
10 -30 -7 -36 7 -36 85 0 56 1 59 25 59 14 0 25 6 25 14 0 9 -8 12 -25 8 -22
-4 -25 -1 -25 22 0 16 -5 26 -15 26 -9 0 -15 -9 -15 -25z"/>
<path d="M3081 3791 c-8 -5 -20 -7 -28 -4 -14 5 -14 0 -14 -82 0 -94 1 -105
14 -105 10 0 13 18 12 65 -2 69 15 111 41 101 19 -7 30 14 13 25 -17 11 -21
11 -38 0z"/>
<path d="M3261 3791 c-8 -5 -20 -7 -26 -5 -18 7 -21 -11 -21 -100 1 -54 5 -81
14 -83 12 -5 16 22 12 98 -1 39 20 69 49 69 32 0 41 -22 41 -97 0 -58 3 -73
15 -73 23 0 21 140 -2 169 -20 24 -61 35 -82 22z"/>
<path d="M2704 3698 c20 -56 39 -93 47 -93 8 0 27 36 46 90 18 50 33 91 33 93
0 1 -7 2 -15 2 -8 0 -15 -1 -15 -3 0 -2 -11 -35 -24 -73 -14 -40 -27 -63 -30
-54 -38 105 -49 130 -62 130 -10 0 -6 -22 20 -92z"/>
<path d="M2850 3695 c0 -76 3 -95 14 -95 12 0 14 19 14 95 -1 73 -4 95 -15 95
-10 0 -13 -22 -13 -95z"/>
<path d="M3145 3698 c0 -64 4 -93 13 -96 9 -3 12 20 12 92 0 71 -3 96 -13 96
-9 0 -12 -24 -12 -92z"/>
<path d="M1055 3559 c-3 -4 2 -6 10 -5 21 3 28 13 10 13 -9 0 -18 -4 -20 -8z"/>
<path d="M945 3540 c3 -5 10 -10 16 -10 5 0 9 5 9 10 0 6 -7 10 -16 10 -8 0
-12 -4 -9 -10z"/>
<path d="M950 3516 c0 -2 7 -7 16 -10 8 -3 12 -2 9 4 -6 10 -25 14 -25 6z"/>
<path d="M990 3420 c0 -5 5 -10 11 -10 5 0 7 5 4 10 -3 6 -8 10 -11 10 -2 0
-4 -4 -4 -10z"/>
<path d="M1935 4071 c-3 -5 -15 -8 -27 -6 -16 4 -19 2 -10 -7 7 -7 18 -13 26
-14 19 -3 41 22 27 30 -5 4 -12 2 -16 -3z"/>
<path d="M1993 4065 c0 -8 4 -12 9 -9 5 3 6 10 3 15 -9 13 -12 11 -12 -6z"/>
<path d="M2090 4065 c-24 -13 -24 -14 -3 -12 12 1 25 7 27 14 6 16 7 16 -24
-2z"/>
<path d="M1626 4062 c-3 -5 -24 -8 -46 -7 -22 1 -43 -2 -46 -7 -3 -4 -9 -6
-14 -3 -5 3 -11 2 -14 -3 -2 -4 4 -13 14 -20 17 -10 18 -9 13 6 -5 14 -3 15 7
5 11 -10 18 -9 33 5 22 19 26 19 38 0 7 -10 9 -10 9 0 0 7 5 10 10 7 6 -4 7
-12 3 -18 -4 -7 1 -6 10 2 13 10 15 17 6 27 -13 16 -16 17 -23 6z m-56 -18 c0
-8 -19 -13 -24 -6 -3 5 1 9 9 9 8 0 15 -2 15 -3z"/>
<path d="M1726 4058 c3 -5 10 -6 15 -3 13 9 11 12 -6 12 -8 0 -12 -4 -9 -9z"/>
<path d="M1777 4048 c12 -13 19 -15 29 -7 7 6 19 7 26 3 11 -6 11 -4 0 7 -7 8
-26 14 -42 15 -28 0 -29 -1 -13 -18z m33 6 c0 -8 -19 -13 -24 -6 -3 5 1 9 9 9
8 0 15 -2 15 -3z"/>
<path d="M1400 4040 c0 -6 -4 -8 -10 -5 -6 3 -7 -1 -3 -10 4 -12 8 -13 13 -5
6 9 9 9 12 -1 2 -7 7 -9 10 -4 3 6 0 16 -8 23 -9 8 -14 9 -14 2z"/>
<path d="M915 3470 c-3 -5 -1 -10 6 -10 9 0 9 -3 0 -14 -8 -10 -9 -16 -1 -21
5 -3 10 -5 11 -3 7 30 7 48 0 53 -5 3 -12 1 -16 -5z"/>
<path d="M469 2722 c6 -12 16 -24 22 -28 8 -4 8 -1 0 14 -6 12 -16 24 -22 28
-8 4 -8 1 0 -14z"/>
<path d="M611 2691 c-8 -5 -9 -11 -3 -15 5 -3 12 1 16 9 6 17 6 18 -13 6z"/>
<path d="M694 2668 c-4 -7 -4 -10 1 -6 4 4 16 3 26 -3 24 -13 25 -40 2 -33
-15 5 -16 4 -3 -5 18 -12 35 2 27 23 -9 23 -44 39 -53 24z"/>
<path d="M690 2639 c0 -5 5 -7 10 -4 6 3 10 8 10 11 0 2 -4 4 -10 4 -5 0 -10
-5 -10 -11z"/>
<path d="M810 2600 c0 -5 5 -10 11 -10 5 0 7 5 4 10 -3 6 -8 10 -11 10 -2 0
-4 -4 -4 -10z"/>
<path d="M827 2567 c-3 -8 1 -14 8 -14 7 0 11 6 8 14 -3 7 -6 13 -8 13 -2 0
-5 -6 -8 -13z"/>
<path d="M1018 2453 c6 -2 10 -8 8 -12 -3 -4 1 -8 9 -8 11 0 12 4 4 14 -6 7
-17 13 -23 12 -7 0 -6 -2 2 -6z"/>
<path d="M394 2439 c-3 -6 -2 -15 3 -20 5 -5 9 -1 9 11 0 23 -2 24 -12 9z"/>
<path d="M415 2400 c-3 -5 -1 -10 4 -10 6 0 11 5 11 10 0 6 -2 10 -4 10 -3 0
-8 -4 -11 -10z"/>
<path d="M4470 2686 c0 -2 7 -7 16 -10 8 -3 12 -2 9 4 -6 10 -25 14 -25 6z"/>
<path d="M4385 2619 c-3 -4 2 -6 10 -5 21 3 28 13 10 13 -9 0 -18 -4 -20 -8z"/>
<path d="M4290 2559 c0 -5 5 -7 10 -4 6 3 10 8 10 11 0 2 -4 4 -10 4 -5 0 -10
-5 -10 -11z"/>
<path d="M4151 2526 c-9 -11 -7 -15 8 -19 12 -3 18 0 17 9 -3 22 -12 26 -25
10z"/>
<path d="M4110 2460 c0 -5 5 -10 10 -10 6 0 10 5 10 10 0 6 -4 10 -10 10 -5 0
-10 -4 -10 -10z"/>
<path d="M3981 2386 l-32 -33 26 -5 c14 -3 28 -1 32 5 4 6 1 7 -7 2 -8 -5 -11
-3 -8 6 3 8 11 13 17 11 7 -1 10 2 7 7 -4 5 0 11 6 14 9 3 10 8 2 16 -7 8 -19
2 -43 -23z m39 21 c0 -2 -12 -14 -27 -28 l-28 -24 24 28 c23 25 31 32 31 24z"/>
<path d="M4031 2364 c0 -11 3 -14 6 -6 3 7 2 16 -1 19 -3 4 -6 -2 -5 -13z"/>
<path d="M1626 2541 c-3 -4 4 -17 16 -27 12 -11 18 -13 14 -6 -4 6 -2 12 3 12
6 0 11 -4 11 -10 0 -5 14 -7 30 -5 17 2 30 -1 30 -6 0 -5 5 -9 11 -9 6 0 7 5
2 13 -4 6 -8 16 -8 21 0 15 -34 15 -43 0 -7 -12 -12 -11 -30 6 -24 22 -28 24
-36 11z m104 -17 c0 -8 -19 -13 -24 -6 -3 5 1 9 9 9 8 0 15 -2 15 -3z"/>
<path d="M2032 2537 c-11 -13 -38 -16 -57 -6 -18 10 -65 -7 -65 -23 0 -5 5 -6
10 -3 6 3 10 1 10 -4 0 -6 5 -11 11 -11 8 0 8 4 0 14 -7 9 -8 17 -3 20 6 3 13
-1 16 -10 3 -8 11 -12 16 -9 6 4 19 1 28 -7 16 -12 16 -11 2 6 -14 18 -13 19
3 13 10 -4 21 -7 23 -7 3 0 2 -5 -2 -12 -4 -6 3 -4 15 5 13 8 29 13 36 11 7
-3 16 3 19 13 6 14 5 15 -5 6 -10 -10 -16 -10 -29 2 -14 13 -19 13 -28 2z m24
-9 c4 -7 3 -8 -4 -4 -7 4 -12 2 -12 -5 0 -7 -3 -10 -6 -6 -6 5 3 27 11 27 2 0
7 -5 11 -12z"/>
<path d="M2512 2537 c-11 -13 -38 -16 -57 -6 -18 10 -65 -7 -65 -23 0 -5 5 -6
10 -3 6 3 10 1 10 -4 0 -6 5 -11 11 -11 8 0 8 4 0 14 -7 9 -8 17 -3 20 6 3 13
-1 16 -10 3 -8 11 -12 16 -9 6 4 19 1 28 -7 16 -12 16 -11 2 6 -14 18 -13 19
3 13 10 -4 21 -7 23 -7 3 0 2 -5 -2 -12 -4 -6 3 -4 15 5 13 8 29 13 36 11 7
-3 16 3 19 13 6 14 5 15 -5 6 -10 -10 -16 -10 -29 2 -14 13 -19 13 -28 2z m24
-9 c4 -7 3 -8 -4 -4 -7 4 -12 2 -12 -5 0 -7 -3 -10 -6 -6 -6 5 3 27 11 27 2 0
7 -5 11 -12z"/>
<path d="M2991 2537 c-11 -13 -37 -16 -56 -6 -18 10 -65 -7 -65 -23 0 -5 5 -6
10 -3 6 3 10 1 10 -4 0 -6 5 -11 11 -11 8 0 8 4 0 14 -7 9 -8 17 -3 20 6 3 13
-1 16 -10 3 -8 11 -12 16 -9 6 4 19 1 28 -7 16 -12 16 -11 2 6 -14 18 -13 19
3 13 10 -4 21 -7 23 -7 3 0 2 -5 -2 -12 -4 -6 3 -4 16 5 16 11 28 13 41 7 12
-7 22 -6 31 4 11 10 16 10 25 1 7 -7 10 -15 7 -17 -2 -3 3 -5 11 -5 10 0 12 4
5 12 -5 7 -6 16 -2 20 4 5 2 5 -5 1 -6 -3 -15 -1 -18 4 -5 8 -13 6 -24 -5 -16
-14 -20 -14 -43 5 -21 16 -28 17 -37 7z m25 -9 c4 -7 3 -8 -4 -4 -7 4 -12 2
-12 -5 0 -7 -3 -10 -6 -6 -6 5 3 27 11 27 2 0 7 -5 11 -12z"/>
<path d="M3266 2542 c-3 -5 1 -9 9 -9 8 0 12 4 9 9 -3 4 -7 8 -9 8 -2 0 -6 -4
-9 -8z"/>
<path d="M2166 2515 c-10 -15 -12 -26 -6 -30 6 -4 9 -1 8 6 -2 8 7 14 20 15
12 1 22 -3 22 -7 0 -5 5 -9 11 -9 8 0 8 4 1 13 -6 6 -10 16 -9 21 4 20 -33 13
-47 -9z m44 9 c0 -8 -19 -13 -24 -6 -3 5 1 9 9 9 8 0 15 -2 15 -3z"/>
<path d="M2646 2515 c-10 -15 -12 -26 -6 -30 6 -4 9 -1 8 6 -2 8 7 14 20 15
12 1 22 -3 22 -7 0 -5 5 -9 11 -9 8 0 8 4 1 13 -6 6 -10 16 -9 21 4 20 -33 13
-47 -9z m44 9 c0 -8 -19 -13 -24 -6 -3 5 1 9 9 9 8 0 15 -2 15 -3z"/>
<path d="M3373 2527 c-6 -10 8 -21 23 -17 4 1 11 -4 15 -12 6 -9 8 -5 6 11 -4
25 -32 37 -44 18z m37 -3 c0 -8 -19 -13 -24 -6 -3 5 1 9 9 9 8 0 15 -2 15 -3z"/>
<path d="M3443 2533 c-20 -7 -15 -19 7 -20 11 -1 20 2 20 7 0 12 -13 18 -27
13z"/>
<path d="M3480 2518 c0 -8 17 -12 35 -8 6 1 16 3 23 3 6 0 10 3 7 6 -9 8 -65
8 -65 -1z"/>
<path d="M2049 2483 c-13 -16 -12 -17 4 -4 9 7 17 15 17 17 0 8 -8 3 -21 -13z"/>
<path d="M2091 2484 c0 -11 3 -14 6 -6 3 7 2 16 -1 19 -3 4 -6 -2 -5 -13z"/>
<path d="M2115 2490 c-3 -6 1 -7 9 -4 18 7 21 14 7 14 -6 0 -13 -4 -16 -10z"/>
<path d="M2529 2483 c-13 -16 -12 -17 4 -4 9 7 17 15 17 17 0 8 -8 3 -21 -13z"/>
<path d="M2571 2484 c0 -11 3 -14 6 -6 3 7 2 16 -1 19 -3 4 -6 -2 -5 -13z"/>
<path d="M2595 2490 c-3 -6 1 -7 9 -4 18 7 21 14 7 14 -6 0 -13 -4 -16 -10z"/>
<path d="M3009 2483 c-13 -16 -12 -17 4 -4 9 7 17 15 17 17 0 8 -8 3 -21 -13z"/>
<path d="M3291 2484 c0 -11 3 -14 6 -6 3 7 2 16 -1 19 -3 4 -6 -2 -5 -13z"/>
<path d="M3348 2493 c7 -3 16 -2 19 1 4 3 -2 6 -13 5 -11 0 -14 -3 -6 -6z"/>
<path d="M3438 2493 c7 -3 16 -2 19 1 4 3 -2 6 -13 5 -11 0 -14 -3 -6 -6z"/>
<path d="M3531 2484 c0 -11 3 -14 6 -6 3 7 2 16 -1 19 -3 4 -6 -2 -5 -13z"/>
<path d="M1505 2480 c-3 -5 1 -10 9 -10 9 0 16 5 16 10 0 6 -4 10 -9 10 -6 0
-13 -4 -16 -10z"/>
<path d="M1650 2479 c0 -5 5 -7 10 -4 6 3 10 8 10 11 0 2 -4 4 -10 4 -5 0 -10
-5 -10 -11z"/>
<path d="M1890 2486 c0 -2 7 -7 16 -10 8 -3 12 -2 9 4 -6 10 -25 14 -25 6z"/>
<path d="M1966 2478 c3 -5 10 -6 15 -3 13 9 11 12 -6 12 -8 0 -12 -4 -9 -9z"/>
<path d="M2370 2486 c0 -2 7 -7 16 -10 8 -3 12 -2 9 4 -6 10 -25 14 -25 6z"/>
<path d="M2446 2478 c3 -5 10 -6 15 -3 13 9 11 12 -6 12 -8 0 -12 -4 -9 -9z"/>
<path d="M2850 2486 c0 -2 7 -7 16 -10 8 -3 12 -2 9 4 -6 10 -25 14 -25 6z"/>
<path d="M2926 2478 c3 -5 10 -6 15 -3 13 9 11 12 -6 12 -8 0 -12 -4 -9 -9z"/>
<path d="M1548 2463 c7 -3 16 -2 19 1 4 3 -2 6 -13 5 -11 0 -14 -3 -6 -6z"/>
<path d="M1470 2451 c0 -5 5 -13 10 -16 6 -3 10 -2 10 4 0 5 -4 13 -10 16 -5
3 -10 2 -10 -4z"/>
<path d="M1531 2394 c0 -11 3 -14 6 -6 3 7 2 16 -1 19 -3 4 -6 -2 -5 -13z"/>
<path d="M1520 2358 c0 -4 4 -8 9 -8 6 0 12 4 15 8 3 5 -1 9 -9 9 -8 0 -15 -4
-15 -9z"/>
<path d="M530 1639 c0 -8 5 -10 25 -9 9 1 33 -25 29 -31 -5 -8 44 -5 51 4 3 4
2 5 -2 2 -3 -3 -15 2 -25 12 -10 9 -18 13 -18 8 0 -4 -7 -1 -16 6 -19 16 -44
21 -44 8z"/>
<path d="M500 1606 c4 -4 16 -4 26 2 16 9 14 10 -8 9 -15 -1 -23 -6 -18 -11z"/>
<path d="M430 1599 c0 -5 5 -7 10 -4 6 3 10 8 10 11 0 2 -4 4 -10 4 -5 0 -10
-5 -10 -11z"/>
<path d="M553 1595 c0 -8 4 -12 9 -9 5 3 6 10 3 15 -9 13 -12 11 -12 -6z"/>
<path d="M884 1495 c8 -7 14 -14 11 -17 -3 -2 1 -5 9 -5 11 0 12 4 4 17 -6 9
-17 17 -26 17 -12 0 -12 -2 2 -12z"/>
<path d="M846 1482 c-2 -4 4 -8 14 -8 10 0 16 4 14 8 -3 4 -9 8 -14 8 -5 0
-11 -4 -14 -8z"/>
<path d="M4706 1623 c-6 -14 -5 -15 5 -6 7 7 10 15 7 18 -3 3 -9 -2 -12 -12z"/>
<path d="M4550 1590 c0 -6 7 -10 15 -10 8 0 15 2 15 4 0 2 -7 6 -15 10 -8 3
-15 1 -15 -4z"/>
<path d="M4305 1531 c-3 -5 2 -17 11 -25 19 -20 25 -20 18 -1 -4 8 -10 15 -16
15 -5 0 -6 5 -3 10 3 6 4 10 1 10 -3 0 -7 -4 -11 -9z"/>
<path d="M4160 1491 c-5 -11 -19 -23 -31 -26 -21 -7 -19 -17 6 -21 8 -1 13 3
12 9 -1 6 14 14 33 18 28 5 26 14 -2 10 -4 0 -5 6 -2 14 9 22 -3 18 -16 -4z"/>
<path d="M4290 1482 c0 -5 7 -9 15 -9 8 0 12 4 9 9 -3 4 -9 8 -15 8 -5 0 -9
-4 -9 -8z"/>
<path d="M1981 1606 c-10 -11 -7 -14 13 -12 18 1 22 4 14 14 -13 15 -13 15
-27 -2z"/>
<path d="M3179 1612 c-6 -51 -6 -51 12 -41 21 11 30 12 27 2 -2 -5 2 -9 7 -10
6 -2 10 5 10 15 -1 9 -6 16 -13 15 -7 -2 -12 1 -12 6 0 11 -30 23 -31 13z"/>
<path d="M1674 1601 c4 -6 1 -14 -8 -17 -8 -3 -12 -12 -9 -20 8 -20 23 -17 17
4 -5 14 -3 14 12 -3 13 -16 16 -17 11 -3 -3 10 -2 20 2 23 12 7 23 -24 15 -38
-5 -8 -4 -9 4 -2 6 6 12 19 14 30 2 14 -3 20 -17 20 -11 1 -26 5 -34 9 -10 6
-12 5 -7 -3z"/>
<path d="M2146 1588 c-23 -32 -20 -45 4 -17 10 13 19 19 20 12 0 -6 -4 -15
-10 -18 -5 -3 -10 -12 -9 -18 0 -9 2 -8 6 1 2 6 8 10 13 7 9 -5 6 42 -3 51 -3
3 -12 -5 -21 -18z"/>
<path d="M2310 1600 c0 -5 5 -10 11 -10 5 0 7 5 4 10 -3 6 -8 10 -11 10 -2 0
-4 -4 -4 -10z"/>
<path d="M3067 1596 c-3 -8 -13 -13 -20 -10 -14 5 -33 -24 -22 -34 3 -3 5 1 5
9 0 11 2 11 10 -1 7 -12 10 -12 10 -1 0 7 6 11 14 8 11 -4 13 -1 9 11 -6 15
-5 15 10 3 9 -7 15 -16 13 -20 -3 -4 6 -7 18 -7 22 0 24 4 17 50 0 5 -10 1
-20 -8 -18 -16 -20 -16 -29 -1 -8 16 -10 16 -15 1z m63 -14 c0 -13 -12 -22
-22 -16 -10 6 -1 24 13 24 5 0 9 -4 9 -8z"/>
<path d="M3273 1603 c4 -6 1 -15 -7 -20 -11 -6 -12 -13 -6 -23 8 -13 10 -12
10 3 0 10 5 15 10 12 6 -4 8 -11 5 -16 -4 -5 -1 -9 5 -9 7 0 10 6 7 14 -10 27
7 26 24 -1 18 -27 49 -40 49 -21 0 6 -7 8 -15 4 -18 -7 -20 5 -3 22 13 13 29
16 26 5 -2 -5 1 -9 6 -11 18 -5 14 28 -4 38 -13 7 -22 4 -35 -10 -17 -19 -19
-19 -31 -2 -7 9 -14 13 -14 8 0 -5 -8 -2 -17 5 -10 8 -14 9 -10 2z m97 -6 c0
-2 -10 -12 -22 -23 l-23 -19 19 23 c18 21 26 27 26 19z"/>
<path d="M3421 1596 c-6 -7 -9 -21 -5 -30 8 -22 25 -21 18 2 -5 14 -3 14 12
-3 13 -16 16 -17 11 -3 -3 10 -2 20 2 23 12 7 23 -24 15 -38 -5 -8 -4 -9 4 -2
6 6 12 19 14 30 2 14 -3 20 -17 20 -11 1 -25 4 -31 8 -7 4 -17 1 -23 -7z m23
-4 c3 -5 -1 -9 -9 -9 -8 0 -12 4 -9 9 3 4 7 8 9 8 2 0 6 -4 9 -8z"/>
<path d="M1880 1593 c6 -2 1 -12 -11 -22 l-21 -17 21 -1 c12 -1 21 4 21 13 0
8 0 17 1 21 0 4 -4 8 -10 9 -7 2 -8 1 -1 -3z"/>
<path d="M2220 1590 c-8 -5 -17 -7 -20 -5 -3 2 -7 -5 -7 -17 -2 -15 2 -18 15
-13 9 4 22 8 29 9 20 3 24 13 10 24 -8 7 -18 7 -27 2z m26 -12 c4 -7 4 -10 -1
-6 -4 4 -17 3 -29 -3 -20 -10 -20 -10 -2 5 24 19 23 19 32 4z"/>
<path d="M2637 1588 c-12 -10 -14 -17 -6 -28 9 -13 10 -12 5 3 -3 11 0 17 9
17 9 0 12 -6 8 -16 -4 -12 -2 -15 8 -12 16 5 19 40 4 45 -6 2 -18 -2 -28 -9z"/>
<path d="M2940 1591 c-8 -6 -17 -8 -20 -6 -4 2 -7 -2 -7 -9 0 -8 7 -12 15 -8
10 3 13 1 8 -6 -4 -7 -2 -12 4 -12 6 0 10 7 8 16 -2 10 4 19 12 21 12 4 12 3
1 -5 -8 -6 -9 -12 -3 -16 11 -7 24 18 15 28 -8 8 -15 7 -33 -3z"/>
<path d="M1755 1580 c-3 -5 -4 -14 0 -19 3 -6 -3 -14 -12 -20 -10 -6 -13 -11
-6 -11 14 0 27 18 28 42 2 20 -1 22 -10 8z"/>
<path d="M1930 1581 c0 -7 -4 -10 -9 -7 -5 3 -8 -6 -8 -21 l0 -27 14 28 c8 15
12 30 9 34 -3 3 -6 0 -6 -7z"/>
<path d="M2856 1573 c-3 -8 -10 -12 -14 -9 -5 3 -9 -1 -9 -9 0 -10 4 -12 12
-5 7 5 16 6 20 2 5 -4 5 -1 1 6 -4 6 -3 12 3 12 5 0 12 -6 14 -12 4 -10 6 -10
6 0 1 6 2 15 4 19 1 3 -6 7 -15 9 -9 1 -19 -5 -22 -13z"/>
<path d="M2990 1571 c0 -6 4 -12 8 -15 5 -3 9 1 9 9 0 8 -4 15 -9 15 -4 0 -8
-4 -8 -9z"/>
<path d="M2510 1561 c0 -6 4 -13 10 -16 6 -3 7 1 4 9 -7 18 -14 21 -14 7z"/>
<path d="M3150 1561 c0 -10 19 -25 25 -20 1 2 -3 10 -11 17 -8 7 -14 8 -14 3z"/>
<path d="M1466 1553 c-11 -11 -6 -23 9 -23 8 0 15 4 15 9 0 13 -16 22 -24 14z"/>
<path d="M1776 1543 c-6 -14 -5 -15 5 -6 7 7 10 15 7 18 -3 3 -9 -2 -12 -12z"/>
<path d="M2228 1543 c6 -2 18 -2 25 0 6 3 1 5 -13 5 -14 0 -19 -2 -12 -5z"/>
<path d="M2548 1543 c6 -2 9 -10 6 -15 -4 -7 -2 -8 5 -4 13 9 5 26 -12 25 -9
0 -8 -2 1 -6z"/>
<path d="M2680 1540 c-9 -6 -10 -10 -3 -10 6 0 15 5 18 10 8 12 4 12 -15 0z"/>
<path d="M2775 1540 c3 -5 8 -10 11 -10 2 0 4 5 4 10 0 6 -5 10 -11 10 -5 0
-7 -4 -4 -10z"/>
<path d="M3193 1535 c0 -8 4 -12 9 -9 4 3 8 9 8 15 0 5 -4 9 -8 9 -5 0 -9 -7
-9 -15z"/>
<path d="M2929 1523 c-13 -16 -12 -17 4 -4 16 13 21 21 13 21 -2 0 -10 -8 -17
-17z"/>
<path d="M1460 1506 c0 -2 7 -6 15 -10 8 -3 15 -1 15 4 0 6 -7 10 -15 10 -8 0
-15 -2 -15 -4z"/>
<path d="M2410 1598 c-20 -17 -21 -20 -5 -13 11 4 28 8 37 9 13 0 14 4 6 13
-13 16 -8 17 -38 -9z"/>
<path d="M2796 1593 c-6 -14 -5 -15 5 -6 7 7 10 15 7 18 -3 3 -9 -2 -12 -12z"/>
<path d="M1512 1073 c5 -7 14 -10 19 -7 16 10 9 23 -10 21 -15 -1 -17 -4 -9
-14z"/>
<path d="M1676 1082 c-3 -5 1 -9 9 -9 8 0 12 4 9 9 -3 4 -7 8 -9 8 -2 0 -6 -4
-9 -8z"/>
<path d="M3613 1093 c4 -3 1 -13 -6 -22 -10 -14 -10 -14 4 -4 9 7 20 9 25 5 4
-4 2 1 -5 11 -7 9 -16 17 -19 17 -3 0 -2 -3 1 -7z"/>
<path d="M3914 3986 c1 -8 5 -18 8 -22 4 -3 5 1 4 10 -1 8 -5 18 -8 22 -4 3
-5 -1 -4 -10z"/>
<path d="M3960 3925 c0 -2 6 -8 13 -14 10 -8 14 -7 14 2 0 8 -6 14 -14 14 -7
0 -13 -1 -13 -2z"/>
<path d="M4100 3736 c0 -2 7 -7 16 -10 8 -3 12 -2 9 4 -6 10 -25 14 -25 6z"/>
<path d="M4136 3695 c-9 -26 -7 -32 5 -12 6 10 9 21 6 23 -2 3 -7 -2 -11 -11z"/>
<path d="M4206 3568 c3 -5 10 -6 15 -3 13 9 11 12 -6 12 -8 0 -12 -4 -9 -9z"/>
<path d="M4251 3553 c7 -12 15 -20 18 -17 3 2 -3 12 -13 22 -17 16 -18 16 -5
-5z"/>
<path d="M4227 3539 c7 -7 15 -10 18 -7 3 3 -2 9 -12 12 -14 6 -15 5 -6 -5z"/>
<path d="M4276 3498 c3 -5 10 -6 15 -3 13 9 11 12 -6 12 -8 0 -12 -4 -9 -9z"/>
<path d="M636 3443 c-6 -14 -5 -15 5 -6 7 7 10 15 7 18 -3 3 -9 -2 -12 -12z"/>
<path d="M4303 3436 c1 -11 9 -21 17 -23 10 -3 11 -2 4 4 -6 4 -14 15 -17 23
-5 11 -6 9 -4 -4z"/>
<path d="M645 3421 c-3 -5 -2 -12 3 -15 5 -3 9 1 9 9 0 17 -3 19 -12 6z"/>
<path d="M670 3420 c0 -5 5 -10 11 -10 5 0 7 5 4 10 -3 6 -8 10 -11 10 -2 0
-4 -4 -4 -10z"/>
<path d="M4914 3389 c-3 -6 -2 -15 3 -20 5 -5 9 -1 9 11 0 23 -2 24 -12 9z"/>
<path d="M307 3215 c-8 -19 13 -31 23 -14 9 14 4 29 -10 29 -4 0 -10 -7 -13
-15z"/>
<path d="M4691 3216 c-7 -8 -10 -21 -6 -28 4 -7 -1 -4 -9 6 -9 11 -16 14 -16
7 0 -7 -5 -9 -10 -6 -6 4 -17 2 -24 -4 -11 -9 -17 -8 -28 2 -11 11 -18 12 -29
3 -15 -11 -21 -66 -7 -66 4 0 6 12 5 27 -1 16 4 28 13 30 12 4 12 3 2 -5 -11
-7 -11 -12 2 -24 8 -9 13 -18 11 -22 -3 -3 -2 -3 3 0 4 3 7 11 7 17 0 7 11 13
24 13 13 1 27 7 31 14 5 8 10 9 14 2 4 -6 -2 -15 -11 -21 -16 -9 -16 -10 4 -8
12 0 19 5 17 9 -3 4 0 8 6 8 7 0 10 7 7 15 -7 18 9 30 19 14 5 -8 3 -9 -6 -4
-9 5 -11 4 -6 -4 4 -6 12 -9 17 -6 8 5 13 -7 11 -26 -1 -3 6 -6 14 -6 10 0 11
4 4 11 -15 15 -12 30 3 18 15 -13 31 -4 40 23 6 17 4 16 -11 -4 -13 -16 -22
-20 -26 -12 -4 6 -1 11 6 11 8 0 6 5 -5 11 -9 5 -22 7 -28 3 -6 -3 -15 -1 -19
5 -5 9 -10 8 -19 -3z m59 -10 c0 -3 -4 -8 -10 -11 -5 -3 -10 -1 -10 4 0 6 5
11 10 11 6 0 10 -2 10 -4z m-100 -20 c0 -3 -4 -8 -10 -11 -5 -3 -10 -1 -10 4
0 6 5 11 10 11 6 0 10 -2 10 -4z m-40 -10 c0 -3 -4 -8 -10 -11 -5 -3 -10 -1
-10 4 0 6 5 11 10 11 6 0 10 -2 10 -4z"/>
<path d="M333 3163 c0 -8 6 -9 19 -2 10 5 18 11 18 12 0 2 -8 3 -18 3 -10 0
-19 -6 -19 -13z"/>
<path d="M393 3145 c0 -8 4 -12 9 -9 5 3 6 10 3 15 -9 13 -12 11 -12 -6z"/>
<path d="M4520 3086 c0 -2 7 -7 16 -10 8 -3 12 -2 9 4 -6 10 -25 14 -25 6z"/>
<path d="M4870 2758 c0 -4 4 -8 9 -8 6 0 12 4 15 8 3 5 -1 9 -9 9 -8 0 -15 -4
-15 -9z"/>
<path d="M4907 2735 c3 -8 9 -12 14 -9 12 7 11 11 -5 17 -10 4 -13 1 -9 -8z"/>
<path d="M4951 2668 c5 -10 11 -18 12 -18 2 0 3 8 3 18 0 10 -6 19 -13 19 -8
0 -9 -6 -2 -19z"/>
<path d="M4945 2630 c-17 -7 -17 -9 -2 -9 19 -1 22 -12 7 -27 -6 -6 -3 -10 9
-10 15 0 17 4 11 22 -5 12 -6 25 -3 28 8 8 3 7 -22 -4z"/>
<path d="M4980 2560 c0 -5 5 -10 11 -10 5 0 7 5 4 10 -3 6 -8 10 -11 10 -2 0
-4 -4 -4 -10z"/>
<path d="M4951 1251 c-9 -6 -5 -13 14 -25 15 -10 29 -15 32 -12 3 3 -2 8 -11
12 -9 3 -14 10 -11 14 8 13 -9 20 -24 11z"/>
<path d="M4950 1131 c0 -5 5 -13 10 -16 6 -3 10 -2 10 4 0 5 -4 13 -10 16 -5
3 -10 2 -10 -4z"/>
<path d="M2280 1095 c-7 -9 -20 -13 -28 -10 -8 3 -21 0 -28 -6 -8 -6 -14 -7
-14 -2 0 5 -9 9 -20 10 -11 1 -20 -3 -20 -10 0 -8 -3 -8 -12 1 -9 9 -15 7 -25
-6 -8 -9 -12 -12 -9 -5 10 19 -11 24 -25 6 -10 -12 -10 -14 -1 -9 6 4 12 3 12
-3 0 -5 9 -9 19 -8 11 0 17 5 15 9 -3 4 0 8 5 8 6 0 11 -6 11 -12 0 -7 5 -5
11 5 10 16 13 17 33 3 15 -9 28 -11 37 -5 21 13 35 11 21 -3 -7 -7 -12 -16
-12 -20 0 -4 9 1 20 12 27 27 48 26 24 -2 l-19 -22 27 20 c15 10 28 23 28 28
0 5 10 1 22 -10 12 -10 18 -13 14 -6 -7 12 4 16 32 13 14 -2 15 8 3 28 -7 11
-12 10 -28 -6 -20 -20 -20 -20 -36 0 -9 12 -20 17 -24 13 -4 -4 -1 -11 6 -15
9 -6 10 -11 2 -15 -6 -4 -11 -2 -11 5 0 10 -3 10 -12 1 -7 -7 -16 -12 -22 -12
-5 0 -1 6 10 14 10 8 16 17 13 20 -3 4 -12 -1 -19 -9z m-30 -19 c0 -2 -7 -7
-16 -10 -8 -3 -12 -2 -9 4 6 10 25 14 25 6z"/>
<path d="M3030 1085 c-10 -12 -15 -13 -20 -4 -6 8 -9 8 -14 0 -6 -10 6 -15 19
-8 2 1 11 -7 19 -18 9 -11 16 -15 16 -8 0 6 -5 15 -10 18 -8 5 -7 11 1 21 6 8
9 14 6 14 -2 0 -10 -7 -17 -15z"/>
<path d="M3251 1083 c-7 -13 -10 -14 -11 -4 0 11 -4 11 -18 -2 -13 -12 -21
-14 -29 -6 -8 8 -13 7 -18 -2 -5 -8 -4 -10 3 -5 7 4 12 2 12 -4 0 -7 6 -10 14
-7 7 3 20 0 27 -6 11 -10 11 -9 1 4 -11 14 -9 17 13 17 14 0 28 -5 31 -9 11
-18 24 2 14 22 -13 24 -26 24 -39 2z m30 -10 c13 -16 12 -17 -3 -4 -17 13 -22
21 -14 21 2 0 10 -8 17 -17z"/>
<path d="M2730 1079 c0 -5 -4 -7 -10 -4 -6 4 -7 -1 -3 -11 4 -11 8 -13 11 -6
2 7 8 10 13 7 5 -4 6 1 3 9 -7 18 -14 21 -14 5z"/>
<path d="M2810 1089 c0 -4 6 -19 14 -33 10 -21 15 -23 19 -11 4 8 2 15 -4 15
-6 0 -7 5 -3 12 5 8 13 5 25 -10 19 -24 34 -28 44 -12 4 6 -1 7 -12 3 -16 -6
-16 -5 -4 10 7 9 12 17 10 18 -32 7 -69 5 -69 -4 0 -7 -4 -6 -10 3 -5 8 -10
12 -10 9z m80 -15 c0 -8 -19 -13 -24 -6 -3 5 1 9 9 9 8 0 15 -2 15 -3z"/>
<path d="M2910 1077 c0 -5 7 -6 16 -3 13 5 14 4 6 -7 -9 -10 -8 -14 3 -14 8 0
12 4 9 9 -3 4 0 8 5 8 6 0 11 -6 11 -12 0 -7 5 -5 11 5 6 10 8 21 5 24 -3 4
-6 1 -6 -7 0 -8 -4 -9 -12 -3 -16 13 -48 13 -48 0z"/>
<path d="M3310 1075 c0 -8 7 -11 20 -8 11 3 20 8 20 12 0 4 -9 7 -20 8 -11 1
-20 -4 -20 -12z"/>
<path d="M3363 1085 c4 -5 -3 -15 -15 -21 l-23 -13 22 2 c26 1 38 23 20 33 -7
4 -8 3 -4 -1z"/>
<path d="M3863 1083 c4 -3 1 -13 -6 -21 -10 -13 -9 -14 2 -7 11 6 13 4 8 -11
-7 -18 -7 -18 8 0 13 18 20 15 16 -6 0 -5 5 -7 12 -5 6 1 11 -4 9 -11 -1 -8 2
-11 8 -7 8 5 7 12 -2 23 -11 13 -10 15 9 10 15 -4 20 -2 16 8 -2 7 -11 10 -19
7 -7 -3 -17 2 -20 11 -3 9 -15 16 -27 16 -11 0 -17 -3 -14 -7z m38 -20 c12
-16 12 -17 -2 -6 -9 7 -20 9 -24 5 -5 -4 -5 -1 -1 6 9 16 11 15 27 -5z"/>
<path d="M4114 1068 c-3 -4 2 -8 10 -8 8 0 17 4 20 8 3 5 -2 9 -10 9 -8 0 -17
-4 -20 -9z"/>
<path d="M1347 1046 c-4 -10 -1 -13 8 -9 8 3 12 9 9 14 -7 12 -11 11 -17 -5z"/>
<path d="M2040 1051 c0 -6 4 -13 10 -16 6 -3 7 1 4 9 -7 18 -14 21 -14 7z"/>
<path d="M2376 1043 c-6 -14 -5 -15 5 -6 7 7 10 15 7 18 -3 3 -9 -2 -12 -12z"/>
<path d="M2547 1047 c-3 -8 0 -14 7 -14 7 0 13 6 13 14 0 7 -4 13 -8 13 -4 0
-9 -6 -12 -13z"/>
<path d="M2701 1044 c0 -11 3 -14 6 -6 3 7 2 16 -1 19 -3 4 -6 -2 -5 -13z"/>
<path d="M3100 1037 c-12 -21 -12 -21 6 -7 10 8 20 15 22 16 2 1 -1 4 -5 7 -5
3 -15 -4 -23 -16z"/>
<path d="M3381 1054 c-1 -6 5 -17 12 -23 10 -8 14 -7 14 4 0 8 -4 12 -8 9 -4
-2 -10 2 -12 8 -4 8 -6 9 -6 2z"/>
<path d="M1215 1040 c3 -5 8 -10 11 -10 2 0 4 5 4 10 0 6 -5 10 -11 10 -5 0
-7 -4 -4 -10z"/>
<path d="M2196 1033 c-6 -14 -5 -15 5 -6 7 7 10 15 7 18 -3 3 -9 -2 -12 -12z"/>
<path d="M2330 1039 c0 -5 5 -7 10 -4 6 3 10 8 10 11 0 2 -4 4 -10 4 -5 0 -10
-5 -10 -11z"/>
<path d="M2736 1041 c-4 -5 3 -7 14 -4 23 6 26 13 6 13 -8 0 -17 -4 -20 -9z"/>
<path d="M2996 1033 c-6 -14 -5 -15 5 -6 7 7 10 15 7 18 -3 3 -9 -2 -12 -12z"/>
<path d="M3435 1040 c-3 -6 1 -7 9 -4 18 7 21 14 7 14 -6 0 -13 -4 -16 -10z"/>
<path d="M2153 1025 c0 -8 4 -12 9 -9 5 3 6 10 3 15 -9 13 -12 11 -12 -6z"/>
<path d="M2953 1025 c0 -8 4 -12 9 -9 5 3 6 10 3 15 -9 13 -12 11 -12 -6z"/>
<path d="M3994 1026 c1 -8 5 -18 8 -22 4 -3 5 1 4 10 -1 8 -5 18 -8 22 -4 3
-5 -1 -4 -10z"/>
<path d="M1134 1018 c-3 -4 5 -5 17 -3 30 6 36 14 9 12 -12 -1 -24 -5 -26 -9z"/>
<path d="M3948 1023 c7 -3 16 -2 19 1 4 3 -2 6 -13 5 -11 0 -14 -3 -6 -6z"/>
<path d="M4927 1023 c-13 -12 -7 -23 22 -38 22 -11 32 -12 37 -3 4 7 3 8 -4 4
-7 -4 -12 -1 -12 9 0 10 -7 15 -17 13 -10 -2 -17 3 -15 10 2 13 -1 15 -11 5z"/>
<path d="M945 1000 c-3 -6 1 -7 9 -4 18 7 21 14 7 14 -6 0 -13 -4 -16 -10z"/>
<path d="M4821 806 c-7 -9 -8 -17 -2 -20 5 -3 8 -18 6 -33 -2 -25 -2 -26 11
-8 10 13 11 22 3 32 -9 9 -8 13 0 13 7 0 9 5 5 12 -4 7 -3 8 5 4 6 -4 9 -11 6
-16 -3 -5 0 -12 6 -16 8 -4 9 -3 5 4 -4 8 0 12 11 12 14 1 13 4 -7 15 -32 18
-35 18 -49 1z"/>
<path d="M4290 800 c0 -5 5 -10 11 -10 5 0 7 5 4 10 -3 6 -8 10 -11 10 -2 0
-4 -4 -4 -10z"/>
<path d="M255 790 c-3 -5 -1 -10 4 -10 6 0 11 5 11 10 0 6 -2 10 -4 10 -3 0
-8 -4 -11 -10z"/>
<path d="M385 770 c-4 -6 -5 -12 -4 -13 2 -2 13 -9 24 -17 19 -14 19 -14 5 4
-8 11 -13 21 -12 23 2 3 1 7 -1 9 -3 3 -8 0 -12 -6z"/>
<path d="M4310 770 c0 -5 7 -7 15 -4 8 4 15 8 15 10 0 2 -7 4 -15 4 -8 0 -15
-4 -15 -10z"/>
<path d="M605 760 c-2 -3 0 -12 5 -20 7 -12 10 -12 16 3 3 9 10 14 15 11 5 -3
9 -1 9 5 0 10 -39 11 -45 1z"/>
<path d="M310 751 c0 -5 5 -13 10 -16 6 -3 10 -2 10 4 0 5 -4 13 -10 16 -5 3
-10 2 -10 -4z"/>
<path d="M576 745 c4 -8 11 -15 16 -15 6 0 5 6 -2 15 -7 8 -14 15 -16 15 -2 0
-1 -7 2 -15z"/>
<path d="M371 724 c0 -11 3 -14 6 -6 3 7 2 16 -1 19 -3 4 -6 -2 -5 -13z"/>
<path d="M510 731 c0 -6 4 -12 8 -15 5 -3 9 1 9 9 0 8 -4 15 -9 15 -4 0 -8 -4
-8 -9z"/>
<path d="M650 731 c0 -6 4 -13 10 -16 6 -3 7 1 4 9 -7 18 -14 21 -14 7z"/>
<path d="M4493 721 c0 -11 5 -18 9 -15 4 3 5 11 1 19 -7 21 -12 19 -10 -4z"/>
<path d="M4550 725 c-11 -13 -10 -14 4 -9 9 3 16 10 16 15 0 13 -6 11 -20 -6z"/>
<path d="M4365 720 c-3 -6 1 -7 9 -4 18 7 21 14 7 14 -6 0 -13 -4 -16 -10z"/>
</g>
</svg>
