<?xml version="1.0" encoding="utf-8"?>
<!-- Generator: Adobe Illustrator 18.0.0, SVG Export Plug-In . SVG Version: 6.00 Build 0)  -->
<!DOCTYPE svg PUBLIC "-//W3C//DTD SVG 1.1//EN" "http://www.w3.org/Graphics/SVG/1.1/DTD/svg11.dtd">
<svg version="1.1" id="Layer_1" xmlns="http://www.w3.org/2000/svg" xmlns:xlink="http://www.w3.org/1999/xlink" x="0px" y="0px"
	 viewBox="0 0 500 500" style="enable-background:new 0 0 500 500;" xml:space="preserve">
<style type="text/css">
	.st0{fill:#ECECEC;}
	.st1{fill:#C2C2C2;}
	.st2{fill:#666666;}
	.st3{fill:#B3B3B3;}
	.st4{fill:#4D4D4D;}
	.st5{fill:#FFFFFF;}
	.st6{fill:#FAF18E;}
	.st7{opacity:0.2;}
	.st8{fill:url(#XMLID_3_);}
	.st9{fill:url(#path3824_4_);}
	.st10{opacity:0.56;fill:url(#path3824_5_);}
	.st11{fill:url(#XMLID_4_);}
	.st12{opacity:0.56;}
	.st13{fill:#999999;}
	.st14{display:none;fill:none;stroke:#B3B3B3;stroke-miterlimit:10;}
</style>
<path id="XMLID_66_" class="st0" d="M363.1,54c-35.5-20.5-74.2-30.3-112.5-30.3C172.3,23.6,96,64.2,54,136.9
	C-8.4,245,28.7,383.5,136.9,446C245,508.4,383.5,471.3,446,363.1C508.4,255,471.3,116.5,363.1,54z"/>
<path id="XMLID_7_" class="st1" d="M250,405.6c-85.9,0-155.6-69.8-155.6-155.6c0-85.9,69.8-155.6,155.6-155.6
	c85.9,0,155.6,69.8,155.6,155.6C405.6,335.9,335.9,405.6,250,405.6z"/>
<path id="XMLID_33_" class="st2" d="M250,401.3c-83.4,0-151.3-67.9-151.3-151.3c0-83.4,67.9-151.3,151.3-151.3
	c83.4,0,151.3,67.9,151.3,151.3C401.3,333.4,333.4,401.3,250,401.3z M250,102.9c-81.1,0-147.1,66-147.1,147.1
	c0,81.1,66,147.1,147.1,147.1c81.1,0,147.1-66,147.1-147.1C397.1,168.9,331.1,102.9,250,102.9z"/>
<path id="XMLID_23_" class="st3" d="M250,404.3c-85.1,0-154.3-69.2-154.3-154.3c0-85.1,69.2-154.3,154.3-154.3
	c85.1,0,154.3,69.2,154.3,154.3C404.3,335.1,335.1,404.3,250,404.3z M250,99.9c-82.8,0-150.1,67.3-150.1,150.1
	c0,82.8,67.3,150.1,150.1,150.1c82.8,0,150.1-67.3,150.1-150.1C400.1,167.2,332.8,99.9,250,99.9z"/>
<g id="XMLID_57_">
	<circle id="XMLID_62_" class="st4" cx="255.4" cy="118.4" r="3.9"/>
	<circle id="XMLID_61_" class="st4" cx="270.5" cy="118.4" r="3.9"/>
	<circle id="XMLID_60_" class="st4" cx="285.7" cy="118.4" r="3.9"/>
	<rect id="XMLID_59_" x="251.6" y="125.9" class="st4" width="38" height="5.3"/>
</g>
<g id="XMLID_2_">
	<circle id="XMLID_18_" class="st5" cx="254.3" cy="117.3" r="3.9"/>
	<circle id="XMLID_17_" class="st5" cx="269.5" cy="117.3" r="3.9"/>
	<circle id="XMLID_16_" class="st5" cx="284.6" cy="117.3" r="3.9"/>
	<rect id="XMLID_13_" x="250.5" y="124.8" class="st5" width="38" height="5.3"/>
</g>
<path id="XMLID_10_" d="M250,34.6C131.1,34.6,34.6,131.1,34.6,250S131.1,465.4,250,465.4S465.4,368.9,465.4,250S368.9,34.6,250,34.6
	z M250,405.6c-85.9,0-155.6-69.8-155.6-155.6c0-85.9,69.8-155.6,155.6-155.6c85.9,0,155.6,69.8,155.6,155.6
	C405.6,335.9,335.9,405.6,250,405.6z"/>
<g id="XMLID_65_">
	<path id="XMLID_70_" class="st4" d="M191.2,394.2c-13.1-5.4-25.4-12.6-36.6-21.3l-1.7-1.3V269.4H95.5l-0.4-3.9
		c-0.5-5.1-0.8-10.2-0.8-15.4c0-7,0.5-14.1,1.4-21c0.1-0.5,0.5-3.1,0.5-3.6l3.7-0.2H153v-96.8l1.7-1.3c11.2-8.7,23.5-15.9,36.6-21.3
		l6-2.5v121.8h55.5v44h-55.5v127.3L191.2,394.2z"/>
</g>
<g id="XMLID_71_">
	<path id="XMLID_72_" class="st4" d="M188,394.2c-13.1-5.4-25.4-12.6-36.6-21.3l-1.7-1.3V269.4H92.3l-0.4-3.9
		c-0.5-5.1-0.8-10.2-0.8-15.4c0-7,0.5-14.1,1.4-21c0.1-0.5,0.5-3.1,0.5-3.6l3.7-0.2h52.9v-96.8l1.7-1.3
		c11.2-8.7,23.5-15.9,36.6-21.3l6-2.5v121.8h55.5v44h-55.5v127.3L188,394.2z"/>
</g>
<g id="XMLID_15_">
	<path id="XMLID_22_" class="st0" d="M189.1,394.2c-13.1-5.4-25.4-12.6-36.6-21.3l-1.7-1.3V269.4H93.4l-0.4-3.9
		c-0.5-5.1-0.8-10.2-0.8-15.4c0-7,0.5-14.1,1.4-21c0.1-0.5,0.5-3.1,0.5-3.6l3.7-0.2h52.9v-96.8l1.7-1.3
		c11.2-8.7,23.5-15.9,36.6-21.3l6-2.5v121.8h55.5v44H195v127.3L189.1,394.2z"/>
</g>
<path id="path2881_1_" class="st6" d="M154.6,134.7c-0.4,0.4-0.9,0.7-1.3,1.1C153.7,135.5,154.1,135.1,154.6,134.7z"/>
<path id="path2869_1_" class="st6" d="M153.3,364.1c0.4,0.4,0.9,0.7,1.3,1.1C154.1,364.9,153.7,364.5,153.3,364.1z"/>
<path id="path2883_1_" class="st7" d="M190.7,110.1v119.7h55.5v35.3h-55.5v125.1c-12.8-5.3-24.8-12.3-35.6-20.7V265.1H97.3
	c-0.5-4.9-0.7-9.9-0.7-14.9c0-6.9,0.5-13.7,1.4-20.4c0.1-0.5,0.1-1,0.2-1.5c-0.1,0.5-0.1,1-0.2,1.5h57.2v-99
	C165.9,122.4,177.9,115.4,190.7,110.1z"/>
<g id="XMLID_19_">
	
		<linearGradient id="XMLID_3_" gradientUnits="userSpaceOnUse" x1="9.573918e-003" y1="4.390543e-002" x2="1.0878" y2="4.390543e-002" gradientTransform="matrix(121.3651 233.7993 -233.7993 119.6393 131.565 139.351)">
		<stop  offset="0" style="stop-color:#D71F28"/>
		<stop  offset="0.5" style="stop-color:#83151E"/>
		<stop  offset="1" style="stop-color:#4C0017"/>
	</linearGradient>
	<path id="XMLID_26_" class="st8" d="M188.6,387c-11.1-4.9-21.6-11.1-31.3-18.5V262.9h-58c-0.4-4.2-0.5-8.5-0.5-12.8
		c0-6.1,0.4-12.2,1.1-18.2h57.5V131.8c9.6-7.4,20.1-13.6,31.3-18.5v118.6h55.5v31h-55.5V387z"/>
</g>
<g id="XMLID_63_">
	<path id="XMLID_64_" class="st4" d="M281.4,403.4c4.5-2.7,32.5-20.3,31.1-29.7c-0.4-2.4-1.5-3.8-3.5-4.1h-43.3l-0.1,0
		c-22.9-1.2-31-19.7-31-35.2c0-11.6,8.5-25.2,20.3-30.1c-17.4-5.4-33-26.8-33-47.9c0-12.9,4.7-25.9,12.9-35.7
		c8.3-10,19.3-15.7,30.2-15.7h40.2c0.9,0,1.7-0.3,2.2-0.9c0.5-0.5,0.8-1.3,0.8-2.3c0-3.1-4.6-3.2-4.6-3.2h-66.2l15.3-24.3
		l-15.6-22.8h46.4c1.6,0,3.1-0.5,4.3-1.6c0.1-0.2,0.4-1,0.5-1.5c0.4-1.3,0.9-3.2,2.3-4.8c3.3-3.6,8.6-5.5,15.4-5.5
		c4.1,0,7.5,0.7,8.6,0.9c0.4,0,0.8,0,1.2,0h0c6,0,10.6-2,13.5-5.9c3-4,3.3-9,2.9-10.2l-3.2-10.8c0,0,28.1,21.1,36.1,31.4
		c8.5,11,19.5,32,19.5,49.4c0,37.3-22.5,61.4-47.1,66.6c16.7,5.6,25.5,23.2,25.5,39.9c0,21-14.1,43.6-37,43.6h-3.7
		c8.8,4.7,13.9,13.6,13.4,24.5c-0.4,8.1-5.6,13.5-9.4,16.9c-3.9,3.4-13,8.9-26.1,13.2L281.4,403.4z"/>
</g>
<g id="XMLID_73_">
	<path id="XMLID_74_" class="st4" d="M278.1,403.4c4.5-2.7,32.5-20.3,31.1-29.7c-0.4-2.4-1.5-3.8-3.5-4.1h-43.3l-0.1,0
		c-22.9-1.2-31-19.7-31-35.2c0-11.6,8.5-25.2,20.3-30.1c-17.4-5.4-33-26.8-33-47.9c0-12.9,4.7-25.9,12.9-35.7
		c8.3-10,19.3-15.7,30.2-15.7H302c0.9,0,1.7-0.3,2.2-0.9c0.5-0.5,0.8-1.3,0.8-2.3c0-3.1-4.6-3.2-4.6-3.2h-66.2l15.3-24.3l-15.6-22.8
		h46.4c1.6,0,3.1-0.5,4.3-1.6c0.1-0.2,0.4-1,0.5-1.5c0.4-1.3,0.9-3.2,2.3-4.8c3.3-3.6,8.6-5.5,15.4-5.5c4.1,0,7.5,0.7,8.6,0.9
		c0.4,0,0.8,0,1.2,0h0c6,0,10.6-2,13.5-5.9c3-4,3.3-9,2.9-10.2l-3.2-10.8c0,0,28.1,21.1,36.1,31.4c8.5,11,19.5,32,19.5,49.4
		c0,37.3-22.5,61.4-47.1,66.6c16.7,5.6,25.5,23.2,25.5,39.9c0,21-14.1,43.6-37,43.6h-3.7c8.8,4.7,13.9,13.6,13.4,24.5
		c-0.4,8.1-5.6,13.5-9.4,16.9c-3.9,3.4-13,8.9-26.1,13.2L278.1,403.4z"/>
</g>
<g id="XMLID_11_">
	<path id="XMLID_20_" class="st0" d="M279.2,403.4c4.5-2.7,32.5-20.3,31.1-29.7c-0.4-2.4-1.5-3.8-3.5-4.1h-43.3l-0.1,0
		c-22.9-1.2-31-19.7-31-35.2c0-11.6,8.5-25.2,20.3-30.1c-17.4-5.4-33-26.8-33-47.9c0-12.9,4.7-25.9,12.9-35.7
		c8.3-10,19.3-15.7,30.2-15.7h40.2c0.9,0,1.7-0.3,2.2-0.9c0.5-0.5,0.8-1.3,0.8-2.3c0-3.1-4.6-3.2-4.6-3.2h-66.2l15.3-24.3L235,151.6
		h46.4c1.6,0,3.1-0.5,4.3-1.6c0.1-0.2,0.4-1,0.5-1.5c0.4-1.3,0.9-3.2,2.3-4.8c3.3-3.6,8.6-5.5,15.4-5.5c4.1,0,7.5,0.7,8.6,0.9
		c0.4,0,0.8,0,1.2,0h0c6,0,10.6-2,13.5-5.9c3-4,3.3-9,2.9-10.2l-3.2-10.8c0,0,28.1,21.1,36.1,31.4c8.5,11,19.5,32,19.5,49.4
		c0,37.3-22.5,61.4-47.1,66.6c16.7,5.6,25.5,23.2,25.5,39.9c0,21-14.1,43.6-37,43.6h-3.7c8.8,4.7,13.9,13.6,13.4,24.5
		c-0.4,8.1-5.6,13.5-9.4,16.9c-3.9,3.4-13,8.9-26.1,13.2L279.2,403.4z"/>
</g>
<linearGradient id="path3824_4_" gradientUnits="userSpaceOnUse" x1="368.4472" y1="277.8605" x2="216.3162" y2="222.4894">
	<stop  offset="0" style="stop-color:#2C734D"/>
	<stop  offset="0.2137" style="stop-color:#257847"/>
	<stop  offset="0.4483" style="stop-color:#17823B"/>
	<stop  offset="1" style="stop-color:#2B734C"/>
</linearGradient>
<path id="path3824_1_" class="st9" d="M333,122.1c6.4,3.5,21.6,15.5,27.4,23.6c8.5,9.3,18.8,30.3,18.8,47.4
	c0,41.2-27.9,64.5-54,64.5h-41.1c-1.8,0-2.6,1-2.5,1.7c0.1,0.9,0.7,1.7,2.5,1.7h39.6c22.2,0,34,20,34,38.6
	c0,18.1-12.3,40.4-33.8,40.4h-46.7c-1.5,0-1.9,0.9-1.9,1.3c0,0.7,0.3,1.5,1.9,1.5h30.5c13.3,1.1,23.5,9.9,22.8,24.7
	c-0.3,6.5-4.4,11.2-8.3,14.7c-3.5,3.1-12.4,8.4-25,12.6c0,0,19.5-11.5,16.3-21.9c-0.6-1.9-1.9-5.8-6.3-6.3h-43.4
	c-20.9-1.1-28-18-28-32.1c0-12.6,11.7-28.8,26.5-28.8h43.6c0.5,0,1.8-0.9,1.8-1.4c0-0.8-0.9-1.8-1.8-1.8h-44.8
	c-18.4,0-38-23.3-38-46.1c0-25.6,19.1-48.3,40-48.3h40.2c3.3,0,6.2-2.3,6.2-6.3c-0.1-4.5-4.5-6.3-7.8-6.3H241l12.3-19.5h29.4
	c2.9-0.1,4.4-0.3,4.6-1.7c0.1-0.9-1.2-1.7-4.6-1.7h-29.4l-12.3-18h40.4c2.4,0,4.6-0.9,6.3-2.3c1.7-1.5,1.2-4.5,3.1-6.6
	c6.5-7.1,21.2-3.6,21.2-3.6C331.5,143.3,334.3,126.4,333,122.1z"/>
<radialGradient id="path3824_5_" cx="330.1848" cy="173.6008" r="111.1031" gradientUnits="userSpaceOnUse">
	<stop  offset="0.4483" style="stop-color:#177B3B"/>
	<stop  offset="0.8555" style="stop-color:#095E2F"/>
	<stop  offset="1" style="stop-color:#03532A"/>
</radialGradient>
<path id="path3824_2_" class="st10" d="M334.1,122.1c6.4,3.5,21.6,15.5,27.4,23.6c8.5,9.3,18.8,30.3,18.8,47.4
	c0,41.2-27.9,64.5-54,64.5h-41.1c-1.8,0-2.6,1-2.5,1.7c0.1,0.9,0.7,1.7,2.5,1.7h39.6c22.2,0,34,20,34,38.6
	c0,18.1-12.3,40.4-33.8,40.4h-46.7c-1.5,0-1.9,0.9-1.9,1.3c0,0.7,0.3,1.5,1.9,1.5h30.5c13.3,1.1,23.5,9.9,22.8,24.7
	c-0.3,6.5-4.4,11.2-8.3,14.7c-3.5,3.1-12.4,8.4-25,12.6c0,0,19.5-11.5,16.3-21.9c-0.6-1.9-1.9-5.8-6.3-6.3h-43.4
	c-20.9-1.1-28-18-28-32.1c0-12.6,11.7-28.8,26.5-28.8h43.6c0.5,0,1.8-0.9,1.8-1.4c0-0.8-0.9-1.8-1.8-1.8H262
	c-18.4,0-38-23.3-38-46.1c0-25.6,19.1-48.3,40-48.3h40.2c3.3,0,6.2-2.3,6.2-6.3c-0.1-4.5-4.5-6.3-7.8-6.3h-60.5l12.3-19.5h29.4
	c2.9-0.1,4.4-0.3,4.6-1.7c0.1-0.9-1.2-1.7-4.6-1.7h-29.4l-12.3-18h40.4c2.4,0,4.6-0.9,6.3-2.3c1.7-1.5,1.2-4.5,3.1-6.6
	c6.5-7.1,21.2-3.6,21.2-3.6C332.5,143.3,335.4,126.4,334.1,122.1z"/>
<path id="path3824_3_" class="st7" d="M336.2,128c7.2,5.1,17.4,13.8,21.7,19.6l0.1,0.1l0.1,0.1c7.5,8.2,17.9,28.4,17.9,45.2
	c0,23.1-8.9,37.5-16.4,45.5c-9.4,10-21.9,15.8-34.4,15.8h-41.1c-1.9,0-3.6,0.7-4.6,1.9c-0.9,1-1.2,2.3-1.1,3.5
	c0.3,2.2,2,4.5,5.7,4.5h39.6c20,0,30.7,18.2,30.7,35.3c0,8.7-3.1,18.1-8.2,25.1c-4.1,5.5-11.2,12.1-22.4,12.1h-46.7
	c-2.2,0-3.5,1-4,1.7c-0.8,0.9-1.1,2-1.1,3.1c0.2,2.8,2.2,4.5,5.1,4.5h30.3c10,0.9,20.4,7,19.7,21.3c-0.2,4.3-2.5,8.3-7.2,12.4
	c-1.3,1.1-3.3,2.5-5.9,4c2.4-3.6,3.6-7.7,2.4-11.9c-1.6-5.2-4.6-8.1-9.1-8.6l-0.2,0H307h-43.3c-18.3-1-24.9-15.5-24.9-28.8
	c0-5.5,2.7-12,7-17c2.7-3.2,8.4-8.6,16.3-8.6h43.6c1.9,0,4.9-1.9,5-4.5c0-1.3-0.5-2.6-1.4-3.5c-1-1-2.2-1.5-3.6-1.5h-44.8
	c-7.7,0-16.5-5-23.4-13.3c-7.2-8.7-11.4-19.4-11.4-29.5c0-23.6,17.5-45,36.7-45h40.2c2.6,0,5-1,6.8-2.7c1.8-1.8,2.7-4.1,2.6-6.8
	c-0.1-6.1-5.7-9.5-11-9.5h-54.6l8.2-13h27.6h0l0,0c2.7-0.1,7.2-0.2,7.7-4.5c0.1-1.2-0.3-2.3-1.1-3.2c-1.2-1.4-3.4-2.1-6.4-2.1
	c-0.1,0-0.2,0-0.3,0H255l-7.9-11.5h34.3c3.1,0,6-1.1,8.4-3.1c1.6-1.4,2.1-3.2,2.5-4.6c0.3-0.9,0.5-1.7,0.9-2.2
	c2.5-2.8,7.2-3.4,10.6-3.4c4,0,7.4,0.8,7.4,0.8l0.3,0.1l0.3,0c0.6,0,1.2,0,1.7,0c10.2,0,15.7-4.6,18.6-8.5
	C334.4,134.2,335.6,130.9,336.2,128 M333,122.1c1.2,4.1-1.4,20.2-19.4,20.2c-0.5,0-1,0-1.6,0c0,0-3.7-0.9-8.1-0.9
	c-4.5,0-9.8,0.9-13,4.4c-1.9,2.1-1.4,5.1-3.1,6.6c-1.7,1.5-3.9,2.3-6.3,2.3H241l12.3,18h29.4c0.1,0,0.2,0,0.3,0
	c3.1,0,4.4,0.8,4.3,1.7c-0.1,1.4-1.6,1.6-4.6,1.7h-29.4L241,195.5h60.5c3.3,0,7.7,1.8,7.8,6.3c0,4.1-2.9,6.3-6.2,6.3h-40.2
	c-20.8,0-40,22.7-40,48.3c0,22.7,19.6,46.1,38,46.1h44.8c0,0,0,0,0,0c0.9,0,1.8,0.9,1.8,1.8c0,0.5-1.2,1.4-1.8,1.4h0h-43.6
	c-14.8,0-26.5,16.3-26.5,28.8c0,14.1,7.1,31,28,32.1H307c4.5,0.5,5.8,4.4,6.3,6.3c3.2,10.5-16.3,21.9-16.3,21.9
	c12.6-4.2,21.5-9.5,25-12.6c4-3.5,8-8.2,8.3-14.7c0.7-14.8-9.5-23.6-22.8-24.7h-30.5c-1.5,0-1.8-0.8-1.9-1.5
	c-0.1-0.4,0.3-1.3,1.9-1.3h46.7c21.5,0,33.8-22.3,33.8-40.4c0-18.6-11.8-38.6-34-38.6h-39.6c-1.8,0-2.4-0.8-2.5-1.7
	c-0.1-0.7,0.7-1.7,2.5-1.7h41.1c26.1,0,54-23.3,54-64.5c0-17.1-10.2-38.1-18.8-47.4C354.6,137.7,339.4,125.7,333,122.1L333,122.1z"
	/>
<path id="XMLID_43_" class="st0" d="M250,407.8C163,407.8,92.2,337,92.2,250C92.2,163,163,92.2,250,92.2S407.8,163,407.8,250
	C407.8,337,337,407.8,250,407.8z M250,96.5c-84.6,0-153.5,68.9-153.5,153.5c0,84.6,68.9,153.5,153.5,153.5
	c84.6,0,153.5-68.8,153.5-153.5C403.5,165.4,334.6,96.5,250,96.5z"/>
<path id="XMLID_46_" class="st4" d="M230.5,154.9c-4.2-12.1-18.4-7.4-18.4-7.4s10.5,3.2,12.1,8.6c1.2,4,1.1,13.3,1,18.1l-4.2,0
	c-1.2-2.9-4.1-5-7.5-5c-4.5,0-8.2,3.7-8.2,8.2c0,4.5,3.7,8.2,8.2,8.2c3.2,0,5.8-1.8,7.1-4.5l4.5,0c0.1,5,0,12.3-1,15.6
	c-1.6,5.4-12.1,8.5-12.1,8.5s14.2,4.8,18.4-7.3c4.1-11.8,12.7-21.5,13.1-21.5C243.2,176.4,234.6,166.7,230.5,154.9z"/>
<path id="XMLID_75_" class="st4" d="M228.3,154.9c-4.2-12.1-18.4-7.4-18.4-7.4s10.5,3.2,12.1,8.6c1.2,4,1.1,13.3,1,18.1l-4.2,0
	c-1.2-2.9-4.1-5-7.5-5c-4.5,0-8.2,3.7-8.2,8.2c0,4.5,3.7,8.2,8.2,8.2c3.2,0,5.8-1.8,7.1-4.5l4.5,0c0.1,5,0,12.3-1,15.6
	c-1.6,5.4-12.1,8.5-12.1,8.5s14.2,4.8,18.4-7.3c4.1-11.8,12.7-21.5,13.1-21.5C241,176.4,232.4,166.7,228.3,154.9z"/>
<path id="XMLID_41_" class="st5" d="M229.4,154.9c-4.2-12.1-18.4-7.4-18.4-7.4s10.5,3.2,12.1,8.6c1.2,4,1.1,13.3,1,18.1l-4.2,0
	c-1.2-2.9-4.1-5-7.5-5c-4.5,0-8.2,3.7-8.2,8.2c0,4.5,3.7,8.2,8.2,8.2c3.2,0,5.8-1.8,7.1-4.5l4.5,0c0.1,5,0,12.3-1,15.6
	c-1.6,5.4-12.1,8.5-12.1,8.5s14.2,4.8,18.4-7.3c4.1-11.8,12.7-21.5,13.1-21.5C242.1,176.4,233.5,166.7,229.4,154.9z"/>
<g id="XMLID_76_">
	
		<linearGradient id="XMLID_4_" gradientUnits="userSpaceOnUse" x1="-5.302884e-002" y1="3.613243e-002" x2="1.0252" y2="3.613243e-002" gradientTransform="matrix(-369.7515 -134.5786 -134.5786 369.7515 434.6578 302.0598)">
		<stop  offset="0" style="stop-color:#001F40"/>
		<stop  offset="0.2316" style="stop-color:#012042"/>
		<stop  offset="0.323" style="stop-color:#032449"/>
		<stop  offset="0.3896" style="stop-color:#072B55"/>
		<stop  offset="0.4442" style="stop-color:#0C3566"/>
		<stop  offset="0.4909" style="stop-color:#13417D"/>
		<stop  offset="0.5271" style="stop-color:#1B4E94"/>
		<stop  offset="0.5572" style="stop-color:#154482"/>
		<stop  offset="0.609" style="stop-color:#0D376A"/>
		<stop  offset="0.6678" style="stop-color:#072C57"/>
		<stop  offset="0.7367" style="stop-color:#03254A"/>
		<stop  offset="0.8249" style="stop-color:#012042"/>
		<stop  offset="1" style="stop-color:#001F40"/>
	</linearGradient>
	<path id="XMLID_82_" class="st11" d="M250.1,462.1c-117,0-212.1-95.2-212.1-212.1S133.1,37.9,250.1,37.9
		c117,0,212.1,95.2,212.1,212.1S367,462.1,250.1,462.1z M250.1,91.1c-87.6,0-158.9,71.3-158.9,158.9c0,87.6,71.3,158.9,158.9,158.9
		c87.6,0,158.9-71.3,158.9-158.9C408.9,162.4,337.7,91.1,250.1,91.1z"/>
</g>
<g id="XMLID_105_" class="st12">
	<path id="XMLID_121_" d="M76.5,248.6l-0.1-0.1v0c0,0-0.2-0.3-1.1-1L52,228.2c-0.2-0.2-0.4-0.3-0.5-0.4l-0.7,0.6l-4-2.1l2.3-14.7
		l4.5-0.5l0.3,0.9l28.2-11.7c1.3-0.6,1.8-0.9,1.9-1l0.1-0.2l0.9-1.3l4.4,1.5l-2.5,15.7l-4.6,0.1l-0.3-0.9l-4,1.6l-2.6,16.3l3.4,2.8
		l0.6-0.7l4,2.3l-2,12.9l-4.7,0.7L76.5,248.6z M67.7,225.9l1-6.2l-5.9,2.2L67.7,225.9z"/>
	<polygon id="XMLID_122_" points="89,190.2 89.1,188.5 64.4,175.6 63.4,176.4 59.7,173.7 66.1,161.2 70.7,162.1 70.6,163.7 
		91.1,174.4 101.9,153.5 102,153.4 101.3,152.2 104.3,148.7 113.7,153.6 112.2,158 110.7,158 93.6,191 	"/>
	<polygon id="XMLID_123_" points="114.5,144.7 115.1,143.3 95.4,123.6 94.2,124.1 91.5,120.3 118.1,93.7 117.6,92 121.8,90 
		129.1,97.3 126.1,100.8 125.1,100.7 125,100.8 108.3,117.5 110.9,120.2 121.3,109.7 121.4,109.6 121,108.2 124.8,105.7 
		131.9,112.7 129.7,116.8 128.3,116.5 128.2,116.6 117.8,127 124.6,133.8 125.9,133.3 128.7,136.9 118.4,147.2 	"/>
	<path id="XMLID_129_" d="M146.2,112.4l0.9-1.1l0.1-0.2c0,0,0.2-0.4,0.2-1.6l1.3-30.1c0-0.2,0-0.4,0-0.6l-1.8-0.1l0.6-4.9l11.5-6.1
		l4,2.4l-0.4,1.1L189,86.7c1.2,0.7,1.8,0.9,1.9,0.9l0.2,0l1.5-0.1l2.1,4.2l-14.1,7.6l-3.6-3l0.9-1.1l-3.7-2.2l-14.5,7.8l-0.2,4.3
		l0.9,0l1.2,4.5l-13.1,7L146.2,112.4z M160,90.5l5.5-2.9l-5.3-3.4L160,90.5z"/>
	<path id="XMLID_133_" d="M224.7,80.5l1.6-0.6L225.8,52l-1.1-0.4v-4.7l27.3-0.4c0.5,0,1.2,0,1.7,0c2.6,0,4.7,0.1,6.4,0.4
		c2.1,0.3,4,0.9,5.6,1.7c2,1,3.5,2.5,4.5,4.3c1,1.7,1.4,3.6,1.5,5.6c0.1,3.9-1.5,9-9.2,11.2l5.8,6.4c1.7,1.9,2.5,2.6,2.8,2.8
		c0.1,0.1,0.3,0.1,0.4,0.2l1.9,0.6l-1.2,4.6l-17.1,0.3l-0.1-4.8l0.4-0.1l-7.7-8.8l-8,0.1l0.1,8.7l1.5,0.7l-1.5,4.4l-13.6,0.2
		L224.7,80.5z M239.6,61.1l11.9-0.2c2,0,3.4-0.1,4.1-0.2c0.6-0.1,1.2-0.2,1.7-0.5c0.7-0.3,1-0.8,1-1.7c0-0.9-0.3-1.4-1.1-1.7
		c-0.5-0.2-1.1-0.4-1.7-0.4c-0.5,0-1.3-0.1-2.4-0.1c-0.5,0-1.1,0-1.7,0l-11.9,0.2L239.6,61.1z"/>
	<path id="XMLID_136_" d="M316.1,96.4c-3.7,0-7.7-0.8-12-2.2c-7.2-2.5-12.5-6.2-15.8-10.9c-1.8-2.6-2.9-5.4-3.3-8.4
		c-0.3-2.6-0.1-5.2,0.8-7.7c1.3-3.6,3.6-6.6,6.9-8.8c3.4-2.3,7.5-3.4,12.1-3.4c3.6,0,7.7,0.7,12,2.2c7.3,2.5,12.7,6.2,15.9,11
		c3.6,5.2,4.4,10.7,2.4,16.3c-1.2,3.5-3.5,6.4-6.9,8.6C324.8,95.2,320.7,96.4,316.1,96.4z M308.1,65.5c-1.2,0-2.4,0.2-3.5,0.5
		c-3,0.9-5,2.7-5.9,5.5c-1,2.8-0.5,5.4,1.3,8c1.6,2.3,4.1,4,7.5,5.2c2,0.7,3.8,1,5.5,1c1.2,0,2.4-0.2,3.5-0.5
		c1.5-0.5,2.8-1.2,3.9-2.3c0.9-0.9,1.6-1.9,2-3.1c1-2.9,0.6-5.6-1.2-8.1c-1.6-2.3-4.2-4-7.5-5.2C311.6,65.9,309.8,65.5,308.1,65.5z"
		/>
	<path id="XMLID_139_" d="M434.5,246c-2.7,0-5.5-0.7-8.1-2.1c-6.7-3.6-11-10.5-12.7-20.6c-1.3-7.5-0.6-14,2.1-19.1
		c1.4-2.8,3.4-5.1,5.8-6.9c2.2-1.6,4.6-2.6,7.2-3c1-0.2,1.9-0.2,2.9-0.2c2.8,0,5.5,0.7,8.2,2.1c6.6,3.5,10.8,10.4,12.6,20.6
		c1.3,7.6,0.6,14.1-2,19.2c-2.8,5.6-7.3,9-13.2,10C436.3,245.9,435.4,246,434.5,246z M432.5,207.5c-0.5,0-1,0-1.6,0.1
		c-2.9,0.5-5,2.1-6.4,4.9c-1.2,2.5-1.6,5.5-1,9c0.6,3.5,1.9,6.2,3.9,8.2c1.1,1.1,2.4,1.9,3.9,2.3c0.8,0.2,1.6,0.4,2.4,0.4
		c0.4,0,0.9,0,1.3-0.1c3.1-0.5,5.2-2.1,6.5-4.9c1.2-2.5,1.5-5.6,1-9.1c-0.6-3.4-1.9-6.2-3.9-8.1
		C436.8,208.4,434.7,207.5,432.5,207.5z"/>
	<polygon id="XMLID_140_" points="368.1,132.9 369.9,128.6 371.5,129.1 380.3,118.9 356.4,125.1 359.4,101.4 350.8,111.4 
		351.7,113.1 347.4,115.3 337.9,107.2 339.1,102.4 341.2,103.2 359.3,82 358.5,80.4 362.7,78.2 375.3,88.9 373.1,92.6 372.8,92.7 
		370.5,109.9 387.2,105.2 386.8,104.2 391.1,102.5 403.2,112.8 401,116.8 399.9,116.6 381.7,137.9 382.3,139 379,142.2 	"/>
	<polygon id="XMLID_141_" points="403.6,187.2 404.4,186 385.8,152.6 389.3,149.6 390.3,150.2 414.7,136.6 414.5,134.8 419.2,134.2 
		437.3,166.8 439.5,166.8 439.4,169.1 439.1,171.9 429.9,177 427.6,172.9 428.6,171.7 428.7,171.6 428.7,171.5 417,150.6 
		413.8,152.4 421,165.4 422.7,165.1 424.9,169.2 413.7,175.5 411.5,171.4 412.5,170.3 412.6,170.1 405.3,157.1 401,159.5 413,181.1 
		413.1,181.2 414.5,181.4 414.7,183.1 414.9,186.1 406.7,190.7 	"/>
</g>
<g id="XMLID_14_">
	<path id="XMLID_97_" class="st13" d="M84.7,198.6c-0.1,0.1-0.1,0.2-0.2,0.3c-0.2,0.2-0.7,0.6-2.1,1.1l-28.2,11.6
		c-0.3,0.1-0.5,0.2-0.6,0.2l-0.4-1l-3.6,0.4L47.5,225l3.2,1.7l0.7-0.7c0.2,0.1,0.5,0.2,1,0.7l23.3,19.2c1,0.8,1.2,1.2,1.3,1.3
		l0.1,0.2l0.4,1.2l3.6-0.5l1.9-12l-3.2-1.8l-0.7,0.7c-0.1-0.1-0.3-0.2-0.5-0.4l-3.6-3l2.7-17l4.3-1.8c0.3-0.1,0.5-0.2,0.7-0.2l0.3,1
		l3.6-0.1l2.3-14.6l-3.5-1.2L84.7,198.6z M68.1,226l-6.7-5.4l8-3L68.1,226z"/>
	<path id="XMLID_101_" class="st13" d="M102,151.2l0.6,1c0,0,0,0.2-0.2,0.5l-11.1,21.4L69.9,163l-0.1-0.1l0.1-1.4l-3.5-0.7l-6,11.5
		l2.8,2.2l1-0.8L89.8,187l0,0.2l-0.1,1.4l3.6,0.6l16.9-32.5c0.2-0.3,0.3-0.4,0.3-0.4c0,0,0.1,0,0.3,0l1.1,0l1.2-3.4l-8.5-4.4
		L102,151.2z"/>
	<path id="XMLID_102_" class="st13" d="M121.7,107.4l0.3,1.1c0,0.1,0,0.2,0.1,0.2c0,0-0.1,0.2-0.3,0.4L110.9,120l-3.6-3.6l17.2-17.2
		c0.2-0.2,0.3-0.3,0.4-0.3l0.9,0.1l2.4-2.8l-6.5-6.5l-3.3,1.6l0.4,1.2c0,0.1,0,0.2,0,0.2c0,0-0.1,0.2-0.3,0.4l-26.1,26.1l2.1,2.9
		l1.1-0.4l20.3,20.3l0,0.1l-0.5,1.2l3,1.9l9.5-9.5l-2.2-2.8l-1.1,0.5l-0.2,0.1l-0.1-0.1l-7.5-7.5l10.9-10.9c0.2-0.2,0.4-0.3,0.3-0.3
		h0l0.1,0l0.1,0l1.1,0.3l1.7-3.2l-6.4-6.4L121.7,107.4z"/>
	<path id="XMLID_106_" class="st13" d="M191.2,87.2l-0.2,0l-0.3,0c-0.3,0-0.9-0.2-2.1-1l-26.3-15.4c-0.3-0.2-0.5-0.3-0.6-0.4l0.4-1
		l-3.2-1.9L148,73.2l-0.5,3.9l1.6,0.1c0,0.2,0.1,0.5,0.1,1.2l-1.3,30.1c0,1.2-0.2,1.7-0.2,1.8c0,0-0.1,0.1-0.2,0.3l-0.6,0.8l1.7,3.2
		l12.1-6.5l-0.9-3.5l-1,0c0-0.1,0-0.3,0-0.6l0.2-4.7l15.2-8.1l4,2.4c0.3,0.2,0.5,0.3,0.6,0.4l-0.9,1.1l2.8,2.3l13.2-7.1l-1.6-3.3
		L191.2,87.2z M159.3,90.5l0.2-8.6l7.2,4.6L159.3,90.5z"/>
	<path id="XMLID_109_" class="st13" d="M270.6,78.2c-0.4-0.3-1.2-1-2.9-2.9l-6.5-7.2c8.1-2,9.8-6.9,9.8-10.9c0-1.9-0.5-3.6-1.4-5.2
		c-1-1.7-2.4-3.1-4.3-4c-1.5-0.8-3.4-1.3-5.4-1.6c-1.6-0.2-3.7-0.4-6.3-0.4c-0.5,0-1.4,0-1.9,0l-26.9,0.4V50l1.3,0.4l0.6,28.7
		l-0.1,0.1l-1.3,0.5l1.2,3.4l12.7-0.2l1.2-3.4l-1.3-0.6l-0.2-9.8l8.9-0.1l8.1,9.3c0.2,0.2,0.4,0.4,0.5,0.6l-1,0.1l0.1,3.6l5.5-0.1
		l0,0l10.5-0.2l0.9-3.5l-1.3-0.5C271,78.4,270.8,78.3,270.6,78.2z M255.6,60.2c-0.8,0.1-2.2,0.2-4.2,0.2l-12.5,0.2l-0.1-5.8
		l12.5-0.2c0.6,0,1.2,0,1.7,0c1.1,0,2,0,2.5,0.1c0.7,0.1,1.3,0.2,1.9,0.5c1,0.4,1.4,1.1,1.5,2.3c0,1.1-0.4,1.9-1.4,2.3
		C257,59.9,256.3,60.1,255.6,60.2z"/>
	<path id="XMLID_112_" class="st13" d="M316.5,56.5c-4.3-1.4-8.3-2.1-11.8-2.1c-4.4,0-8.4,1.1-11.7,3.3c-3.2,2.1-5.4,5-6.6,8.5
		c-0.8,2.4-1.1,4.9-0.7,7.4c0.4,2.9,1.4,5.6,3.2,8.1c3.2,4.7,8.4,8.2,15.5,10.7c4.2,1.5,8.2,2.2,11.8,2.2c4.4,0,8.4-1.1,11.8-3.4
		c3.2-2.1,5.5-4.9,6.6-8.3c1.9-5.4,1.1-10.7-2.4-15.7C329,62.6,323.7,59,316.5,56.5z M322.9,79c-0.4,1.2-1.2,2.4-2.1,3.3
		c-1.1,1.1-2.5,1.9-4.2,2.4c-1.2,0.4-2.4,0.5-3.7,0.5c-1.8,0-3.7-0.4-5.8-1.1c-3.5-1.2-6.1-3-7.8-5.4c-2-2.8-2.4-5.6-1.4-8.6
		c1-3,3.1-4.9,6.3-5.9c1.2-0.4,2.4-0.5,3.7-0.5c1.8,0,3.7,0.3,5.7,1c3.5,1.2,6.1,3.1,7.8,5.4C323.5,73,323.9,75.8,322.9,79z"/>
	<path id="XMLID_115_" class="st13" d="M451.7,215.6c-1.8-10-5.9-16.7-12.3-20.1c-2.5-1.3-5.2-2-7.9-2c-0.9,0-1.9,0.1-2.8,0.2
		c-2.5,0.4-4.8,1.4-6.9,2.9c-2.3,1.7-4.2,3.9-5.6,6.7c-2.6,5-3.2,11.3-2,18.7c1.7,9.9,5.8,16.7,12.3,20.2c2.6,1.4,5.2,2.1,7.8,2.1
		c0.9,0,1.7-0.1,2.6-0.2c5.7-1,9.9-4.2,12.7-9.6C452.3,229.4,452.9,223.1,451.7,215.6z M442,226.6c-1.4,3-3.7,4.7-7,5.3
		c-0.5,0.1-0.9,0.1-1.4,0.1c-0.9,0-1.7-0.1-2.6-0.4c-1.5-0.5-2.9-1.3-4.1-2.5c-2.1-2-3.4-4.9-4.1-8.5c-0.6-3.6-0.3-6.8,1-9.4
		c1.5-3,3.8-4.8,6.9-5.3c0.6-0.1,1.1-0.1,1.7-0.1c2.4,0,4.6,1,6.5,2.9c2.1,2.1,3.4,4.9,4.1,8.5C443.6,220.8,443.3,224,442,226.6z"/>
	<path id="XMLID_116_" class="st13" d="M381,136.6l18.6-21.8l1,0.2l1.7-3.1l-11.4-9.7l-3.4,1.3l0.4,1c-0.1,0.1-0.4,0.1-0.6,0.2
		l-17.7,4.9l2.4-18.4c0-0.1,0-0.2,0-0.3l0.5-0.1l1.7-2.9l-11.8-10.1l-3.3,1.7L360,81l-18.7,21.8c-0.1,0-0.1,0-0.2-0.1l-1.6-0.6
		l-0.8,3.7l8.9,7.6l3.3-1.7l-0.7-1.3l-0.1-0.1l10.2-12l-3.1,24.9l25-6.5l-10.4,12.2l-0.1,0l-1.3-0.4l-1.4,3.3l10,8.5l2.6-2.5
		L381,136.6L381,136.6z"/>
	<path id="XMLID_117_" class="st13" d="M414,182.1l-0.1-1.2l-1.1-0.2l-0.1,0c-0.1-0.1-0.2-0.2-0.3-0.4l-12.3-22.1l5.4-3l7.5,13.5
		c0.2,0.3,0.2,0.4,0.2,0.5c0,0,0,0.2-0.3,0.5l-0.7,0.8l1.7,3.1l10.1-5.6l-1.7-3.1l-1.1,0.2c-0.1,0-0.3,0-0.4,0l-0.1,0h0
		c0,0-0.1-0.1-0.3-0.4l-7.5-13.5l4.4-2.4l11.9,21.5c0.2,0.3,0.2,0.5,0.2,0.5c0,0-0.1,0.2-0.3,0.5l-0.7,0.8l1.7,3.1l8.4-4.6l0.3-2.4
		l0.1-1.6l-1.8,0c0,0-0.2-0.1-0.3-0.4l-17.9-32.2l-3.6,0.5l0.2,1.6l-25.1,14l-0.9-0.6l-2.7,2.4l18.3,32.9c0.2,0.3,0.2,0.5,0.2,0.5
		c0,0,0,0.1-0.1,0.2l-0.6,0.9l2.4,2.7l7.5-4.1L414,182.1z"/>
</g>
<g id="XMLID_12_">
	<path id="XMLID_58_" class="st0" d="M86,199.5c-0.1,0.2-0.3,0.4-0.4,0.5c-0.5,0.4-1.3,0.9-2.5,1.4L54.9,213
		c-0.7,0.3-1.2,0.4-1.7,0.3c-0.4-0.1-0.7-0.4-0.9-0.9l-1.2,0.1l-1.8,11.5l1.3,0.7c0.3-0.3,0.7-0.4,1.1-0.4c0.5,0.1,1.1,0.4,1.8,1
		l23.2,19.2c0.9,0.7,1.4,1.3,1.7,1.7c0.1,0.1,0.1,0.3,0.2,0.4l1.3-0.2l1.6-9.9l-1.3-0.7c-0.3,0.3-0.7,0.5-1,0.4
		c-0.4-0.1-0.9-0.3-1.4-0.8l-4.3-3.5l2.9-18.7l5.1-2.1c0.7-0.3,1.3-0.4,1.6-0.4c0.5,0.1,0.9,0.4,1,1l1.1,0l1.9-12.1L86,199.5z
		 M69.2,228.8l-10.8-8.7l12.9-4.8L69.2,228.8z"/>
	<path id="XMLID_54_" class="st0" d="M104.8,150.4l-0.9,1c0.1,0.2,0.2,0.5,0.3,0.7c0.1,0.4-0.1,0.9-0.4,1.4L92,176.2l-22.7-11.8
		c-0.5-0.2-0.7-0.5-0.8-0.9c-0.1-0.2-0.1-0.4,0-0.7l-1.1-0.2l-4.9,9.4l0.9,0.7c0.2-0.2,0.4-0.3,0.5-0.3c0.4-0.1,0.8-0.1,1.2,0.2
		l25.3,13.2c0.5,0.2,0.7,0.5,0.8,0.9c0.1,0.2,0.1,0.5,0,0.8l1.1,0.2l16.4-31.5c0.3-0.6,0.6-0.9,1-1.1c0.2-0.1,0.6-0.2,0.9-0.2
		l0.4-1.1L104.8,150.4z"/>
	<path id="XMLID_55_" class="st0" d="M124.5,107.3l-1,0.7c0.1,0.3,0.1,0.6,0.1,0.9c-0.1,0.4-0.3,0.8-0.8,1.3l-11.9,11.9l-5.7-5.7
		l18.3-18.3c0.4-0.4,0.8-0.7,1.2-0.8c0.2,0,0.3,0,0.5,0l0.9-1.1l-4.8-4.8l-1.2,0.6c0.1,0.3,0.1,0.6,0.1,0.9
		c-0.1,0.4-0.3,0.8-0.8,1.2l-25.2,25.2l0.7,0.9c0.2-0.1,0.4-0.1,0.6-0.1c0.4,0,0.8,0.2,1.1,0.5l20.2,20.2c0.4,0.4,0.5,0.7,0.5,1.1
		c0,0.2-0.1,0.4-0.2,0.7l0.9,0.6l7.7-7.7l-0.6-0.8c-0.3,0.1-0.5,0.2-0.8,0.2c-0.4,0-0.8-0.2-1.1-0.5l-8.6-8.6l11.9-11.9
		c0.4-0.4,0.9-0.7,1.3-0.8c0.2,0,0.4,0,0.7,0l0.6-1.2L124.5,107.3z"/>
	<path id="XMLID_56_" class="st0" d="M191.3,88.7c-0.3,0-0.5,0-0.8,0c-0.6-0.1-1.5-0.5-2.6-1.2l-26.3-15.4c-0.6-0.4-1.1-0.7-1.3-1.2
		c-0.2-0.3-0.2-0.6,0-0.9l-1.4-0.9l-9.4,5l-0.2,1.5c0.6,0,1,0.3,1.3,0.7c0.2,0.4,0.3,1.1,0.3,2.1l-1.3,30.1c0,1.1-0.2,1.9-0.4,2.4
		c-0.1,0.2-0.2,0.4-0.4,0.6l0.5,1l9.7-5.2l-0.3-1.2c-0.6,0-1-0.2-1.2-0.6c-0.2-0.3-0.3-0.9-0.2-1.6l0.2-5.5l16.7-8.9l4.8,2.8
		c0.7,0.4,1.1,0.8,1.3,1.1c0.3,0.5,0.2,1-0.3,1.6l0.9,0.7l11-5.9L191.3,88.7z M157.7,93.1l0.4-13.8l11.6,7.4L157.7,93.1z"/>
	<path id="XMLID_32_" class="st0" d="M257.2,80.4l0,0.8l1.5,0l-0.6-1C257.9,80.2,257.6,80.3,257.2,80.4z"/>
	<path id="XMLID_50_" class="st0" d="M269.8,79.4c-0.7-0.5-1.7-1.5-3.2-3.1l-8.2-9.2c7.5-1.1,11.3-4.3,11.2-9.9
		c0-1.6-0.4-3.1-1.2-4.5c-0.8-1.5-2-2.6-3.7-3.4c-1.4-0.7-3-1.2-4.9-1.5c-1.9-0.3-4.4-0.4-7.6-0.3l-25,0.4V49
		c0.2,0.1,0.4,0.2,0.5,0.3c0.3,0.3,0.4,0.6,0.4,1.2l0.5,28.6c0,0.5-0.1,0.9-0.4,1.1c-0.2,0.2-0.4,0.3-0.8,0.4l0.3,1l10.5-0.2
		l0.4-1.1c-0.2-0.1-0.4-0.2-0.5-0.3c-0.3-0.3-0.5-0.6-0.5-1.1l-0.2-11.2l11.1-0.2l8.6,9.8c1,1.1,1.5,1.8,1.5,2.1
		c0,0.3-0.2,0.5-0.6,0.7l0.6,1l11.8-0.2l0.3-1.1C270.4,79.8,270.1,79.6,269.8,79.4z M255.9,61.7c-0.9,0.1-2.3,0.2-4.4,0.2l-14,0.2
		l-0.1-8.9l14-0.2c2.1,0,3.6,0,4.4,0.1c0.8,0.1,1.6,0.3,2.3,0.6c1.6,0.7,2.4,1.9,2.4,3.6c0,1.8-0.7,3-2.3,3.7
		C257.5,61.4,256.7,61.6,255.9,61.7z"/>
	<path id="XMLID_34_" class="st0" d="M316.1,58c6.9,2.4,11.8,5.7,14.8,10.1c3.2,4.6,3.9,9.4,2.2,14.4c-1.1,3.1-3.1,5.6-6,7.5
		c-5.8,3.8-13.2,4.1-22.3,1c-6.8-2.3-11.7-5.7-14.7-10.1c-1.6-2.3-2.6-4.8-2.9-7.5c-0.3-2.3-0.1-4.6,0.7-6.8
		c1.1-3.2,3.1-5.8,6.1-7.7C299.5,55.2,306.9,54.9,316.1,58z M314.3,63.4c-3.8-1.3-7.2-1.5-10.3-0.5c-3.7,1.1-6.1,3.4-7.3,6.9
		c-1.2,3.5-0.7,6.8,1.6,9.9c1.9,2.7,4.7,4.7,8.5,6c3.8,1.3,7.2,1.5,10.4,0.5c1.9-0.6,3.4-1.5,4.8-2.8c1.2-1.1,2-2.5,2.5-3.9
		c1.2-3.6,0.7-7-1.5-10.1C320.9,66.7,318.1,64.7,314.3,63.4z"/>
	<path id="XMLID_47_" class="st0" d="M450.2,215.9c1.2,7.2,0.6,13.1-1.8,17.8c-2.5,5-6.4,7.9-11.6,8.8c-3.2,0.5-6.3,0-9.5-1.7
		c-6.1-3.2-10-9.6-11.6-19.1c-1.2-7.1-0.6-13,1.8-17.8c1.3-2.5,3-4.6,5.2-6.1c1.9-1.4,4-2.3,6.3-2.6c3.3-0.6,6.6,0,9.7,1.6
		C444.7,200,448.5,206.4,450.2,215.9z M444.6,216.9c-0.7-3.9-2.2-7-4.5-9.3c-2.7-2.7-5.9-3.8-9.5-3.2c-3.6,0.6-6.3,2.6-8,6.1
		c-1.4,2.9-1.8,6.4-1.2,10.3c0.7,4,2.2,7.1,4.5,9.3c1.4,1.4,3,2.3,4.7,2.9c1.6,0.5,3.1,0.6,4.7,0.3c3.8-0.6,6.5-2.7,8.1-6.1
		C444.8,224.3,445.2,220.9,444.6,216.9z"/>
	<path id="XMLID_51_" class="st0" d="M390.7,103.9l-1.1,0.4c0.2,0.4,0.2,0.8-0.1,1.1c-0.2,0.3-0.8,0.5-1.7,0.8l-19.9,5.6l2.7-20.7
		c0.1-0.5,0.2-0.9,0.4-1.1c0.2-0.2,0.4-0.3,0.7-0.4l0.7-1.2l-10.1-8.6l-1,0.5c0.1,0.2,0.2,0.4,0.2,0.6c0,0.4-0.1,0.8-0.4,1.1
		l-18.6,21.7c-0.3,0.4-0.7,0.6-1.1,0.6c-0.2,0-0.6-0.1-0.9-0.2l-0.3,1.1l7.4,6.3l1-0.5c-0.1-0.3-0.2-0.5-0.3-0.7
		c0-0.4,0.1-0.8,0.4-1.2l13.5-15.8l-3.5,27.7l27.5-7.2L373,129.7c-0.3,0.4-0.7,0.6-1.1,0.6c-0.2,0-0.4,0-0.7-0.1l-0.4,1l8.1,6.9
		l0.8-0.8c-0.1-0.2-0.2-0.4-0.2-0.6c0-0.4,0.1-0.8,0.4-1.2l18.6-21.7c0.3-0.4,0.7-0.6,1.1-0.6c0.1,0,0.2,0,0.4,0l0.6-1.1
		L390.7,103.9z"/>
	<path id="XMLID_37_" class="st0" d="M436.4,167.8c-0.4-0.2-0.7-0.5-1-1.1L418,135.4l-1.1,0.2c0,0.3,0,0.5,0,0.7
		c-0.1,0.4-0.4,0.7-0.8,0.9l-25,13.9c-0.4,0.2-0.9,0.3-1.2,0.2c-0.1,0-0.2-0.1-0.3-0.2l-0.9,0.8l17.7,31.8c0.3,0.5,0.4,1,0.4,1.4
		c0,0.3-0.1,0.5-0.3,0.8l0.8,0.9l5.6-3.1l-0.1-1.6c-0.2,0-0.3,0-0.5-0.1c-0.4-0.2-0.7-0.5-1-1.1l-13-23.4l8.1-4.5l8.2,14.8
		c0.3,0.5,0.4,1,0.4,1.4c-0.1,0.4-0.3,0.8-0.7,1.3l0.5,0.9l7.5-4.1l-0.5-0.9c-0.6,0.1-1.1,0.1-1.5-0.1c-0.4-0.2-0.7-0.5-1-1.1
		l-8.2-14.8l7-3.9l12.7,22.8c0.3,0.5,0.4,1,0.4,1.4c0,0.4-0.3,0.8-0.7,1.3l0.5,0.9l6.4-3.5l0.2-1.5
		C436.9,167.9,436.6,167.9,436.4,167.8z"/>
</g>
<rect x="34.8" y="34.8" class="st14" width="430.5" height="430.5"/>
</svg>
