<?xml version="1.0" encoding="utf-8"?>
<!-- Generator: Adobe Illustrator 18.0.0, SVG Export Plug-In . SVG Version: 6.00 Build 0)  -->
<!DOCTYPE svg PUBLIC "-//W3C//DTD SVG 1.1//EN" "http://www.w3.org/Graphics/SVG/1.1/DTD/svg11.dtd">
<svg version="1.1" id="Layer_1" xmlns="http://www.w3.org/2000/svg" xmlns:xlink="http://www.w3.org/1999/xlink" x="0px" y="0px"
	 viewBox="0 0 1000 1000" enable-background="new 0 0 1000 1000" xml:space="preserve">
<rect x="69.6" y="69.6" display="none" fill="none" stroke="#B3B3B3" stroke-miterlimit="10" width="861" height="861"/>
<g>
	<path fill="#0B457F" d="M809,171.2c45.6,50,61.4,124.6,51.8,234.4C850.2,522.4,823,595.2,773,640.8c-54.4,50-141.2,72.8-273,72.8
		c-132.6,0-219.4-22.8-273-72.8c-50-45.6-77.2-118.4-87.8-235.2c-10.6-109.6,6.2-184.2,51-234.4c53.6-58.8,151-86.8,309-86.8
		C658,84.2,755.4,112.4,809,171.2 M500,66.8c-315,0-397.6,115-377.4,340.4S225.4,731,500,731c275.6,0,357.2-98.2,377.4-323.8
		C897.6,181.8,815,66.8,500,66.8"/>
	<path fill="#0B457F" d="M500,101c-283.4,0-359.8,102.6-341.4,305.4s92.2,290.4,340.6,290.4S822,609,839.6,406.4
		C859,203.6,782.6,101,500,101 M642.2,147.4c-54.4,138.6-115.8,266.8-136,308c-2.6,5.2-10.6,5.2-13.2,0
		c-20.2-41.2-80.8-169.4-136-308c-0.8-1.8,0-3.6,1.8-4.4c39.4-7.8,86-12.2,140.4-12.2S601,135.2,639.6,143
		C642.2,144,643,145.8,642.2,147.4 M189.4,403.8c-8.8-94,5.2-157,42.2-198.4c20.2-22,49.2-39.4,86.8-51.8c1.8-0.8,4.4,0.8,4.4,2.6
		v186c0,30.8,7.8,61.4,22.8,88.6l125.4,230c0.8,1.8-0.8,4.4-2.6,4.4c-98.2-3.6-163.2-22.8-205.4-60.6
		C221,566,198.2,503.8,189.4,403.8 M809.8,403.8c-8.8,101-31.6,162.4-73.8,201c-41.2,37.8-107,58-205.4,60.6c-2.6,0-3.6-2.6-2.6-4.4
		l125.6-231c15-27.2,22.8-58,22.8-88.6V157.2c0-1.8,1.8-3.6,4.4-2.6c37.8,12.2,66.6,29,86.8,51.8
		C805.4,246.6,818.6,309.8,809.8,403.8"/>
</g>
<g>
	<path fill="#084279" d="M117.2,849c-19.6,0-31.2-6.6-31.2-27c0-18.2,11.8-26,31.8-26H143v13.4h-24c-9.6,0-12.6,2.6-12.6,12.2
		c0,10.4,3,13,13,13h23.4v14h-25.6V849z"/>
	<polygon fill="#084279" points="221.6,796.4 221.6,849 201.6,849 201.6,829.4 179.4,829.4 179.4,849 159.8,849 159.8,796.4 
		179.4,796.4 179.4,815.2 201.6,815.2 201.6,796.4 	"/>
	<path fill="#084279" d="M232.4,849l21.8-53H272c4.8,0,6.6,1.8,7.8,4.8l20.8,48.2h-21.2L266,816.4c-0.8-2.2-2.2-2.2-3,0L249.6,849
		H232.4z"/>
	<path fill="#084279" d="M355,846.4l-25.2-23c-0.8-0.8-1.8-0.8-1.8,0.8v25.2h-16.6v-53h10.4c4,0,6.6,0.8,8.2,2.2l26,23.8
		c0.8,0.8,1.8,0.4,1.8-0.8V796h16.6v50.4c0,1.8-0.8,2.6-2.6,2.6h-8.6C360.2,849,357,848.6,355,846.4"/>
	<path fill="#084279" d="M451.8,849h-30c-20.8,0-31.8-6.6-31.8-27c0-17.8,10.8-26,32.2-26h32.2v13.4h-31.2c-10,0-12.6,2.6-12.6,12.2
		c0,10.8,2.6,13.4,13,13.4h11.8c0.8,0,1.4-0.4,1.4-1.4v-4c0-0.8-0.4-1.4-1.4-1.4h-9.6V817h26c1.8,0,2.6,0.8,2.6,2.6v27
		C454.4,848.2,453.6,849,451.8,849"/>
	<path fill="#084279" d="M466.2,849l21.8-53h17.8c4.8,0,6.6,1.8,7.8,4.8l20.8,48.2h-21.2l-13.4-32.6c-0.8-2.2-2.2-2.2-3,0L483.4,849
		H466.2z"/>
	<path fill="#084279" d="M588.6,846.4l-25.2-23c-0.8-0.8-1.8-0.8-1.8,0.8v25.2H545v-53h10.4c4,0,6.6,0.8,8.2,2.2l26,23.8
		c0.8,0.8,1.8,0.4,1.8-0.8V796H608v50.4c0,1.8-0.8,2.6-2.6,2.6h-8.6C593.4,849,590.8,848.6,588.6,846.4"/>
	<path fill="#084279" d="M640.4,849l21.6-53h17.8c4.8,0,6.6,1.8,7.8,4.8l20.8,48.2h-21.2l-13.4-32.6c-0.8-2.2-2.2-2.2-3,0L657.4,849
		H640.4z"/>
	<path fill="#084279" d="M777.6,796.4v30.4c0,19.2-12.2,24.4-30.8,24.4S716,846,716,826.8v-30.4h19.6v27.8c0,10.8,5.6,13,13,13
		s13-2.6,13-13v-27.8H777.6z"/>
	<polygon fill="#084279" points="790.2,796.4 849.8,796.4 849.8,810.4 829.8,810.4 829.8,849 809.8,849 809.8,810.4 790.2,810.4 	
		"/>
	<path fill="#084279" d="M928.4,822.6c0,20-11.8,28.2-35.6,28.2c-23.4,0-35.6-8.2-35.6-28.2s12.2-28.2,35.6-28.2
		C916.6,794.8,928.4,803,928.4,822.6 M878,822.6c0,10.4,3.4,14.8,15.2,14.8c11.2,0,15.2-4.4,15.2-14.8c0-10.4-3.4-14.4-15.2-14.4
		S878,812,878,822.6"/>
</g>
</svg>
