<?xml version="1.0" encoding="utf-8"?>
<!-- Generator: Adobe Illustrator 18.0.0, SVG Export Plug-In . SVG Version: 6.00 Build 0)  -->
<!DOCTYPE svg PUBLIC "-//W3C//DTD SVG 1.1//EN" "http://www.w3.org/Graphics/SVG/1.1/DTD/svg11.dtd">
<svg version="1.1" id="Layer_1" xmlns="http://www.w3.org/2000/svg" xmlns:xlink="http://www.w3.org/1999/xlink" x="0px" y="0px"
	 viewBox="0 0 500 500" enable-background="new 0 0 500 500" xml:space="preserve">
<rect x="34.8" y="34.8" display="none" fill="none" stroke="#B3B3B3" stroke-miterlimit="10" width="430.5" height="430.5"/>
<g id="XMLID_107_">
	
		<linearGradient id="XMLID_2_" gradientUnits="userSpaceOnUse" x1="147.5693" y1="374.912" x2="150.1133" y2="374.912" gradientTransform="matrix(-4.4971 0 0 -4.4971 755.4582 1945.7445)">
		<stop  offset="0" style="stop-color:#E9E8E8"/>
		<stop  offset="5.617980e-003" style="stop-color:#E9E8E8"/>
		<stop  offset="0.2933" style="stop-color:#BFBEBF"/>
		<stop  offset="0.5994" style="stop-color:#9A9999"/>
		<stop  offset="0.8459" style="stop-color:#838182"/>
		<stop  offset="1" style="stop-color:#7B7979"/>
	</linearGradient>
	<path id="XMLID_109_" fill="url(#XMLID_2_)" d="M84.1,262.8c1.7,22.9,10.9,37.7,19.5,54.8c-9.7-41-12.3-77.6-11.4-115
		c-1.4-1.8-3.7-0.8-6,1.8C84.6,217.6,82.6,241.9,84.1,262.8z"/>
	
		<radialGradient id="XMLID_3_" cx="125.9543" cy="376.0589" r="2.5445" gradientTransform="matrix(60.8193 0 0 60.8193 -7413.4434 -22614.0723)" gradientUnits="userSpaceOnUse">
		<stop  offset="0" style="stop-color:#E60A47"/>
		<stop  offset="1" style="stop-color:#7C0626"/>
	</radialGradient>
	<path id="XMLID_113_" fill="url(#XMLID_3_)" d="M179.2,412.7c16.4,3.9,39.3,7.6,67.9,7.6c28.9,0,83.3-6.1,103.3-24.3
		c15.6-14.2,22-38.3,29.8-68.8c18.3-72.1,13.5-116.1,9.5-167.6c-3.9-51.4-91.7-64.7-142.5-64.7c-44.3,0-140.3,13.4-144.2,66.5
		c-3.8,51.4-4.6,102.6,12,165.7C127.5,375.7,133.1,401.5,179.2,412.7z"/>
	
		<linearGradient id="XMLID_4_" gradientUnits="userSpaceOnUse" x1="125.2229" y1="376.0057" x2="127.7669" y2="376.0057" gradientTransform="matrix(7.898860e-009 175.9346 -175.9346 7.898860e-009 66402.3906 -22004.6563)">
		<stop  offset="0" style="stop-color:#656363"/>
		<stop  offset="5.617980e-003" style="stop-color:#656363"/>
		<stop  offset="0.5" style="stop-color:#A7A6A6"/>
		<stop  offset="1" style="stop-color:#656363"/>
	</linearGradient>
	<path id="XMLID_117_" fill="url(#XMLID_4_)" d="M250,27.4C127,27.4,27.4,127,27.4,250c0,122.9,99.6,222.6,222.6,222.6
		c122.9,0,222.6-99.6,222.6-222.6S372.9,27.4,250,27.4z M252.3,461c-124.7,0-215.7-86-215.7-206.4c0-141.4,92.3-218,215.7-218
		c135,0,210.9,97.6,210.9,218S366.6,461,252.3,461z"/>
	<path id="XMLID_118_" fill="#6D0115" d="M203.3,418c-0.4,0-0.6-0.3-0.8-0.6c-8.8-70.1-20.2-249.2-16.8-316.2c0-0.4,0.4-0.8,0.8-0.6
		c0.4,0,0.8,0.4,0.6,0.8c-3.4,66.9,8,245.9,16.8,316C204.1,417.5,203.8,417.9,203.3,418L203.3,418z"/>
	<path id="XMLID_119_" fill="#6D0115" d="M230.2,420.6c-0.4,0-0.8-0.3-0.8-0.8c-1.4-41.1-8.1-249.6-9.4-323.6c0-0.4,0.3-0.8,0.8-0.8
		c0.4,0,0.8,0.3,0.8,0.8c1.3,74.2,8.1,282.6,9.4,323.6C230.9,420.2,230.5,420.6,230.2,420.6L230.2,420.6z"/>
	<path id="XMLID_120_" fill="#6D0115" d="M223,420.1c-0.4,0-0.8-0.3-0.8-0.8c-1.7-40.6-9.8-247.1-11.4-322.2c0-0.4,0.3-0.8,0.8-0.8
		c0.4,0,0.8,0.3,0.8,0.8c1.7,75,9.8,281.6,11.4,322.2C223.7,419.8,223.4,420.1,223,420.1L223,420.1z"/>
	<path id="XMLID_121_" fill="#6D0115" d="M244.4,421c-0.4,0-0.8-0.4-0.8-0.8c0-2.4-4.7-246.1-7.1-325.1c0-0.4,0.3-0.8,0.8-0.8
		c0.4,0,0.8,0.3,0.8,0.8c2.4,79.1,7.1,322.7,7.1,325.1C245.2,420.7,244.9,421,244.4,421L244.4,421z"/>
	<path id="XMLID_122_" fill="#6D0115" d="M238.2,420.8c-0.4,0-0.8-0.3-0.8-0.8c-1.4-40.7-8.3-247.8-8-324.7c0-0.4,0.4-0.8,0.8-0.8
		c0.4,0.1,0.8,0.4,0.8,0.8c-0.3,77,6.6,283.9,8,324.6C238.9,420.6,238.6,420.8,238.2,420.8L238.2,420.8z"/>
	<path id="XMLID_123_" fill="#6D0115" d="M195.7,416.8c-0.4,0-0.6-0.3-0.8-0.6c-1.9-18.6-11.3-113.6-13.9-158.5
		c-2.4-42.5-5.1-121.9-4.1-154.5c0-0.4,0.4-0.8,0.8-0.8c0.4,0,0.8,0.4,0.8,0.8c-1,32.7,1.7,111.9,4.1,154.4
		c2.5,44.9,12,139.8,13.9,158.4C196.4,416.4,196.1,416.8,195.7,416.8L195.7,416.8z"/>
	<path id="XMLID_125_" fill="#6D0115" d="M216.8,419.6c-0.4,0-0.6-0.3-0.8-0.6c-7.5-73.8-13.2-280-14.2-320.5c0-0.4,0.3-0.8,0.8-0.8
		c0.4,0,0.8,0.3,0.8,0.8c1,40.6,6.9,246.6,14.2,320.4C217.6,419.2,217.3,419.6,216.8,419.6L216.8,419.6z"/>
	<path id="XMLID_126_" fill="#6D0115" d="M209.8,418.8c-0.4,0-0.6-0.3-0.8-0.6c-7.6-73.4-14.2-278.2-15.5-318.4
		c0-0.4,0.3-0.8,0.8-0.8c0.4,0,0.8,0.3,0.8,0.8c1.3,40.3,7.9,245,15.5,318.3C210.6,418.4,210.3,418.8,209.8,418.8L209.8,418.8z"/>
	<path id="XMLID_127_" fill="#6D0115" d="M188.6,415.5c-0.4,0-0.6-0.3-0.8-0.6c-7.9-66.5-22.4-190.3-19.1-309.5
		c0-0.4,0.3-0.8,0.8-0.8c0.4,0,0.8,0.4,0.8,0.8c-3.3,119.1,11.3,242.8,19.1,309.3C189.3,415.1,189.1,415.5,188.6,415.5L188.6,415.5z
		"/>
	<path id="XMLID_131_" fill="#6D0115" d="M153.7,403.5c-0.4,0-0.6-0.3-0.8-0.5c-31.3-136.1-27.1-248.9-25.1-280.2
		c0-0.4,0.4-0.6,0.8-0.6c0.4,0,0.8,0.4,0.6,0.8c-2,31.3-6.4,144,25.1,279.8c0.1,0.4-0.1,0.8-0.5,0.9L153.7,403.5z"/>
	<path id="XMLID_132_" fill="#6D0115" d="M135.6,386.4c-0.3,0-0.5-0.1-0.6-0.4c-9.2-13.5-13.9-31.8-20-55.1l-0.9-3.6
		c-15.8-60.2-16.2-109.9-12-166c0-0.4,0.4-0.8,0.8-0.6c0.4,0,0.8,0.4,0.6,0.8c-4.2,56-3.7,105.6,12,165.5l0.9,3.6
		c5.5,21.1,9.9,38.3,17.6,51.1c-28.5-139.2-25.6-216.7-22.9-243.8c0-0.4,0.4-0.6,0.8-0.6s0.6,0.4,0.6,0.8
		c-2.7,27.2-5.6,105.8,23.7,247.4c0.1,0.4-0.1,0.6-0.4,0.8L135.6,386.4z"/>
	<path id="XMLID_133_" fill="#6D0115" d="M144.9,397c-0.4,0-0.6-0.3-0.8-0.6c-30.5-136.9-27.2-238.8-25.4-266.6
		c0-0.4,0.4-0.8,0.8-0.6c0.4,0,0.8,0.4,0.6,0.8c-1.8,27.9-5.1,129.5,25.4,266.2c0.1,0.4-0.1,0.8-0.5,0.9L144.9,397z"/>
	<path id="XMLID_134_" fill="#6D0115" d="M181.9,414.1c-0.4,0-0.6-0.3-0.8-0.6c-15.6-89.8-23.7-238.2-20.1-305.9
		c0-0.4,0.4-0.8,0.8-0.6c0.4,0,0.8,0.4,0.6,0.8c-3.6,67.7,4.3,215.9,20,305.5C182.7,413.6,182.5,414,181.9,414.1L181.9,414.1z"/>
	<path id="XMLID_139_" fill="#6D0115" d="M174.7,412.2c-0.4,0-0.6-0.3-0.8-0.6c-18.1-87.8-24.4-247.9-21-301.2
		c0-0.4,0.4-0.8,0.8-0.6c0.4,0,0.8,0.4,0.6,0.8c-3.4,53.3,3.1,213.2,21,300.8c0.1,0.4-0.1,0.8-0.5,0.9H174.7z"/>
	<path id="XMLID_140_" fill="#6D0115" d="M168.2,410.1c-0.4,0-0.6-0.3-0.8-0.6C140,254.5,143,136.2,143.9,114c0-0.4,0.4-0.8,0.8-0.8
		c0.4,0,0.8,0.4,0.8,0.8c-0.9,22.1-4.1,140.3,23.4,295.2C169,409.6,168.6,410,168.2,410.1L168.2,410.1z"/>
	<path id="XMLID_141_" fill="#6D0115" d="M161.3,407.5c-0.4,0-0.6-0.3-0.8-0.6c-28.7-128.9-25.8-263.2-24.9-288.7
		c0-0.4,0.4-0.8,0.8-0.8s0.8,0.4,0.8,0.8c-0.9,25.6-3.7,159.6,24.9,288.4c0.1,0.4-0.1,0.8-0.5,0.9L161.3,407.5z"/>
	<path id="XMLID_142_" fill="#6D0115" d="M259.8,420.7c-0.4,0-0.8-0.4-0.8-0.8c-0.3-67.9-2.9-262.2-3.9-324.9c0-0.4,0.3-0.8,0.8-0.8
		l0,0c0.4,0,0.8,0.4,0.8,0.8c0.9,62.7,3.7,256.9,3.9,324.9C260.6,420.3,260.3,420.7,259.8,420.7z"/>
	<path id="XMLID_144_" fill="#6D0115" d="M251.7,421c-0.4,0-0.8-0.4-0.8-0.8c-0.3-56.6-4.1-281-4.8-325.4c0-0.3,0.1-0.4,0.3-0.5
		s0.4-0.3,0.5-0.3h0.4c0.4,0,0.8,0.4,0.8,0.8c0,0.3-0.1,0.5-0.4,0.6c0.8,45.9,4.6,268.4,4.8,324.7C252.3,420.6,252,421,251.7,421z"
		/>
	<path id="XMLID_145_" fill="#6D0115" d="M334.8,406.1L334.8,406.1c-0.5-0.1-0.8-0.5-0.8-0.9C359.8,257,352,144.4,349,113.5
		c0-0.4,0.3-0.8,0.6-0.8c0.4,0,0.8,0.3,0.8,0.6c3.1,31,10.8,143.7-14.9,292.2C335.6,405.8,335.2,406.1,334.8,406.1z"/>
	<path id="XMLID_147_" fill="#6D0115" d="M327.8,408.9h-0.1c-0.4-0.1-0.6-0.5-0.6-0.9c16.9-87.8,18.3-242.7,14.2-297.8
		c0-0.4,0.3-0.8,0.6-0.8s0.8,0.3,0.8,0.6c4.1,55.1,2.8,210.3-14.2,298.2C328.5,408.6,328.2,408.9,327.8,408.9z"/>
	<path id="XMLID_148_" fill="#6D0115" d="M340.4,403.4h-0.1c-0.4-0.1-0.6-0.5-0.5-0.9c29.8-124.7,21.6-249.2,18.4-284.4
		c0-0.4,0.3-0.8,0.6-0.8s0.8,0.3,0.8,0.6c3.2,35.2,11.2,160-18.6,284.8C341.1,403.3,340.8,403.4,340.4,403.4z"/>
	<path id="XMLID_149_" fill="#6D0115" d="M358.1,387.8H358c-0.4-0.1-0.6-0.5-0.5-0.9C386.4,260,379.4,165.5,375,130.7
		c0-0.4,0.3-0.8,0.6-0.8c0.4,0,0.8,0.3,0.8,0.6c4.3,34.9,11.4,129.7-17.6,256.7C358.8,387.5,358.5,387.8,358.1,387.8z"/>
	<path id="XMLID_150_" fill="#6D0115" d="M349.5,397.4h-0.1c-0.4-0.1-0.6-0.5-0.5-0.9c30.4-132.4,21.5-242.3,18.1-272.8
		c0-0.4,0.3-0.8,0.6-0.8s0.8,0.3,0.8,0.6c3.4,30.7,12.3,140.7-18.1,273.4C350.1,397.2,349.9,397.4,349.5,397.4z"/>
	<path id="XMLID_152_" fill="#6D0115" d="M320.8,411.2h-0.1c-0.4-0.1-0.6-0.5-0.6-0.9c15.9-83.6,16.8-230.2,12.5-303.1
		c0-0.4,0.3-0.8,0.6-0.8c0.4,0,0.8,0.3,0.8,0.6c4.5,72.9,3.4,219.8-12.5,303.5C321.5,410.9,321.2,411.2,320.8,411.2z"/>
	<path id="XMLID_153_" fill="#6D0115" d="M314.7,412.8L314.7,412.8c-0.5,0-0.8-0.4-0.8-0.9c2.9-22.3,17.2-142,10.6-307.2
		c0-0.4,0.3-0.8,0.8-0.8c0.4,0,0.8,0.3,0.8,0.8c6.6,165.4-7.6,285.2-10.6,307.4C315.4,412.6,315.1,412.8,314.7,412.8z"/>
	<path id="XMLID_154_" fill="#6D0115" d="M306.9,414.7L306.9,414.7c-0.5,0-0.8-0.4-0.8-0.8c17.2-161.5,12.5-248.2,9-311.5
		c0-0.4,0.3-0.8,0.6-0.8c0.4,0,0.8,0.3,0.8,0.6c3.4,63.3,8.1,150.1-9,311.6C307.5,414.5,307.1,414.7,306.9,414.7z"/>
	<path id="XMLID_155_" fill="#6D0115" d="M265.5,420.3L265.5,420.3c-0.5,0-0.8-0.4-0.8-0.8c5.6-83.6,0-284.7-1.1-324.1
		c0-0.4,0.3-0.8,0.8-0.8c0.4,0,0.8,0.3,0.8,0.8c1.1,39.4,6.6,240.7,1.1,324.2C266.3,420.1,265.9,420.3,265.5,420.3z"/>
	<path id="XMLID_156_" fill="#6D0115" d="M272.4,419.8L272.4,419.8c-0.4,0-0.8-0.4-0.8-0.8c2.5-56.9,4.8-158.6,1.1-321.3v-1.7
		c0-0.4,0.3-0.8,0.8-0.8s0.8,0.3,0.8,0.8v1.7c3.7,162.7,1.4,264.6-1.1,321.4C273,419.4,272.8,419.8,272.4,419.8z"/>
	<path id="XMLID_159_" fill="#6D0115" d="M370.1,363.3h-0.3c-0.4-0.1-0.6-0.5-0.5-0.9c23.5-119.3,19.2-189,14.5-219.9
		c0-0.4,0.1-0.6,0.5-0.8c0.4-0.1,0.8,0,0.9,0.4c2.9,5.5,4.6,11.3,5.1,17.6l0.6,8.4c3.8,49,7.1,91.2-10.2,159.5
		c-3.4,13.7-6.5,25.1-10,35.4C370.6,363.1,370.3,363.3,370.1,363.3z M386,147.2c4.2,31.9,7,96.9-12.8,203.3c2-7,4.1-14.8,6.2-23.4
		c17.3-68.1,14-110.2,10.2-159l-0.6-8.4C388.5,155.4,387.5,151.2,386,147.2z"/>
	<path id="XMLID_160_" fill="#6D0115" d="M300.2,416L300.2,416c-0.5,0-0.8-0.4-0.8-0.8c16.2-152.8,9.4-288.7,7.8-314.4
		c0-0.4,0.3-0.8,0.6-0.8s0.8,0.3,0.8,0.6c1.5,25.7,8.4,161.8-7.9,314.7C301,415.7,300.6,416,300.2,416z"/>
	<path id="XMLID_161_" fill="#6D0115" d="M279.4,419L279.4,419c-0.5,0-0.8-0.4-0.8-0.8c6.1-101.5,6.6-207.3,1.7-314.4
		c-0.1-2.9-0.3-5.2-0.4-7.1c0-0.4,0.3-0.8,0.8-0.8c0.4,0,0.8,0.3,0.8,0.8c0.1,1.8,0.1,4.2,0.4,7.1c5,107.2,4.3,213.1-1.7,314.7
		C280.1,418.8,279.8,419,279.4,419z"/>
	<path id="XMLID_162_" fill="#6D0115" d="M293.2,417.3L293.2,417.3c-0.5,0-0.8-0.4-0.8-0.8c13.9-168.7,7.6-293.8,6.2-317.2
		c0-0.4,0.3-0.8,0.6-0.8c0.4,0,0.8,0.3,0.8,0.6c1.4,23.4,7.6,148.7-6.2,317.5C293.9,416.9,293.6,417.3,293.2,417.3z"/>
	<path id="XMLID_163_" fill="#6D0115" d="M286.6,418.2L286.6,418.2c-0.4,0-0.8-0.4-0.8-0.8c1.7-34.9,9.9-214.2,4.3-319.5
		c0-0.4,0.3-0.8,0.6-0.8c0.4,0,0.8,0.3,0.8,0.6c5.7,105.4-2.5,284.8-4.3,319.7C287.3,417.9,287,418.2,286.6,418.2z"/>
	
		<linearGradient id="XMLID_5_" gradientUnits="userSpaceOnUse" x1="125.8935" y1="378.5944" x2="128.4374" y2="378.5944" gradientTransform="matrix(-36.5733 -29.6475 29.6475 -36.5733 -6235.2397 17679.416)">
		<stop  offset="0" style="stop-color:#DEDEDE"/>
		<stop  offset="5.617980e-003" style="stop-color:#DEDEDE"/>
		<stop  offset="0.1616" style="stop-color:#D2D1D1"/>
		<stop  offset="1" style="stop-color:#918F8F"/>
	</linearGradient>
	<path id="XMLID_164_" fill="url(#XMLID_5_)" d="M415.4,114.4l-0.3-6.1c-30.9-37.9-76.2-63.7-134.2-70.1
		C313.7,44.8,376.2,63.8,415.4,114.4z"/>
	
		<linearGradient id="XMLID_6_" gradientUnits="userSpaceOnUse" x1="124.6338" y1="374.3848" x2="127.1777" y2="374.3848" gradientTransform="matrix(64.3169 0 0 64.3169 -7909.2007 -23998.7832)">
		<stop  offset="0" style="stop-color:#DEDEDE"/>
		<stop  offset="5.617980e-003" style="stop-color:#DEDEDE"/>
		<stop  offset="0.1834" style="stop-color:#9B999A"/>
		<stop  offset="0.3652" style="stop-color:#5A5758"/>
		<stop  offset="1" style="stop-color:#DEDEDE"/>
	</linearGradient>
	<path id="XMLID_165_" fill="url(#XMLID_6_)" d="M280.8,38.2c-9.2-1-18.7-1.5-28.5-1.5c-63.6,0-119.1,20.4-157.9,59.5l-13,23.7
		c8.3-13.9,48.7-68.8,168.8-66.7c131.8,2.4,165.5,71.1,165.5,71.1l-0.5-10C376.2,63.8,313.7,44.8,280.8,38.2z"/>
	
		<linearGradient id="XMLID_7_" gradientUnits="userSpaceOnUse" x1="124.2114" y1="379.7682" x2="126.7554" y2="379.7682" gradientTransform="matrix(1.258307e-009 -28.0268 28.0268 1.258307e-009 -10218.0264 3815.4919)">
		<stop  offset="0" style="stop-color:#A7A6A6"/>
		<stop  offset="5.617980e-003" style="stop-color:#A7A6A6"/>
		<stop  offset="0.225" style="stop-color:#9A9999"/>
		<stop  offset="0.7013" style="stop-color:#838182"/>
		<stop  offset="1" style="stop-color:#7B7979"/>
	</linearGradient>
	<path id="XMLID_166_" fill="url(#XMLID_7_)" d="M463.2,254.6c0-56.3-16.7-107.7-48.2-146.4c0,0,41.2,57.1,43.4,130.1
		c0.8,25.7-3.7,51.3-11.2,75.8c-8.9,29.4-25.8,66-59,99.7C433.8,377.1,463.2,321.1,463.2,254.6z"/>
	<path id="XMLID_167_" fill="#E9E8E8" d="M458.4,238.3c-2.2-73-43.4-130.1-43.4-130.1s43.5,73.3,41.6,163.5
		C458.1,260.7,458.7,249.5,458.4,238.3z"/>
	<path id="XMLID_168_" fill="#E9E8E8" d="M431.6,143.3c-8.8-21.9-16.5-35-16.5-35l0.8,16.2l20.1,50.6c0,0,0-3.1,0-8
		C435.8,163.3,432.9,154.1,431.6,143.3z"/>
	
		<linearGradient id="XMLID_8_" gradientUnits="userSpaceOnUse" x1="125.0257" y1="377.0666" x2="127.5697" y2="377.0666" gradientTransform="matrix(4.418605e-009 -98.4174 98.4174 4.418605e-009 -36685.3711 12714.3379)">
		<stop  offset="0" style="stop-color:#A7A6A6"/>
		<stop  offset="5.617980e-003" style="stop-color:#A7A6A6"/>
		<stop  offset="0.1011" style="stop-color:#9A9999"/>
		<stop  offset="0.3083" style="stop-color:#838182"/>
		<stop  offset="0.4382" style="stop-color:#7B7979"/>
		<stop  offset="0.7224" style="stop-color:#797777"/>
		<stop  offset="0.8339" style="stop-color:#727070"/>
		<stop  offset="0.915" style="stop-color:#666464"/>
		<stop  offset="0.981" style="stop-color:#555353"/>
		<stop  offset="1" style="stop-color:#4F4C4D"/>
	</linearGradient>
	<path id="XMLID_169_" fill="url(#XMLID_8_)" d="M431.6,143.3c1.4,10.8,4.3,20,4.3,23.8c0,0,11.4,20.1,11.4,36.1s4.3,28.5,4.3,49.7
		c0,21.4,3.7,65.5-45.8,136.6c-4.6,6.6-9.3,13.6-13.6,20.1c30.5-32.6,46.4-67.3,55-95.5c4.2-13.9,7.5-28,9.4-42.4
		C457.7,219.6,443.6,173.2,431.6,143.3z"/>
	<path id="XMLID_170_" fill="#E9E8E8" d="M387.8,414.2c-22.6,14.1-78,44.3-138.5,44.3c-65.1,0-153.7-26.1-187.5-119.7
		C49.3,304.1,44.4,280,44.4,240c0-56.7,24-112.1,50-143.5l-0.4,0.4c-2.9,3.1-24.8,27-40.1,70.2C33.4,225.2,25.4,315,97.9,403.5
		c38.3,36.4,92.1,57.7,154.3,57.7C303.4,461,350.9,443.9,387.8,414.2z"/>
	<path id="XMLID_171_" fill="#BDBBBC" d="M54.1,166.8c15.3-43.1,37.3-67.2,40.1-70.2c-36.1,36.6-57.6,89.8-57.6,158
		c0,60.3,22.9,112.1,61.4,148.6C25.5,314.6,33.5,224.9,54.1,166.8z"/>
	
		<linearGradient id="XMLID_9_" gradientUnits="userSpaceOnUse" x1="298.9797" y1="365.4104" x2="301.5237" y2="365.4104" gradientTransform="matrix(-0.6479 0.3236 -0.3236 -0.6479 384.581 495.1844)">
		<stop  offset="0" style="stop-color:#A7A6A6"/>
		<stop  offset="5.617980e-003" style="stop-color:#A7A6A6"/>
		<stop  offset="0.1011" style="stop-color:#9A9999"/>
		<stop  offset="0.3083" style="stop-color:#838182"/>
		<stop  offset="0.4382" style="stop-color:#7B7979"/>
		<stop  offset="0.7224" style="stop-color:#797777"/>
		<stop  offset="0.8339" style="stop-color:#727070"/>
		<stop  offset="0.915" style="stop-color:#666464"/>
		<stop  offset="0.981" style="stop-color:#555353"/>
		<stop  offset="1" style="stop-color:#4F4C4D"/>
	</linearGradient>
	<path id="XMLID_172_" fill="url(#XMLID_9_)" d="M55.9,321.2c1.8,5.6,3.7,11.3,5.9,17.4c6.6,18.4,15.5,34.3,25.8,47.8l3.9,1.5
		C76,363.8,62.6,335.9,55.9,321.2z"/>
	
		<linearGradient id="XMLID_10_" gradientUnits="userSpaceOnUse" x1="125.124" y1="377.0936" x2="127.668" y2="377.0936" gradientTransform="matrix(13.3652 93.5564 -93.5564 13.3652 33671 -16605.3906)">
		<stop  offset="0" style="stop-color:#A7A6A6"/>
		<stop  offset="5.617980e-003" style="stop-color:#A7A6A6"/>
		<stop  offset="0.1011" style="stop-color:#9A9999"/>
		<stop  offset="0.3083" style="stop-color:#838182"/>
		<stop  offset="0.4382" style="stop-color:#7B7979"/>
		<stop  offset="0.7224" style="stop-color:#797777"/>
		<stop  offset="0.8339" style="stop-color:#727070"/>
		<stop  offset="0.915" style="stop-color:#666464"/>
		<stop  offset="0.981" style="stop-color:#555353"/>
		<stop  offset="1" style="stop-color:#4F4C4D"/>
	</linearGradient>
	<path id="XMLID_173_" fill="url(#XMLID_10_)" d="M102.6,398.2c-25.7-39.9-51.9-79.8-51.9-152.4s30.8-125.9,30.8-125.9l13-23.7
		c-26.1,31.4-50,86.7-50,143.5c0,33.1,3.3,55.2,11.4,81.4c6.7,14.6,20.2,42.6,35.6,66.8l-3.9-1.5c2.9,3.8,5.9,7.4,9,10.8
		L102.6,398.2z"/>
	
		<linearGradient id="XMLID_11_" gradientUnits="userSpaceOnUse" x1="168.8536" y1="377.0645" x2="171.3976" y2="377.0645" gradientTransform="matrix(1.7745 2.3168 -2.3168 1.7745 946.8643 -641.9924)">
		<stop  offset="0" style="stop-color:#231F20"/>
		<stop  offset="5.617980e-003" style="stop-color:#231F20"/>
		<stop  offset="7.776989e-002" style="stop-color:#373334"/>
		<stop  offset="0.2339" style="stop-color:#5C595A"/>
		<stop  offset="0.3596" style="stop-color:#737071"/>
		<stop  offset="0.4382" style="stop-color:#7B7979"/>
		<stop  offset="0.7224" style="stop-color:#797777"/>
		<stop  offset="0.8339" style="stop-color:#727070"/>
		<stop  offset="0.915" style="stop-color:#666464"/>
		<stop  offset="0.981" style="stop-color:#555353"/>
		<stop  offset="1" style="stop-color:#4F4C4D"/>
	</linearGradient>
	<path id="XMLID_174_" fill="url(#XMLID_11_)" d="M387.8,414.2c0.1-0.1,0.3-0.3,0.4-0.3c1.4-1.4,2.8-2.8,4.1-4.3
		c1.1-1.8,2.4-3.6,3.7-5.5c-13,11.3-33.8,23.7-44.9,29.8C366.8,426.7,379.5,419.3,387.8,414.2z"/>
	
		<linearGradient id="XMLID_12_" gradientUnits="userSpaceOnUse" x1="124.0445" y1="376.2466" x2="126.5884" y2="376.2466" gradientTransform="matrix(6.561 -55.8896 55.8896 6.561 -21588.9063 4898.6455)">
		<stop  offset="0" style="stop-color:#A7A6A6"/>
		<stop  offset="5.617980e-003" style="stop-color:#A7A6A6"/>
		<stop  offset="0.1011" style="stop-color:#9A9999"/>
		<stop  offset="0.3083" style="stop-color:#838182"/>
		<stop  offset="0.4382" style="stop-color:#7B7979"/>
		<stop  offset="0.7224" style="stop-color:#797777"/>
		<stop  offset="0.8339" style="stop-color:#727070"/>
		<stop  offset="0.915" style="stop-color:#666464"/>
		<stop  offset="0.981" style="stop-color:#555353"/>
		<stop  offset="1" style="stop-color:#4F4C4D"/>
	</linearGradient>
	<path id="XMLID_175_" fill="url(#XMLID_12_)" d="M370.5,419c-0.1,0.1-0.3,0.1-0.4,0.3c-21.4,14-64.2,30-126.4,30
		c-66.3,0-109.5-22.9-122.7-34.1c-6.4-5.5-11.2-7.4-14.4-8c41.6,38.5,97.7,51,142.7,51c38.3,0,74.5-12.1,101.8-24.5
		c10.9-6.1,31.9-18.3,44.9-29.8c3.3-4.8,6.6-9.8,9.9-14.6c0.3-0.4,0.5-0.8,0.9-1.3l3.3-12.1C410,376.3,389.4,406.5,370.5,419z"/>
	
		<linearGradient id="XMLID_13_" gradientUnits="userSpaceOnUse" x1="134.4817" y1="375.6351" x2="137.0257" y2="375.6351" gradientTransform="matrix(11.876 5.6551 -5.6551 11.876 948.1968 -4898.0767)">
		<stop  offset="0" style="stop-color:#393637"/>
		<stop  offset="5.617980e-003" style="stop-color:#393637"/>
		<stop  offset="0.1376" style="stop-color:#5B5959"/>
		<stop  offset="0.2536" style="stop-color:#737071"/>
		<stop  offset="0.3258" style="stop-color:#7B7979"/>
		<stop  offset="0.4102" style="stop-color:#747272"/>
		<stop  offset="0.7823" style="stop-color:#595657"/>
		<stop  offset="1" style="stop-color:#4F4C4D"/>
	</linearGradient>
	<path id="XMLID_176_" fill="url(#XMLID_13_)" d="M451.6,266.3c-15.5,17.8-22.6,42.6-29.8,65.8c-7.6,24.7-7.6,36.6-12,44.3
		l-3.3,12.1C446.8,330.3,451.4,290.3,451.6,266.3z"/>
	
		<linearGradient id="XMLID_14_" gradientUnits="userSpaceOnUse" x1="105.141" y1="378.5789" x2="107.6849" y2="378.5789" gradientTransform="matrix(-5.9126 0.9719 -0.9719 -5.9126 1440.3247 2329.3188)">
		<stop  offset="0" style="stop-color:#393637"/>
		<stop  offset="5.617980e-003" style="stop-color:#393637"/>
		<stop  offset="0.1156" style="stop-color:#423F40"/>
		<stop  offset="0.296" style="stop-color:#5B5858"/>
		<stop  offset="0.5243" style="stop-color:#828080"/>
		<stop  offset="0.7887" style="stop-color:#B8B7B7"/>
		<stop  offset="1" style="stop-color:#E9E8E8"/>
	</linearGradient>
	<path id="XMLID_177_" fill="url(#XMLID_14_)" d="M445.5,227.1c2.7,0.6-1.3-7.3,2-16.9c-0.1-2.3-0.3-4.6-0.3-7
		c0-16-11.4-36.1-11.4-36.1c0,5,0,8,0,8l-4.7-12c1,5.2,2.4,12.1,3.8,20.9C438.4,205.2,441.2,226.1,445.5,227.1z"/>
	<path id="XMLID_178_" fill="#E9E8E8" d="M441.2,218.7L441.2,218.7c-2.2-8.3-4.1-21.5-6.2-34.9c-1.4-8.8-2.8-15.6-3.8-20.9
		l-7.9-19.8c4.1,16.5,8.8,32.9,11.7,49.1C438.8,214.4,441.2,218.7,441.2,218.7z"/>
	<path id="XMLID_179_" fill="#E9E8E8" d="M359.4,79.4c21,9.4,35.7,21.5,46.6,35c8.9,11.1,16.5,31.4,22.1,48.1
		c-1.7-6.4-3.3-12.7-5-19.2l-7.4-18.7c0,0-33.7-68.8-165.5-71.1c-42.7-0.8-76.4,7.5-102.1,18.4c22.6-6.4,61.8-15.8,93-15.8
		C281.2,55.9,315.8,59.8,359.4,79.4z"/>
	
		<linearGradient id="XMLID_15_" gradientUnits="userSpaceOnUse" x1="126.9689" y1="383.113" x2="129.5129" y2="383.113" gradientTransform="matrix(-14.8687 4.5901 -4.5901 -14.8687 3820.4688 5198.2607)">
		<stop  offset="0" style="stop-color:#918F8F"/>
		<stop  offset="5.617980e-003" style="stop-color:#918F8F"/>
		<stop  offset="1" style="stop-color:#918F8F"/>
	</linearGradient>
	<path id="XMLID_180_" fill="url(#XMLID_15_)" d="M185.9,70.4L186,68c-55.5,11.3-87,37-93.7,56.1c0,0,1-0.5,2.4-0.6
		c1.7-2.3,4.1-5.5,6.7-9.2C106.8,106.6,133.4,80.3,185.9,70.4z"/>
	
		<linearGradient id="XMLID_16_" gradientUnits="userSpaceOnUse" x1="125.245" y1="375.4097" x2="127.7903" y2="375.4097" gradientTransform="matrix(126.2884 0 0 126.2884 -15722.4229 -47281.1094)">
		<stop  offset="0" style="stop-color:#FFFFFF"/>
		<stop  offset="5.617980e-003" style="stop-color:#FFFFFF"/>
		<stop  offset="6.048165e-002" style="stop-color:#E6E6E6"/>
		<stop  offset="0.1613" style="stop-color:#BEBDBD"/>
		<stop  offset="0.2685" style="stop-color:#9C9A9A"/>
		<stop  offset="0.3814" style="stop-color:#807E7E"/>
		<stop  offset="0.5019" style="stop-color:#6A6868"/>
		<stop  offset="0.6336" style="stop-color:#5B5859"/>
		<stop  offset="0.7848" style="stop-color:#524F50"/>
		<stop  offset="1" style="stop-color:#4F4C4D"/>
	</linearGradient>
	<path id="XMLID_181_" fill="url(#XMLID_16_)" d="M415.6,147.7c-1.5-4.2-7.5-23.2-18.7-36.1c-11.2-13.1-56.3-49.5-150-49.5
		c-22.8,0-43.1,2.2-60.9,5.9l-0.1,2.4c-52.4,9.9-79,36.4-84.6,43.9c-2.7,3.7-5,6.9-6.7,9.2c0.8,0,1.7,0.1,2.7,0.5
		c2.9,1.1,2.5,1.3,4.8,2.3c2.3,1,2.9,1.8,9.5-5.5c6.5-7.3,42.4-37.7,135.6-37.7c57,0,109.5,11.1,137.9,37.9
		c5.5,7.1,14.2,14.5,20.1,74.4c-0.4-9.2-0.9-16.3-1.3-19.8c0-0.1-2.4-13.2-2.4-22.9c0-3.2,0.4-5.3,2.9-4.1c2.7,1.3,4.2,0.4,6.4,1.4
		c1.9,0.9,5.5,1.8,5.2-0.9C415.9,148.7,415.7,148.2,415.6,147.7z"/>
	
		<linearGradient id="XMLID_17_" gradientUnits="userSpaceOnUse" x1="220.1528" y1="377.8026" x2="222.6968" y2="377.8026" gradientTransform="matrix(1.0337 0.6584 -0.6584 1.0337 431.2279 -178.6275)">
		<stop  offset="0" style="stop-color:#BDBBBC"/>
		<stop  offset="5.617980e-003" style="stop-color:#BDBBBC"/>
		<stop  offset="0.1642" style="stop-color:#C5C5C5"/>
		<stop  offset="0.4233" style="stop-color:#DEDDDD"/>
		<stop  offset="0.5225" style="stop-color:#E9E8E8"/>
		<stop  offset="1" style="stop-color:#918F8F"/>
	</linearGradient>
	<path id="XMLID_182_" fill="url(#XMLID_17_)" d="M410.1,350.1c-0.1,0.3-2.5,3.7-5.6,10C406.5,357.4,408.4,353.9,410.1,350.1z"/>
	
		<linearGradient id="XMLID_18_" gradientUnits="userSpaceOnUse" x1="125.1427" y1="373.8979" x2="127.6866" y2="373.8979" gradientTransform="matrix(-18.9548 45.3619 -45.3619 -18.9548 19768.3789 1663.7157)">
		<stop  offset="0" style="stop-color:#2E2B2C"/>
		<stop  offset="5.617980e-003" style="stop-color:#2E2B2C"/>
		<stop  offset="0.5225" style="stop-color:#918F8F"/>
		<stop  offset="1" style="stop-color:#393637"/>
	</linearGradient>
	<path id="XMLID_184_" fill="url(#XMLID_18_)" d="M451.6,252.9c0-18.1-3.1-29.8-4.1-42.7c-3.3,9.7,0.6,17.6-2,16.9
		c-1.7-0.4-3.1-3.6-4.3-8.4c0,0-2.4-4.2-6.2-25.7c0.4,11.2,0.9,32.7-0.1,52.5c-1.7,33.1-12.3,78.7-24.7,104.6l0,0l0,0
		c-1.8,3.8-3.7,7.3-5.6,10c-2.4,5.1-4.1,20.5-11.1,37.1c9.5-10.9,16.4-21.1,16.4-21.1c4.3-7.6,4.3-19.6,12-44.3
		c7.1-23,14.2-48,29.8-65.8C451.7,261.1,451.6,256.7,451.6,252.9z"/>
	
		<linearGradient id="XMLID_19_" gradientUnits="userSpaceOnUse" x1="125.3" y1="373.6556" x2="127.844" y2="373.6556" gradientTransform="matrix(0.6479 42.9324 -42.9324 0.6479 16377.501 -5421.8984)">
		<stop  offset="0" style="stop-color:#393637"/>
		<stop  offset="5.617980e-003" style="stop-color:#393637"/>
		<stop  offset="0.1013" style="stop-color:#423F40"/>
		<stop  offset="0.2582" style="stop-color:#5B5858"/>
		<stop  offset="0.4556" style="stop-color:#828080"/>
		<stop  offset="0.5225" style="stop-color:#918F8F"/>
		<stop  offset="1" style="stop-color:#393637"/>
	</linearGradient>
	<path id="XMLID_185_" fill="url(#XMLID_19_)" d="M426.3,173.6c-3.6-16.4-8.1-22.4-10.4-24.5c0.3,2.7-3.3,1.9-5.2,0.9
		c-2.2-1-3.7-0.1-6.4-1.4c-2.7-1.3-2.9,0.8-2.9,4.1c0,9.7,2.4,22.8,2.4,22.9l0,0c0,0,3.7-7,6.2,8.9c1.8,11.3,4.1,19.1,4.2,27.6
		c5,4.8,15.4,17.8,14.6,39.7c-0.5,15.4-2.5,31.7-4.3,43.4c1.3-5.5,2.5-11.2,3.8-16.9C434.9,247.1,431.3,196.7,426.3,173.6z"/>
	
		<linearGradient id="XMLID_20_" gradientUnits="userSpaceOnUse" x1="125.3548" y1="372.5786" x2="127.8988" y2="372.5786" gradientTransform="matrix(-6.6422 29.8081 -29.8081 -6.6422 12365.2217 -1004.4464)">
		<stop  offset="0" style="stop-color:#BDBBBC"/>
		<stop  offset="5.617980e-003" style="stop-color:#BDBBBC"/>
		<stop  offset="0.1642" style="stop-color:#C5C5C5"/>
		<stop  offset="0.4233" style="stop-color:#DEDDDD"/>
		<stop  offset="0.5225" style="stop-color:#E9E8E8"/>
		<stop  offset="1" style="stop-color:#918F8F"/>
	</linearGradient>
	<path id="XMLID_187_" fill="url(#XMLID_20_)" d="M430.1,199.5c2.4,24.8,2.9,56.6-1.8,78.6c-1.3,5.7-2.4,11.3-3.8,16.9
		c-1.5,10-2.8,16.8-2.8,16.8s1.3-6.7,2.8-16.8c-5.6,24.2-11.8,46-19.8,65.1c3.1-6.5,5.3-9.8,5.6-10c12.3-25.8,23-71.6,24.7-104.6
		c0.5-9.2,0.6-18.7,0.6-27.3L430.1,199.5z"/>
	<path id="XMLID_188_" fill="#2E2B2C" d="M380.9,395.6c-2.9,6.1-9.7,15.1-25.3,24.3c-27,15.6-54.8,25.1-108.6,25.1
		s-128.6-13-152.1-73.3S62.6,296,62.6,218.5c0-43.2,8.9-81.3,32.4-108.8l19-19.3c-20.9,14.2-31,27.6-32.4,29.5l-0.1,0.3
		c0,0-30.8,53.3-30.8,125.9S77,358.6,102.6,398.4l-6-0.9c3.2,3.6,6.5,6.9,9.9,10c3.3,0.6,8,2.5,14.4,8
		c13.2,11.2,56.5,34.1,122.7,34.1c62.1,0,105.1-16.2,126.4-30c8.1-5.3,16.5-13.9,23.5-22c2.9-7.1,5-14,6.5-19.8
		C386.5,394.8,380.9,395.6,380.9,395.6z"/>
	
		<linearGradient id="XMLID_21_" gradientUnits="userSpaceOnUse" x1="125.2933" y1="378.276" x2="127.8373" y2="378.276" gradientTransform="matrix(24.1255 -40.2089 40.2089 24.1255 -17858.457 -3699.2202)">
		<stop  offset="0" style="stop-color:#3E3B3B"/>
		<stop  offset="5.617980e-003" style="stop-color:#3E3B3B"/>
		<stop  offset="6.554088e-002" style="stop-color:#535051"/>
		<stop  offset="0.2572" style="stop-color:#939191"/>
		<stop  offset="0.4188" style="stop-color:#C1C0C0"/>
		<stop  offset="0.542" style="stop-color:#DEDDDD"/>
		<stop  offset="0.6124" style="stop-color:#E9E8E8"/>
		<stop  offset="0.6625" style="stop-color:#DDDCDC"/>
		<stop  offset="0.7532" style="stop-color:#BEBCBD"/>
		<stop  offset="0.8741" style="stop-color:#8B8989"/>
		<stop  offset="1" style="stop-color:#4F4C4D"/>
	</linearGradient>
	<path id="XMLID_189_" fill="url(#XMLID_21_)" d="M409.8,321.4c0,0-0.9,2.8-16.4,26.8c-8.1,12.7-12.5,15.8-14.6,15.8
		c-4.7,13.7-10.4,25.7-19.1,35c1.4,2.3,4.2,4.8,9.2,4.8c4.7,0,8.1-2.3,12.1-8.1c3.7-5.5,7.9-14.1,13.9-27
		C407,342.5,409.8,321.4,409.8,321.4z"/>
	
		<linearGradient id="XMLID_22_" gradientUnits="userSpaceOnUse" x1="125.071" y1="373.8797" x2="127.615" y2="373.8797" gradientTransform="matrix(-13.8516 43.9849 -43.9849 -13.8516 18604.1191 -89.6558)">
		<stop  offset="0" style="stop-color:#3E3B3B"/>
		<stop  offset="5.617980e-003" style="stop-color:#3E3B3B"/>
		<stop  offset="3.952281e-002" style="stop-color:#626060"/>
		<stop  offset="8.371706e-002" style="stop-color:#8B898A"/>
		<stop  offset="0.1289" style="stop-color:#ADACAC"/>
		<stop  offset="0.1747" style="stop-color:#C7C6C6"/>
		<stop  offset="0.2213" style="stop-color:#DAD9D9"/>
		<stop  offset="0.2692" style="stop-color:#E5E4E5"/>
		<stop  offset="0.3202" style="stop-color:#E9E8E8"/>
		<stop  offset="0.7753" style="stop-color:#E9E8E8"/>
		<stop  offset="0.902" style="stop-color:#D9D8D8"/>
		<stop  offset="1" style="stop-color:#D3D2D2"/>
	</linearGradient>
	<path id="XMLID_190_" fill="url(#XMLID_22_)" d="M388.4,329.4c-3.2,12.3-6.1,24-9.8,34.7c2.3,0,6.5-3.1,14.6-15.8
		c15.4-24.2,16.4-26.8,16.4-26.8s-2.8,21-15,47.3c-6,12.8-10,21.4-13.9,27c0,0,5.6-0.9,19.1-18.2c2-8,3.2-14.4,4.6-17.3
		c8-19.1,14.2-41,19.8-65.1c1.8-11.7,3.8-28,4.3-43.4c0.8-21.9-9.7-34.9-14.6-39.7c0,3.3-0.3,6.9-1,10.8
		c-2.9,13.9-6.6,26.6-8.4,42.2c-1.9,15.6-5.1,25.3-5.1,25.3l-2.9,0.4C394.6,302.8,392,315.6,388.4,329.4z"/>
	
		<linearGradient id="XMLID_23_" gradientUnits="userSpaceOnUse" x1="123.6949" y1="377.797" x2="126.2388" y2="377.797" gradientTransform="matrix(45.687 2.4302 -2.4302 45.687 -4662.2236 -17183.3105)">
		<stop  offset="0" style="stop-color:#3E3B3B"/>
		<stop  offset="5.617980e-003" style="stop-color:#3E3B3B"/>
		<stop  offset="0.1038" style="stop-color:#535051"/>
		<stop  offset="0.418" style="stop-color:#939191"/>
		<stop  offset="0.6828" style="stop-color:#C1C0C0"/>
		<stop  offset="0.8847" style="stop-color:#DEDDDD"/>
		<stop  offset="1" style="stop-color:#E9E8E8"/>
	</linearGradient>
	<path id="XMLID_191_" fill="url(#XMLID_23_)" d="M128.5,411.7c-18.4-12.5-37.8-52.2-42.5-70.2c-2.3-8.8-6.7-16.3-10.7-21.8
		c4.8,14.9,11.3,30.5,19.6,51.9c23.5,60.3,98.3,73.3,152.1,73.3c43,0,69.5-6,92.1-16.4c-18.3,5.7-52.3,14.2-91.2,14.2
		C189.5,442.7,147,424.3,128.5,411.7z"/>
	
		<linearGradient id="XMLID_24_" gradientUnits="userSpaceOnUse" x1="125.2587" y1="375.5005" x2="127.8012" y2="375.5005" gradientTransform="matrix(139.2271 0 0 139.2271 -17357.9336 -52142.7734)">
		<stop  offset="0" style="stop-color:#2E2B2C"/>
		<stop  offset="5.617980e-003" style="stop-color:#2E2B2C"/>
		<stop  offset="4.464559e-002" style="stop-color:#2F2B2C"/>
		<stop  offset="1" style="stop-color:#393637"/>
	</linearGradient>
	<path id="XMLID_192_" fill="url(#XMLID_24_)" d="M435.1,193c0-0.3-0.1-0.5-0.1-0.6c-1.8-9.9-4.2-19.8-6.7-29.9
		c-5.6-16.7-13.2-37-22.1-48.1c-10.8-13.5-25.6-25.6-46.6-35c-43.6-19.6-78.2-23.5-118.2-23.5c-31.2,0-70.3,9.5-93,15.8
		c-13.5,5.7-24.8,12.2-34,18.6l-19,19.3c-0.1,0.1-0.3,0.4-0.5,0.6c-3.8,6.9-9.7,17.8-13.5,27.9c5.6-10.9,10.8-14,10.8-14
		c9-25.3,61.1-61.9,154.7-61.9s138.8,36.5,150,49.5c11.2,13,17.2,31.9,18.7,36.1c0.3,0.5,0.3,0.9,0.3,1.3c2.4,2,7,8,10.4,24.5
		c1.4,6.7,2.8,15.8,3.8,25.9l5.3,18.7C435.5,208,435.2,199,435.1,193z"/>
	
		<linearGradient id="XMLID_25_" gradientUnits="userSpaceOnUse" x1="124.8361" y1="379.7076" x2="127.38" y2="379.7076" gradientTransform="matrix(-29.4049 12.7584 -12.7584 -29.4049 8745.3574 9620.1602)">
		<stop  offset="0" style="stop-color:#DEDEDE"/>
		<stop  offset="5.617980e-003" style="stop-color:#DEDEDE"/>
		<stop  offset="0.1616" style="stop-color:#D2D1D1"/>
		<stop  offset="1" style="stop-color:#918F8F"/>
	</linearGradient>
	<path id="XMLID_193_" fill="url(#XMLID_25_)" d="M114.2,90.2c9.2-6.4,20.5-12.8,34-18.6c25.7-10.9,59.4-19.2,102.1-18.4
		C130.2,51.1,89.7,106,81.5,119.9l0.1-0.3C83.1,117.8,93.3,104.5,114.2,90.2z"/>
	
		<linearGradient id="XMLID_26_" gradientUnits="userSpaceOnUse" x1="125.6909" y1="374.6794" x2="128.2348" y2="374.6794" gradientTransform="matrix(-69.742 0 0 -69.742 9053.1035 26534.3125)">
		<stop  offset="0" style="stop-color:#4B4848"/>
		<stop  offset="2.853285e-002" style="stop-color:#444141"/>
		<stop  offset="7.303370e-002" style="stop-color:#3E3B3B"/>
		<stop  offset="0.191" style="stop-color:#5F5C5D"/>
		<stop  offset="0.3873" style="stop-color:#908E8E"/>
		<stop  offset="0.5727" style="stop-color:#B6B5B5"/>
		<stop  offset="0.7422" style="stop-color:#D2D1D1"/>
		<stop  offset="0.89" style="stop-color:#E3E2E2"/>
		<stop  offset="1" style="stop-color:#E9E8E8"/>
	</linearGradient>
	<path id="XMLID_194_" fill="url(#XMLID_26_)" d="M359.5,399.1c-1.1,1.1-2.3,2.3-3.4,3.4c-23.2,21-81.5,26.5-109.1,26.5
		c-20.2,0-39.4-1.8-57.5-5.2c-59.1-6.4-67.4-40.1-69.6-46c-2.3-6.4-3.4-3.4-4.7-4.7c-1.3-1.3-1-0.6-6.1-4.2c-5.1-3.6-3.4-1.5-7-3.8
		c-3.6-2.2-3.1,0-2,4.6c0.6,2.7,5.3,12.8,9,20.6c6.1,9.2,12.7,17,19.3,21.5c18.4,12.6,60.9,31,119.6,31c38.9,0,72.8-8.5,91.2-14.2
		c5.6-2.5,11.1-5.5,16.4-8.5c0.9-0.5,1.7-1,2.5-1.5c3.6-5.5,6.5-10.9,8.3-14.8C362.8,402.9,360.8,400.9,359.5,399.1z"/>
	
		<linearGradient id="XMLID_27_" gradientUnits="userSpaceOnUse" x1="133.209" y1="386.5139" x2="135.753" y2="386.5139" gradientTransform="matrix(8.9641 0 0 8.9641 -835.9727 -3057.7656)">
		<stop  offset="0" style="stop-color:#3E3B3B"/>
		<stop  offset="5.617980e-003" style="stop-color:#3E3B3B"/>
		<stop  offset="1.658182e-002" style="stop-color:#454243"/>
		<stop  offset="7.954063e-002" style="stop-color:#6B6969"/>
		<stop  offset="0.1491" style="stop-color:#8D8B8C"/>
		<stop  offset="0.2247" style="stop-color:#AAA8A9"/>
		<stop  offset="0.3084" style="stop-color:#C1C0C0"/>
		<stop  offset="0.4036" style="stop-color:#D3D2D2"/>
		<stop  offset="0.5173" style="stop-color:#DFDFDF"/>
		<stop  offset="0.6676" style="stop-color:#E6E6E6"/>
		<stop  offset="1" style="stop-color:#E9E8E8"/>
	</linearGradient>
	<path id="XMLID_195_" fill="url(#XMLID_27_)" d="M380.9,395.6c-3.9,5.9-7.5,8.1-12.1,8.1c-0.9,0-1.7-0.1-2.4-0.3
		c-1.9,3.8-4.8,9.4-8.3,14.8C372,409.8,378.2,401.4,380.9,395.6z"/>
	
		<linearGradient id="XMLID_28_" gradientUnits="userSpaceOnUse" x1="124.8183" y1="378.6261" x2="127.3623" y2="378.6261" gradientTransform="matrix(-13.224 40.0678 -40.0678 -13.224 16925.3555 122.1478)">
		<stop  offset="0" style="stop-color:#393637"/>
		<stop  offset="0.1388" style="stop-color:#403C3D"/>
		<stop  offset="0.3301" style="stop-color:#514E4F"/>
		<stop  offset="0.552" style="stop-color:#6E6B6C"/>
		<stop  offset="0.7949" style="stop-color:#959494"/>
		<stop  offset="1" style="stop-color:#BDBBBC"/>
	</linearGradient>
	<path id="XMLID_196_" fill="url(#XMLID_28_)" d="M104.7,126.9c-1,0.3-1.7-0.1-2.7-0.6c-2.3-1.1-1.9-1.1-4.8-2.3
		c-2.9-1.1-5.1,0.1-5.1,0.1s-13.1,7.3-19.6,41.5s-5.2,49.9-1.8,66c3.4,16,7.1-8.4,10.3-17.9c2.7-7.9,8.3-14.1,10.9-10.8
		c0.3-9.4,0.6-19,1.3-28.6C91.9,155.9,100.3,135.8,104.7,126.9z"/>
	<path id="XMLID_197_" fill="#2E2B2C" d="M405.1,195.4c-5.9-59.9-14.6-67.3-20.1-74.4c-28.2-26.8-80.8-37.9-137.9-37.9
		c-93.2,0-129,30.5-135.6,37.7c-3.7,4.2-5.6,5.7-6.9,6c-4.5,9-12.8,29-11.4,47.2c0.3-4.3,0.5-8.8,0.9-13.2
		c4.5-59,101.9-74.5,152.9-74.5c15.5,0,55.5,1.3,91.5,13.5c46.7,15.8,58.1,41,59.5,59.1l0.6,8.4c3.1,38.2,5.9,74.5-2.2,123.4
		l2.9-0.4c0,0,6-61.6,6-77.3C405.4,206.8,405.3,200.8,405.1,195.4z"/>
	<path id="XMLID_198_" fill="#A7A6A6" d="M107.4,333.2l-1-3.7c-1-3.9-2-7.9-2.9-11.7C94.9,300.6,85.7,285.9,84,263
		c-1.5-21,0.5-45.3,2-58.4c-1.9,2.2-3.7,5.5-5,9c-3.3,9.5-6.9,34.1-10.3,17.9c-3.4-16-4.8-31.8,1.8-66c2.4-12.5,5.6-21.2,8.8-27.5
		c3.8-10,9.7-21,13.5-27.9c-23.2,27.5-31.9,65.3-31.9,108.2c0,50.1,3.6,74.3,12.5,101.4c3.9,5.5,8.4,13,10.7,21.8
		c1.9,7,5.9,17.4,11.3,28.1c-3.8-10.4-9.4-26.8-10.7-34.9c-1.9-12.2-2.5-16.9,0.4-15.1s4.2,0.8,6.5,4.8c2.3,4.1,3.6,5.3,5.2,7
		c1.8,1.8,3.9,4.1,5.1,5.2c1.1,1.1,2.7,2.2,5.3,11.4c2.3,8.1,7.8,25.3,12,28.7C115.7,364.7,111.9,350.1,107.4,333.2z"/>
	
		<linearGradient id="XMLID_29_" gradientUnits="userSpaceOnUse" x1="127.6096" y1="378.2223" x2="130.1536" y2="378.2223" gradientTransform="matrix(-7.0472 34.1828 -34.1828 -7.0472 13935.7754 -1380.1572)">
		<stop  offset="0" style="stop-color:#5C595A"/>
		<stop  offset="5.617980e-003" style="stop-color:#5C595A"/>
		<stop  offset="8.045499e-002" style="stop-color:#5A5758"/>
		<stop  offset="0.1074" style="stop-color:#535151"/>
		<stop  offset="0.1266" style="stop-color:#484545"/>
		<stop  offset="0.1404" style="stop-color:#393637"/>
		<stop  offset="0.3144" style="stop-color:#3D393A"/>
		<stop  offset="0.4554" style="stop-color:#474344"/>
		<stop  offset="0.5849" style="stop-color:#575455"/>
		<stop  offset="0.7074" style="stop-color:#6F6C6D"/>
		<stop  offset="0.8252" style="stop-color:#8D8B8C"/>
		<stop  offset="0.9377" style="stop-color:#B2B1B1"/>
		<stop  offset="0.9663" style="stop-color:#BDBBBC"/>
		<stop  offset="1" style="stop-color:#BDBBBC"/>
	</linearGradient>
	<path id="XMLID_199_" fill="url(#XMLID_29_)" d="M109.1,348.2c-2.7-9.3-4.2-10.3-5.3-11.4c-1.1-1.1-3.4-3.6-5.1-5.2
		c-1.8-1.8-2.9-2.9-5.2-7c-2.3-4.1-3.6-3.1-6.5-4.8c-2.9-1.8-2.3,2.8-0.4,15.1c1.3,8,7,24.5,10.7,34.9c3.4,7,7.5,14.1,11.8,20.6
		c-3.7-7.8-8.4-17.8-9-20.6c-1.1-4.6-1.5-6.7,2-4.6s1.9,0.3,7,3.8c5.1,3.6,4.8,3.1,6.1,4.2c0.8,0.8,1.5-0.1,2.7,0.9l0.1-1.5
		C114.4,365.9,110.8,354.3,109.1,348.2z"/>
	
		<linearGradient id="XMLID_30_" gradientUnits="userSpaceOnUse" x1="85.9192" y1="386.6015" x2="88.4632" y2="386.6015" gradientTransform="matrix(2.1925 -1.8269 1.8269 2.1925 -755.8896 -280.0978)">
		<stop  offset="0" style="stop-color:#5C595A"/>
		<stop  offset="5.617980e-003" style="stop-color:#5C595A"/>
		<stop  offset="8.045499e-002" style="stop-color:#5A5758"/>
		<stop  offset="0.1074" style="stop-color:#535151"/>
		<stop  offset="0.1266" style="stop-color:#484545"/>
		<stop  offset="0.1404" style="stop-color:#393637"/>
		<stop  offset="0.3144" style="stop-color:#3D393A"/>
		<stop  offset="0.4554" style="stop-color:#474344"/>
		<stop  offset="0.5849" style="stop-color:#575455"/>
		<stop  offset="0.7074" style="stop-color:#6F6C6D"/>
		<stop  offset="0.8252" style="stop-color:#8D8B8C"/>
		<stop  offset="0.9377" style="stop-color:#B2B1B1"/>
		<stop  offset="0.9663" style="stop-color:#BDBBBC"/>
		<stop  offset="1" style="stop-color:#BDBBBC"/>
	</linearGradient>
	<path id="XMLID_200_" fill="url(#XMLID_30_)" d="M177.1,421.1c-31.9-7.8-46.4-22.3-56-44.1c-1-0.8-2-2.4-3.2-4.5l-0.1,1.5
		c0.5,0.5,1.1,1.7,2,3.7c2.2,5.9,10.4,39.7,69.6,46C185.3,422.9,181.1,422.1,177.1,421.1z"/>
	<path id="XMLID_201_" fill="#231F20" d="M121.1,377.5l-0.1-0.1c-9.7-21.6-17.8-47.6-23.8-74.9c-6.1-28.5-9.3-57.2-9.3-83.1
		c0-33.6,3.3-50.1,6.1-58l0.3-0.1l0.1,0.3c-2.8,7.9-6.1,24.4-6.1,57.9c0,51,13,113,33.1,157.9L121.1,377.5L121.1,377.5z"/>
	<path id="XMLID_204_" fill="#891731" d="M246.9,420.4c-24.3,0-47.1-2.5-67.9-7.6c-44.9-10.9-51.5-36.1-63.5-81.8l-1-3.7
		c-15.8-60-16.2-109.8-12-165.9c0.9-12.5,7-23.5,18.1-32.9c9.5-8.1,22.6-15,39.1-20.5c29.6-9.8,64.5-13.4,87.3-13.4
		c15.1,0,53.9,1.3,88.8,13.1c15.6,5.3,28,12,37,19.8c10.3,9,15.9,19.8,16.9,31.9c0.3,2.8,0.4,5.6,0.6,8.4
		c3.8,48.8,7.1,91.1-10.2,159.3c-7.4,29.1-13.7,54.3-29.8,68.8C330.8,414,277.9,420.4,246.9,420.4z M247.1,95.1
		c-22.8,0-57.6,3.6-87.1,13.4c-35.5,11.8-55.2,30.1-56.9,53c-4.2,56.1-3.7,105.7,12,165.7l1,3.7c11.8,45.5,18.4,70.6,63.1,81.5
		c20.7,5.1,43.6,7.6,67.8,7.6c30.8,0,83.6-6.5,103.2-24.2c15.9-14.5,22.3-39.6,29.6-68.7c17.3-68.1,14-110.3,10.2-159.1
		c-0.3-2.8-0.4-5.6-0.6-8.4c-1.8-22.6-19.7-40.1-53.6-51.5C301,96.3,262.2,95.1,247.1,95.1z"/>
	<path id="XMLID_205_" fill="#231F20" d="M392.3,138.8c-2.8-5.3-6.7-10.8-12.5-16c0.9,1.5,1.8,3.1,2.5,4.7
		C386.6,131.5,389.8,135.3,392.3,138.8z"/>
	
		<linearGradient id="XMLID_31_" gradientUnits="userSpaceOnUse" x1="125.2347" y1="376.1991" x2="127.7787" y2="376.1991" gradientTransform="matrix(23.005 2.2678 -2.2678 23.005 -1805.9883 -8682.2715)">
		<stop  offset="0" style="stop-color:#E9E8E8"/>
		<stop  offset="5.617980e-003" style="stop-color:#E9E8E8"/>
		<stop  offset="0.2933" style="stop-color:#BFBEBF"/>
		<stop  offset="0.5994" style="stop-color:#9A9999"/>
		<stop  offset="0.8459" style="stop-color:#838182"/>
		<stop  offset="1" style="stop-color:#7B7979"/>
	</linearGradient>
	<path id="XMLID_206_" fill="url(#XMLID_31_)" d="M371.3,358.6c-5.1,15.8-11.3,28.5-21.1,37.4c-20,18.1-74.4,24.3-103.3,24.3
		c-28.6,0-51.5-3.7-67.9-7.6c-46-11.2-51.6-37-64.2-85.4C98.3,264.1,99,213,102.8,161.6c3.9-53.2,100-66.5,144.2-66.5
		c24.4,0,57.5,3.1,85.6,12.1c-17.6-6.9-44.6-13.7-83.2-13.7c-58.5,0-92.1,10.2-113.2,20.6c-11.7,5.7-23.9,12.7-30.4,24.7
		c-9.2,16.8-12,42.6-12,67.3c0,33.3,5.7,74.3,5.7,74.3c6.4,31.5,11.4,56.9,19.3,78.6c7.9,21.8,13,43.8,45.5,53.2
		c32.6,9.4,48.5,11.7,87.6,11.7c35.4,0,75.9-9.4,96.4-22.8c2.3-1.5,4.3-3.2,6.1-5.1c-3.7,3.2-6.2,3.8-6.2,3.8s2.5-0.6,6.2-3.8
		c2.3-2.4,4.2-5.2,6-8.3C364.4,380.9,368.8,371.2,371.3,358.6z"/>
	<path id="XMLID_207_" fill="#BDBBBC" d="M347.2,105.2c15.8,6,27.1,14.1,35.4,22.1c-0.8-1.5-1.7-3.2-2.5-4.7
		c-9-8.5-22.3-16.5-41.3-23c-36-12.2-75.9-13.5-91.5-13.5c-33.1,0-85.9,6.6-119.9,27.3c47.1-20.4,91.3-24.8,110-24.8
		C266.2,88.8,305.2,89.5,347.2,105.2z"/>
	<path id="XMLID_208_" fill="#A7A6A6" d="M398.8,167.3l-0.6-8.4c-0.5-6.1-2.2-13.1-5.9-20.2c-2.5-3.6-5.7-7.4-9.8-11.3
		c9.5,18.8,10.4,40.4,12.3,56.2c2.4,20.4,4.7,56.5,2.4,77.5c-2.4,21-9.5,52.2-21,93.1c-7,25.1-15.9,36.4-21.6,41.3
		c-1.8,1.9-3.7,3.6-6.1,5.1c-20.4,13.2-60.9,22.8-96.4,22.8c-39.2,0-55.1-2.4-87.6-11.7c-32.6-9.4-37.7-31.4-45.5-53.2
		c-7.9-21.8-13-46.9-19.3-78.6c0,0-5.7-41-5.7-74.3c0-6.9,0.3-13.7,0.8-20.6l-1.5-9c-3.1,50.9-1.3,97.6,13.2,153.3l1,3.7
		c4.5,17.2,8.3,31.8,13.7,44.1c9.5,21.6,24,36.1,55.8,43.9c21.5,5.2,45,7.9,70,7.9c27.6,0,86-5.6,109.1-26.5
		c1.1-1.1,2.3-2.3,3.4-3.4c8.6-9.3,14.5-21.2,19.1-35c3.7-10.7,6.6-22.3,9.8-34.7c3.6-13.7,6.1-26.6,8.1-38.7
		C404.7,242,401.9,205.5,398.8,167.3z"/>
	
		<linearGradient id="XMLID_32_" gradientUnits="userSpaceOnUse" x1="125.1965" y1="375.9524" x2="127.7416" y2="375.9524" gradientTransform="matrix(119.8956 0 0 119.8956 -14917.4795 -44832.7969)">
		<stop  offset="0" style="stop-color:#918F8F"/>
		<stop  offset="5.617980e-003" style="stop-color:#918F8F"/>
		<stop  offset="0.2933" style="stop-color:#676565"/>
		<stop  offset="0.5994" style="stop-color:#423F40"/>
		<stop  offset="0.8459" style="stop-color:#2B2829"/>
		<stop  offset="1" style="stop-color:#231F20"/>
	</linearGradient>
	<path id="XMLID_209_" fill="url(#XMLID_32_)" d="M105.9,138.6c6.5-11.8,18.7-18.8,30.4-24.7c21.1-10.4,54.6-20.6,113.2-20.6
		c38.5,0,65.6,6.7,83.2,13.7c30.3,9.7,54.8,26.1,56.9,52.7c3.9,51.4,8.8,95.5-9.5,167.6c-2.9,11.4-5.6,21.9-8.6,31.3
		c-2.5,12.6-7,22.4-10.8,28.7c-1.8,3.1-3.7,5.9-6,8.3c5.9-5.1,14.8-16.4,21.6-41.3c11.4-41,18.6-72.2,21-93.1
		c2.4-21,0-57.1-2.4-77.5c-1.9-15.8-2.8-37.4-12.3-56.2c-8.1-8-19.6-16.3-35.4-22.1C305,89.5,265.9,88.8,237,88.8
		c-18.7,0-63,4.5-110,24.8c-18.4,11.2-31.4,26.6-32.9,47.2c0,0.1,0,0.3,0,0.4c-0.4,5.1-0.8,10-1,15l1.5,9
		C96,167.6,99.3,150.7,105.9,138.6z"/>
	<path id="XMLID_212_" fill="#231F20" d="M246.9,429.1c-24.9,0-48.5-2.7-70-7.9c-50-12.2-57.5-40.7-69.8-88l-1-3.7
		c-16-61.3-16.4-111.7-12.2-168.7c4.5-59.1,102-74.8,153.1-74.8c15.5,0,55.5,1.3,91.6,13.6c46.8,15.9,58.3,41.1,59.7,59.4l0.6,8.4
		c3.7,47.6,7.3,92.6-10.4,162.1c-7.8,30.5-14.4,56.9-32.4,73.1C333.1,423.6,274.7,429.1,246.9,429.1z M94.2,160.8h0.3
		c-4.2,56.9-3.8,107.4,12.2,168.5l1,3.7c12.3,47.2,19.7,75.7,69.5,87.8c21.5,5.2,44.9,7.9,69.8,7.9c27.6,0,85.9-5.5,109-26.5
		c17.8-16.2,24.5-42.5,32.3-72.9c17.7-69.5,14.1-114.5,10.4-161.9l-0.6-8.4c-1.4-18.2-12.8-43.2-59.4-59
		c-36-12.2-75.9-13.5-91.5-13.5c-50.9,0-148.3,15.5-152.6,74.4L94.2,160.8z"/>
	<polygon id="XMLID_213_" fill="#FFFFFF" points="365.6,151.9 417,125.9 401.2,177.5 421.3,127.1 436.2,173.8 424.4,126.5 
		452.5,135.5 425.7,123.4 440.2,114.8 423.5,120.4 431.5,102.4 419.8,118.5 402.5,86.9 414.2,116.9 401.5,107.4 412.7,118.5 
		377.5,108.3 411.2,120 392.6,123.2 409.6,123.2 396.3,126.2 410.8,124.7 	"/>
	<polygon id="XMLID_214_" fill="#1A1A1A" points="183.7,273.4 183.7,252.2 165.5,252.2 165.7,198.6 189.5,198.6 189.3,177.1 
		139.8,177.1 144.3,341.6 166,341.6 165.5,273.4 	"/>
	<polygon id="XMLID_215_" fill="#1A1A1A" points="197.8,177.1 200.6,341.6 223.2,341.6 223.5,177.1 	"/>
	<polygon id="XMLID_216_" fill="#1A1A1A" points="342.1,341.6 346.7,197.8 364.4,197.8 364.2,177.1 303.2,177.1 303.2,197.8 
		320.8,197.8 320.3,341.6 	"/>
	<path id="XMLID_219_" fill="#1A1A1A" d="M257.4,253.2l0.3-55.8h12.6c5.7,12.5,9.3,28.9,12.2,55.8H257.4z M237.4,341.6h2.2h16.2h2.4
		l0.3-68.1h24.9c1.9,12,2.4,49.1,2.5,68.1h2h16.3h1.8c1.9-84-4.1-131.4-20.4-164.5h-50.2L237.4,341.6z"/>
	
		<radialGradient id="XMLID_33_" cx="126.0446" cy="375.9099" r="2.5448" gradientTransform="matrix(44.2342 0 0 -32.3224 -5320.5845 12406.7334)" gradientUnits="userSpaceOnUse">
		<stop  offset="0" style="stop-color:#D3D1D2"/>
		<stop  offset="0.5" style="stop-color:#C9C7C8"/>
		<stop  offset="1" style="stop-color:#8D8B8C"/>
	</radialGradient>
	<polygon id="XMLID_220_" fill="url(#XMLID_33_)" points="186.4,249.1 168.2,249.1 168.2,195.7 192.1,195.7 192,174.2 142.4,174.2 
		146.8,338.7 168.6,338.7 168.2,270.5 186.4,270.5 	"/>
	
		<radialGradient id="XMLID_34_" cx="126.0446" cy="375.9099" r="2.545" gradientTransform="matrix(44.2342 0 0 -32.3224 -5320.585 12406.7334)" gradientUnits="userSpaceOnUse">
		<stop  offset="0" style="stop-color:#D3D1D2"/>
		<stop  offset="0.5" style="stop-color:#C9C7C8"/>
		<stop  offset="1" style="stop-color:#8D8B8C"/>
	</radialGradient>
	<polygon id="XMLID_221_" fill="url(#XMLID_34_)" points="226.3,174.2 200.6,174.2 203.3,338.7 225.8,338.7 	"/>
	
		<radialGradient id="XMLID_35_" cx="126.0446" cy="375.9099" r="2.5439" gradientTransform="matrix(44.2336 0 0 -32.322 -5320.5093 12406.583)" gradientUnits="userSpaceOnUse">
		<stop  offset="0" style="stop-color:#D3D1D2"/>
		<stop  offset="0.5" style="stop-color:#C9C7C8"/>
		<stop  offset="1" style="stop-color:#8D8B8C"/>
	</radialGradient>
	<polygon id="XMLID_222_" fill="url(#XMLID_35_)" points="323.4,338.7 345.1,338.7 349.9,194.9 367.4,194.9 367.3,174.2 
		306.1,174.2 306.1,194.9 323.9,194.9 	"/>
	
		<radialGradient id="XMLID_36_" cx="126.0446" cy="375.9099" r="2.5449" gradientTransform="matrix(44.2329 0 0 -32.3215 -5320.4272 12406.3936)" gradientUnits="userSpaceOnUse">
		<stop  offset="0" style="stop-color:#D3D1D2"/>
		<stop  offset="0.5" style="stop-color:#C9C7C8"/>
		<stop  offset="1" style="stop-color:#8D8B8C"/>
	</radialGradient>
	<path id="XMLID_225_" fill="url(#XMLID_36_)" d="M260.3,250.3l0.3-55.8h12.6c5.7,12.5,9.4,28.9,12.2,55.8
		C285.4,250.3,260.3,250.3,260.3,250.3z M240.2,338.7h2.2h16.3h2.4l0.3-68.1h24.9c1.9,12,2.4,49.1,2.5,68.1h2h16.3h1.8
		c1.9-84-4.1-131.4-20.4-164.5h-50.4L240.2,338.7z"/>
</g>
</svg>
