<?xml version="1.0" encoding="utf-8"?>
<!-- Generator: Adobe Illustrator 18.0.0, SVG Export Plug-In . SVG Version: 6.00 Build 0)  -->
<!DOCTYPE svg PUBLIC "-//W3C//DTD SVG 1.1//EN" "http://www.w3.org/Graphics/SVG/1.1/DTD/svg11.dtd">
<svg version="1.1" id="Layer_1" xmlns="http://www.w3.org/2000/svg" xmlns:xlink="http://www.w3.org/1999/xlink" x="0px" y="0px"
	 viewBox="0 0 250 250" enable-background="new 0 0 250 250" xml:space="preserve">
<rect x="17.4" y="17.4" display="none" fill="none" stroke="#B3B3B3" stroke-miterlimit="10" width="215.3" height="215.3"/>
<g>
	<path fill="#C9C9CA" d="M125,84.1c-60.6,0-109.1,18.2-109.1,40.9c0,22.6,49,40.9,109.1,40.9s109.1-18.4,109.1-40.9
		S185.1,84.1,125,84.1 M233.4,121.8c0.1,0.2,0.1,0.4,0.1,0.6C233.5,122.3,233.4,122.1,233.4,121.8"/>
	
		<radialGradient id="SVGID_1_" cx="-3539.166" cy="602.4124" r="108.9134" gradientTransform="matrix(4.3158 0 0 2.192 15398.4121 -1101.4017)" gradientUnits="userSpaceOnUse">
		<stop  offset="0" style="stop-color:#00082E"/>
		<stop  offset="0.155" style="stop-color:#000A30"/>
		<stop  offset="0.242" style="stop-color:#010F39"/>
		<stop  offset="0.312" style="stop-color:#011946"/>
		<stop  offset="0.373" style="stop-color:#02275A"/>
		<stop  offset="0.414" style="stop-color:#03346C"/>
		<stop  offset="0.439" style="stop-color:#0B4F87"/>
		<stop  offset="0.48" style="stop-color:#1676AF"/>
		<stop  offset="0.513" style="stop-color:#1C8EC7"/>
		<stop  offset="0.533" style="stop-color:#1F97D0"/>
		<stop  offset="1" style="stop-color:#1F97D0"/>
	</radialGradient>
	<path fill="url(#SVGID_1_)" d="M125,85.7c-59.4,0-107.4,17.5-107.4,39.3c0,21.7,48.1,39.3,107.4,39.3c59.4,0,107.4-17.6,107.4-39.3
		C232.4,103.2,184.4,85.7,125,85.7"/>
	
		<linearGradient id="SVGID_2_" gradientUnits="userSpaceOnUse" x1="-4064.1943" y1="89.8015" x2="-4063.6238" y2="89.8015" gradientTransform="matrix(0 -145.7017 -145.7017 0 13209.0244 -591993.25)">
		<stop  offset="0" style="stop-color:#00082E"/>
		<stop  offset="0.321" style="stop-color:#010A30"/>
		<stop  offset="0.501" style="stop-color:#030F39"/>
		<stop  offset="0.647" style="stop-color:#071846"/>
		<stop  offset="0.773" style="stop-color:#0D245A"/>
		<stop  offset="0.809" style="stop-color:#0F2961"/>
		<stop  offset="0.839" style="stop-color:#0B386E"/>
		<stop  offset="0.896" style="stop-color:#054E83"/>
		<stop  offset="0.951" style="stop-color:#015B90"/>
		<stop  offset="1" style="stop-color:#006094"/>
	</linearGradient>
	<path fill="url(#SVGID_2_)" d="M125.5,94c50.4,0,92.1,12.3,98.4,28.3l0,0c-4.2-16.8-46.9-30-98.9-30c-54.9,0-99.3,14.6-99.3,32.7
		c0,1.5,0.3,2.9,0.8,4.4c-0.2-1-0.4-1.9-0.4-2.9C26.2,108.5,70.6,94,125.5,94L125.5,94z"/>
	
		<linearGradient id="SVGID_3_" gradientUnits="userSpaceOnUse" x1="-4064.196" y1="-711.8071" x2="-4063.6252" y2="-711.8071" gradientTransform="matrix(8.921655e-015 -145.7017 145.7017 8.921655e-015 103837.6953 -591993.5)">
		<stop  offset="0" style="stop-color:#00082E"/>
		<stop  offset="0.321" style="stop-color:#010A30"/>
		<stop  offset="0.501" style="stop-color:#030F39"/>
		<stop  offset="0.647" style="stop-color:#071846"/>
		<stop  offset="0.773" style="stop-color:#0D245A"/>
		<stop  offset="0.809" style="stop-color:#0F2961"/>
		<stop  offset="0.839" style="stop-color:#0B386E"/>
		<stop  offset="0.896" style="stop-color:#054E83"/>
		<stop  offset="0.951" style="stop-color:#015B90"/>
		<stop  offset="1" style="stop-color:#006094"/>
	</linearGradient>
	<path fill="url(#SVGID_3_)" d="M227.3,120.9c0.4,1.3,0.7,2.7,0.7,4.1c0,19.8-46.1,35.8-102.9,35.8c-50.6,0-92.7-12.7-101.3-29.4
		c6.6,17.4,49.6,30.8,101.7,30.9h0.7c56.7-0.1,102.6-16,102.6-35.5C228.6,124.8,228.2,122.8,227.3,120.9L227.3,120.9z"/>
	
		<linearGradient id="SVGID_4_" gradientUnits="userSpaceOnUse" x1="-4072.9358" y1="92.2761" x2="-4072.366" y2="92.2761" gradientTransform="matrix(0 -102.4355 -102.4355 0 9595.9883 -417060.5)">
		<stop  offset="0" style="stop-color:#00082E"/>
		<stop  offset="0.321" style="stop-color:#010A30"/>
		<stop  offset="0.501" style="stop-color:#030F39"/>
		<stop  offset="0.647" style="stop-color:#071846"/>
		<stop  offset="0.773" style="stop-color:#0D245A"/>
		<stop  offset="0.809" style="stop-color:#0F2961"/>
		<stop  offset="0.839" style="stop-color:#0B386E"/>
		<stop  offset="0.896" style="stop-color:#054E83"/>
		<stop  offset="0.951" style="stop-color:#015B90"/>
		<stop  offset="1" style="stop-color:#006094"/>
	</linearGradient>
	<path fill="url(#SVGID_4_)" d="M144.8,130.5c-0.2-0.6-0.3-1.2-0.1-1.9c0.1-0.2-0.2-0.4-0.5-0.2c-2.3,2.4-2.5,5.5-1,6.9
		c0.5,0.5,1.1,0.7,1.8,0.8C144.1,134.9,143.6,132.4,144.8,130.5z"/>
	
		<linearGradient id="SVGID_5_" gradientUnits="userSpaceOnUse" x1="-4073.0015" y1="92.4758" x2="-4072.4338" y2="92.4758" gradientTransform="matrix(0 -102.202 -102.202 0 9619.4639 -416116.3438)">
		<stop  offset="0" style="stop-color:#00082E"/>
		<stop  offset="0.321" style="stop-color:#010A30"/>
		<stop  offset="0.501" style="stop-color:#030F39"/>
		<stop  offset="0.647" style="stop-color:#071846"/>
		<stop  offset="0.773" style="stop-color:#0D245A"/>
		<stop  offset="0.809" style="stop-color:#0F2961"/>
		<stop  offset="0.839" style="stop-color:#0B386E"/>
		<stop  offset="0.896" style="stop-color:#054E83"/>
		<stop  offset="0.951" style="stop-color:#015B90"/>
		<stop  offset="1" style="stop-color:#006094"/>
	</linearGradient>
	<path fill="url(#SVGID_5_)" d="M168.2,135.1L168.2,135.1c0.1-0.2,0.2-0.5,0.4-0.7c0.1-0.2,0.1-0.2-0.1-0.3
		c-0.2-0.1-0.5-0.2-0.5-0.5c0-0.1,0-0.1,0-0.1l0,0C168,134,168.1,134.6,168.2,135.1L168.2,135.1z"/>
	
		<linearGradient id="SVGID_6_" gradientUnits="userSpaceOnUse" x1="-4073.0002" y1="92.5018" x2="-4072.4355" y2="92.5018" gradientTransform="matrix(0 -102.2011 -102.2011 0 9625.6563 -416112.875)">
		<stop  offset="0" style="stop-color:#00082E"/>
		<stop  offset="0.321" style="stop-color:#010A30"/>
		<stop  offset="0.501" style="stop-color:#030F39"/>
		<stop  offset="0.647" style="stop-color:#071846"/>
		<stop  offset="0.773" style="stop-color:#0D245A"/>
		<stop  offset="0.809" style="stop-color:#0F2961"/>
		<stop  offset="0.839" style="stop-color:#0B386E"/>
		<stop  offset="0.896" style="stop-color:#054E83"/>
		<stop  offset="0.951" style="stop-color:#015B90"/>
		<stop  offset="1" style="stop-color:#006094"/>
	</linearGradient>
	<path fill="url(#SVGID_6_)" d="M170.8,125.7c0.8,0.7,1.3,1.6,1.3,2.5c0.1,0.4,0.4,0.4,0.6,0.1c0.1-0.1,0.1-0.2,0.2-0.4
		c-0.1-0.1-0.1-0.2-0.2-0.3C172.1,127,171.4,126.3,170.8,125.7L170.8,125.7z"/>
	
		<linearGradient id="SVGID_7_" gradientUnits="userSpaceOnUse" x1="-4072.9846" y1="92.2605" x2="-4072.4124" y2="92.2605" gradientTransform="matrix(0 -102.2667 -102.2667 0 9574.8545 -416378.0625)">
		<stop  offset="0" style="stop-color:#00082E"/>
		<stop  offset="0.321" style="stop-color:#010A30"/>
		<stop  offset="0.501" style="stop-color:#030F39"/>
		<stop  offset="0.647" style="stop-color:#071846"/>
		<stop  offset="0.773" style="stop-color:#0D245A"/>
		<stop  offset="0.809" style="stop-color:#0F2961"/>
		<stop  offset="0.839" style="stop-color:#0B386E"/>
		<stop  offset="0.896" style="stop-color:#054E83"/>
		<stop  offset="0.951" style="stop-color:#015B90"/>
		<stop  offset="1" style="stop-color:#006094"/>
	</linearGradient>
	<path fill="url(#SVGID_7_)" d="M138.9,124.2c0.6,0.8,0.9,2,0.8,3.6c0,0.4,0.3,0.4,0.5,0.1c0.1-0.2,0.2-0.3,0.3-0.4l0,0
		C140,126.1,139.3,124.7,138.9,124.2L138.9,124.2z"/>
	
		<linearGradient id="SVGID_8_" gradientUnits="userSpaceOnUse" x1="-4072.9634" y1="92.4243" x2="-4072.394" y2="92.4243" gradientTransform="matrix(0 -102.3366 -102.3366 0 9621.2344 -416660.8438)">
		<stop  offset="0" style="stop-color:#00082E"/>
		<stop  offset="0.321" style="stop-color:#010A30"/>
		<stop  offset="0.501" style="stop-color:#030F39"/>
		<stop  offset="0.647" style="stop-color:#071846"/>
		<stop  offset="0.773" style="stop-color:#0D245A"/>
		<stop  offset="0.809" style="stop-color:#0F2961"/>
		<stop  offset="0.839" style="stop-color:#0B386E"/>
		<stop  offset="0.896" style="stop-color:#054E83"/>
		<stop  offset="0.951" style="stop-color:#015B90"/>
		<stop  offset="1" style="stop-color:#006094"/>
	</linearGradient>
	<path fill="url(#SVGID_8_)" d="M167.6,128.3c-1.9-0.9-4.8,0.8-7.4,4c-2.2,2.6-3.3,5.3-3.3,7.9c0,1,0.4,2.1,1.1,2.5
		c0.2,0.1,0.5,0.2,0.8,0.3c-0.1-0.4-0.1-0.7-0.1-1.1c-0.1-2.7,0.8-5.4,3-8.1c2.6-3.2,5.3-4.8,7.2-3.9
		C168.7,129.3,168.3,128.6,167.6,128.3L167.6,128.3z"/>
	
		<linearGradient id="SVGID_9_" gradientUnits="userSpaceOnUse" x1="-4073.0303" y1="92.0718" x2="-4072.46" y2="92.0718" gradientTransform="matrix(0 -102.104 -102.104 0 9513.2451 -415720.2188)">
		<stop  offset="0" style="stop-color:#00082E"/>
		<stop  offset="0.321" style="stop-color:#010A30"/>
		<stop  offset="0.501" style="stop-color:#030F39"/>
		<stop  offset="0.647" style="stop-color:#071846"/>
		<stop  offset="0.773" style="stop-color:#0D245A"/>
		<stop  offset="0.809" style="stop-color:#0F2961"/>
		<stop  offset="0.839" style="stop-color:#0B386E"/>
		<stop  offset="0.896" style="stop-color:#054E83"/>
		<stop  offset="0.951" style="stop-color:#015B90"/>
		<stop  offset="1" style="stop-color:#006094"/>
	</linearGradient>
	<path fill="url(#SVGID_9_)" d="M110.7,133.7c2-2.7,4.2-3.8,6.8-4.8c0.4-0.1,0.4-0.4,0.3-0.7c-0.1-0.5-0.5-1.8-0.6-2.1
		c0.1,0.3,0,0.5-0.3,0.6c-2.9,1.1-5.9,2.8-7.9,5.6c-2.3,3-2.9,6.8-1.4,8.9c0.4,0.5,0.8,0.9,1.3,1.1
		C108.1,139.7,108.7,136.3,110.7,133.7L110.7,133.7z"/>
	
		<linearGradient id="SVGID_10_" gradientUnits="userSpaceOnUse" x1="-4072.9961" y1="92.2485" x2="-4072.4255" y2="92.2485" gradientTransform="matrix(0 -102.2253 -102.2253 0 9567.6543 -416210.625)">
		<stop  offset="0" style="stop-color:#00082E"/>
		<stop  offset="0.321" style="stop-color:#010A30"/>
		<stop  offset="0.501" style="stop-color:#030F39"/>
		<stop  offset="0.647" style="stop-color:#071846"/>
		<stop  offset="0.773" style="stop-color:#0D245A"/>
		<stop  offset="0.809" style="stop-color:#0F2961"/>
		<stop  offset="0.839" style="stop-color:#0B386E"/>
		<stop  offset="0.896" style="stop-color:#054E83"/>
		<stop  offset="0.951" style="stop-color:#015B90"/>
		<stop  offset="1" style="stop-color:#006094"/>
	</linearGradient>
	<path fill="url(#SVGID_10_)" d="M125.4,149.7c2,0,4.4,0,6,0c0.2,0,0.4-0.2,0.5-0.4c2.5-3.8,5.1-8,7.6-11.8c0.5,1.9,0.8,2.9,1.9,3.8
		c1,1,2,1.2,3.4,1.2c1.3,0,2.6-0.5,4.1-1.1c0.5-0.2,1-0.5,1.4-0.8c0-0.7,0.1-1.4,0.2-2.1c0-0.1-0.1-0.5-0.5-0.2
		c-0.8,0.6-1.7,1.1-2.7,1.5c-1.4,0.5-2,0.7-3.3,0.7c-1.6,0-3-0.7-4.1-2.3c-0.6-0.8-0.8-2.2-0.8-3.2c0-0.1-0.1-0.3-0.3-0.1
		c-2.7,4.2-5.3,8.2-8,12.4c-0.1,0.2-0.2,0.3-0.5,0.4c-1.7,0-3.5,0-5.3,0c-0.2,0-0.4-0.1-0.4-0.2c0.1,0.7,0.4,1.8,0.4,2.1
		C125.1,149.6,125.2,149.7,125.4,149.7L125.4,149.7z"/>
	
		<linearGradient id="SVGID_11_" gradientUnits="userSpaceOnUse" x1="-4072.749" y1="92.4049" x2="-4072.179" y2="92.4049" gradientTransform="matrix(0 -103.0915 -103.0915 0 9694.541 -419712.9375)">
		<stop  offset="0" style="stop-color:#00082E"/>
		<stop  offset="0.321" style="stop-color:#010A30"/>
		<stop  offset="0.501" style="stop-color:#030F39"/>
		<stop  offset="0.647" style="stop-color:#071846"/>
		<stop  offset="0.773" style="stop-color:#0D245A"/>
		<stop  offset="0.809" style="stop-color:#0F2961"/>
		<stop  offset="0.839" style="stop-color:#0B386E"/>
		<stop  offset="0.896" style="stop-color:#054E83"/>
		<stop  offset="0.951" style="stop-color:#015B90"/>
		<stop  offset="1" style="stop-color:#006094"/>
	</linearGradient>
	<path fill="url(#SVGID_11_)" d="M151.8,147.5c0.5,0.9,1.5,1.9,2.1,2.2c3.5,1.7,8.6-0.2,11.8-3.3c0.1-0.1,0.1-0.1,0.1-0.1
		c0.1,0.5,0.4,1.3,0.4,1.3c0.2,0.7,0.6,1.4,0.9,1.7c2.2,2.5,6.9,1.4,11.8-2.5c2.7-2.1,4.8-4.2,7.3-7.2c0.1-0.1,0.1-0.3,0.1-0.6
		c-0.1-0.7-0.4-1.8-0.5-2.3c0,0.1-0.1,0.2-0.1,0.2c-2.6,3.2-5.5,6.2-8.2,8.3c-4.2,3.3-8.5,4.1-10.6,2c-0.8-0.8-1.2-1.9-1.3-2.9
		c0-0.5-0.3-0.5-0.5-0.3c-2.5,2.5-6.9,5.3-10.9,3.3c-2-1-3.1-2.9-3.5-5v0.1C150.8,144,151.1,146.1,151.8,147.5L151.8,147.5z"/>
	
		<linearGradient id="SVGID_12_" gradientUnits="userSpaceOnUse" x1="-4072.8213" y1="92.2808" x2="-4072.251" y2="92.2808" gradientTransform="matrix(0 -102.8326 -102.8326 0 9638.0576 -418665.6563)">
		<stop  offset="0" style="stop-color:#00082E"/>
		<stop  offset="0.321" style="stop-color:#010A30"/>
		<stop  offset="0.501" style="stop-color:#030F39"/>
		<stop  offset="0.647" style="stop-color:#071846"/>
		<stop  offset="0.773" style="stop-color:#0D245A"/>
		<stop  offset="0.809" style="stop-color:#0F2961"/>
		<stop  offset="0.839" style="stop-color:#0B386E"/>
		<stop  offset="0.896" style="stop-color:#054E83"/>
		<stop  offset="0.951" style="stop-color:#015B90"/>
		<stop  offset="1" style="stop-color:#006094"/>
	</linearGradient>
	<path fill="url(#SVGID_12_)" d="M150,133.9c1.3-0.7,2.5-2.2,2.3-4.7c-0.1-1.2-0.4-2.5-1-3.5c0.4,0.7,0.5,1.6,0.4,2.5
		c-0.2,1.6-1.1,3-2.6,3.7c-1.3,0.6-2.7,0.5-3.7-0.4c-0.3-0.3-0.5-0.6-0.7-1c0.2,1.2,0.5,2.1,0.8,2.5
		C146.6,134.6,148.2,134.9,150,133.9z"/>
	
		<linearGradient id="SVGID_13_" gradientUnits="userSpaceOnUse" x1="-4073.0232" y1="92.5699" x2="-4072.4529" y2="92.5699" gradientTransform="matrix(0 -102.1304 -102.1304 0 9634.5674 -415826.625)">
		<stop  offset="0" style="stop-color:#00082E"/>
		<stop  offset="0.321" style="stop-color:#010A30"/>
		<stop  offset="0.501" style="stop-color:#030F39"/>
		<stop  offset="0.647" style="stop-color:#071846"/>
		<stop  offset="0.773" style="stop-color:#0D245A"/>
		<stop  offset="0.809" style="stop-color:#0F2961"/>
		<stop  offset="0.839" style="stop-color:#0B386E"/>
		<stop  offset="0.896" style="stop-color:#054E83"/>
		<stop  offset="0.951" style="stop-color:#015B90"/>
		<stop  offset="1" style="stop-color:#006094"/>
	</linearGradient>
	<path fill="url(#SVGID_13_)" d="M189.1,113.3c-0.8,1.4-16.8,25.8-17.8,28.3c-0.3,0.8-0.4,1.4-0.1,1.9c0.4,0.4,0.8,0.6,1.4,0.6
		c0.1-0.3,0.2-0.7,0.3-1c1-2.5,16-25.3,16.8-26.7c0.1-0.1,0.1-0.2,0-0.4c-0.1-0.2-0.5-2.6-0.6-2.9
		C189.1,113.1,189.1,113.2,189.1,113.3L189.1,113.3z"/>
	
		<linearGradient id="SVGID_14_" gradientUnits="userSpaceOnUse" x1="-4072.9912" y1="92.1474" x2="-4072.4199" y2="92.1474" gradientTransform="matrix(0 -102.2448 -102.2448 0 9545.7461 -416289.1563)">
		<stop  offset="0" style="stop-color:#00082E"/>
		<stop  offset="0.321" style="stop-color:#010A30"/>
		<stop  offset="0.501" style="stop-color:#030F39"/>
		<stop  offset="0.647" style="stop-color:#071846"/>
		<stop  offset="0.773" style="stop-color:#0D245A"/>
		<stop  offset="0.809" style="stop-color:#0F2961"/>
		<stop  offset="0.839" style="stop-color:#0B386E"/>
		<stop  offset="0.896" style="stop-color:#054E83"/>
		<stop  offset="0.951" style="stop-color:#015B90"/>
		<stop  offset="1" style="stop-color:#006094"/>
	</linearGradient>
	<path fill="url(#SVGID_14_)" d="M122.8,124.6c0.1,0.1,0.1,0.1,0.1,0.2c1,1.4,1.5,3.5,1.6,5.5c0.1,0.4,0.2,0.5,0.5,0.2
		c0.2-0.2,0.4-0.4,0.6-0.6c-0.3-1.1-0.7-2.2-1.1-3.1C124.1,126.4,123.4,125.2,122.8,124.6L122.8,124.6z"/>
	
		<linearGradient id="SVGID_15_" gradientUnits="userSpaceOnUse" x1="-4073.0012" y1="92.0845" x2="-4072.4312" y2="92.0845" gradientTransform="matrix(0 -102.2067 -102.2067 0 9526.5371 -416135.5938)">
		<stop  offset="0" style="stop-color:#00082E"/>
		<stop  offset="0.321" style="stop-color:#010A30"/>
		<stop  offset="0.501" style="stop-color:#030F39"/>
		<stop  offset="0.647" style="stop-color:#071846"/>
		<stop  offset="0.773" style="stop-color:#0D245A"/>
		<stop  offset="0.809" style="stop-color:#0F2961"/>
		<stop  offset="0.839" style="stop-color:#0B386E"/>
		<stop  offset="0.896" style="stop-color:#054E83"/>
		<stop  offset="0.951" style="stop-color:#015B90"/>
		<stop  offset="1" style="stop-color:#006094"/>
	</linearGradient>
	<path fill="url(#SVGID_15_)" d="M97,147.4c0.3,0.1,0.6,0,0.7-0.1c1-0.5,2.9-2,3.7-3c0.2-0.2,0.5-0.1,0.5,0.2
		c0.4,1.1,0.8,1.9,1.4,2.8c0.6,1,1.9,2,3.4,2.5c2,0.6,4.3,0.7,7.2-0.4c2.3-0.9,4.8-2.7,6.7-4.8c2.3-2.5,3.1-4,3.9-5.1
		c1.5-1.8,3.8-5,6.9-7.8c1.1-1,2.3-1.6,3.1-1.3c0.5-1.2,0.2-1.9-0.2-2.2c-0.8-0.5-2.3,0.2-3.5,1.2c-3.5,2.6-6.3,6.7-7.8,8.5
		c-0.8,1.1-1.7,2.6-3.9,5.1c-3.5,3.9-8.2,6.1-12.8,4.5c-2.5-0.8-4.2-2.8-5-5.3c-0.1-0.5-0.4-0.6-0.7-0.3c-0.7,0.9-2.2,2.3-3.5,3.1
		c-0.1,0.1-0.5,0.3-0.8,0.2c-0.2-0.1-1.2-1.4-1.4-1.8c0-0.1-0.1-0.1-0.1-0.1l0,0c0.3,1.6,0.4,1.8,0.8,2.6
		C96.4,146.7,96.8,147.3,97,147.4z"/>
	
		<linearGradient id="SVGID_16_" gradientUnits="userSpaceOnUse" x1="-4073.0254" y1="91.7652" x2="-4072.4546" y2="91.7652" gradientTransform="matrix(0 -102.1222 -102.1222 0 9442.3213 -415793.4688)">
		<stop  offset="0" style="stop-color:#00082E"/>
		<stop  offset="0.321" style="stop-color:#010A30"/>
		<stop  offset="0.501" style="stop-color:#030F39"/>
		<stop  offset="0.647" style="stop-color:#071846"/>
		<stop  offset="0.773" style="stop-color:#0D245A"/>
		<stop  offset="0.809" style="stop-color:#0F2961"/>
		<stop  offset="0.839" style="stop-color:#0B386E"/>
		<stop  offset="0.896" style="stop-color:#054E83"/>
		<stop  offset="0.951" style="stop-color:#015B90"/>
		<stop  offset="1" style="stop-color:#006094"/>
	</linearGradient>
	<path fill="url(#SVGID_16_)" d="M69.6,132.8c1.1-2.3,2.7-3.4,4.4-4.4c0.7-0.4,1-0.8,0.6-2c-0.1-0.3-0.2-0.9-0.3-1.4
		c0.1,0.5-0.2,1-0.7,1.1c-1.9,1-4.2,2.7-5.4,5c-1,1.9-1.1,4.2,0.3,6.3c0.1,0.2,0.2,0.4,0.4,0.5l0,0
		C68.4,136.2,68.9,134.3,69.6,132.8L69.6,132.8z"/>
	
		<linearGradient id="SVGID_17_" gradientUnits="userSpaceOnUse" x1="-4072.7478" y1="91.8855" x2="-4072.1772" y2="91.8855" gradientTransform="matrix(0 -103.0893 -103.0893 0 9569.5752 -419703.8125)">
		<stop  offset="0" style="stop-color:#00082E"/>
		<stop  offset="0.321" style="stop-color:#010A30"/>
		<stop  offset="0.501" style="stop-color:#030F39"/>
		<stop  offset="0.647" style="stop-color:#071846"/>
		<stop  offset="0.773" style="stop-color:#0D245A"/>
		<stop  offset="0.809" style="stop-color:#0F2961"/>
		<stop  offset="0.839" style="stop-color:#0B386E"/>
		<stop  offset="0.896" style="stop-color:#054E83"/>
		<stop  offset="0.951" style="stop-color:#015B90"/>
		<stop  offset="1" style="stop-color:#006094"/>
	</linearGradient>
	<path fill="url(#SVGID_17_)" d="M89.4,104.7c7.1-2.3,14.9-0.8,21.2,0.5c0.9-0.5,1.7-1,2.5-1.4c0.4-0.2-0.1-0.4-0.2-0.4
		c-8.1-1.6-16.6-3.5-24.7-0.5c-5.6,2.1-8.1,6.5-6.9,9.5c0.2,0.5,0.6,1,1.1,1.3C82,111,84.1,106.5,89.4,104.7L89.4,104.7z"/>
	
		<linearGradient id="SVGID_18_" gradientUnits="userSpaceOnUse" x1="-4073.009" y1="91.897" x2="-4072.4382" y2="91.897" gradientTransform="matrix(0 -102.1783 -102.1783 0 9479.3994 -416020.3125)">
		<stop  offset="0" style="stop-color:#00082E"/>
		<stop  offset="0.321" style="stop-color:#010A30"/>
		<stop  offset="0.501" style="stop-color:#030F39"/>
		<stop  offset="0.647" style="stop-color:#071846"/>
		<stop  offset="0.773" style="stop-color:#0D245A"/>
		<stop  offset="0.809" style="stop-color:#0F2961"/>
		<stop  offset="0.839" style="stop-color:#0B386E"/>
		<stop  offset="0.896" style="stop-color:#054E83"/>
		<stop  offset="0.951" style="stop-color:#015B90"/>
		<stop  offset="1" style="stop-color:#006094"/>
	</linearGradient>
	<path fill="url(#SVGID_18_)" d="M66.5,147.3c2.3,1.6,4.6,2.2,7.2,2.2c5.4,0.1,10.3-2.2,15.5-7.4c5-5.1,9.3-12.2,13.6-19.2
		c0.1-0.2,0.3-0.4,1-0.5c2.7-0.4,5.1-0.5,7.5-0.7c0.7-0.1,1.3-0.1,1.5,0.1c0.8,0.8,1.9,1.6,2.5,2c0.4,0,0.8,0.1,1.1,0.4
		c0.3-0.1,0.5-0.2,0.7-0.4c0.3-0.3,0.3-0.7,0.3-1c-0.1-0.6-0.2-1.7-0.5-2.1c0.1,0.2,0.1,0.6-0.2,0.9c-0.2,0.2-0.5,0.4-0.8,0.4
		c-0.3,0-0.5-0.1-0.9-0.3c-0.8-0.4-1.8-1.1-2.5-2c-0.2-0.3-0.4-0.3-0.9-0.2c-2.5,0.1-6.5,0.5-9.1,0.8c-0.7,0.1-0.7,0.2-0.9,0.4
		c-4.2,7.1-8.8,14.6-13.9,19.7c-5.4,5.4-9.9,6.9-14.6,6.9c-5.5,0.1-10.3-3-11.6-8.5l0,0C62.3,142,64.3,145.7,66.5,147.3L66.5,147.3z
		"/>
	
		<linearGradient id="SVGID_19_" gradientUnits="userSpaceOnUse" x1="-4072.8972" y1="91.878" x2="-4072.3267" y2="91.878" gradientTransform="matrix(0 -102.5658 -102.5658 0 9514.5342 -417587.2188)">
		<stop  offset="0" style="stop-color:#00082E"/>
		<stop  offset="0.321" style="stop-color:#010A30"/>
		<stop  offset="0.501" style="stop-color:#030F39"/>
		<stop  offset="0.647" style="stop-color:#071846"/>
		<stop  offset="0.773" style="stop-color:#0D245A"/>
		<stop  offset="0.809" style="stop-color:#0F2961"/>
		<stop  offset="0.839" style="stop-color:#0B386E"/>
		<stop  offset="0.896" style="stop-color:#054E83"/>
		<stop  offset="0.951" style="stop-color:#015B90"/>
		<stop  offset="1" style="stop-color:#006094"/>
	</linearGradient>
	<path fill="url(#SVGID_19_)" d="M86.7,123.6c-0.1-0.2-0.2-0.4-0.2-0.6c-0.1,0.9,0.3,2.3,0.6,2.7c0.3,0.5,1.3,0.7,2,0.2
		c1.6-1.2,3.1-1.9,4.8-2.2c0.4-0.6,0.9-1.2,1.4-2c0.1-0.1,0.1-0.1,0.1-0.2s-0.1-0.1-0.2-0.1c-2.5,0.1-4.5,0.8-6.6,2.3
		C87.9,124.3,87.1,124.2,86.7,123.6z"/>
	
		<linearGradient id="SVGID_20_" gradientUnits="userSpaceOnUse" x1="-4073.0254" y1="92.2034" x2="-4072.4539" y2="92.2034" gradientTransform="matrix(0 -102.1244 -102.1244 0 9546.7793 -415802.2188)">
		<stop  offset="0" style="stop-color:#00082E"/>
		<stop  offset="0.321" style="stop-color:#010A30"/>
		<stop  offset="0.501" style="stop-color:#030F39"/>
		<stop  offset="0.647" style="stop-color:#071846"/>
		<stop  offset="0.773" style="stop-color:#0D245A"/>
		<stop  offset="0.809" style="stop-color:#0F2961"/>
		<stop  offset="0.839" style="stop-color:#0B386E"/>
		<stop  offset="0.896" style="stop-color:#054E83"/>
		<stop  offset="0.951" style="stop-color:#015B90"/>
		<stop  offset="1" style="stop-color:#006094"/>
	</linearGradient>
	<path fill="url(#SVGID_20_)" d="M152.6,107.1c-3.4,1.9-6.9,2.4-10.6,2.5c-9,0.1-17.3-3.4-25.9-5.3c0,0.4,0.1,0.8-0.2,1.1
		c-4.8,3.5-9.1,7.1-12,12.1c-0.1,0.1-0.1,0.2,0.1,0.2c0.8-0.1,1.5-0.1,2.2-0.1c2.6-4.1,5.4-6.5,9.7-9.7c0.3-0.2,0.7-0.4,0.5-1.3
		c8.7,1.9,15.2,5.1,26.4,5.1c3.3,0,8-1.1,10.6-2.6c2.9-1.7,3.7-3,3.8-4.4c0.1-0.4-0.1-1.1-0.1-1.4c-0.1-0.5-0.2-1.1-0.3-1.5
		c0.1,0.2,0.1,0.4,0.1,0.6C156.8,104,155.6,105.5,152.6,107.1L152.6,107.1z"/>
	
		<linearGradient id="SVGID_21_" gradientUnits="userSpaceOnUse" x1="-4072.9578" y1="92.0755" x2="-4072.3875" y2="92.0755" gradientTransform="matrix(0 -102.3552 -102.3552 0 9539.8242 -416735.75)">
		<stop  offset="0" style="stop-color:#00082E"/>
		<stop  offset="0.321" style="stop-color:#010A30"/>
		<stop  offset="0.501" style="stop-color:#030F39"/>
		<stop  offset="0.647" style="stop-color:#071846"/>
		<stop  offset="0.773" style="stop-color:#0D245A"/>
		<stop  offset="0.809" style="stop-color:#0F2961"/>
		<stop  offset="0.839" style="stop-color:#0B386E"/>
		<stop  offset="0.896" style="stop-color:#054E83"/>
		<stop  offset="0.951" style="stop-color:#015B90"/>
		<stop  offset="1" style="stop-color:#006094"/>
	</linearGradient>
	<path fill="url(#SVGID_21_)" d="M115.3,112.9c-0.1,0.1-0.2,0.2-0.4,0.3c-0.8,0.9-1.1,2-1,2.9c0.1,0.4,0.2,0.4,0.4,0.4
		c0.2-0.1,0.4-0.1,0.5-0.2c0.1-0.5,0.2-1,0.8-1.4c0.4-0.3,0.8-0.5,1.2-0.4c0.4-0.7,0.4-1.4,0-1.8
		C116.3,112.5,115.7,112.6,115.3,112.9L115.3,112.9z"/>
	
		<linearGradient id="SVGID_22_" gradientUnits="userSpaceOnUse" x1="-4073.0208" y1="92.1049" x2="-4072.45" y2="92.1049" gradientTransform="matrix(0 -102.1364 -102.1364 0 9524.543 -415851.0313)">
		<stop  offset="0" style="stop-color:#00082E"/>
		<stop  offset="0.321" style="stop-color:#010A30"/>
		<stop  offset="0.501" style="stop-color:#030F39"/>
		<stop  offset="0.647" style="stop-color:#071846"/>
		<stop  offset="0.773" style="stop-color:#0D245A"/>
		<stop  offset="0.809" style="stop-color:#0F2961"/>
		<stop  offset="0.839" style="stop-color:#0B386E"/>
		<stop  offset="0.896" style="stop-color:#054E83"/>
		<stop  offset="0.951" style="stop-color:#015B90"/>
		<stop  offset="1" style="stop-color:#006094"/>
	</linearGradient>
	<path fill="url(#SVGID_22_)" d="M118.7,116c-0.8,1.6-2.2,2.4-3.5,2.8c0,0-0.3,0.1-0.2,0.3c0.1,0.3,1,0.8,1.6,1.3
		c0.1,0,0.2-0.1,0.2-0.1c0.7-0.2,1.8-1,2.4-2.3c0.4-0.9,0.7-1.6,0.5-3.2c-0.1-1.1-0.4-2.1-0.7-2.6
		C119.5,113.4,119.3,114.8,118.7,116L118.7,116z"/>
	
		<linearGradient id="SVGID_23_" gradientUnits="userSpaceOnUse" x1="-4073.0149" y1="91.866" x2="-4072.4431" y2="91.866" gradientTransform="matrix(0 -102.1601 -102.1601 0 9470.5527 -415947)">
		<stop  offset="0" style="stop-color:#00082E"/>
		<stop  offset="0.321" style="stop-color:#010A30"/>
		<stop  offset="0.501" style="stop-color:#030F39"/>
		<stop  offset="0.647" style="stop-color:#071846"/>
		<stop  offset="0.773" style="stop-color:#0D245A"/>
		<stop  offset="0.809" style="stop-color:#0F2961"/>
		<stop  offset="0.839" style="stop-color:#0B386E"/>
		<stop  offset="0.896" style="stop-color:#054E83"/>
		<stop  offset="0.951" style="stop-color:#015B90"/>
		<stop  offset="1" style="stop-color:#006094"/>
	</linearGradient>
	<path fill="url(#SVGID_23_)" d="M94.6,110.4c-2.4,5.6-6.9,10-12.4,10.2c-3.1,0.1-5.4-1.4-6.7-3.6c0.9,1.7,2.5,3.1,3.8,3.9
		c1.2,0.7,2.7,1.1,4.4,1.1c5.7-0.2,10.1-4.9,11.5-8.9c0.4-1.1,0.1-2.2-0.1-3c-0.1-0.3-0.2-1-0.4-1.4l0,0
		C94.9,109.1,94.9,109.6,94.6,110.4L94.6,110.4z"/>
	<path fill="#4B4B4B" d="M125,84.1c-60.6,0-109.1,18.2-109.1,40.9c0,22.6,49,40.9,109.1,40.9s109.1-18.4,109.1-40.9
		S185.1,84.1,125,84.1 M16.7,125.5c0-4.8,2.1-9.6,6.5-14C38.8,95.7,79.8,85,124.8,84.8c59.7-0.2,108.4,17.6,108.6,39.7
		c0,4.8-2.2,9.5-6.6,13.9c-15.6,15.8-56.4,26.5-101.5,26.7C65.5,165.4,16.7,147.6,16.7,125.5 M233.4,121.8c0.1,0.2,0.1,0.4,0.1,0.6
		C233.5,122.3,233.4,122.1,233.4,121.8"/>
	
		<linearGradient id="SVGID_24_" gradientUnits="userSpaceOnUse" x1="-4059.3186" y1="93.2208" x2="-4058.7483" y2="93.2208" gradientTransform="matrix(-44.2067 -164.9817 -164.9817 44.2067 -163968.2813 -673648.9375)">
		<stop  offset="0" style="stop-color:#A5A5A6"/>
		<stop  offset="0.35" style="stop-color:#D7D7D7"/>
		<stop  offset="0.65" style="stop-color:#D7D7D7"/>
		<stop  offset="1" style="stop-color:#A5A5A6"/>
	</linearGradient>
	<path fill="url(#SVGID_24_)" d="M16.3,125c0,1.1,0.1,2.2,0.4,3.2c-0.2-0.9-0.2-1.8-0.2-2.7c0-4.8,2.2-9.7,6.6-14.3
		c15.7-15.8,56.7-26.5,101.9-26.7c6.3,0,12.4,0.1,18.4,0.5c-6-0.4-12.1-0.6-18.2-0.6C64.7,84.4,16.3,102.5,16.3,125z"/>
	
		<linearGradient id="SVGID_25_" gradientUnits="userSpaceOnUse" x1="-3529.2078" y1="221.5806" x2="-3535.0371" y2="199.8266" gradientTransform="matrix(4.3158 0 0 4.3158 15398.4121 -822.8296)">
		<stop  offset="0" style="stop-color:#A5A5A6"/>
		<stop  offset="0.35" style="stop-color:#D7D7D7"/>
		<stop  offset="0.65" style="stop-color:#D7D7D7"/>
		<stop  offset="1" style="stop-color:#A5A5A6"/>
	</linearGradient>
	<path fill="url(#SVGID_25_)" d="M226.9,138.7c-15.7,15.8-56.6,26.5-101.7,26.7c-6.3,0.1-12.5-0.1-18.7-0.5c6,0.4,12.3,0.6,18.5,0.6
		c60,0,108.7-18.3,108.7-40.5c0-0.8-0.1-1.7-0.2-2.5c0.1,0.7,0.1,1.4,0.1,2.1C233.7,129.4,231.4,134.3,226.9,138.7"/>
	<path fill="#FFFFFF" d="M125,89.1c-56.8,0-102.9,16-102.9,35.8s46.1,35.8,102.9,35.8s102.9-16,102.9-35.8
		C227.9,105.2,181.8,89.1,125,89.1L125,89.1z M125,157.7c-54.9,0-99.3-14.6-99.3-32.7S70.1,92.3,125,92.3
		c54.9,0,99.3,14.6,99.3,32.7C224.3,143.1,179.9,157.7,125,157.7L125,157.7z"/>
	<path fill="#FFFFFF" d="M189.1,113.3c0.1-0.2,0-0.4-0.3-0.4c-1.7,0-3.8,0-5.5,0c-0.4,0-0.6,0.1-0.8,0.4c-0.7,1.2-8.3,12.7-9.7,15
		c-0.2,0.4-0.5,0.3-0.6-0.1c-0.1-1.3-1.3-2.9-3.1-3.6c-1.4-0.5-2.7-0.7-4.1-0.5c-2.5,0.4-4.8,1.7-6.8,3.2c-3,2.3-5.6,5.2-8.9,7.4
		c-1.8,1.2-4.3,2.2-6,0.7c-1.5-1.4-1.3-4.5,1-6.9c0.2-0.2,0.5-0.1,0.5,0.2c-0.2,1.1,0.1,2.2,0.9,2.9c1,0.9,2.5,1,3.7,0.4
		c1.4-0.7,2.3-2.1,2.6-3.7c0.4-2.5-1.5-4.6-3.9-4.8c-1.9-0.1-3.8,0.5-5.6,2c-0.9,0.7-1.4,1.3-2.2,2.4c-0.2,0.3-0.5,0.3-0.5-0.1
		c0.1-3.1-1.2-4.9-3.8-5c-2-0.1-4.2,1-5.9,2.4c-1.9,1.5-3.5,3.4-5.2,5.3c-0.2,0.2-0.4,0.2-0.5-0.2c-0.1-2.1-0.6-4.1-1.6-5.5
		c-0.4-0.5-1.1-0.7-1.7-0.4c-0.3,0.2-1.3,0.6-2,1.1c-0.4,0.3-0.5,0.7-0.4,1.3c1,3.1,0.7,6.6-0.5,9.6c-1.1,2.7-3.4,5.2-6,6
		c-1.7,0.5-3.5,0.3-4.7-1.3c-1.6-2.2-0.9-5.9,1.4-8.9c2-2.7,5-4.4,7.9-5.6c0.4-0.1,0.4-0.4,0.3-0.7c-0.2-0.5-0.4-1.1-0.5-1.4
		c-0.2-0.7-1-0.8-1.9-0.7c-2.1,0.2-4.1,1-5.9,2c-5,2.6-7.4,7.8-8.5,10.5c-0.5,1.3-1,2.2-1.6,2.9c-0.8,1-1.7,1.9-3.5,3.5
		c-0.2,0.1-0.3,0.4-0.1,0.7c0.2,0.4,1.1,1.7,1.4,1.8c0.3,0.1,0.7-0.1,0.8-0.2c1.3-0.8,2.7-2.2,3.5-3.1c0.2-0.3,0.5-0.2,0.7,0.3
		c0.7,2.5,2.5,4.4,5,5.3c4.5,1.6,9.3-0.7,12.8-4.5c2.3-2.5,3-4,3.9-5.1c1.5-1.8,4.4-5.9,7.8-8.5c1.3-1,2.7-1.7,3.5-1.2
		c0.6,0.4,0.8,1.3-0.2,3c-3.5,6.4-8.7,14-9.6,15.8c-0.2,0.3,0,0.6,0.3,0.6c1.9,0,3.6,0,5.3,0c0.3,0,0.4-0.1,0.5-0.4
		c2.7-4.2,5.3-8.2,8-12.4c0.2-0.2,0.3-0.1,0.3,0.1c0.1,1,0.3,2.3,0.8,3.2c1,1.6,2.5,2.3,4.1,2.3c1.3,0,1.9-0.2,3.3-0.7
		c1-0.4,1.9-0.8,2.7-1.5c0.4-0.3,0.5,0.2,0.5,0.2c-0.6,3.3,0.1,7.4,3.5,9c4,2,8.4-0.8,10.9-3.3c0.2-0.2,0.5-0.2,0.5,0.3
		c0.1,1,0.5,2.1,1.3,2.9c2.1,2.1,6.4,1.3,10.6-2c2.7-2.1,5.6-5.1,8.2-8.3c0.1-0.1,0.2-0.3,0-0.5c-0.4-0.4-1-0.9-1.4-1.3
		c-0.2-0.1-0.4-0.1-0.6,0c-2.6,2.5-5.1,5.4-8.5,7.8c-1.2,0.8-3,1.5-3.9,0.4c-0.3-0.4-0.3-1.1,0.1-1.9
		C172.3,139,188.2,114.7,189.1,113.3 M168,133.7c0.1,0.2,0.3,0.4,0.5,0.5c0.1,0.1,0.1,0.1,0.1,0.3c-0.7,1.4-1.3,2.3-2.2,3.6
		c-0.8,1.2-1.7,2.1-2.7,2.9c-1.6,1.3-3.8,2.8-5.7,1.8c-0.8-0.4-1.2-1.6-1.1-2.5c0.1-2.6,1.2-5.3,3.3-8c2.6-3.2,5.5-4.9,7.4-4
		c2,1,1.3,3.2,0.5,5C167.9,133.4,167.9,133.5,168,133.7"/>
	<path fill="#FFFFFF" d="M73.2,147.5c-6,0.1-11.2-3.6-11.8-10c-0.4-3.5,0.7-6.7,2.7-9.3c1.8-2.3,4.8-4.2,7.3-4.7
		c0.8-0.2,1.9-0.1,2.4,0.5c0.7,0.8,0.5,1.7-0.2,2.2c-1.9,1-4.2,2.7-5.4,5c-1,1.9-1.1,4.2,0.3,6.3c2.4,3.6,9.1,3.7,15.2-2
		c1.6-1.4,2.9-2.7,4.3-4.4c2.7-3.1,3.6-4.2,7.3-9.3c0.1-0.1,0.1-0.1,0.1-0.2c0-0.1-0.1-0.1-0.2-0.1c-2.5,0.1-4.5,0.8-6.6,2.3
		c-0.6,0.4-1.4,0.4-1.8-0.2c-0.4-0.7-0.1-1.5,0.5-2c3.3-2.3,6.9-2.7,10.6-3.3c0,0,0.2,0,0.5-0.2c1.5-1.9,2.6-3.7,4.2-5.7
		s3.7-3.8,5.3-5.2c2.2-1.9,3.6-2.6,5.1-3.3c0.4-0.2-0.1-0.4-0.2-0.4c-8.1-1.6-16.6-3.5-24.7-0.5c-5.6,2.1-8.1,6.5-6.9,9.5
		c0.8,2.1,3.6,2.5,6.2,1.2c2.3-1.1,4.2-2.8,5.6-5c0.8-1.2,2.5-0.4,1.6,1.8c-2.4,5.6-6.9,10-12.4,10.2c-4.7,0.2-7.7-3.3-7.7-7.5
		c0-8.4,9.4-13.9,19.2-14.8c11.8-1,23,2.2,34.8,3.6c9,1.1,17.6,1.1,26.7-1c1.1-0.2,1.8,0.5,1.7,1.6c-0.1,1.6-1.3,3-4.2,4.7
		c-3.4,1.9-6.9,2.4-10.6,2.5c-9,0.1-17.3-3.4-25.9-5.3c0,0.4,0.1,0.8-0.2,1.1c-4.8,3.5-9.1,7.1-12,12.1c-0.1,0.1-0.1,0.2,0.1,0.2
		c2.5-0.1,4.8-0.2,7.1-0.4c0.4-0.1,0.4-0.1,0.4-0.4c-0.2-1.7,0.3-3.7,1.8-5.1c1.6-1.4,3.5-1.6,4.8-0.5c1.5,1.1,1.3,3.2,0.5,4.8
		c-0.8,1.6-2.2,2.4-3.5,2.8c0,0-0.3,0.1-0.2,0.3c0.1,0.4,1.8,1.4,2,1.6c0.1,0.2,0.1,0.7-0.2,1c-0.2,0.2-0.5,0.4-0.8,0.4
		c-0.3,0-0.5-0.1-0.9-0.3c-0.8-0.4-1.8-1.1-2.5-2c-0.2-0.3-0.4-0.3-0.9-0.2c-2.5,0.1-6.5,0.5-9.1,0.8c-0.7,0.1-0.7,0.2-0.9,0.4
		c-4.2,7.1-8.8,14.6-13.9,19.7C82.4,146,78,147.5,73.2,147.5 M113.9,116.2c0.1,0.4,0.2,0.4,0.4,0.4c0.8-0.2,1.7-0.8,2.2-1.6
		c0.5-0.7,0.7-1.7,0.2-2.2c-0.4-0.4-1.1-0.2-1.6,0.2C114.1,113.9,113.8,115.3,113.9,116.2"/>
</g>
</svg>
