<?xml version="1.0" encoding="utf-8"?>
<!-- Generator: Adobe Illustrator 18.0.0, SVG Export Plug-In . SVG Version: 6.00 Build 0)  -->
<!DOCTYPE svg PUBLIC "-//W3C//DTD SVG 1.1//EN" "http://www.w3.org/Graphics/SVG/1.1/DTD/svg11.dtd">
<svg version="1.1" id="Layer_1" xmlns="http://www.w3.org/2000/svg" xmlns:xlink="http://www.w3.org/1999/xlink" x="0px" y="0px"
	 viewBox="0 0 500 500" enable-background="new 0 0 500 500" xml:space="preserve">
<g>
	<g id="XMLID_2_">
		<polygon id="XMLID_96_" fill="#002D73" points="78.3,320.9 78.3,344.4 51.7,344.4 51.7,320.9 37,320.9 37,382.5 51.7,382.5 
			51.7,357.8 78.3,357.8 78.3,382.5 93,382.5 93,320.9 92.3,320.9 		"/>
		<polygon id="XMLID_95_" fill="#002D73" points="146.8,320.9 131.4,345.2 116.1,320.9 98.8,320.9 124.1,361.2 124.1,382.5 
			138.8,382.5 138.8,361.2 164.1,320.9 162.8,320.9 		"/>
		<path id="XMLID_94_" fill="#002D73" d="M211.3,320.9v45.2c0,1.7-1.3,3.1-3.1,3.1h-23.5v-48.3H170v61.6h43.3c3.9,0,7-1.2,9.2-3.4
			c2.2-2.2,3.4-5.3,3.4-9.2v-49.1h-0.7h-14V320.9z"/>
		<path id="XMLID_93_" fill="#002D73" d="M283,320.9h-43.4v61.6h14.7v-48.3h23.5c1.9,0,3.1,1.5,3.1,3.1v45.2h14.7v-49
			c0-3.9-1.2-7-3.4-9.2C289.9,322.1,286.8,320.9,283,320.9z"/>
		<path id="XMLID_3_" fill="#002D73" d="M352.5,320.9h-43.3v61.6h43.4c3.8,0,7-1.2,9.2-3.4c2.2-2.2,3.4-5.3,3.4-9.2v-36.4
			c0-3.9-1.2-7-3.4-9.2C359.4,322.1,356.4,320.9,352.5,320.9z M350.5,337.4V366c0,1.7-1.2,3.2-3.1,3.2h-23.5v-34.9h23.4
			C349.2,334.2,350.5,335.5,350.5,337.4z"/>
		<path id="XMLID_4_" fill="#002D73" d="M390.7,320.9c-3.9,0-7,1.2-9.2,3.4c-2.2,2.2-3.4,5.3-3.4,9.2v49h14.7v-19h26.6v19H434v-61.6
			H390.7z M419.3,334.2v15.9h-26.6v-12.8c0-1.5,1.2-3.1,3.1-3.1H419.3z"/>
		<rect id="XMLID_88_" x="448.3" y="320.9" fill="#002D73" width="14.7" height="61.6"/>
	</g>
	<g>
		<g id="XMLID_6_">
			
				<radialGradient id="SVGID_1_" cx="422.7215" cy="310.7062" r="324.1289" gradientTransform="matrix(0.4877 0 0 -0.4877 55.2389 300.5937)" gradientUnits="userSpaceOnUse">
				<stop  offset="0" style="stop-color:#8B9394"/>
				<stop  offset="1" style="stop-color:#727A79"/>
			</radialGradient>
			<path fill="url(#SVGID_1_)" d="M233.8,194.5c3.3,0,7-0.5,10.8-1.2c13.7-3,27-7.7,39.3-12.5c33.2-12.7,49.6-25.2,53.7-28.6
				c0.8-0.6,1.3-1.1,1.7-1.4c0.8-0.8,1.8-1.9,1.8-3.5c0-3.1-3.5-4-5.7-4.6c-0.2-0.1-0.5-0.1-0.7-0.2c-24.6-7.3-53-11.2-82.2-11.2
				h-1.8c-4.4,0.1-8.4,1.1-11.6,2.6c-10.3,5.1-15.3,17-18.2,24.1c-0.4,0.7-0.6,1.4-0.8,2c-5.4,12.7-6.3,22.1-2.5,27.9
				C220.5,192.3,226,194.5,233.8,194.5z M222.2,160.8c0.2-0.6,0.6-1.3,0.8-2c2.8-6.7,7.6-18.1,17-22.8c2.8-1.4,6.6-2.2,10.5-2.4h1.7
				c29,0,57.3,3.9,81.5,11.1c0.2,0.1,0.5,0.1,0.7,0.2c1.4,0.4,3.9,1.1,3.9,2.2c0,0.6-0.2,1.2-1.1,1.9c-0.2,0.2-0.7,0.6-1.4,1.2
				c-4.1,3.4-20.2,15.9-53.1,28.3c-12.2,4.7-25.4,9.6-38.9,12.4c-3.7,0.7-7.2,1.2-10.3,1.2c-7,0-11.8-1.9-14.3-5.7
				C216.2,181.4,217.1,172.7,222.2,160.8z"/>
			
				<radialGradient id="SVGID_2_" cx="410.7703" cy="375.4235" r="402.1226" gradientTransform="matrix(0.4882 0 0 -0.4888 51.8362 301.9716)" gradientUnits="userSpaceOnUse">
				<stop  offset="0" style="stop-color:#969D9D"/>
				<stop  offset="0.6135" style="stop-color:#7A8182"/>
				<stop  offset="1" style="stop-color:#4B5050"/>
			</radialGradient>
			<path fill="url(#SVGID_2_)" d="M251.9,117.5c-92.5,0-167.8,38.7-167.8,86.3S159.4,290,251.9,290s167.8-38.7,167.8-86.3
				C419.7,156.2,344.4,117.5,251.9,117.5z M251.9,287.5c-91,0-165.1-37.5-165.1-83.7s74.1-83.7,165.1-83.7s165.2,37.5,165.2,83.7
				C417.1,249.9,343,287.5,251.9,287.5z"/>
			
				<radialGradient id="SVGID_3_" cx="275.1958" cy="324.4913" r="332.3583" gradientTransform="matrix(0.4877 0 0 -0.4877 55.2389 300.5937)" gradientUnits="userSpaceOnUse">
				<stop  offset="0" style="stop-color:#969D9D"/>
				<stop  offset="0.4601" style="stop-color:#828B8A"/>
				<stop  offset="1" style="stop-color:#C2C9C8"/>
			</radialGradient>
			<path fill="url(#SVGID_3_)" d="M199,141.9c1.1-1.8,0.6-3.2-0.1-4c-1.1-1.3-3.9-1.4-8.2-0.6C134.4,148.7,98,174.9,98,203.9
				c0,16,11.1,31.2,32.2,44.1c1.5,0.8,2.8,1.3,4.1,1.3l0,0c2-0.1,3-1.3,3.8-2.6c0.4-0.5,0.7-1.3,1.1-2.1l0.4-0.6
				c18.3-42.4,38.3-76.9,58-100C198.3,143,198.6,142.4,199,141.9z M197,140.6c-0.4,0.6-0.7,1.1-1.3,1.8c-19.8,23.2-40,58-58.3,100.5
				l-0.2,0.6c-0.4,0.8-0.7,1.5-0.9,2c-0.6,0.9-1.1,1.4-1.8,1.4c-0.8,0-1.7-0.4-2.8-0.9c-20.2-12.4-31-27-31-42.1
				c0-27.8,35.6-53,90.8-64.2c1.5-0.4,3-0.5,4-0.5c1.4,0,1.8,0.4,1.9,0.4C197.3,139.6,197.3,140.1,197,140.6z"/>
			
				<radialGradient id="SVGID_4_" cx="418.5858" cy="165.9401" r="184.9017" gradientTransform="matrix(0.4877 0 0 -0.4877 55.2389 300.5937)" gradientUnits="userSpaceOnUse">
				<stop  offset="0" style="stop-color:#969D9D"/>
				<stop  offset="0.6135" style="stop-color:#828B8A"/>
				<stop  offset="1" style="stop-color:#727A79"/>
			</radialGradient>
			<path fill="url(#SVGID_4_)" d="M270.6,212.8c-3.3,0-7,0.5-10.8,1.2c-14.3,3.1-28,8.2-39,12.4l-0.2,0.1
				c-33.4,12.7-49.7,25.2-53.8,28.8c-0.2,0.2-0.5,0.5-0.7,0.6c-0.4,0.2-0.6,0.5-0.8,0.7c-0.7,0.7-1.7,1.9-1.7,3.5
				c0,3.1,3.9,4.3,6,4.9l0.4,0.1c24.5,7.2,52.9,11.1,82.2,11.1h0.2c0.2,0,0.5,0,0.7,0c0.2,0,0.5,0,0.7,0c4.1-0.1,8.4-1.1,11.6-2.6
				c10.4-5.2,15.3-17.2,18.2-24.3c0.2-0.7,0.5-1.3,0.7-1.8c5.4-12.7,6.3-22.1,2.5-27.9C283.8,215.1,278.4,212.8,270.6,212.8z
				 M282.1,246.6c-0.2,0.6-0.5,1.2-0.8,1.9c-2.8,6.9-7.6,18.3-17.2,23.1c-4.1,2-7.8,2.4-12.3,2.4c-29,0-57.1-3.8-81.5-11l-0.5-0.1
				c-1.3-0.4-4.3-1.3-4.3-2.5c0-0.6,0.2-1.1,0.9-1.8c0.2-0.2,0.5-0.4,0.7-0.6c0.2-0.2,0.5-0.4,0.7-0.6c4.1-3.4,20.1-15.7,53.1-28.4
				l0.2-0.1c10.9-4.1,24.5-9.3,38.7-12.3c3.7-0.7,7.2-1.2,10.3-1.2c7,0,11.8,1.9,14.3,5.7C288.2,226.1,287.3,234.6,282.1,246.6z"/>
			
				<radialGradient id="SVGID_5_" cx="647.4583" cy="248.6566" r="266.1024" gradientTransform="matrix(0.4877 0 0 -0.4877 55.2389 300.5937)" gradientUnits="userSpaceOnUse">
				<stop  offset="0" style="stop-color:#969D9D"/>
				<stop  offset="0.6135" style="stop-color:#828B8A"/>
				<stop  offset="1" style="stop-color:#727A79"/>
			</radialGradient>
			<path fill="url(#SVGID_5_)" d="M374.1,159.6c-1.4-0.9-2.6-1.3-3.7-1.3c-0.2,0-0.4,0-0.5,0c-1.7,0.1-3,0.9-3.7,2.5
				c-0.6,0.8-1.2,2.1-1.4,2.7c-10.2,23.9-31.4,68.7-58,100c-0.7,0.8-1.2,1.4-1.5,2.1c-0.8,1.5-0.8,3,0.1,4c0.7,0.7,1.8,1.1,3.4,1.1
				c1.2,0,2.5-0.1,4.3-0.5c56.3-11.5,92.6-37.6,92.6-66.6C405.8,187.6,394.8,172.4,374.1,159.6z M312.6,268
				c-1.5,0.4-2.8,0.5-3.8,0.5c-1.3,0-1.5-0.2-1.7-0.4c-0.4-0.4,0-0.9,0.1-1.3c0.2-0.5,0.6-0.9,1.3-1.8c26.9-31.6,48-76.6,58.3-100.6
				c0.5-1.1,0.9-1.9,1.3-2.6c0.5-0.9,0.9-1.3,1.9-1.3c0.1,0,0.1,0,0.2,0c0.6,0,1.4,0.4,2.4,0.9c20,12.3,30.5,26.9,30.5,42.1
				C403.5,231.5,367.7,256.7,312.6,268z"/>
		</g>
		<g>
			<g>
				<defs>
					<path id="SVGID_6_" d="M251.9,288.7c91.8,0,166.4-38,166.4-84.8s-74.4-85-166.4-85c-91.8,0-166.4,38-166.4,85
						C85.7,250.7,160.1,288.7,251.9,288.7z M283.2,247c-2.7,6.4-7.6,20.1-18.5,25.6c-3.3,1.7-7.5,2.4-11.1,2.5c-0.8,0.1-1.4,0-1.7,0
						c-30.1,0-58.2-4-81.9-11c-1.8-0.5-5.6-1.4-5.6-3.8c0-1.1,0.6-1.9,1.3-2.7c0.4-0.4,0.8-0.7,1.5-1.3c5.4-4.6,22.2-16.7,53.5-28.5
						c11-4.1,24.7-9.5,39.2-12.4C268.5,213.4,299.8,208.7,283.2,247z M367.3,161.5c0.6-1.1,1.4-1.9,2.7-2c0.8-0.1,1.8,0.1,3.4,1.1
						c19.5,12.1,31.1,27,31.1,43.2c0,29.3-37.7,54.4-91.7,65.4c-3.4,0.7-5.8,0.7-6.5-0.2c-0.5-0.6-0.7-1.5,0-2.6
						c0.4-0.6,0.7-1.2,1.4-2c29.5-34.5,51.8-85.5,58.2-100.3C366.3,163.2,366.9,162.1,367.3,161.5z M221.1,160.3
						c2.7-6.4,7.6-20.1,18.5-25.6c3.3-1.7,7.5-2.4,11.1-2.5c0.8,0,1.4,0,1.7,0c30.2,0,58.2,4.1,81.9,11.1c1.8,0.5,5.6,1.2,5.6,3.7
						c0,1.1-0.6,1.9-1.4,2.7c-0.4,0.4-0.8,0.8-1.5,1.3c-5.6,4.6-22.1,16.6-53.5,28.5c-11,4.3-24.8,9.5-39.2,12.5
						C235.9,193.9,204.6,198.6,221.1,160.3z M191.1,138.3c3.5-0.7,6.2-0.7,7,0.2c0.5,0.6,0.7,1.4,0,2.6c-0.4,0.6-0.7,1.2-1.4,2
						c-29.5,34.5-51.8,85.5-58.1,100.2c-0.5,1.1-0.9,2-1.3,2.7c-0.7,1.1-1.4,1.9-2.8,2c-0.7,0-1.8-0.2-3.4-1.2
						c-19.5-12-31.6-27-31.6-43.2C99.3,174.5,137.1,149.3,191.1,138.3z"/>
				</defs>
				<clipPath id="SVGID_7_">
					<use xlink:href="#SVGID_6_"  overflow="visible"/>
				</clipPath>
				<g clip-path="url(#SVGID_7_)">
					<g>
						<g>
							<defs>
								<path id="SVGID_8_" d="M251.9,286.9c-90.8,0-164.6-37.3-164.6-83.2s73.8-83.2,164.6-83.2s164.6,37.3,164.6,83.2
									S342.6,286.9,251.9,286.9z M270.6,212.4c-3.3,0-7.1,0.5-10.9,1.2c-14.4,3.1-28,8.3-39,12.4l-0.2,0.1
									c-33.5,12.8-49.8,25.3-54,28.9l-0.7,0.6c-0.4,0.2-0.6,0.6-0.8,0.7c-0.8,0.7-1.9,2-1.9,3.9c0,3.4,4.1,4.6,6.4,5.3l0.4,0.1
									c24.6,7.2,53,11.1,82.4,11.1c0.4,0,0.6,0,0.9,0c0.2,0,0.6,0,0.8,0c4-0.1,8.4-1.1,11.7-2.6c10.5-5.3,15.5-17.4,18.6-24.6
									l0.7-1.8c5.6-12.9,6.4-22.4,2.5-28.4C284.2,214.7,278.5,212.4,270.6,212.4z M370.4,157.8c-0.2,0-0.4,0-0.6,0
									c-1.7,0.1-3.1,1.1-4,2.8c-0.5,0.7-1.1,2-1.4,2.6c-10.3,23.9-31.4,68.6-57.9,99.9c-0.7,0.8-1.2,1.4-1.7,2.2
									c-1.2,1.9-0.6,3.7,0.2,4.6c0.7,0.8,2,1.3,3.8,1.3c1.2,0,2.6-0.1,4.4-0.5c56.6-11.6,93.1-37.9,93.1-67.1
									c0-16.3-11-31.7-31.9-44.6C372.8,158.2,371.6,157.8,370.4,157.8z M195.3,136.2c-1.3,0-2.8,0.2-4.6,0.6
									c-56.6,11.5-93.1,37.9-93.1,67.1c0,16.2,11.2,31.6,32.4,44.6c1.5,0.9,3,1.4,4.4,1.4c2.4-0.1,3.5-1.5,4.3-2.7
									c0.4-0.6,0.7-1.4,1.2-2.2l0.2-0.6c18.3-42.4,38.3-76.9,57.9-99.9c0.8-0.9,1.2-1.5,1.5-2.2c1.2-2,0.7-3.7-0.2-4.6
									C198.5,136.5,197.2,136.2,195.3,136.2z M250.7,130.6c-4.4,0.1-8.6,1.2-11.8,2.7c-10.5,5.2-15.5,17.2-18.5,24.4l-0.8,2
									c-5.6,12.9-6.4,22.4-2.5,28.4c3.1,4.6,8.6,7,16.7,7c3.3,0,7.1-0.5,10.9-1.2c13.7-3,27.1-7.8,39.4-12.5
									c33.2-12.7,49.7-25.2,54-28.8c0.8-0.6,1.3-1.1,1.7-1.5c0.8-0.8,1.8-2,1.8-3.8c0-3.4-3.9-4.5-6-5.1l-0.7-0.2
									c-24.6-7.3-53.1-11.2-82.4-11.2h-1.7V130.6z"/>
							</defs>
							<clipPath id="SVGID_9_">
								<use xlink:href="#SVGID_8_"  overflow="visible"/>
							</clipPath>
							<g id="XMLID_15_" clip-path="url(#SVGID_9_)">
								<g id="XMLID_17_">
									<defs>
										<path id="SVGID_10_" d="M251.9,286.9c-90.6,0-164.5-37.3-164.5-83.1s73.7-83.1,164.5-83.1c90.6,0,164.5,37.3,164.5,83.1
											S342.5,286.9,251.9,286.9z M270.5,212.4c-3.3,0-7.1,0.5-10.9,1.2c-14.3,3.1-28,8.2-39,12.4l-0.2,0.1
											c-33.5,12.8-49.7,25.3-54,28.8l-0.7,0.7c-0.4,0.2-0.6,0.6-0.8,0.7c-0.8,0.7-1.9,2-1.9,3.9c0,3.4,4.1,4.6,6.4,5.3l0.4,0.1
											c24.5,7.2,53,11.1,82.2,11.1c0.4,0,0.6,0,0.9,0c0.2,0,0.6,0,0.8,0c4-0.1,8.4-1.1,11.7-2.6c10.5-5.3,15.5-17.3,18.5-24.5
											l0.7-1.8c5.6-12.8,6.4-22.4,2.5-28.4C284.2,214.7,278.5,212.4,270.5,212.4z M370.3,157.8c-0.2,0-0.4,0-0.6,0
											c-1.7,0.1-3.1,1.1-4,2.8c-0.5,0.7-1.1,2-1.4,2.6c-10.2,23.9-31.2,68.6-57.9,99.7c-0.7,0.8-1.2,1.4-1.7,2.2
											c-1.2,1.9-0.6,3.7,0.2,4.6c0.7,0.8,2,1.3,3.8,1.3c1.2,0,2.6-0.1,4.4-0.5c56.4-11.5,93-37.9,93-67.1
											c0-16.3-11-31.7-31.9-44.5C372.7,158.3,371.4,157.8,370.3,157.8z M195.3,136.2c-1.3,0-2.8,0.2-4.6,0.6
											c-56.6,11.5-93,37.7-93,67c0,16.1,11.1,31.6,32.3,44.5c1.5,0.9,3,1.4,4.3,1.4c2.4-0.1,3.5-1.5,4.3-2.7
											c0.4-0.6,0.7-1.4,1.2-2.2l0.2-0.6c18.2-42.4,38.2-76.8,57.9-99.7c0.8-0.9,1.2-1.5,1.5-2.2c1.2-2,0.7-3.7-0.2-4.6
											C198.6,136.6,197.3,136.2,195.3,136.2z M250.7,130.7c-4.4,0.1-8.5,1.1-11.7,2.7c-10.5,5.2-15.5,17.2-18.5,24.4l-0.8,2
											c-5.6,12.9-6.4,22.4-2.5,28.4c3.1,4.6,8.6,7,16.7,7c3.3,0,7.1-0.5,10.9-1.2c13.7-3,27-7.7,39.4-12.5
											c33.2-12.7,49.6-25.2,53.8-28.8c0.8-0.6,1.3-1.1,1.7-1.5c0.8-0.7,1.8-2,1.8-3.8c0-3.4-3.9-4.5-6-5.1l-0.7-0.2
											c-24.6-7.3-53-11.2-82.4-11.2L250.7,130.7L250.7,130.7z"/>
									</defs>
									<defs>
										<path id="SVGID_11_" d="M251.9,286.9c-90.6,0-164.5-37.3-164.5-83.1s73.7-83.1,164.5-83.1c90.6,0,164.5,37.3,164.5,83.1
											S342.5,286.9,251.9,286.9z M270.5,212.4c-3.3,0-7.1,0.5-10.9,1.2c-14.3,3.1-28,8.2-39,12.4l-0.2,0.1
											c-33.5,12.8-49.7,25.3-54,28.8l-0.7,0.7c-0.4,0.2-0.6,0.6-0.8,0.7c-0.8,0.7-1.9,2-1.9,3.9c0,3.4,4.1,4.6,6.4,5.3l0.4,0.1
											c24.5,7.2,53,11.1,82.2,11.1c0.4,0,0.6,0,0.9,0c0.2,0,0.6,0,0.8,0c4-0.1,8.4-1.1,11.7-2.6c10.5-5.3,15.5-17.3,18.5-24.5
											l0.7-1.8c5.6-12.8,6.4-22.4,2.5-28.4C284.2,214.7,278.5,212.4,270.5,212.4z M370.3,157.8c-0.2,0-0.4,0-0.6,0
											c-1.7,0.1-3.1,1.1-4,2.8c-0.5,0.7-1.1,2-1.4,2.6c-10.2,23.9-31.2,68.6-57.9,99.7c-0.7,0.8-1.2,1.4-1.7,2.2
											c-1.2,1.9-0.6,3.7,0.2,4.6c0.7,0.8,2,1.3,3.8,1.3c1.2,0,2.6-0.1,4.4-0.5c56.4-11.5,93-37.9,93-67.1
											c0-16.3-11-31.7-31.9-44.5C372.7,158.3,371.4,157.8,370.3,157.8z M195.3,136.2c-1.3,0-2.8,0.2-4.6,0.6
											c-56.6,11.5-93,37.7-93,67c0,16.1,11.1,31.6,32.3,44.5c1.5,0.9,3,1.4,4.3,1.4c2.4-0.1,3.5-1.5,4.3-2.7
											c0.4-0.6,0.7-1.4,1.2-2.2l0.2-0.6c18.2-42.4,38.2-76.8,57.9-99.7c0.8-0.9,1.2-1.5,1.5-2.2c1.2-2,0.7-3.7-0.2-4.6
											C198.6,136.6,197.3,136.2,195.3,136.2z M250.7,130.7c-4.4,0.1-8.5,1.1-11.7,2.7c-10.5,5.2-15.5,17.2-18.5,24.4l-0.8,2
											c-5.6,12.9-6.4,22.4-2.5,28.4c3.1,4.6,8.6,7,16.7,7c3.3,0,7.1-0.5,10.9-1.2c13.7-3,27-7.7,39.4-12.5
											c33.2-12.7,49.6-25.2,53.8-28.8c0.8-0.6,1.3-1.1,1.7-1.5c0.8-0.7,1.8-2,1.8-3.8c0-3.4-3.9-4.5-6-5.1l-0.7-0.2
											c-24.6-7.3-53-11.2-82.4-11.2L250.7,130.7L250.7,130.7z"/>
									</defs>
									<defs>
										<path id="SVGID_12_" d="M251.9,286.9c-90.6,0-164.5-37.3-164.5-83.1s73.7-83.1,164.5-83.1c90.6,0,164.5,37.3,164.5,83.1
											S342.5,286.9,251.9,286.9z M270.5,212.4c-3.3,0-7.1,0.5-10.9,1.2c-14.3,3.1-28,8.2-39,12.4l-0.2,0.1
											c-33.5,12.8-49.7,25.3-54,28.8l-0.7,0.7c-0.4,0.2-0.6,0.6-0.8,0.7c-0.8,0.7-1.9,2-1.9,3.9c0,3.4,4.1,4.6,6.4,5.3l0.4,0.1
											c24.5,7.2,53,11.1,82.2,11.1c0.4,0,0.6,0,0.9,0c0.2,0,0.6,0,0.8,0c4-0.1,8.4-1.1,11.7-2.6c10.5-5.3,15.5-17.3,18.5-24.5
											l0.7-1.8c5.6-12.8,6.4-22.4,2.5-28.4C284.2,214.7,278.5,212.4,270.5,212.4z M370.3,157.8c-0.2,0-0.4,0-0.6,0
											c-1.7,0.1-3.1,1.1-4,2.8c-0.5,0.7-1.1,2-1.4,2.6c-10.2,23.9-31.2,68.6-57.9,99.7c-0.7,0.8-1.2,1.4-1.7,2.2
											c-1.2,1.9-0.6,3.7,0.2,4.6c0.7,0.8,2,1.3,3.8,1.3c1.2,0,2.6-0.1,4.4-0.5c56.4-11.5,93-37.9,93-67.1
											c0-16.3-11-31.7-31.9-44.5C372.7,158.3,371.4,157.8,370.3,157.8z M195.3,136.2c-1.3,0-2.8,0.2-4.6,0.6
											c-56.6,11.5-93,37.7-93,67c0,16.1,11.1,31.6,32.3,44.5c1.5,0.9,3,1.4,4.3,1.4c2.4-0.1,3.5-1.5,4.3-2.7
											c0.4-0.6,0.7-1.4,1.2-2.2l0.2-0.6c18.2-42.4,38.2-76.8,57.9-99.7c0.8-0.9,1.2-1.5,1.5-2.2c1.2-2,0.7-3.7-0.2-4.6
											C198.6,136.6,197.3,136.2,195.3,136.2z M250.7,130.7c-4.4,0.1-8.5,1.1-11.7,2.7c-10.5,5.2-15.5,17.2-18.5,24.4l-0.8,2
											c-5.6,12.9-6.4,22.4-2.5,28.4c3.1,4.6,8.6,7,16.7,7c3.3,0,7.1-0.5,10.9-1.2c13.7-3,27-7.7,39.4-12.5
											c33.2-12.7,49.6-25.2,53.8-28.8c0.8-0.6,1.3-1.1,1.7-1.5c0.8-0.7,1.8-2,1.8-3.8c0-3.4-3.9-4.5-6-5.1l-0.7-0.2
											c-24.6-7.3-53-11.2-82.4-11.2L250.7,130.7L250.7,130.7z"/>
									</defs>
									<clipPath id="SVGID_13_">
										<use xlink:href="#SVGID_10_"  overflow="visible"/>
									</clipPath>
									<clipPath id="SVGID_14_" clip-path="url(#SVGID_13_)">
										<use xlink:href="#SVGID_11_"  overflow="visible"/>
									</clipPath>
									<clipPath id="SVGID_15_" clip-path="url(#SVGID_14_)">
										<use xlink:href="#SVGID_12_"  overflow="visible"/>
									</clipPath>
									<g id="XMLID_19_" clip-path="url(#SVGID_15_)">
										<g id="XMLID_20_">
											<g id="XMLID_21_">
												<g id="XMLID_22_">
													<path id="XMLID_23_" fill="#FFFFFF" d="M251.9,288.6c91.7,0,166.1-38,166.1-84.8s-74.3-84.8-166.1-84.8
														c-91.7,0-166.1,38-166.1,84.8C85.8,250.6,160.2,288.6,251.9,288.6z M283.1,247c-2.7,6.4-7.5,20-18.5,25.4
														c-3.3,1.7-7.5,2.4-11.1,2.5c-0.8,0.1-1.4,0-1.7,0c-30.6,0-59.2-4.3-83.1-11.5c-0.2-0.1-0.7-0.4-0.7-0.4
														c-2.4-0.7-3.5-1.8-3.5-3.1c0-1.1,0.6-1.9,1.3-2.7c0.4-0.4,0.8-0.7,1.5-1.3c5.4-4.6,22.1-16.7,53.4-28.5
														c11-4.1,24.7-9.5,39-12.4C268.5,213.4,299.7,208.7,283.1,247z M367.1,161.5c0.6-1.1,1.4-1.9,2.7-2
														c0.8-0.1,1.8,0.1,3.4,1.1c19.5,12,31.1,26.9,31.1,43.1c0,29.2-37.7,54.4-91.6,65.4c-3.4,0.7-5.8,0.7-6.5-0.2
														c-0.5-0.6-0.7-1.5,0-2.6c0.4-0.6,0.7-1.2,1.4-1.9c29.3-34.5,51.8-85.4,58.1-100.2C366.2,163.2,366.8,162.2,367.1,161.5
														z M221.1,160.4c2.7-6.4,7.5-20,18.5-25.6c3.3-1.7,7.5-2.4,11.1-2.5c0.8,0,1.4,0,1.7,0c30.6,0,59.2,4.3,83.1,11.6
														c0.2,0,0.7,0.2,0.9,0.2c2.2,0.7,3.3,1.8,3.4,3c0,1.1-0.6,1.9-1.4,2.7c-0.4,0.4-0.8,0.8-1.5,1.3
														c-5.6,4.6-22.1,16.6-53.4,28.5c-11,4.3-24.7,9.5-39,12.4C235.9,193.9,204.7,198.6,221.1,160.4z M191.2,138.4
														c3.5-0.7,6.2-0.7,7,0.2c0.5,0.6,0.7,1.4,0,2.6c-0.4,0.6-0.7,1.2-1.4,2c-29.3,34.5-51.7,85.4-58.1,100.1
														c-0.5,1.1-0.9,2-1.3,2.7c-0.7,1.1-1.4,1.9-2.8,1.9c-0.7,0-1.8-0.2-3.4-1.2c-19.4-12-31.5-26.9-31.5-43.1
														C99.5,174.5,137.2,149.3,191.2,138.4z"/>
												</g>
											</g>
										</g>
									</g>
									<g id="XMLID_24_" clip-path="url(#SVGID_15_)">
										<g id="XMLID_25_">
											<g id="XMLID_26_">
												<g id="XMLID_27_">
													
														<linearGradient id="XMLID_37_" gradientUnits="userSpaceOnUse" x1="369.6318" y1="376.1244" x2="386.0699" y2="62.4641" gradientTransform="matrix(0.5 0 0 -0.5 63 314)">
														<stop  offset="0" style="stop-color:#FFFFFF"/>
														<stop  offset="0.4" style="stop-color:#FFFFFF"/>
														<stop  offset="0.5706" style="stop-color:#A4AAAA"/>
														<stop  offset="0.6257" style="stop-color:#8F9697"/>
														<stop  offset="0.6626" style="stop-color:#878F90"/>
														<stop  offset="0.75" style="stop-color:#969D9D"/>
														<stop  offset="0.81" style="stop-color:#FFFFFF"/>
													</linearGradient>
													<path id="XMLID_28_" fill="url(#XMLID_37_)" d="M251.9,288.6c91.7,0,166.1-38,166.1-84.8s-74.3-84.8-166.1-84.8
														c-91.7,0-166.1,38-166.1,84.8C85.8,250.6,160.2,288.6,251.9,288.6z M283.1,247c-2.7,6.4-7.5,20-18.5,25.4
														c-3.3,1.7-7.5,2.4-11.1,2.5c-0.8,0.1-1.4,0-1.7,0c-30.6,0-59.2-4.3-83.1-11.5c-0.2-0.1-0.7-0.4-0.7-0.4
														c-2.4-0.7-3.5-1.8-3.5-3.1c0-1.1,0.6-1.9,1.3-2.7c0.4-0.4,0.8-0.7,1.5-1.3c5.4-4.6,22.1-16.7,53.4-28.5
														c11-4.1,24.7-9.5,39-12.4C268.5,213.4,299.7,208.7,283.1,247z M367.1,161.5c0.6-1.1,1.4-1.9,2.7-2
														c0.8-0.1,1.8,0.1,3.4,1.1c19.5,12,31.1,26.9,31.1,43.1c0,29.2-37.7,54.4-91.6,65.4c-3.4,0.7-5.8,0.7-6.5-0.2
														c-0.5-0.6-0.7-1.5,0-2.6c0.4-0.6,0.7-1.2,1.4-1.9c29.3-34.5,51.8-85.4,58.1-100.2C366.2,163.2,366.8,162.2,367.1,161.5
														z M221.1,160.4c2.7-6.4,7.5-20,18.5-25.6c3.3-1.7,7.5-2.4,11.1-2.5c0.8,0,1.4,0,1.7,0c30.6,0,59.2,4.3,83.1,11.6
														c0.2,0,0.7,0.2,0.9,0.2c2.2,0.7,3.3,1.8,3.4,3c0,1.1-0.6,1.9-1.4,2.7c-0.4,0.4-0.8,0.8-1.5,1.3
														c-5.6,4.6-22.1,16.6-53.4,28.5c-11,4.3-24.7,9.5-39,12.4C235.9,193.9,204.7,198.6,221.1,160.4z M191.2,138.4
														c3.5-0.7,6.2-0.7,7,0.2c0.5,0.6,0.7,1.4,0,2.6c-0.4,0.6-0.7,1.2-1.4,2c-29.3,34.5-51.7,85.4-58.1,100.1
														c-0.5,1.1-0.9,2-1.3,2.7c-0.7,1.1-1.4,1.9-2.8,1.9c-0.7,0-1.8-0.2-3.4-1.2c-19.4-12-31.5-26.9-31.5-43.1
														C99.5,174.5,137.2,149.3,191.2,138.4z"/>
												</g>
											</g>
										</g>
									</g>
									<path id="XMLID_29_" clip-path="url(#SVGID_15_)" fill="none" d="M251.9,288.6c91.7,0,166.1-38,166.1-84.8
										s-74.3-84.8-166.1-84.8c-91.7,0-166.1,38-166.1,84.8C85.8,250.6,160.2,288.6,251.9,288.6z M283.1,247
										c-2.7,6.4-7.5,20-18.5,25.4c-3.3,1.7-7.5,2.4-11.1,2.5c-0.8,0.1-1.4,0-1.7,0c-30.1,0-58.1-4-81.8-11
										c-1.8-0.5-5.6-1.4-5.6-3.8c0-1.1,0.6-1.9,1.3-2.7c0.4-0.4,0.8-0.7,1.5-1.3c5.4-4.6,22.1-16.6,53.4-28.5
										c11-4.1,24.7-9.5,39-12.4C268.5,213.4,299.7,208.7,283.1,247z M367.1,161.5c0.6-1.1,1.3-1.9,2.7-2c0.8-0.1,1.8,0.1,3.4,1.1
										c19.5,12,31.1,26.9,31.1,43.1c0,29.2-37.7,54.4-91.6,65.4c-3.4,0.7-5.8,0.7-6.5-0.2c-0.5-0.6-0.7-1.5,0-2.6
										c0.4-0.6,0.7-1.2,1.4-1.9c29.3-34.5,51.8-85.4,58.1-100.2C366.2,163.2,366.8,162.2,367.1,161.5z M221.1,160.4
										c2.7-6.4,7.5-20,18.5-25.6c3.3-1.7,7.5-2.4,11.1-2.5c0.8,0,1.4,0,1.7,0c30.2,0,58.2,4.1,81.9,11.1c1.8,0.5,5.6,1.2,5.6,3.7
										c0,1.1-0.6,1.9-1.4,2.7c-0.4,0.4-0.8,0.8-1.5,1.3c-5.6,4.6-22.1,16.6-53.4,28.5c-11,4.3-24.7,9.5-39,12.4
										C235.9,193.9,204.7,198.6,221.1,160.4z M191.2,138.4c3.5-0.7,6.2-0.7,7,0.2c0.5,0.6,0.7,1.4,0,2.6c-0.4,0.6-0.7,1.2-1.4,2
										c-29.3,34.5-51.7,85.4-58.1,100.1c-0.5,1.1-0.9,2-1.3,2.7c-0.7,1.1-1.4,1.9-2.8,2c-0.7,0-1.8-0.1-3.4-1.2
										c-19.5-12-31.5-26.9-31.5-43.1C99.5,174.5,137.2,149.3,191.2,138.4z"/>
								</g>
							</g>
							<g id="XMLID_1_" clip-path="url(#SVGID_9_)">
								<g id="XMLID_32_">
									<defs>
										<polygon id="SVGID_16_" points="-44.6,-44.6 -43.4,-44.6 -44.6,-43.4 										"/>
									</defs>
									<defs>
										<polygon id="SVGID_17_" points="-47,-47 -48.2,-47 -47,-48.2 										"/>
									</defs>
									<clipPath id="SVGID_18_">
										<use xlink:href="#SVGID_16_"  overflow="visible"/>
									</clipPath>
									<clipPath id="SVGID_19_" clip-path="url(#SVGID_18_)">
										<use xlink:href="#SVGID_17_"  overflow="visible"/>
									</clipPath>
									
										<linearGradient id="XMLID_57_" gradientUnits="userSpaceOnUse" x1="440.3992" y1="67.8716" x2="470.8371" y2="186.8604" gradientTransform="matrix(0.5 0 0 -0.5 63 314)">
										<stop  offset="0" style="stop-color:#FFFFFF"/>
										<stop  offset="0.6258" style="stop-color:#FFFFFF"/>
										<stop  offset="0.7331" style="stop-color:#AEAEAE"/>
										<stop  offset="0.8642" style="stop-color:#515151"/>
										<stop  offset="0.9561" style="stop-color:#171717"/>
										<stop  offset="1" style="stop-color:#000000"/>
									</linearGradient>
									<path id="XMLID_51_" clip-path="url(#SVGID_19_)" fill="url(#XMLID_57_)" d="M300.9,264.7c14.6-17.6,31.2-48.4,36.7-58.9
										l-42.8,14.4c0.2,11.8-2.2,37.9-25.8,56c0,0-8.4,2.8-23.9,2.8l-4,6.3c10.4,0.8,39.9,2,82-7.2l0,0l3.8-8.6
										C315.2,273.9,286.7,282.1,300.9,264.7z"/>
								</g>
							</g>
							
								<linearGradient id="XMLID_58_" gradientUnits="userSpaceOnUse" x1="440.3992" y1="67.8716" x2="470.8371" y2="186.8604" gradientTransform="matrix(0.5 0 0 -0.5 63 314)">
								<stop  offset="0" style="stop-color:#FFFFFF"/>
								<stop  offset="0.6258" style="stop-color:#FFFFFF"/>
								<stop  offset="0.6768" style="stop-color:#F1F2F2"/>
								<stop  offset="0.8952" style="stop-color:#B7BDBE"/>
								<stop  offset="1" style="stop-color:#A0A8AA"/>
							</linearGradient>
							<path id="XMLID_52_" fill="url(#XMLID_58_)" d="M300.9,264.7c14.6-17.6,31.2-48.4,36.7-58.9l-42.8,14.4
								c0.2,11.8-2.2,37.9-25.8,56c0,0-8.4,2.8-23.9,2.8l-4,6.3c10.4,0.8,39.9,2,82-7.2l0,0l3.8-8.6
								C315.2,273.9,286.7,282.1,300.9,264.7z"/>
							
								<linearGradient id="XMLID_59_" gradientUnits="userSpaceOnUse" x1="345.9903" y1="231.8135" x2="284.7519" y2="340.941" gradientTransform="matrix(0.5 0 0 -0.5 63 314)">
								<stop  offset="0" style="stop-color:#E5EEED"/>
								<stop  offset="0.2776" style="stop-color:#CFD7D7"/>
								<stop  offset="0.5521" style="stop-color:#B6BCBD"/>
								<stop  offset="1" style="stop-color:#A0A8AA"/>
							</linearGradient>
							<path id="XMLID_50_" fill="url(#XMLID_59_)" d="M247.4,191.4c-0.9,0.2-2,0.5-3,0.7c-4.6,0.9-15.6,2.7-22.5-1.7
								c-5.9-3.8-8.5-12.3-0.8-30.2c2.6-5.9,7-18.5,16.6-24.5l-10.5-8.9c-0.7,0.4-1.3,0.8-1.8,1.3c-4.6,5.9-8.6,12.4-12.3,18.9
								c-3.4,6.3-6.5,12.7-9.1,19.3c-2,5.2-5,13.1-5.7,20.6c-0.8,8.4,1.2,16.2,10.3,18.9c0.6,0.2,1.3,0.4,2.1,0.6
								c5.3,1.3,15.5,2.4,38.6-3.9L247.4,191.4z"/>
							
								<linearGradient id="XMLID_60_" gradientUnits="userSpaceOnUse" x1="399.3328" y1="333.6505" x2="451.0169" y2="259.5375" gradientTransform="matrix(0.5 0 0 -0.5 63 314)">
								<stop  offset="0" style="stop-color:#E5EEED"/>
								<stop  offset="0.2776" style="stop-color:#CFD7D7"/>
								<stop  offset="0.5521" style="stop-color:#B6BCBD"/>
								<stop  offset="1" style="stop-color:#A0A8AA"/>
							</linearGradient>
							<path id="XMLID_49_" fill="url(#XMLID_60_)" d="M356.3,145.3l-16.4,1.8v0.1c0,1.1-0.6,1.9-1.4,2.7c-0.4,0.4-0.8,0.8-1.5,1.3
								c-5.6,4.6-22.1,16.6-53.5,28.5c-7.6,3-16.4,6.3-26,9.1l0,0c-3.3,0.9-6.7,1.9-10.2,2.7c-0.9,0.2-2,0.5-3,0.7
								c-4.3,0.9-14.2,2.5-21.1-0.8l-14.2,14.8c0.6,0.1,1.2,0.4,1.9,0.5c5.3,1.3,15.5,2.4,38.6-3.9c10.4-2.8,23.5-7.1,40-13.6
								c28.2-11,61.1-29.8,66.9-43.1C356.3,145.9,356.4,145.5,356.3,145.3z"/>
							
								<linearGradient id="XMLID_61_" gradientUnits="userSpaceOnUse" x1="187.2918" y1="160.0203" x2="187.2918" y2="329.0482" gradientTransform="matrix(0.5 0 0 -0.5 63 314)">
								<stop  offset="0" style="stop-color:#FFFFFF"/>
								<stop  offset="6.288181e-002" style="stop-color:#F6F7F7"/>
								<stop  offset="0.1635" style="stop-color:#DFE1E1"/>
								<stop  offset="0.2891" style="stop-color:#B9BCBC"/>
								<stop  offset="0.4336" style="stop-color:#858A8A"/>
								<stop  offset="0.5276" style="stop-color:#5F6666"/>
								<stop  offset="0.773" style="stop-color:#4B5050"/>
								<stop  offset="1" style="stop-color:#404444"/>
							</linearGradient>
							<path id="XMLID_48_" fill="url(#XMLID_61_)" d="M134.3,248.1c-0.7,0-1.8-0.2-3.4-1.2c-19.5-12-31.6-27-31.6-43.2
								c0-29.2,37.9-54.4,91.8-65.4c3.5-0.7,6.2-0.7,7,0.2c0.1,0.1,0.2,0.2,0.2,0.4l23.4-11.8c-0.1-0.5-0.7-0.6-1.5-0.6
								c-31.4,3.1-60.1,10.9-83.1,22.5c-29.5,14.9-45.6,34.3-45.6,54.7s16.2,39.8,45.6,54.7c1.3,0.7,2.6,1.3,3.9,1.9
								c0.8,0.4,1.7,0.4,2.2,0.1l-8-12.8C135.1,248,134.8,248,134.3,248.1z"/>
							
								<linearGradient id="XMLID_62_" gradientUnits="userSpaceOnUse" x1="473.3166" y1="124.1795" x2="286.5321" y2="171.9614" gradientTransform="matrix(0.5 0 0 -0.5 63 314)">
								<stop  offset="0" style="stop-color:#8B9394"/>
								<stop  offset="0.1758" style="stop-color:#7A8182"/>
								<stop  offset="0.3399" style="stop-color:#646A6B"/>
								<stop  offset="0.5698" style="stop-color:#404444"/>
								<stop  offset="1" style="stop-color:#333737"/>
							</linearGradient>
							<path id="XMLID_47_" fill="url(#XMLID_62_)" d="M295.3,201.4c-6.5-2-22.4-6-80.7,16.8c-28.2,11-61.1,29.8-66.9,43.1
								c-0.2,0.5-0.2,0.9,0,1.3l16.7-1.9c0-0.1,0-0.2,0-0.5c0-1.1,0.6-1.9,1.3-2.7c0.4-0.4,0.8-0.7,1.5-1.3
								c5.4-4.6,22.2-16.7,53.5-28.5c11-4.1,24.7-9.5,39.2-12.4c8.5-1.8,39.8-6.5,23.2,31.8c-2.7,6.3-7.5,19.6-18,25.3l11.7,8.2
								c0.7-0.4,1.3-0.8,1.7-1.3c4.6-5.9,8.6-12.4,12.3-18.9c3.4-6.3,6.5-12.7,9.1-19.3c2-5.2,5-13.1,5.7-20.6
								C306.4,212,304.5,204.2,295.3,201.4z"/>
							
								<linearGradient id="XMLID_63_" gradientUnits="userSpaceOnUse" x1="170.0172" y1="84.9317" x2="428.1903" y2="84.9317" gradientTransform="matrix(0.5 0 0 -0.5 63 314)">
								<stop  offset="0" style="stop-color:#FFFFFF"/>
								<stop  offset="0.9331" style="stop-color:#FFFFFF"/>
								<stop  offset="1" style="stop-color:#FFFFFF"/>
							</linearGradient>
							<path id="XMLID_46_" fill="url(#XMLID_63_)" d="M264.8,272.6c-3.3,1.7-7.5,2.4-11.1,2.5c-0.8,0.1-1.4,0-1.7,0
								c-30.6,0-59.3-4.3-83.2-11.5c-0.2-0.1-0.7-0.4-0.7-0.4c-2.1-0.7-3.2-1.5-3.4-2.6l-16.7,1.9c0.4,0.7,1.2,1.3,2.4,1.8
								c28.8,11.7,64.2,18.1,101.8,18.1c5.9,0,11.8-0.1,17.7-0.5c3.3-0.2,5.6-0.7,7.2-1.5l-11.7-8.2
								C265,272.4,264.9,272.5,264.8,272.6z"/>
							
								<linearGradient id="XMLID_64_" gradientUnits="userSpaceOnUse" x1="600.2429" y1="303.168" x2="466.5535" y2="96.2925" gradientTransform="matrix(0.5 0 0 -0.5 63 314)">
								<stop  offset="0" style="stop-color:#ABB3B3"/>
								<stop  offset="0.3804" style="stop-color:#727A79"/>
								<stop  offset="0.4174" style="stop-color:#575D5C"/>
								<stop  offset="0.4495" style="stop-color:#464A4A"/>
								<stop  offset="0.4724" style="stop-color:#404444"/>
								<stop  offset="1" style="stop-color:#333737"/>
							</linearGradient>
							<path id="XMLID_45_" fill="url(#XMLID_64_)" d="M306.3,266.3c0.4-0.6,0.7-1.2,1.4-2c29.5-34.5,51.8-85.5,58.2-100.3
								c0.5-0.9,0.9-2,1.4-2.6c0.5-0.8,1.1-1.5,1.9-1.9l-8.5-12.7c-0.5,0.2-0.9,0.6-1.1,1.1c-17.6,37.7-36.4,72.2-59.8,106.4
								c-5.7,8.3-11.7,16.3-17.3,24.8c-0.5,0.7-0.5,1.2-0.1,1.4l23.7-11.8C305.7,268.2,305.7,267.4,306.3,266.3z"/>
							
								<linearGradient id="XMLID_65_" gradientUnits="userSpaceOnUse" x1="555.1641" y1="344.3238" x2="353.4851" y2="371.5049" gradientTransform="matrix(0.5 0 0 -0.5 63 314)">
								<stop  offset="0" style="stop-color:#4B5050"/>
								<stop  offset="0.1082" style="stop-color:#434747"/>
								<stop  offset="0.3852" style="stop-color:#323534"/>
								<stop  offset="0.6758" style="stop-color:#282A2A"/>
								<stop  offset="1" style="stop-color:#252726"/>
							</linearGradient>
							<path id="XMLID_44_" fill="url(#XMLID_65_)" d="M239.6,134.8c3.3-1.7,7.5-2.4,11.1-2.5c0.8,0,1.4,0,1.7,0
								c30.6,0,59.2,4.3,83.2,11.6c0.2,0,0.7,0.2,0.9,0.2c2.1,0.7,3.2,1.7,3.3,2.8l16.4-1.8c-0.2-0.8-1.2-1.5-2.5-2.1
								c-28.8-11.7-64.2-18.1-101.8-18.1c-5.9,0-11.8,0.1-17.7,0.5c-3.2,0.2-5.6,0.7-7.2,1.5l10.5,8.9
								C238.3,135.5,239,135.1,239.6,134.8z"/>
							
								<linearGradient id="XMLID_66_" gradientUnits="userSpaceOnUse" x1="618.255" y1="336.5246" x2="682.157" y2="230.3141" gradientTransform="matrix(0.5 0 0 -0.5 63 314)">
								<stop  offset="0" style="stop-color:#252726"/>
								<stop  offset="6.757436e-002" style="stop-color:#2B2E2D"/>
								<stop  offset="0.3252" style="stop-color:#404444"/>
								<stop  offset="0.4324" style="stop-color:#4A4F4F"/>
								<stop  offset="0.6933" style="stop-color:#5F6666"/>
								<stop  offset="0.7433" style="stop-color:#666D6D"/>
								<stop  offset="0.8172" style="stop-color:#798181"/>
								<stop  offset="0.8712" style="stop-color:#8B9394"/>
								<stop  offset="1" style="stop-color:#A0A8AA"/>
							</linearGradient>
							<path id="XMLID_43_" fill="url(#XMLID_66_)" d="M412.5,203.7c0-20.4-16.2-39.8-45.6-54.7c-1.3-0.7-2.6-1.3-3.9-1.9
								c-0.8-0.4-1.7-0.4-2.2-0.1l8.5,12.7c0.2-0.1,0.5-0.1,0.8-0.1c0.8-0.1,1.8,0.1,3.4,1.1c19.5,12.1,31.1,27,31.1,43.2
								c0,0.6,0,1.2,0,1.7h7.9C412.5,204.9,412.5,204.3,412.5,203.7z"/>
							
								<linearGradient id="XMLID_67_" gradientUnits="userSpaceOnUse" x1="492.0512" y1="68.6977" x2="691.5562" y2="193.3319" gradientTransform="matrix(0.5 0 0 -0.5 63 314)">
								<stop  offset="0" style="stop-color:#FFFFFF"/>
								<stop  offset="0.7669" style="stop-color:#FFFFFF"/>
								<stop  offset="0.8338" style="stop-color:#E8EBEB"/>
								<stop  offset="0.9018" style="stop-color:#CCD4D3"/>
								<stop  offset="0.9599" style="stop-color:#AFB7B8"/>
								<stop  offset="1" style="stop-color:#A0A8AA"/>
							</linearGradient>
							<path id="XMLID_42_" fill="url(#XMLID_67_)" d="M404.5,205.3c-1.4,28.5-38.7,53.1-91.7,63.9c-3.4,0.7-5.8,0.7-6.5-0.2
								c-0.1-0.1-0.1-0.1-0.1-0.2l-23.7,11.8c0.2,0.2,0.7,0.4,1.4,0.4c31.4-3.1,60.1-10.9,83.1-22.5c28.6-14.6,44.7-33.4,45.6-53.1
								C412.6,205.3,404.5,205.3,404.5,205.3z"/>
							<g id="XMLID_5_">
								<g id="XMLID_33_">
									<defs>
										<polygon id="SVGID_20_" points="-44.6,-44.6 -43.4,-44.6 -44.6,-43.4 										"/>
									</defs>
									<defs>
										<polygon id="SVGID_21_" points="-47,-47 -48.2,-47 -47,-48.2 										"/>
									</defs>
									<clipPath id="SVGID_22_">
										<use xlink:href="#SVGID_20_"  overflow="visible"/>
									</clipPath>
									<clipPath id="SVGID_23_" clip-path="url(#SVGID_22_)">
										<use xlink:href="#SVGID_21_"  overflow="visible"/>
									</clipPath>
									
										<linearGradient id="XMLID_68_" gradientUnits="userSpaceOnUse" x1="564.5579" y1="339.3062" x2="565.6985" y2="329.4648" gradientTransform="matrix(0.5 0 0 -0.5 63 314)">
										<stop  offset="0" style="stop-color:#000000"/>
										<stop  offset="5.206703e-002" style="stop-color:#3B3B3B"/>
										<stop  offset="0.1042" style="stop-color:#6F6F6F"/>
										<stop  offset="0.1574" style="stop-color:#9B9B9B"/>
										<stop  offset="0.2105" style="stop-color:#BFBFBF"/>
										<stop  offset="0.2636" style="stop-color:#DBDBDB"/>
										<stop  offset="0.3167" style="stop-color:#EFEFEF"/>
										<stop  offset="0.3699" style="stop-color:#FBFBFB"/>
										<stop  offset="0.4233" style="stop-color:#FFFFFF"/>
										<stop  offset="0.5767" style="stop-color:#FFFFFF"/>
										<stop  offset="0.6128" style="stop-color:#F7F7F7"/>
										<stop  offset="0.6697" style="stop-color:#E0E0E0"/>
										<stop  offset="0.7401" style="stop-color:#BCBCBC"/>
										<stop  offset="0.8213" style="stop-color:#888888"/>
										<stop  offset="0.9107" style="stop-color:#484848"/>
										<stop  offset="1" style="stop-color:#000000"/>
									</linearGradient>
									<path id="XMLID_40_" clip-path="url(#SVGID_23_)" fill="url(#XMLID_68_)" d="M356.3,145.3c-0.2-0.8-1.2-1.5-2.5-2.1
										c-3.9-1.5-7.9-3.1-12-4.5l-7.1,5c0.2,0.1,0.6,0.1,0.8,0.2c0.2,0,0.7,0.2,0.9,0.2c2.1,0.7,3.2,1.7,3.3,2.8v0.1
										c0,1.1-0.6,1.9-1.4,2.7c-0.4,0.4-0.8,0.8-1.5,1.3c-0.5,0.4-0.9,0.7-1.5,1.2l14.1,2.5c3.2-3.1,5.4-5.9,6.6-8.6
										C356.3,145.9,356.4,145.5,356.3,145.3z"/>
								</g>
							</g>
							
								<linearGradient id="XMLID_69_" gradientUnits="userSpaceOnUse" x1="564.5579" y1="339.3062" x2="565.6985" y2="329.4648" gradientTransform="matrix(0.5 0 0 -0.5 63 314)">
								<stop  offset="0" style="stop-color:#4B5050"/>
								<stop  offset="8.346193e-002" style="stop-color:#6D7373"/>
								<stop  offset="0.1678" style="stop-color:#888F8F"/>
								<stop  offset="0.2527" style="stop-color:#9CA3A3"/>
								<stop  offset="0.3378" style="stop-color:#A7AFAF"/>
								<stop  offset="0.4233" style="stop-color:#ABB3B3"/>
								<stop  offset="0.5767" style="stop-color:#ABB3B3"/>
								<stop  offset="0.919" style="stop-color:#A3ABAC"/>
								<stop  offset="1" style="stop-color:#A0A8AA"/>
							</linearGradient>
							<path id="XMLID_41_" fill="url(#XMLID_69_)" d="M356.3,145.3c-0.2-0.8-1.2-1.5-2.5-2.1c-3.9-1.5-7.9-3.1-12-4.5l-7.1,5
								c0.2,0.1,0.6,0.1,0.8,0.2c0.2,0,0.7,0.2,0.9,0.2c2.1,0.7,3.2,1.7,3.3,2.8v0.1c0,1.1-0.6,1.9-1.4,2.7
								c-0.4,0.4-0.8,0.8-1.5,1.3c-0.5,0.4-0.9,0.7-1.5,1.2l14.1,2.5c3.2-3.1,5.4-5.9,6.6-8.6C356.3,145.9,356.4,145.5,356.3,145.3z
								"/>
							<g id="XMLID_7_">
								<g id="XMLID_34_">
									<defs>
										<polygon id="SVGID_24_" points="-44.6,-44.6 -43.4,-44.6 -44.6,-43.4 										"/>
									</defs>
									<defs>
										<polygon id="SVGID_25_" points="-47,-47 -48.2,-47 -47,-48.2 										"/>
									</defs>
									<clipPath id="SVGID_26_">
										<use xlink:href="#SVGID_24_"  overflow="visible"/>
									</clipPath>
									<clipPath id="SVGID_27_" clip-path="url(#SVGID_26_)">
										<use xlink:href="#SVGID_25_"  overflow="visible"/>
									</clipPath>
									
										<linearGradient id="XMLID_70_" gradientUnits="userSpaceOnUse" x1="190.8353" y1="113.9664" x2="192.9627" y2="94.9257" gradientTransform="matrix(0.5 0 0 -0.5 63 314)">
										<stop  offset="0" style="stop-color:#000000"/>
										<stop  offset="5.521470e-002" style="stop-color:#000000"/>
										<stop  offset="0.1516" style="stop-color:#565656"/>
										<stop  offset="0.2406" style="stop-color:#9F9F9F"/>
										<stop  offset="0.3137" style="stop-color:#D3D3D3"/>
										<stop  offset="0.3686" style="stop-color:#F3F3F3"/>
										<stop  offset="0.3988" style="stop-color:#FFFFFF"/>
										<stop  offset="0.4969" style="stop-color:#FFFFFF"/>
										<stop  offset="0.5254" style="stop-color:#EEEEEE"/>
										<stop  offset="0.5815" style="stop-color:#C3C3C3"/>
										<stop  offset="0.6599" style="stop-color:#7D7D7D"/>
										<stop  offset="0.7566" style="stop-color:#1E1E1E"/>
										<stop  offset="0.7853" style="stop-color:#000000"/>
										<stop  offset="1" style="stop-color:#000000"/>
									</linearGradient>
									<path id="XMLID_38_" clip-path="url(#SVGID_27_)" fill="url(#XMLID_70_)" d="M168.8,263.6c-1.4-0.6-3.8-1.2-4.1-3
										c0-0.1,0-0.2,0-0.5c0-1.1,0.6-1.9,1.3-2.7c0.4-0.4,0.8-0.7,1.5-1.3c0.5-0.5,1.1-0.9,1.8-1.4l-13.6-3.2
										c-3.7,3.4-6.4,6.6-7.7,9.7c-0.2,0.5-0.2,0.9,0,1.3c0.4,0.7,1.2,1.3,2.4,1.8c3.5,1.4,7.3,2.8,11.1,4.1l8.6-4.6
										C169.5,263.8,169.2,263.7,168.8,263.6z"/>
								</g>
							</g>
							
								<linearGradient id="XMLID_71_" gradientUnits="userSpaceOnUse" x1="190.8353" y1="113.9664" x2="192.9627" y2="94.9257" gradientTransform="matrix(0.5 0 0 -0.5 63 314)">
								<stop  offset="0" style="stop-color:#333737"/>
								<stop  offset="1.576395e-002" style="stop-color:#494E4E"/>
								<stop  offset="4.114763e-002" style="stop-color:#676E6D"/>
								<stop  offset="5.521470e-002" style="stop-color:#727A79"/>
								<stop  offset="0.2185" style="stop-color:#808888"/>
								<stop  offset="0.3988" style="stop-color:#8B9394"/>
								<stop  offset="0.4757" style="stop-color:#9BA3A4"/>
								<stop  offset="0.4969" style="stop-color:#A0A8AA"/>
								<stop  offset="0.7853" style="stop-color:#ABB3B3"/>
								<stop  offset="0.8536" style="stop-color:#C2C8C8"/>
								<stop  offset="0.9966" style="stop-color:#FDFEFE"/>
								<stop  offset="1" style="stop-color:#FFFFFF"/>
							</linearGradient>
							<path id="XMLID_39_" fill="url(#XMLID_71_)" d="M168.8,263.6c-1.4-0.6-3.8-1.2-4.1-3c0-0.1,0-0.2,0-0.5
								c0-1.1,0.6-1.9,1.3-2.7c0.4-0.4,0.8-0.7,1.5-1.3c0.5-0.5,1.1-0.9,1.8-1.4l-13.6-3.2c-3.7,3.4-6.4,6.6-7.7,9.7
								c-0.2,0.5-0.2,0.9,0,1.3c0.4,0.7,1.2,1.3,2.4,1.8c3.5,1.4,7.3,2.8,11.1,4.1l8.6-4.6C169.5,263.8,169.2,263.7,168.8,263.6z"/>
							<g id="XMLID_8_">
								<g id="XMLID_97_">
									<defs>
										<polygon id="SVGID_28_" points="-44.6,-44.6 -43.4,-44.6 -44.6,-43.4 										"/>
									</defs>
									<defs>
										<polygon id="SVGID_29_" points="-47,-47 -48.2,-47 -47,-48.2 										"/>
									</defs>
									<clipPath id="SVGID_30_">
										<use xlink:href="#SVGID_28_"  overflow="visible"/>
									</clipPath>
									<clipPath id="SVGID_31_" clip-path="url(#SVGID_30_)">
										<use xlink:href="#SVGID_29_"  overflow="visible"/>
									</clipPath>
									
										<linearGradient id="XMLID_72_" gradientUnits="userSpaceOnUse" x1="599.856" y1="312.569" x2="613.1274" y2="320.8885" gradientTransform="matrix(0.5 0 0 -0.5 63 314)">
										<stop  offset="0" style="stop-color:#000000"/>
										<stop  offset="4.148626e-002" style="stop-color:#1E1E1E"/>
										<stop  offset="0.1815" style="stop-color:#7D7D7D"/>
										<stop  offset="0.2949" style="stop-color:#C3C3C3"/>
										<stop  offset="0.376" style="stop-color:#EEEEEE"/>
										<stop  offset="0.4172" style="stop-color:#FFFFFF"/>
										<stop  offset="0.5215" style="stop-color:#FFFFFF"/>
										<stop  offset="0.5702" style="stop-color:#FAFAFA"/>
										<stop  offset="0.6294" style="stop-color:#EBEBEB"/>
										<stop  offset="0.694" style="stop-color:#D2D2D2"/>
										<stop  offset="0.7625" style="stop-color:#B0B0B0"/>
										<stop  offset="0.8341" style="stop-color:#848484"/>
										<stop  offset="0.9082" style="stop-color:#4E4E4E"/>
										<stop  offset="0.983" style="stop-color:#0F0F0F"/>
										<stop  offset="1" style="stop-color:#000000"/>
									</linearGradient>
									<path id="XMLID_99_" clip-path="url(#SVGID_31_)" fill="url(#XMLID_72_)" d="M366.9,149.1c-1.3-0.7-2.6-1.3-3.9-1.9
										c-0.8-0.4-1.7-0.4-2.2-0.1c-0.5,0.2-0.9,0.6-1.1,1.1c-1.4,3.1-2.8,6-4.3,9l10.1,8.5c0.2-0.5,0.5-0.9,0.6-1.4
										c0.5-0.9,0.9-2,1.4-2.6c0.5-0.8,1.1-1.5,1.9-1.9c0.2-0.1,0.5-0.1,0.8-0.1c0.8-0.1,1.8,0.1,3.4,1.1c0.6,0.4,1.3,0.8,1.9,1.2
										l0.8-7.6C373.2,152.4,370.1,150.7,366.9,149.1z"/>
								</g>
							</g>
							
								<linearGradient id="XMLID_73_" gradientUnits="userSpaceOnUse" x1="599.856" y1="312.569" x2="613.1274" y2="320.8885" gradientTransform="matrix(0.5 0 0 -0.5 63 314)">
								<stop  offset="0" style="stop-color:#ABB3B3"/>
								<stop  offset="0.4172" style="stop-color:#A0A8AA"/>
								<stop  offset="0.5215" style="stop-color:#A0A8AA"/>
								<stop  offset="0.5931" style="stop-color:#9BA3A5"/>
								<stop  offset="0.68" style="stop-color:#8D9496"/>
								<stop  offset="0.7748" style="stop-color:#777D7D"/>
								<stop  offset="0.8753" style="stop-color:#575B5B"/>
								<stop  offset="0.9792" style="stop-color:#2E3030"/>
								<stop  offset="1" style="stop-color:#252726"/>
							</linearGradient>
							<path id="XMLID_30_" fill="url(#XMLID_73_)" d="M366.9,149.1c-1.3-0.7-2.6-1.3-3.9-1.9c-0.8-0.4-1.7-0.4-2.2-0.1
								c-0.5,0.2-0.9,0.6-1.1,1.1c-1.4,3.1-2.8,6-4.3,9l10.1,8.5c0.2-0.5,0.5-0.9,0.6-1.4c0.5-0.9,0.9-2,1.4-2.6
								c0.5-0.8,1.1-1.5,1.9-1.9c0.2-0.1,0.5-0.1,0.8-0.1c0.8-0.1,1.8,0.1,3.4,1.1c0.6,0.4,1.3,0.8,1.9,1.2l0.8-7.6
								C373.2,152.4,370.1,150.7,366.9,149.1z"/>
							<g id="XMLID_9_">
								<g id="XMLID_101_">
									<defs>
										<polygon id="SVGID_32_" points="-44.6,-44.6 -43.4,-44.6 -44.6,-43.4 										"/>
									</defs>
									<defs>
										<polygon id="SVGID_33_" points="-47,-47 -48.2,-47 -47,-48.2 										"/>
									</defs>
									<clipPath id="SVGID_34_">
										<use xlink:href="#SVGID_32_"  overflow="visible"/>
									</clipPath>
									<clipPath id="SVGID_35_" clip-path="url(#SVGID_34_)">
										<use xlink:href="#SVGID_33_"  overflow="visible"/>
									</clipPath>
									
										<linearGradient id="XMLID_74_" gradientUnits="userSpaceOnUse" x1="349.8918" y1="371.4771" x2="329.5808" y2="349.7378" gradientTransform="matrix(0.5 0 0 -0.5 63 314)">
										<stop  offset="0" style="stop-color:#000000"/>
										<stop  offset="3.214119e-002" style="stop-color:#1E1E1E"/>
										<stop  offset="0.1109" style="stop-color:#616161"/>
										<stop  offset="0.1857" style="stop-color:#999999"/>
										<stop  offset="0.2543" style="stop-color:#C5C5C5"/>
										<stop  offset="0.3155" style="stop-color:#E5E5E5"/>
										<stop  offset="0.3669" style="stop-color:#F8F8F8"/>
										<stop  offset="0.4026" style="stop-color:#FFFFFF"/>
										<stop  offset="0.4574" style="stop-color:#F1F1F1"/>
										<stop  offset="0.5613" style="stop-color:#CCCCCC"/>
										<stop  offset="0.7031" style="stop-color:#909090"/>
										<stop  offset="0.8754" style="stop-color:#3F3F3F"/>
										<stop  offset="1" style="stop-color:#000000"/>
									</linearGradient>
									<path id="XMLID_103_" clip-path="url(#SVGID_35_)" fill="url(#XMLID_74_)" d="M234.3,125.5c-3.2,0.2-5.6,0.7-7.2,1.5
										c-0.7,0.4-1.3,0.8-1.8,1.3c-2,2.6-3.9,5.2-5.7,7.9l10.1,7.1c2.1-2.8,4.7-5.6,7.8-7.5c0.6-0.4,1.3-0.7,2-1.1
										c2.1-1.1,4.5-1.7,6.9-2.1v-7.7C242.4,125.1,238.4,125.3,234.3,125.5z"/>
								</g>
							</g>
							
								<linearGradient id="XMLID_75_" gradientUnits="userSpaceOnUse" x1="349.8918" y1="371.4771" x2="329.5808" y2="349.7378" gradientTransform="matrix(0.5 0 0 -0.5 63 314)">
								<stop  offset="0" style="stop-color:#252726"/>
								<stop  offset="2.277643e-002" style="stop-color:#2D302F"/>
								<stop  offset="0.1422" style="stop-color:#565B5B"/>
								<stop  offset="0.2495" style="stop-color:#73797A"/>
								<stop  offset="0.3399" style="stop-color:#858C8D"/>
								<stop  offset="0.4026" style="stop-color:#8B9394"/>
								<stop  offset="0.8123" style="stop-color:#98A0A2"/>
								<stop  offset="1" style="stop-color:#A0A8AA"/>
							</linearGradient>
							<path id="XMLID_31_" fill="url(#XMLID_75_)" d="M234.3,125.5c-3.2,0.2-5.6,0.7-7.2,1.5c-0.7,0.4-1.3,0.8-1.8,1.3
								c-2,2.6-3.9,5.2-5.7,7.9l10.1,7.1c2.1-2.8,4.7-5.6,7.8-7.5c0.6-0.4,1.3-0.7,2-1.1c2.1-1.1,4.5-1.7,6.9-2.1v-7.7
								C242.4,125.1,238.4,125.3,234.3,125.5z"/>
							<g id="XMLID_10_">
								<g id="XMLID_105_">
									<defs>
										<polygon id="SVGID_36_" points="-44.6,-44.6 -43.4,-44.6 -44.6,-43.4 										"/>
									</defs>
									<defs>
										<polygon id="SVGID_37_" points="-47,-47 -48.2,-47 -47,-48.2 										"/>
									</defs>
									<clipPath id="SVGID_38_">
										<use xlink:href="#SVGID_36_"  overflow="visible"/>
									</clipPath>
									<clipPath id="SVGID_39_" clip-path="url(#SVGID_38_)">
										<use xlink:href="#SVGID_37_"  overflow="visible"/>
									</clipPath>
									
										<linearGradient id="XMLID_76_" gradientUnits="userSpaceOnUse" x1="421.5759" y1="120.4346" x2="379.9529" y2="63.4301" gradientTransform="matrix(0.5 0 0 -0.5 63 314)">
										<stop  offset="0" style="stop-color:#000000"/>
										<stop  offset="0.515" style="stop-color:#FFFFFF"/>
										<stop  offset="0.5744" style="stop-color:#FBFBFB"/>
										<stop  offset="0.6352" style="stop-color:#EFEFEF"/>
										<stop  offset="0.6964" style="stop-color:#DADADA"/>
										<stop  offset="0.7582" style="stop-color:#BEBEBE"/>
										<stop  offset="0.8202" style="stop-color:#999999"/>
										<stop  offset="0.8826" style="stop-color:#6B6B6B"/>
										<stop  offset="0.9439" style="stop-color:#373737"/>
										<stop  offset="1" style="stop-color:#000000"/>
									</linearGradient>
									<path id="XMLID_107_" clip-path="url(#SVGID_39_)" fill="url(#XMLID_76_)" d="M265.1,272.4c-0.1,0.1-0.2,0.1-0.5,0.2
										c-3.3,1.7-7.5,2.4-11.1,2.5c-0.8,0.1-1.4,0-1.7,0c-5.7,0-11.4-0.2-16.8-0.5l-1.4,7.5c6,0.4,12.2,0.5,18.3,0.5
										c5.9,0,11.8-0.1,17.7-0.5c3.3-0.2,5.6-0.7,7.2-1.5c0.7-0.4,1.3-0.8,1.7-1.3c4.6-5.9,8.6-12.4,12.3-18.9
										c0.4-0.6,0.6-1.2,0.9-1.8l-10.8-6.3C278.2,258.9,273.4,268,265.1,272.4z"/>
								</g>
							</g>
							
								<linearGradient id="XMLID_77_" gradientUnits="userSpaceOnUse" x1="421.5759" y1="120.4346" x2="379.9529" y2="63.4301" gradientTransform="matrix(0.5 0 0 -0.5 63 314)">
								<stop  offset="0" style="stop-color:#828B8A"/>
								<stop  offset="0.515" style="stop-color:#F4FAFC"/>
								<stop  offset="0.8083" style="stop-color:#F8FCFD"/>
								<stop  offset="1" style="stop-color:#FFFFFF"/>
							</linearGradient>
							<path id="XMLID_36_" fill="url(#XMLID_77_)" d="M265.1,272.4c-0.1,0.1-0.2,0.1-0.5,0.2c-3.3,1.7-7.5,2.4-11.1,2.5
								c-0.8,0.1-1.4,0-1.7,0c-5.7,0-11.4-0.2-16.8-0.5l-1.4,7.5c6,0.4,12.2,0.5,18.3,0.5c5.9,0,11.8-0.1,17.7-0.5
								c3.3-0.2,5.6-0.7,7.2-1.5c0.7-0.4,1.3-0.8,1.7-1.3c4.6-5.9,8.6-12.4,12.3-18.9c0.4-0.6,0.6-1.2,0.9-1.8l-10.8-6.3
								C278.2,258.9,273.4,268,265.1,272.4z"/>
							
								<linearGradient id="XMLID_78_" gradientUnits="userSpaceOnUse" x1="179.0836" y1="129.1407" x2="258.2708" y2="316.0852" gradientTransform="matrix(0.5 0 0 -0.5 63 314)">
								<stop  offset="0" style="stop-color:#697070"/>
								<stop  offset="0.5276" style="stop-color:#828B8A"/>
								<stop  offset="1" style="stop-color:#B2BCBC"/>
							</linearGradient>
							<path id="XMLID_100_" fill="url(#XMLID_78_)" d="M198.3,138.9c0.2,0.6,0.2,1.3-0.2,2.2c-0.4,0.6-0.7,1.2-1.4,2
								c-29.5,34.5-51.8,85.5-58.1,100.2c-0.5,1.1-0.9,2-1.3,2.7c-0.5,0.7-0.9,1.3-1.8,1.7l8,12.8c0.5-0.2,0.9-0.6,1.1-1.1
								c17.6-37.7,36.4-72.2,59.8-106.4c5.7-8.3,11.7-16.3,17.3-24.8c0.4-0.5,0.4-0.9,0.2-1.2L198.3,138.9z"/>
							<g id="XMLID_11_">
								<g id="XMLID_112_">
									<defs>
										<polygon id="SVGID_40_" points="-44.6,-44.6 -43.4,-44.6 -44.6,-43.4 										"/>
									</defs>
									<defs>
										<polygon id="SVGID_41_" points="-47,-47 -48.2,-47 -47,-48.2 										"/>
									</defs>
									<clipPath id="SVGID_42_">
										<use xlink:href="#SVGID_40_"  overflow="visible"/>
									</clipPath>
									<clipPath id="SVGID_43_" clip-path="url(#SVGID_42_)">
										<use xlink:href="#SVGID_41_"  overflow="visible"/>
									</clipPath>
									
										<linearGradient id="XMLID_79_" gradientUnits="userSpaceOnUse" x1="158.3919" y1="134.4686" x2="135.1658" y2="117.3504" gradientTransform="matrix(0.5 0 0 -0.5 63 314)">
										<stop  offset="0" style="stop-color:#000000"/>
										<stop  offset="9.819014e-002" style="stop-color:#4A4A4A"/>
										<stop  offset="0.1938" style="stop-color:#8A8A8A"/>
										<stop  offset="0.2798" style="stop-color:#BDBDBD"/>
										<stop  offset="0.3546" style="stop-color:#E1E1E1"/>
										<stop  offset="0.4151" style="stop-color:#F7F7F7"/>
										<stop  offset="0.454" style="stop-color:#FFFFFF"/>
										<stop  offset="0.6348" style="stop-color:#FFFFFF"/>
										<stop  offset="0.6442" style="stop-color:#FFFFFF"/>
										<stop  offset="0.6943" style="stop-color:#FBFBFB"/>
										<stop  offset="0.7398" style="stop-color:#F0F0F0"/>
										<stop  offset="0.7833" style="stop-color:#DEDEDE"/>
										<stop  offset="0.8258" style="stop-color:#C4C4C4"/>
										<stop  offset="0.8675" style="stop-color:#A2A2A2"/>
										<stop  offset="0.9086" style="stop-color:#797979"/>
										<stop  offset="0.9491" style="stop-color:#494949"/>
										<stop  offset="0.9884" style="stop-color:#121212"/>
										<stop  offset="1" style="stop-color:#000000"/>
									</linearGradient>
									<path id="XMLID_113_" clip-path="url(#SVGID_43_)" fill="url(#XMLID_79_)" d="M140.3,239.2c-0.7,1.7-1.3,3-1.8,4.1
										c-0.5,1.1-0.9,2-1.3,2.7c-0.5,0.7-0.9,1.3-1.8,1.7c-0.4,0.1-0.7,0.2-1.1,0.2c-0.7,0-1.8-0.2-3.4-1.2
										c-1.5-0.9-3.1-1.9-4.6-3l0.7,8.9c3.2,2,6.6,3.9,10.2,5.7c1.3,0.7,2.6,1.3,3.9,1.9c0.8,0.4,1.7,0.4,2.2,0.1
										c0.5-0.2,0.9-0.6,1.1-1.1c2.1-4.5,4.3-9,6.4-13.4L140.3,239.2z"/>
								</g>
							</g>
							
								<linearGradient id="XMLID_80_" gradientUnits="userSpaceOnUse" x1="158.3919" y1="134.4686" x2="135.1658" y2="117.3504" gradientTransform="matrix(0.5 0 0 -0.5 63 314)">
								<stop  offset="0" style="stop-color:#697070"/>
								<stop  offset="7.616052e-002" style="stop-color:#8B9191"/>
								<stop  offset="0.2002" style="stop-color:#BDC0C0"/>
								<stop  offset="0.3091" style="stop-color:#E1E2E2"/>
								<stop  offset="0.3974" style="stop-color:#F7F7F7"/>
								<stop  offset="0.454" style="stop-color:#FFFFFF"/>
								<stop  offset="0.6348" style="stop-color:#FFFFFF"/>
								<stop  offset="0.6442" style="stop-color:#FFFFFF"/>
								<stop  offset="0.9824" style="stop-color:#FFFFFF"/>
								<stop  offset="1" style="stop-color:#FFFFFF"/>
							</linearGradient>
							<path id="XMLID_104_" fill="url(#XMLID_80_)" d="M140.3,239.2c-0.7,1.7-1.3,3-1.8,4.1c-0.5,1.1-0.9,2-1.3,2.7
								c-0.5,0.7-0.9,1.3-1.8,1.7c-0.4,0.1-0.7,0.2-1.1,0.2c-0.7,0-1.8-0.2-3.4-1.2c-1.5-0.9-3.1-1.9-4.6-3l0.7,8.9
								c3.2,2,6.6,3.9,10.2,5.7c1.3,0.7,2.6,1.3,3.9,1.9c0.8,0.4,1.7,0.4,2.2,0.1c0.5-0.2,0.9-0.6,1.1-1.1c2.1-4.5,4.3-9,6.4-13.4
								L140.3,239.2z"/>
							<g id="XMLID_12_">
								<g id="XMLID_118_">
									<defs>
										<polygon id="SVGID_44_" points="-44.6,-44.6 -43.4,-44.6 -44.6,-43.4 										"/>
									</defs>
									<defs>
										<polygon id="SVGID_45_" points="-47,-47 -48.2,-47 -47,-48.2 										"/>
									</defs>
									<clipPath id="SVGID_46_">
										<use xlink:href="#SVGID_44_"  overflow="visible"/>
									</clipPath>
									<clipPath id="SVGID_47_" clip-path="url(#SVGID_46_)">
										<use xlink:href="#SVGID_45_"  overflow="visible"/>
									</clipPath>
									
										<linearGradient id="XMLID_81_" gradientUnits="userSpaceOnUse" x1="282.2858" y1="364.8883" x2="289.8447" y2="350.0382" gradientTransform="matrix(0.5 0 0 -0.5 63 314)">
										<stop  offset="0" style="stop-color:#545454"/>
										<stop  offset="7.035666e-002" style="stop-color:#585858"/>
										<stop  offset="0.1428" style="stop-color:#656565"/>
										<stop  offset="0.2162" style="stop-color:#797979"/>
										<stop  offset="0.2904" style="stop-color:#969696"/>
										<stop  offset="0.3651" style="stop-color:#BBBBBB"/>
										<stop  offset="0.4392" style="stop-color:#E8E8E8"/>
										<stop  offset="0.4724" style="stop-color:#FFFFFF"/>
										<stop  offset="0.5706" style="stop-color:#FFFFFF"/>
										<stop  offset="0.611" style="stop-color:#DBDBDB"/>
										<stop  offset="0.7212" style="stop-color:#7E7E7E"/>
										<stop  offset="0.8108" style="stop-color:#3A3A3A"/>
										<stop  offset="0.8751" style="stop-color:#101010"/>
										<stop  offset="0.908" style="stop-color:#000000"/>
									</linearGradient>
									<path id="XMLID_120_" clip-path="url(#SVGID_47_)" fill="url(#XMLID_81_)" d="M221.7,127.2c-0.1-0.5-0.7-0.6-1.5-0.6
										c-9,0.9-17.9,2.2-26.3,3.8l-5.8,8.6c0.9-0.2,2-0.5,3-0.6c3.5-0.7,6.2-0.7,7,0.2c0.1,0.1,0.2,0.2,0.2,0.4
										c0.2,0.6,0.2,1.3-0.2,2.2c-0.4,0.6-0.7,1.2-1.4,2c-0.2,0.2-0.4,0.4-0.5,0.6h14.7c3.7-5.1,7.2-10.2,10.6-15.4
										C221.8,127.9,221.8,127.4,221.7,127.2z"/>
								</g>
							</g>
							
								<linearGradient id="XMLID_82_" gradientUnits="userSpaceOnUse" x1="282.2858" y1="364.8883" x2="289.8447" y2="350.0382" gradientTransform="matrix(0.5 0 0 -0.5 63 314)">
								<stop  offset="0" style="stop-color:#404444"/>
								<stop  offset="0.1607" style="stop-color:#444848"/>
								<stop  offset="0.3258" style="stop-color:#4F5454"/>
								<stop  offset="0.4724" style="stop-color:#5F6666"/>
								<stop  offset="0.522" style="stop-color:#737B7A"/>
								<stop  offset="0.5706" style="stop-color:#828B8A"/>
								<stop  offset="0.7786" style="stop-color:#A3ACAC"/>
								<stop  offset="0.908" style="stop-color:#B2BCBC"/>
							</linearGradient>
							<path id="XMLID_108_" fill="url(#XMLID_82_)" d="M221.7,127.2c-0.1-0.5-0.7-0.6-1.5-0.6c-9,0.9-17.9,2.2-26.3,3.8l-5.8,8.6
								c0.9-0.2,2-0.5,3-0.6c3.5-0.7,6.2-0.7,7,0.2c0.1,0.1,0.2,0.2,0.2,0.4c0.2,0.6,0.2,1.3-0.2,2.2c-0.4,0.6-0.7,1.2-1.4,2
								c-0.2,0.2-0.4,0.4-0.5,0.6h14.7c3.7-5.1,7.2-10.2,10.6-15.4C221.8,127.9,221.8,127.4,221.7,127.2z"/>
							
								<linearGradient id="SVGID_48_" gradientUnits="userSpaceOnUse" x1="366.3864" y1="377.2606" x2="390.2623" y2="48.9947" gradientTransform="matrix(0.5 0 0 -0.5 63 314)">
								<stop  offset="0" style="stop-color:#FFFFFF"/>
								<stop  offset="7.553983e-002" style="stop-color:#F8FAFA"/>
								<stop  offset="0.1828" style="stop-color:#E6ECED"/>
								<stop  offset="0.2638" style="stop-color:#D3DEE0"/>
								<stop  offset="0.2946" style="stop-color:#C9D4D6"/>
								<stop  offset="0.3474" style="stop-color:#AFB9BA"/>
								<stop  offset="0.4159" style="stop-color:#858D8E"/>
								<stop  offset="0.4969" style="stop-color:#4B5050"/>
								<stop  offset="0.6871" style="stop-color:#3E4344"/>
								<stop  offset="0.7344" style="stop-color:#2F3435"/>
								<stop  offset="0.816" style="stop-color:#0D1112"/>
								<stop  offset="1" style="stop-color:#0D1112"/>
							</linearGradient>
							<path fill="url(#SVGID_48_)" d="M251.9,118.9c-91.8,0-166.4,38-166.4,84.8s74.4,85,166.4,85c91.8,0,166.4-38,166.4-85
								C418.3,156.9,343.8,118.9,251.9,118.9z M367,258.9c-30.6,15.6-71.5,24.3-115,24.3s-84.4-8.6-115-24.3
								c-29.5-15-45.7-34.5-45.7-55s16.2-40,45.7-55c30.6-15.6,71.5-24.3,115-24.3s84.4,8.6,115,24.3c29.5,15,45.7,34.5,45.7,55
								S396.5,243.8,367,258.9z"/>
							<g id="XMLID_13_">
								<g id="XMLID_125_">
									<defs>
										<polygon id="SVGID_49_" points="-44.6,-44.6 -43.4,-44.6 -44.6,-43.4 										"/>
									</defs>
									<defs>
										<polygon id="SVGID_50_" points="-47,-47 -48.2,-47 -47,-48.2 										"/>
									</defs>
									<clipPath id="SVGID_51_">
										<use xlink:href="#SVGID_49_"  overflow="visible"/>
									</clipPath>
									<clipPath id="SVGID_52_" clip-path="url(#SVGID_51_)">
										<use xlink:href="#SVGID_50_"  overflow="visible"/>
									</clipPath>
									
										<linearGradient id="XMLID_83_" gradientUnits="userSpaceOnUse" x1="293.0469" y1="273.2643" x2="354.458" y2="217.9696" gradientTransform="matrix(0.5 0 0 -0.5 63 314)">
										<stop  offset="7.000000e-002" style="stop-color:#000000"/>
										<stop  offset="9.702673e-002" style="stop-color:#252525"/>
										<stop  offset="0.1388" style="stop-color:#585858"/>
										<stop  offset="0.1827" style="stop-color:#848484"/>
										<stop  offset="0.2277" style="stop-color:#AAAAAA"/>
										<stop  offset="0.2743" style="stop-color:#C9C9C9"/>
										<stop  offset="0.3228" style="stop-color:#E1E1E1"/>
										<stop  offset="0.3741" style="stop-color:#F2F2F2"/>
										<stop  offset="0.4302" style="stop-color:#FCFCFC"/>
										<stop  offset="0.5" style="stop-color:#FFFFFF"/>
										<stop  offset="0.5712" style="stop-color:#FCFCFC"/>
										<stop  offset="0.6284" style="stop-color:#F2F2F2"/>
										<stop  offset="0.6808" style="stop-color:#E1E1E1"/>
										<stop  offset="0.7303" style="stop-color:#C9C9C9"/>
										<stop  offset="0.7777" style="stop-color:#AAAAAA"/>
										<stop  offset="0.8237" style="stop-color:#848484"/>
										<stop  offset="0.8684" style="stop-color:#585858"/>
										<stop  offset="0.9111" style="stop-color:#252525"/>
										<stop  offset="0.9387" style="stop-color:#000000"/>
									</linearGradient>
									<path id="XMLID_126_" clip-path="url(#SVGID_52_)" fill="url(#XMLID_83_)" d="M247.4,191.4c-0.9,0.2-2,0.5-3,0.7
										c-4.6,0.9-15.6,2.7-22.5-1.7c-4-2.6-6.5-7.5-5.2-15.9l-17.3,6.3c-0.5,2.1-0.8,4.3-1.1,6.4c-0.8,8.4,1.2,16.2,10.3,18.9
										c0.6,0.2,1.3,0.4,2.1,0.6c5.3,1.3,15.6,2.4,38.6-3.9c2.4-0.6,5-1.4,7.6-2.1l0.6-11.8C254.3,189.8,250.8,190.7,247.4,191.4z
										"/>
								</g>
							</g>
							
								<linearGradient id="XMLID_84_" gradientUnits="userSpaceOnUse" x1="293.0469" y1="273.2643" x2="354.458" y2="217.9696" gradientTransform="matrix(0.5 0 0 -0.5 63 314)">
								<stop  offset="7.000000e-002" style="stop-color:#B6BCBD"/>
								<stop  offset="0.1214" style="stop-color:#C9CECE"/>
								<stop  offset="0.2023" style="stop-color:#E1E3E4"/>
								<stop  offset="0.2885" style="stop-color:#F2F3F3"/>
								<stop  offset="0.3827" style="stop-color:#FCFCFC"/>
								<stop  offset="0.5" style="stop-color:#FFFFFF"/>
								<stop  offset="0.6129" style="stop-color:#FCFCFC"/>
								<stop  offset="0.7036" style="stop-color:#F2F3F3"/>
								<stop  offset="0.7865" style="stop-color:#E1E4E4"/>
								<stop  offset="0.8644" style="stop-color:#C9CECE"/>
								<stop  offset="0.9387" style="stop-color:#ABB3B3"/>
							</linearGradient>
							<path id="XMLID_109_" fill="url(#XMLID_84_)" d="M247.4,191.4c-0.9,0.2-2,0.5-3,0.7c-4.6,0.9-15.6,2.7-22.5-1.7
								c-4-2.6-6.5-7.5-5.2-15.9l-17.3,6.3c-0.5,2.1-0.8,4.3-1.1,6.4c-0.8,8.4,1.2,16.2,10.3,18.9c0.6,0.2,1.3,0.4,2.1,0.6
								c5.3,1.3,15.6,2.4,38.6-3.9c2.4-0.6,5-1.4,7.6-2.1l0.6-11.8C254.3,189.8,250.8,190.7,247.4,191.4z"/>
							<g id="XMLID_14_">
								<g id="XMLID_129_">
									<defs>
										<polygon id="SVGID_53_" points="-44.6,-44.6 -43.4,-44.6 -44.6,-43.4 										"/>
									</defs>
									<defs>
										<polygon id="SVGID_54_" points="-47,-47 -48.2,-47 -47,-48.2 										"/>
									</defs>
									<clipPath id="SVGID_55_">
										<use xlink:href="#SVGID_53_"  overflow="visible"/>
									</clipPath>
									<clipPath id="SVGID_56_" clip-path="url(#SVGID_55_)">
										<use xlink:href="#SVGID_54_"  overflow="visible"/>
									</clipPath>
									
										<linearGradient id="XMLID_85_" gradientUnits="userSpaceOnUse" x1="446.8836" y1="155.1922" x2="390.2987" y2="227.6253" gradientTransform="matrix(0.5 0 0 -0.5 63 314)">
										<stop  offset="0" style="stop-color:#000000"/>
										<stop  offset="0.1227" style="stop-color:#FFFFFF"/>
										<stop  offset="0.4417" style="stop-color:#FFFFFF"/>
										<stop  offset="0.7117" style="stop-color:#FFFFFF"/>
										<stop  offset="1" style="stop-color:#000000"/>
									</linearGradient>
									<path id="XMLID_134_" clip-path="url(#SVGID_56_)" fill="url(#XMLID_85_)" d="M305.6,220.4c0.8-8.4-1.2-16.2-10.3-18.9
										c-5.7-1.8-18.6-5.1-60.9,9.6l1.3,11.2c7.6-2.6,15.9-5.2,24.4-7c8-1.7,36.2-6,25.6,25.7l15.6-3.2
										C303,232.7,305,226.5,305.6,220.4z"/>
								</g>
							</g>
							
								<linearGradient id="XMLID_86_" gradientUnits="userSpaceOnUse" x1="446.8836" y1="155.1922" x2="390.2987" y2="227.6253" gradientTransform="matrix(0.5 0 0 -0.5 63 314)">
								<stop  offset="0" style="stop-color:#828B8A"/>
								<stop  offset="0.1227" style="stop-color:#7A8182"/>
								<stop  offset="0.1742" style="stop-color:#6B7272"/>
								<stop  offset="0.2759" style="stop-color:#545959"/>
								<stop  offset="0.3681" style="stop-color:#454949"/>
								<stop  offset="0.4417" style="stop-color:#404444"/>
								<stop  offset="0.7117" style="stop-color:#404444"/>
								<stop  offset="1" style="stop-color:#333737"/>
							</linearGradient>
							<path id="XMLID_122_" fill="url(#XMLID_86_)" d="M305.6,220.4c0.8-8.4-1.2-16.2-10.3-18.9c-5.7-1.8-18.6-5.1-60.9,9.6
								l1.3,11.2c7.6-2.6,15.9-5.2,24.4-7c8-1.7,36.2-6,25.6,25.7l15.6-3.2C303,232.7,305,226.5,305.6,220.4z"/>
							<g id="XMLID_16_">
								<g id="XMLID_136_">
									<defs>
										<polygon id="SVGID_57_" points="-44.6,-44.6 -43.4,-44.6 -44.6,-43.4 										"/>
									</defs>
									<defs>
										<polygon id="SVGID_58_" points="-47,-47 -48.2,-47 -47,-48.2 										"/>
									</defs>
									<clipPath id="SVGID_59_">
										<use xlink:href="#SVGID_57_"  overflow="visible"/>
									</clipPath>
									<clipPath id="SVGID_60_" clip-path="url(#SVGID_59_)">
										<use xlink:href="#SVGID_58_"  overflow="visible"/>
									</clipPath>
									
										<linearGradient id="XMLID_87_" gradientUnits="userSpaceOnUse" x1="455.7164" y1="208.9052" x2="466.0263" y2="194.7306" gradientTransform="matrix(0.5 0 0 -0.5 63 314)">
										<stop  offset="0" style="stop-color:#000000"/>
										<stop  offset="6.620526e-002" style="stop-color:#101010"/>
										<stop  offset="0.1558" style="stop-color:#1D1D1D"/>
										<stop  offset="0.2726" style="stop-color:#242424"/>
										<stop  offset="0.5153" style="stop-color:#262626"/>
										<stop  offset="0.7248" style="stop-color:#242424"/>
										<stop  offset="0.8428" style="stop-color:#1C1C1C"/>
										<stop  offset="0.9379" style="stop-color:#0E0E0E"/>
										<stop  offset="1" style="stop-color:#000000"/>
									</linearGradient>
									<path id="XMLID_142_" clip-path="url(#SVGID_60_)" fill="url(#XMLID_87_)" d="M299.3,203.1l-17.9,13.1
										c2.6,1.4,4.7,3.5,5.8,6.9l17.6-13.1C303.8,207.4,302.1,204.9,299.3,203.1z"/>
								</g>
							</g>
							
								<linearGradient id="XMLID_89_" gradientUnits="userSpaceOnUse" x1="455.7164" y1="208.9052" x2="466.0263" y2="194.7306" gradientTransform="matrix(0.5 0 0 -0.5 63 314)">
								<stop  offset="0" style="stop-color:#3E4344"/>
								<stop  offset="1.703689e-002" style="stop-color:#555A5A"/>
								<stop  offset="5.070707e-002" style="stop-color:#7D8081"/>
								<stop  offset="8.774588e-002" style="stop-color:#A0A3A3"/>
								<stop  offset="0.1278" style="stop-color:#BEBFC0"/>
								<stop  offset="0.1719" style="stop-color:#D6D7D7"/>
								<stop  offset="0.2217" style="stop-color:#E8E9E9"/>
								<stop  offset="0.2804" style="stop-color:#F5F6F6"/>
								<stop  offset="0.3568" style="stop-color:#FDFDFD"/>
								<stop  offset="0.5153" style="stop-color:#FFFFFF"/>
								<stop  offset="0.6539" style="stop-color:#FDFDFD"/>
								<stop  offset="0.732" style="stop-color:#F4F5F5"/>
								<stop  offset="0.7951" style="stop-color:#E7E8E8"/>
								<stop  offset="0.8502" style="stop-color:#D3D5D5"/>
								<stop  offset="0.9001" style="stop-color:#B9BDBD"/>
								<stop  offset="0.9462" style="stop-color:#9A9F9F"/>
								<stop  offset="0.9885" style="stop-color:#757C7C"/>
								<stop  offset="1" style="stop-color:#6A7171"/>
							</linearGradient>
							<path id="XMLID_124_" fill="url(#XMLID_89_)" d="M299.3,203.1l-17.9,13.1c2.6,1.4,4.7,3.5,5.8,6.9l17.6-13.1
								C303.8,207.4,302.1,204.9,299.3,203.1z"/>
							<g id="XMLID_18_">
								<g id="XMLID_144_">
									<defs>
										<polygon id="SVGID_61_" points="-44.6,-44.6 -43.4,-44.6 -44.6,-43.4 										"/>
									</defs>
									<defs>
										<polygon id="SVGID_62_" points="-47,-47 -48.2,-47 -47,-48.2 										"/>
									</defs>
									<clipPath id="SVGID_63_">
										<use xlink:href="#SVGID_61_"  overflow="visible"/>
									</clipPath>
									<clipPath id="SVGID_64_" clip-path="url(#SVGID_63_)">
										<use xlink:href="#SVGID_62_"  overflow="visible"/>
									</clipPath>
									
										<linearGradient id="XMLID_90_" gradientUnits="userSpaceOnUse" x1="468.3757" y1="87.5127" x2="474.5302" y2="74.9119" gradientTransform="matrix(0.5 0 0 -0.5 63 314)">
										<stop  offset="0" style="stop-color:#333333"/>
										<stop  offset="7.861996e-002" style="stop-color:#6F6F6F"/>
										<stop  offset="0.1563" style="stop-color:#A2A2A2"/>
										<stop  offset="0.2286" style="stop-color:#CACACA"/>
										<stop  offset="0.2943" style="stop-color:#E7E7E7"/>
										<stop  offset="0.3512" style="stop-color:#F9F9F9"/>
										<stop  offset="0.3929" style="stop-color:#FFFFFF"/>
										<stop  offset="0.4391" style="stop-color:#FBFBFB"/>
										<stop  offset="0.4853" style="stop-color:#EFEFEF"/>
										<stop  offset="0.5315" style="stop-color:#DBDBDB"/>
										<stop  offset="0.5777" style="stop-color:#BFBFBF"/>
										<stop  offset="0.624" style="stop-color:#9B9B9B"/>
										<stop  offset="0.6703" style="stop-color:#6E6E6E"/>
										<stop  offset="0.7158" style="stop-color:#3B3B3B"/>
										<stop  offset="0.7607" style="stop-color:#000000"/>
									</linearGradient>
									<path id="XMLID_146_" clip-path="url(#SVGID_64_)" fill="url(#XMLID_90_)" d="M312.8,269.2c-3.4,0.7-5.8,0.7-6.5-0.2
										c-0.1-0.1-0.1-0.1-0.1-0.2c-0.4-0.6-0.5-1.4,0.1-2.5c0.4-0.6,0.7-1.2,1.4-2c1.1-1.3,2.2-2.6,3.3-4l-14.1-1.9
										c-4.9,6.9-9.8,13.6-14.3,20.6c-0.5,0.7-0.5,1.2-0.1,1.4c0.2,0.2,0.7,0.4,1.4,0.4c11-1.1,21.7-2.8,31.9-5v-7.3
										C314.8,268.8,313.9,269,312.8,269.2z"/>
								</g>
							</g>
							
								<linearGradient id="XMLID_91_" gradientUnits="userSpaceOnUse" x1="468.3757" y1="87.5127" x2="474.5302" y2="74.9119" gradientTransform="matrix(0.5 0 0 -0.5 63 314)">
								<stop  offset="0" style="stop-color:#333737"/>
								<stop  offset="5.703180e-002" style="stop-color:#5A5F5E"/>
								<stop  offset="0.1393" style="stop-color:#8B9191"/>
								<stop  offset="0.2168" style="stop-color:#B2BAB9"/>
								<stop  offset="0.2872" style="stop-color:#CED6D5"/>
								<stop  offset="0.3482" style="stop-color:#DFE8E7"/>
								<stop  offset="0.3929" style="stop-color:#E5EEED"/>
								<stop  offset="0.5373" style="stop-color:#E9F1F0"/>
								<stop  offset="0.6811" style="stop-color:#F5F8F8"/>
								<stop  offset="0.7607" style="stop-color:#FFFFFF"/>
							</linearGradient>
							<path id="XMLID_128_" fill="url(#XMLID_91_)" d="M312.8,269.2c-3.4,0.7-5.8,0.7-6.5-0.2c-0.1-0.1-0.1-0.1-0.1-0.2
								c-0.4-0.6-0.5-1.4,0.1-2.5c0.4-0.6,0.7-1.2,1.4-2c1.1-1.3,2.2-2.6,3.3-4l-14.1-1.9c-4.9,6.9-9.8,13.6-14.3,20.6
								c-0.5,0.7-0.5,1.2-0.1,1.4c0.2,0.2,0.7,0.4,1.4,0.4c11-1.1,21.7-2.8,31.9-5v-7.3C314.8,268.8,313.9,269,312.8,269.2z"/>
							<path id="XMLID_135_" fill="none" d="M191.1,138.3c-54,10.9-91.8,36.2-91.8,65.4c0,16.2,12.1,31.1,31.6,43.2
								c1.7,0.9,2.7,1.2,3.4,1.2c1.4-0.1,2.1-0.9,2.8-2c0.4-0.6,0.8-1.7,1.3-2.7c6.4-14.7,28.8-65.7,58.1-100.2
								c0.7-0.8,1.1-1.4,1.4-2c0.7-1.2,0.5-2,0-2.6C197.2,137.6,194.6,137.6,191.1,138.3z"/>
							<path id="XMLID_143_" fill="none" d="M336.5,144.1c-0.1-0.1-0.7-0.2-0.9-0.2c-23.9-7.3-52.4-11.6-83.2-11.6
								c-0.2,0-0.8,0-1.7,0c-3.7,0.1-7.8,0.8-11.1,2.5c-11,5.4-15.7,19.2-18.5,25.6c-16.6,38.3,14.8,33.6,23.2,31.8
								c14.3-3.1,28.2-8.2,39.2-12.4c31.2-12,47.9-23.9,53.5-28.5c0.7-0.5,1.2-0.9,1.5-1.3c0.8-0.8,1.4-1.7,1.4-2.7
								C339.8,145.9,338.7,144.8,336.5,144.1z"/>
							
								<linearGradient id="XMLID_92_" gradientUnits="userSpaceOnUse" x1="424.0043" y1="258.8316" x2="440.4386" y2="385.0884" gradientTransform="matrix(0.5 0 0 -0.5 63 314)">
								<stop  offset="0" style="stop-color:#FFFFFF"/>
								<stop  offset="0.248" style="stop-color:#F2F6F6"/>
								<stop  offset="0.572" style="stop-color:#E8F0EF"/>
								<stop  offset="1" style="stop-color:#E5EEED"/>
							</linearGradient>
							<path id="XMLID_147_" fill="url(#XMLID_92_)" d="M219.9,208.2L219.9,208.2c-6.2,0-9.6-1.1-11.4-1.7c-8-2.5-11.7-9-10.6-19.4
								c0.7-7,3.3-14.3,5.7-20.7c2.5-6.4,5.4-12.7,9.1-19.4c4.4-7.8,8.3-13.8,12.3-19c1.5-1.9,4.4-2.7,9.2-3.1
								c5.9-0.4,12-0.5,17.7-0.5c37.6,0,72.9,6.3,102,18.2c0.8,0.4,3.5,1.7,2.6,3.8c-5.8,13.4-38.9,32.3-67.1,43.3
								C258.3,202,235,208.2,219.9,208.2z M252,125.5c-5.8,0-11.7,0.1-17.6,0.5c-4.6,0.2-7.2,1.1-8.5,2.7c-4,5.1-7.8,11.1-12.2,18.9
								c-3.7,6.6-6.6,12.9-9.1,19.3c-1.5,4.1-4.9,12.7-5.7,20.5c-0.9,9.9,2.4,16.1,9.9,18.5c1.8,0.6,5.2,1.5,11.1,1.5
								c14.8,0,38.1-6.2,69.2-18.5c28-10.9,60.8-29.6,66.5-42.7c0.2-0.6,0.2-1.4-2.1-2.5C324.7,131.7,289.5,125.5,252,125.5z"/>
							
								<linearGradient id="XMLID_98_" gradientUnits="userSpaceOnUse" x1="316.9475" y1="370.6182" x2="173.9563" y2="138.9095" gradientTransform="matrix(0.5 0 0 -0.5 63 314)">
								<stop  offset="0" style="stop-color:#FFFFFF"/>
								<stop  offset="0.1338" style="stop-color:#FCFCFC"/>
								<stop  offset="0.2307" style="stop-color:#F3F4F4"/>
								<stop  offset="0.316" style="stop-color:#E3E5E5"/>
								<stop  offset="0.3947" style="stop-color:#CDD0D0"/>
								<stop  offset="0.4681" style="stop-color:#B0B5B5"/>
								<stop  offset="0.5215" style="stop-color:#969D9D"/>
								<stop  offset="1" style="stop-color:#8B9394"/>
							</linearGradient>
							<path id="XMLID_151_" fill="url(#XMLID_98_)" d="M211.1,142.6c-2.4,3.3-4.9,6.9-7.2,10.3c-21.1,31-39.4,63.3-57.5,101.5
								l0.8,0.4c18-38.1,36.3-70.5,57.4-101.4c2.4-3.4,4.9-7,7.2-10.3c2.4-3.3,4.9-6.7,7.1-10.2l-1.1-0.1
								C215.7,136.1,213.3,139.4,211.1,142.6z"/>
							
								<linearGradient id="XMLID_102_" gradientUnits="userSpaceOnUse" x1="590.4077" y1="318.2541" x2="449.448" y2="79.1973" gradientTransform="matrix(0.5 0 0 -0.5 63 314)">
								<stop  offset="0" style="stop-color:#D7E0E0"/>
								<stop  offset="4.353862e-002" style="stop-color:#C5CDCE"/>
								<stop  offset="0.101" style="stop-color:#B4BCBE"/>
								<stop  offset="0.1727" style="stop-color:#A9B1B2"/>
								<stop  offset="0.2732" style="stop-color:#A2AAAC"/>
								<stop  offset="0.5521" style="stop-color:#A0A8AA"/>
								<stop  offset="0.9367" style="stop-color:#A0A8AA"/>
								<stop  offset="1" style="stop-color:#A0A8AA"/>
							</linearGradient>
							<path id="XMLID_152_" fill="url(#XMLID_102_)" d="M292.9,265c2.4-3.4,4.9-6.9,7.2-10.3c20.8-30.6,39-62.7,57-100.5l-1.1-0.1
								c-17.9,37.6-36,69.6-56.8,100.1c-2.4,3.4-4.9,7-7.2,10.3c-2.1,3.1-4.4,6.2-6.5,9.2h1.2C288.9,270.8,290.9,267.9,292.9,265z"
								/>
							
								<linearGradient id="XMLID_106_" gradientUnits="userSpaceOnUse" x1="168.4393" y1="145.5113" x2="472.9618" y2="145.5113" gradientTransform="matrix(0.5 0 0 -0.5 63 314)">
								<stop  offset="0" style="stop-color:#8B9394"/>
								<stop  offset="0.2393" style="stop-color:#8B9394"/>
								<stop  offset="0.3579" style="stop-color:#858C8D"/>
								<stop  offset="0.5264" style="stop-color:#737A7B"/>
								<stop  offset="0.5951" style="stop-color:#6A7171"/>
								<stop  offset="1" style="stop-color:#A0A8AA"/>
							</linearGradient>
							<path id="XMLID_153_" fill="url(#XMLID_106_)" d="M252,283.1c-37.6,0-72.9-6.3-102-18.2c-0.8-0.4-3.5-1.7-2.6-3.8
								c5.8-13.4,38.9-32.3,67.1-43.3c31.2-12.3,54.5-18.5,69.6-18.5c6.2,0,9.6,1.1,11.4,1.7c8,2.5,11.7,9,10.6,19.5
								c-0.7,7-3.3,14.4-5.7,20.7s-5.4,12.8-9.1,19.3c-4.4,7.8-8.3,13.8-12.3,19c-1.5,1.9-4.4,2.7-9.2,3.1
								C263.8,282.9,257.9,283.1,252,283.1z M284.1,200.4c-14.8,0-38.1,6.2-69.2,18.3c-28,10.9-60.8,29.6-66.5,42.7
								c-0.2,0.6-0.2,1.4,2.1,2.5c28.9,11.8,64,18.1,101.6,18.1c5.9,0,11.8-0.1,17.6-0.5c4.6-0.2,7.2-1.1,8.5-2.7
								c4-5.1,7.8-11.1,12.2-18.9c3.7-6.5,6.7-13,9.1-19.2c2.4-6.3,5-13.5,5.6-20.5c0.9-9.9-2.4-16.1-9.9-18.5
								C293.4,201.4,290,200.4,284.1,200.4z"/>
							
								<linearGradient id="XMLID_110_" gradientUnits="userSpaceOnUse" x1="207.0777" y1="352.067" x2="120.9496" y2="140.9114" gradientTransform="matrix(0.5 0 0 -0.5 63 314)">
								<stop  offset="0" style="stop-color:#FFFFFF"/>
								<stop  offset="0.2377" style="stop-color:#F8FAFA"/>
								<stop  offset="0.5752" style="stop-color:#E6EBEB"/>
								<stop  offset="0.7791" style="stop-color:#D7E0E0"/>
								<stop  offset="1" style="stop-color:#8B9394"/>
							</linearGradient>
							<path id="XMLID_156_" fill="url(#XMLID_110_)" d="M222.2,126.8c-0.2-0.4-0.7-0.8-1.8-0.8h-0.1c-31.6,3.2-60.3,11-83.2,22.6
								c-29.6,15-45.9,34.5-45.9,55.1s16.3,40.1,45.9,55.1c1.3,0.7,2.6,1.3,3.9,1.9c0.5,0.2,1.1,0.4,1.5,0.4c1.1,0,2-0.6,2.5-1.5
								c0.8-1.7,1.5-3.3,2.4-5l-0.8-0.4c-0.8,1.7-1.5,3.3-2.4,5c-0.4,0.8-1.5,1.2-2.7,0.6c-1.3-0.6-2.6-1.3-3.9-1.9
								c-29.2-14.8-45.3-34.1-45.3-54.3c0-20.1,16.1-39.4,45.3-54.3c22.7-11.6,51.5-19.3,82.9-22.5c0.6,0,0.8,0.1,0.9,0.2
								c0.1,0.1,0,0.5-0.2,0.8c-1.1,1.5-2,3.1-3.1,4.7l1.1,0.1c0.9-1.4,1.9-2.8,2.8-4.3C222.4,127.8,222.3,127.2,222.2,126.8z"/>
							
								<linearGradient id="XMLID_111_" gradientUnits="userSpaceOnUse" x1="655.6089" y1="297.229" x2="531.9136" y2="64.4763" gradientTransform="matrix(0.5 0 0 -0.5 63 314)">
								<stop  offset="0" style="stop-color:#D7E0E0"/>
								<stop  offset="0.1641" style="stop-color:#D1DAD9"/>
								<stop  offset="0.2552" style="stop-color:#CCD4D3"/>
								<stop  offset="1" style="stop-color:#A0A8AA"/>
							</linearGradient>
							<path id="XMLID_157_" fill="url(#XMLID_111_)" d="M367.1,148.7c-1.3-0.7-2.6-1.3-3.9-1.9c-1.7-0.7-3.4-0.2-4,1.2
								c-0.9,2.1-1.9,4.1-3,6.2l1.1,0.1c0.9-1.9,1.9-3.9,2.8-5.9c0.2-0.6,0.8-0.9,1.5-0.9c0.4,0,0.7,0.1,1.2,0.2
								c1.3,0.6,2.6,1.3,3.9,1.9c29.2,14.8,45.3,34.1,45.3,54.3c0,20.1-16.1,39.4-45.3,54.3c-22.7,11.5-51.2,19.3-82.5,22.5
								c-0.7,0.1-1.9,0-1.2-1.1c1.3-1.9,2.6-3.9,3.9-5.8h-1.2c-1.2,1.8-2.4,3.4-3.5,5.2c-0.6,0.8-0.5,1.4-0.2,1.8
								c0.5,0.9,1.8,0.8,2.6,0.7c31.4-3.2,59.9-11,82.6-22.5c29.6-15,45.9-34.5,45.9-55.1C412.9,183.3,396.7,163.7,367.1,148.7z"/>
						</g>
					</g>
				</g>
			</g>
		</g>
	</g>
</g>
<rect x="34.8" y="34.8" display="none" fill="none" stroke="#B3B3B3" stroke-miterlimit="10" width="430.5" height="430.5"/>
</svg>
