<?xml version="1.0" encoding="utf-8"?>
<!-- Generator: Adobe Illustrator 18.0.0, SVG Export Plug-In . SVG Version: 6.00 Build 0)  -->
<!DOCTYPE svg PUBLIC "-//W3C//DTD SVG 1.1//EN" "http://www.w3.org/Graphics/SVG/1.1/DTD/svg11.dtd">
<svg version="1.1" id="Layer_1" xmlns="http://www.w3.org/2000/svg" xmlns:xlink="http://www.w3.org/1999/xlink" x="0px" y="0px"
	 viewBox="0 0 250 250" enable-background="new 0 0 250 250" xml:space="preserve">
<rect x="17.4" y="17.4" display="none" fill="none" stroke="#B3B3B3" stroke-miterlimit="10" width="215.3" height="215.3"/>
<g>
	<g>
		<path fill="#004B93" d="M18.6,146.8h13c1.1,0,2.2-0.9,2.2-2.2v-38.8c0-1.2-0.9-2.2-2.2-2.2H18.6c-1.2,0-2.2,0.9-2.2,2.2v38.9
			C16.4,146.2,17.8,146.8,18.6,146.8"/>
		<path fill="#004B93" d="M41.8,106.7l9.1,33.8c0.6,2.3,2.2,3.9,3.5,4.8c1.5,1,3,1.4,5.5,1.4h10.1c4.3,0,7.5-2.6,8.7-7.2l8.2-32.8
			c0.1-0.3,0.1-0.6,0.1-1c0-1.4-1-2.3-2.2-2.3h-7.5c-0.4,0-1.7,0.1-2.1,1.7l-6.5,28.4c-0.2,1-0.7,1.2-1.2,1.2c-0.4,0-0.9-0.3-1-0.9
			l-6.9-28.2c-0.2-1.4-1.1-2.1-2.2-2.1H43.8c-1.7,0-2.3,1.5-2.2,2.5C41.6,106.2,41.8,106.4,41.8,106.7"/>
		<path fill="#004B93" d="M111.7,120.2v-3.7c0-1.4,1-2.2,2.2-2.2h15.4c0.9,0,2.2-0.7,2.2-2.2v-6.3c0-1.3-1-2.2-2.2-2.2H103
			c-4.2,0-8.6,3.3-8.6,9.3v25.2c0,5.5,4.6,8.7,8.5,8.7h26.5c1.1,0,2.2-0.8,2.2-2.4v-6.3c0-1.2-0.9-2.2-2.2-2.2h-15.4
			c-1.4,0-2.4-0.8-2.4-2.2v-3.6h13.5c1,0,2.1-0.8,2.1-2.2v-5.5c0-1.1-0.9-2.1-2.2-2.1L111.7,120.2L111.7,120.2z"/>
	</g>
	<path fill="#004B93" d="M161.6,114.2c2.2-0.1,4.4-0.2,6.7-0.2c1.7,0,3.3,0,5,0.1c1.2,0,2.2-1,2.2-2.2v0l0-6.9c0-1.1-0.9-2.1-2-2.2
		c-2.6-0.2-5.4-0.2-8.1-0.2c-3.8,0-7.5,0.2-11.2,0.6h0.2c-8,0.6-14.4,6.5-15.9,14.2c-0.4,2.4-0.7,4.9-0.7,7.4c0,2.4,0.2,4.8,0.5,7
		c1.2,7.6,7.2,13.5,14.8,14.7l-0.2,0c3.5,0.5,7.2,0.8,10.9,0.9c3.4,0.1,6.7-0.1,10-0.4c1.1-0.1,2-1,2-2.1v0.1v-6.9
		c0-1.2-1-2.2-2.2-2.2h-0.1c-2.2,0.1-4.3,0.1-6.6,0.1c-1.8,0-3.7-0.1-5.5-0.2c-2.8-0.3-5-2.6-5.3-5.4c-0.2-2.1-0.4-4.2-0.4-6.3
		c0-1.3,0-2.6,0.1-3.9C155.9,117.1,158.4,114.5,161.6,114.2"/>
	<path fill="#004B93" d="M232,114.6c-2.1-6.2-7.7-10.9-14.4-11.6c-3.1-0.3-6.2-0.5-9.8-0.5c-3.7,0-6.9,0.1-10.5,0.5
		c-6.9,0.9-12.6,6-14.5,12.6c-0.9,3-1.3,6.1-1.3,9.4c0,3.6,0.5,7,1.6,10.3c2.1,6.3,7.6,11,14.4,11.8c3.1,0.3,6.2,0.5,9.4,0.5
		c4,0,7.3,0,11.1-0.5c7.7-1.4,13.1-6.8,14.6-13.7c0.6-2.5,0.9-5.1,0.9-7.9C233.6,121.5,233.1,117.9,232,114.6z M215.9,131.2
		c-0.4,2.8-2.8,4.9-5.6,5.1c-1.1,0-2.2,0.1-3.4,0.1c-0.5,0-1,0-1.5,0c-3,0-5.6-2.3-6-5.2c-0.3-2.1-0.5-4.3-0.5-6.5
		c0-1.9,0.1-3.8,0.3-5.6c0.3-2.9,2.7-5.2,5.6-5.4c1,0,2-0.1,2.9-0.1c0.6,0,1.3,0,1.9,0c3.2,0,5.8,2.4,6.1,5.5c0.3,2,0.4,4.1,0.4,6.2
		C216.3,127.3,216.2,129.3,215.9,131.2z"/>
</g>
</svg>
