<?xml version="1.0" encoding="utf-8"?>
<!-- Generator: Adobe Illustrator 18.0.0, SVG Export Plug-In . SVG Version: 6.00 Build 0)  -->
<!DOCTYPE svg PUBLIC "-//W3C//DTD SVG 1.1//EN" "http://www.w3.org/Graphics/SVG/1.1/DTD/svg11.dtd">
<svg version="1.1" id="Layer_1" xmlns="http://www.w3.org/2000/svg" xmlns:xlink="http://www.w3.org/1999/xlink" x="0px" y="0px"
	 viewBox="0 0 250 250" enable-background="new 0 0 250 250" xml:space="preserve">
<rect x="17.4" y="17.4" display="none" fill="none" stroke="#B3B3B3" stroke-miterlimit="10" width="215.3" height="215.3"/>
<g>
	<path fill="#393E16" d="M225.9,151.5c-3.3,0-5.9,2.7-5.9,5.9c0,3.3,2.7,5.9,5.9,5.9s5.9-2.7,5.9-5.9S229.2,151.5,225.9,151.5z
		 M225.9,153c2.4,0,4.3,2,4.3,4.4c0,2.4-2,4.4-4.3,4.4c-2.4,0-4.4-2-4.4-4.4C221.5,155,223.5,153,225.9,153z"/>
	<path fill="#393E16" d="M210.4,100.3c-5.6,0-10.2,2.4-13.2,7l-0.1,0.2h-0.8v-5.7h-14.6v65.1h15.3V145h0.8l0.1,0.1
		c3.2,4.4,7.8,6.6,13.7,6.6c14,0,20.3-12.4,20.3-24.6C232,114.7,226.4,100.3,210.4,100.3z M206.8,112c7.3,0,9.9,7,9.9,13.6
		c0,7.1-2.6,14.6-10,14.6c-6.8,0-10.1-4.8-10.1-14.6C196.6,115.5,201.9,112,206.8,112z"/>
	<path fill="#393E16" d="M47.7,128.1c0,6.4-2.1,9.2-6.7,9.2c-4.6,0-7.2-2.7-7.2-7.3c0,0,0-5.2,0-5.9c-0.7,0-15.1,0-15.8,0
		c0,0.6,0,2.6,0,2.6c0,17.1,7.4,25.1,23.2,25.1c15.6,0,23.2-7.4,23.2-22.5c0,0,0-45.2,0-46c-0.7,0-16.1,0-16.8,0
		C47.7,84,47.7,128.1,47.7,128.1z"/>
	<path fill="#393E16" d="M95.8,100.3c-14.6,0-26.1,11.2-26.1,25.6c0,15.9,10.1,25.9,26.5,25.9c12.2,0,21.1-5.8,23.8-15.6h-14.3
		c-1.5,3.3-5.1,5.4-9.3,5.4c-6.8,0-11.1-4.3-11.4-11.5v-0.4h36c0-0.5,0.1-1.1,0.1-1.6c0-8.4-2.6-15.7-7.2-20.6
		C109.5,102.8,103.2,100.3,95.8,100.3z M95.8,110.5c5.3,0,9.6,4.5,9.9,10.4v0.4H84.9l0.1-0.4C86,114.5,90.1,110.5,95.8,110.5z"/>
	<path fill="#393E16" d="M223.5,154.3v6.1h1.4V158h1l1,2.4h1.6l-1.1-2.7c0.2-0.1,0.3-0.1,0.4-0.2c0.4-0.3,0.7-0.8,0.7-1.4
		s-0.2-1.1-0.6-1.4c-0.4-0.3-0.8-0.4-1.6-0.4L223.5,154.3L223.5,154.3z M225,155.4h0.8c0.8,0,1.2,0.2,1.2,0.8c0,0.6-0.4,0.8-1.1,0.8
		H225V155.4z"/>
	<path fill="#393E16" d="M151.2,100.3c-14.6,0-26.1,11.2-26.1,25.6c0,15.9,10.1,25.9,26.5,25.9c12.2,0,21.1-5.8,23.8-15.6h-14.3
		c-1.5,3.3-5.1,5.4-9.3,5.4c-6.8,0-11.1-4.3-11.4-11.5v-0.4h36c0-0.5,0.1-1.1,0.1-1.6c0-8.4-2.6-15.7-7.2-20.6
		C164.8,102.8,158.6,100.3,151.2,100.3z M151.2,110.5c5.3,0,9.6,4.5,9.9,10.4v0.4h-20.7l0.1-0.4
		C141.4,114.5,145.5,110.5,151.2,110.5z"/>
</g>
</svg>
