<?xml version="1.0" encoding="utf-8"?>
<!-- Generator: Adobe Illustrator 18.0.0, SVG Export Plug-In . SVG Version: 6.00 Build 0)  -->
<!DOCTYPE svg PUBLIC "-//W3C//DTD SVG 1.1//EN" "http://www.w3.org/Graphics/SVG/1.1/DTD/svg11.dtd">
<svg version="1.1" id="Layer_1" xmlns="http://www.w3.org/2000/svg" xmlns:xlink="http://www.w3.org/1999/xlink" x="0px" y="0px"
	 viewBox="0 0 500 500" enable-background="new 0 0 500 500" xml:space="preserve">
<rect x="34.8" y="34.8" display="none" fill="none" stroke="#B3B3B3" stroke-miterlimit="10" width="430.5" height="430.5"/>
<g id="XMLID_27_">
	<path id="XMLID_41_" fill="#141414" d="M87.9,36.2l6.6,7.5c0.4,0.5,0.7,0.6,1.4,0.6h13.9c0.6,0,1-0.1,1.4-0.6l6.6-7.5
		c0.6-0.6,0.4-1.4-0.6-1.4h-9.6c-0.6,0-1,0.2-1.4,0.6l-2.8,4.1h-1.5l-2.8-4.1c-0.4-0.5-0.7-0.6-1.4-0.6h-9.3
		C87.5,34.9,87.3,35.5,87.9,36.2 M209.9,74v0.7c0,25.3,4.2,26.8,34.5,26.8s34.5-1.5,34.5-26.9V74c0-25.3-4.2-26.8-34.5-26.8
		C214.1,47.2,209.9,48.8,209.9,74 M206.8,99.1L178,70.8l27.1-21.2c0.9-0.6,0.5-1.4-0.5-1.4H187c-0.5,0-0.9,0.1-1.4,0.5L158,70.8
		V49.4c0-0.7-0.4-1.1-1.1-1.1h-13.5c-0.7,0-1.1,0.4-1.1,1.1v50c0,0.7,0.4,1.1,1.1,1.1h13.5c0.7,0,1.1-0.4,1.1-1.1V86.7l8.2-6.5
		l19.9,19.5c0.5,0.5,0.9,0.6,1.4,0.6h19C207.3,100.4,207.6,99.8,206.8,99.1 M318.8,48.3h-28.8c-0.7,0-1.1,0.4-1.1,1.1v50
		c0,0.7,0.4,1.1,1.1,1.1h28.8c30.9,0,35-1.5,35-25.9v-0.4C353.8,49.9,349.7,48.3,318.8,48.3 M430.7,99.1l-25-50.1
		c-0.2-0.6-0.6-0.9-1.2-0.9h-22.2c-0.6,0-1,0.2-1.2,0.9l-25,50.1c-0.4,0.9-0.1,1.4,0.7,1.4h14.4c0.6,0,1-0.2,1.2-0.9l3.8-7.4h34.2
		l3.8,7.4c0.2,0.6,0.6,0.9,1.2,0.9h14.4C430.7,100.4,431.1,99.9,430.7,99.1 M262.1,74v0.7c0,14.6-0.6,14.9-17.7,14.9
		s-17.7-0.2-17.7-14.9V74c0-14.6,0.6-14.9,17.7-14.9C261.6,59.2,262.1,59.3,262.1,74 M337.3,74v0.7c0,13.4-1.1,13.9-18.4,13.9h-14.4
		V60.2h14.4C336.2,60.2,337.3,60.5,337.3,74 M405,81.3h-23.2l10.7-21.1h1.8L405,81.3z M70.7,100.6c7.7,0.4,20.3,0.7,27.5,0.7
		c31.5,0,35.4-0.1,35.4-17.2c0-13.5-3.9-14.6-20.7-15.1l-19.4-0.6c-9-0.2-9.1-1.2-9.1-5.2c0-4.2,1.1-4.2,22.5-4.2
		c4.1,0,16.9,0.2,23.8,0.4c0.7,0,1.1-0.4,1.1-1.1v-8.8c0-0.7-0.4-1.1-1-1.1c-6.8-0.4-17.8-0.7-25.7-0.7c-31.1,0-36,0.6-36,16.6
		c0,13.7,3.1,15.5,22.8,16.2l17.8,0.6c8.3,0.2,8.5,1.4,8.5,4.4c0,4.3-0.4,4.5-20.1,4.5c-9.2,0-18.7-0.4-27.3-0.6
		c-0.7-0.1-1.1,0.2-1.1,1v9.3C69.7,100.1,70.1,100.4,70.7,100.6"/>
	
		<linearGradient id="XMLID_2_" gradientUnits="userSpaceOnUse" x1="125.005" y1="376.0094" x2="127.46" y2="376.0094" gradientTransform="matrix(-0.4421 -126.9643 -126.1715 0.4421 47747.418 16169.9834)">
		<stop  offset="0" style="stop-color:#99A2A7"/>
		<stop  offset="0.4758" style="stop-color:#98A3A8"/>
		<stop  offset="0.5352" style="stop-color:#E6E6E6"/>
		<stop  offset="1" style="stop-color:#E6E6E6"/>
	</linearGradient>
	<circle id="XMLID_42_" fill="url(#XMLID_2_)" cx="249.9" cy="309.2" r="155.3"/>
	<path id="XMLID_44_" fill="#141414" d="M249.4,153.9v0.6c0.1,0,0.4,0,0.5,0c85.2,0,154.4,68.9,154.7,154.2c0,0.1,0,0.4,0,0.5
		c0,85.2-68.9,154.4-154.2,154.7c-0.1,0-0.4,0-0.5,0c-85.2,0-154.4-68.9-154.7-154.2c0-0.1,0-0.4,0-0.5
		c0-85.2,68.9-154.4,154.2-154.7V153.9v-0.6C163.5,153.6,94,223.4,94,309.2c0,0.1,0,0.4,0,0.5c0.2,85.9,70.1,155.4,155.9,155.4
		c0.1,0,0.4,0,0.5,0c85.9-0.2,155.4-70.1,155.4-155.9c0-0.1,0-0.4,0-0.5c-0.2-85.9-70.1-155.4-155.9-155.4c-0.1,0-0.4,0-0.5,0V153.9
		z"/>
	<path id="XMLID_45_" fill="#141414" d="M249.9,448.7c-37.2,0-72.3-14.5-98.6-40.9c-26.4-26.4-40.9-61.4-40.9-98.6
		c0-37.2,14.5-72.3,40.9-98.6c26.4-26.4,61.4-40.9,98.6-40.9s72.3,14.5,98.6,40.9c26.4,26.4,40.9,61.4,40.9,98.6
		s-14.5,72.3-40.9,98.6C322.2,434.2,287.1,448.7,249.9,448.7"/>
	<path id="XMLID_46_" fill="#FFFFFF" d="M249.9,437.4c-34.2,0-66.4-13.4-90.6-37.6c-24.2-24.2-37.6-56.3-37.6-90.6
		s13.4-66.4,37.6-90.6c24.2-24.2,56.3-37.6,90.6-37.6s66.4,13.4,90.6,37.6c24.2,24.2,37.6,56.3,37.6,90.6s-13.4,66.4-37.6,90.6
		C316.3,424,284.2,437.4,249.9,437.4"/>
	
		<linearGradient id="XMLID_3_" gradientUnits="userSpaceOnUse" x1="125.0922" y1="376.2195" x2="127.5472" y2="376.2195" gradientTransform="matrix(84.0862 -76.9367 76.9367 84.0862 -39312.0391 -21609.6621)">
		<stop  offset="0" style="stop-color:#151313"/>
		<stop  offset="8.500100e-002" style="stop-color:#151313"/>
		<stop  offset="0.1278" style="stop-color:#F8F1F1"/>
		<stop  offset="0.2287" style="stop-color:#151313"/>
		<stop  offset="0.3041" style="stop-color:#141414"/>
		<stop  offset="0.3817" style="stop-color:#F8F1F1"/>
		<stop  offset="0.4497" style="stop-color:#151313"/>
		<stop  offset="0.5655" style="stop-color:#F8F1F4"/>
		<stop  offset="0.6268" style="stop-color:#141414"/>
		<stop  offset="0.787" style="stop-color:#F8F1F1"/>
		<stop  offset="1" style="stop-color:#F8F1F2"/>
	</linearGradient>
	<path id="XMLID_50_" fill="url(#XMLID_3_)" d="M347.1,370.7c-9.5-8.8-21.4-14.9-34.4-16.9c-1.8-0.2-3.6,1.1-3.6,3.1
		c0,1.5,0,3.2,0,4.7c0,1.4-1.1,2.9-2.5,2.9c-1,0-2.1,0-3.1,0c-3.7,0-4.3-4.5-3.6-7.1c7.7-27.7,9.6-44.6,9.6-56.8
		c-0.1-13-0.4-26-6.3-43.2c-5.6-16.6-10.8-32.7-38.2-57.4c-1.8-1.7-3.7-2.5-6.3-2.7c-2.7-0.2-4.9-0.2-7.6-0.2
		c-11.3,0-22.2,1.7-32.7,4.8c-3.9,1.2-3.3,3.8-1.1,5.6c10.3,8.8,24.3,22.1,33.9,38.7c-6.1,0.6-10.8-2.8-14.7-6.5
		c-12.9-12.3-26.3-21-36.9-27c-1.8-1-3.7-1.5-5.5-0.4c-11.8,6.9-19.6,13.3-29,24.1c-1.6,1.8-0.6,3.3,1,4.1
		c10.2,5.4,26.1,15.7,40.8,29c-2.9,2.5-7.7,1.7-14.6-2c-13.1-6.9-25.8-10.9-35.5-13.4c-2.1-0.5-4.3,0-5.4,1.8
		c-6.1,10.8-10.4,23.6-12.5,36.7c-0.4,2.5,1.4,4.7,3.8,5.2c22.6,3.9,62.7,14.5,69.4,60.8c0.6,4.1-3.1,7.6-8,5.3
		c-6.8-3.2-13.5-6.4-20.3-9.5c-0.7-0.4-1.5-0.6-2.3-0.6c-10.9,0-21,0-31.9,0c-4.5,0-6.4,4.3-3.4,7.7c7.7,8.8,14.7,18.4,20.7,28.5
		c0.5,0.9,1.1,1.2,2.2,1.2c4.7,0,9.3,0,13.9,0c1,0,1.7-0.2,2.6-0.7c4.4-2.6,8.7-5.2,13.1-7.7c0.9-0.5,1.6-0.5,2.6-0.5
		c33.6,0,69.6,0,105,0c1.4,0,2.6,0.9,2.6,2.3c0,1.7,0,3.4,0,5.2c0,1.8,1.7,3.3,3.6,3.1c13-2.1,24.9-8,34.4-16.9
		C348.7,374.5,348.7,372.2,347.1,370.7"/>
	<path id="XMLID_51_" fill="#141414" d="M347.6,370.2c-9.6-9-21.6-15-34.7-17.1l0,0l0,0c-0.2,0-0.4,0-0.6,0c-2.1,0-3.8,1.6-3.8,3.8
		c0,1.5,0,3.2,0,4.7c0,0.5-0.2,1.1-0.6,1.6c-0.4,0.5-0.7,0.7-1.2,0.7c-0.7,0-1.4,0-2.1,0c-0.4,0-0.6,0-1,0l0,0l0,0
		c-0.6,0-1.1-0.1-1.5-0.4c-0.6-0.4-1-0.9-1.2-1.6c-0.2-0.7-0.4-1.6-0.4-2.5c0-0.6,0.1-1.4,0.2-1.8c7.6-27.1,9.6-43.9,9.6-56.2
		c0-0.2,0-0.5,0-0.9c-0.1-13-0.4-26.1-6.4-43.3c-2.8-8.2-5.5-16.4-11-25.8c-5.4-9.3-13.6-19.5-27.3-31.9l0,0c-2-1.7-4.1-2.7-6.6-2.8
		l0,0c-2.7-0.2-4.9-0.2-7.6-0.2c-11.4,0-22.5,1.7-32.8,4.8l0,0c-1.1,0.4-2,0.7-2.5,1.4c-0.6,0.6-0.9,1.4-0.9,2.1
		c0,1.4,0.9,2.5,2,3.4l0,0c10.3,8.8,24.2,22,33.8,38.4l0.6-0.4l-0.1-0.7c-0.5,0-0.9,0.1-1.4,0.1c-2.6,0-4.9-0.7-7-2
		c-2.1-1.2-4.1-2.8-5.8-4.5l0,0C224.5,226.9,211,218,200.3,212c-1.2-0.6-2.3-1.1-3.7-1.1c-0.9,0-1.7,0.2-2.6,0.7l0,0
		c-11.8,6.9-19.8,13.4-29.2,24.2c-0.6,0.7-1,1.5-1,2.2c0,0.7,0.2,1.4,0.7,1.7c0.4,0.5,0.9,0.9,1.5,1.1c10.2,5.4,26,15.6,40.6,28.8
		l0.5-0.5l-0.5-0.5c-1,0.9-2.2,1.2-3.8,1.2c-2.5,0-5.8-1.1-9.9-3.3c-13.3-7-25.9-10.9-35.6-13.5l0,0c-0.5-0.1-1.1-0.2-1.6-0.2
		c-1.7,0-3.6,0.7-4.5,2.5c-6.3,10.8-10.6,23.8-12.5,36.9c0,0.2-0.1,0.5-0.1,0.9c0,2.6,1.8,4.7,4.4,5.2c11.2,2,26.8,5.6,40.4,14.5
		c13.5,8.8,25.2,22.8,28.5,45.8l0,0c0,0.2,0,0.5,0,0.7c0,1.2-0.5,2.3-1.2,3.2c-0.7,0.9-1.8,1.4-3.2,1.4c-0.7,0-1.7-0.2-2.7-0.6
		c-6.8-3.2-13.5-6.4-20.3-9.5l0,0l0,0c-0.7-0.4-1.6-0.6-2.6-0.6c-10.9,0-21,0-31.9,0c-1.7,0-3.1,0.5-4.1,1.5c-1,0.9-1.5,2.2-1.5,3.4
		c0,1.4,0.5,2.7,1.6,3.9l0,0c7.6,8.8,14.6,18.3,20.6,28.4c0.2,0.5,0.6,1,1.1,1.2c0.5,0.2,1,0.4,1.6,0.4c4.7,0,9.3,0,13.9,0
		c1.1,0,2-0.2,2.9-0.9l0,0c4.4-2.6,8.7-5.2,13.1-7.7l0,0l0,0c0.6-0.4,1.2-0.4,2.1-0.4h0.1c33.6,0,69.6,0,105,0c0.6,0,1,0.1,1.4,0.5
		c0.4,0.2,0.5,0.6,0.5,1.1c0,1.7,0,3.4,0,5.2c0,2.1,1.7,3.8,3.8,3.8c0.2,0,0.4,0,0.6,0l0,0l0,0c13.1-2.1,25.2-8.1,34.7-17.1
		c0.9-0.9,1.4-2,1.4-3.1C349,372.2,348.6,371.1,347.6,370.2l-1,1c0.6,0.6,0.9,1.4,0.9,2.1c0,0.7-0.2,1.5-0.9,2.1
		c-9.3,8.8-21.2,14.7-34,16.7l0,0c-0.1,0-0.2,0-0.4,0c-0.6,0-1.2-0.2-1.7-0.7c-0.5-0.4-0.7-1-0.7-1.7c0-1.7,0-3.4,0-5.2
		c0-0.9-0.4-1.7-1-2.2c-0.6-0.5-1.4-0.9-2.2-0.9c-35.4,0-71.4,0-105,0h-0.1c-0.9,0-1.8,0-2.8,0.6l0,0c-4.4,2.6-8.7,5.2-13.1,7.7l0,0
		c-0.7,0.4-1.4,0.6-2.2,0.6c-4.7,0-9.3,0-13.9,0c-0.5,0-0.7-0.1-1-0.2c-0.2-0.1-0.4-0.4-0.6-0.7c-6-10.2-13.1-19.8-20.7-28.6l0,0
		c-0.9-1-1.2-2.1-1.2-3.1c0-1,0.4-1.8,1.1-2.5c0.7-0.6,1.7-1.1,3.1-1.1c10.9,0,21,0,31.9,0c0.6,0,1.4,0.2,2,0.5l0,0
		c6.8,3.2,13.5,6.4,20.3,9.5c1.1,0.5,2.2,0.7,3.3,0.7c1.7,0,3.2-0.7,4.2-1.7c1-1.1,1.6-2.6,1.6-4.2c0-0.2,0-0.6-0.1-1l0,0
		c-3.3-23.3-15.2-37.8-29.1-46.8c-13.9-9-29.6-12.6-40.9-14.6c-2-0.4-3.3-2-3.3-3.8c0-0.2,0-0.4,0-0.6c2-13,6.3-25.8,12.4-36.5
		c0.6-1.2,1.8-1.7,3.3-1.7c0.4,0,0.9,0,1.4,0.1l0,0c9.6,2.5,22.2,6.5,35.4,13.4c4.3,2.2,7.7,3.4,10.6,3.4c1.8,0,3.4-0.5,4.8-1.6
		l0.6-0.5l-0.6-0.5c-14.7-13.4-30.7-23.7-41-29.1c-0.5-0.2-0.9-0.5-1.1-0.9c-0.2-0.2-0.4-0.6-0.4-0.9c0-0.4,0.1-0.7,0.6-1.4
		c9.3-10.8,17.1-17.1,28.8-23.9l0,0c0.6-0.4,1.2-0.5,1.8-0.5c1,0,2,0.4,2.9,1c10.7,6,23.9,14.7,36.8,26.9l0,0
		c1.8,1.7,3.8,3.4,6.1,4.7c2.3,1.2,4.8,2.1,7.7,2.1c0.5,0,1,0,1.5-0.1l1.1-0.1l-0.5-1c-9.7-16.7-23.7-30-34.1-38.8l0,0
		c-1-0.7-1.5-1.7-1.5-2.5c0-0.4,0.1-0.7,0.5-1.1c0.4-0.4,1-0.7,1.8-1l0,0c10.3-3.1,21.1-4.8,32.4-4.8c2.7,0,4.9,0.1,7.6,0.2l0,0
		c2.3,0.1,4.1,0.9,5.8,2.5l0,0c13.6,12.3,21.7,22.5,27,31.7c5.4,9.1,8.1,17.2,10.9,25.5c5.9,17.1,6.1,30,6.3,43c0,0.2,0,0.5,0,0.9
		c0,12.2-2,28.7-9.5,55.9c-0.2,0.7-0.2,1.5-0.2,2.2c0,1.4,0.2,2.7,1,3.8c0.4,0.6,0.9,1.1,1.5,1.5c0.6,0.4,1.4,0.6,2.1,0.6V364v0.7
		c0.4,0,0.7,0,1.1,0c0.7,0,1.4,0,2.1,0c1,0,1.8-0.5,2.3-1.2c0.5-0.7,0.9-1.6,0.9-2.5c0-1.6,0-3.2,0-4.7c0-1.4,1.1-2.3,2.3-2.3
		c0.1,0,0.2,0,0.4,0l0,0c12.9,2.1,24.7,8,34,16.7L347.6,370.2L347.6,370.2z"/>
	<path id="XMLID_58_" fill="#42BD3B" d="M269,355.6c-10.3,0-18.7-8.3-18.7-18.7s8.3-18.7,18.7-18.7c10.3,0,18.7,8.3,18.7,18.7
		C287.7,347.3,279.3,355.6,269,355.6z M337.7,373.3c-7.1-5.8-14.6-9.6-23.7-11.4c-0.9-0.1-1.2,0.1-1.2,1c0,0.1,0,0.2,0,0.5
		c0,2.2-2.2,4.8-4.4,4.8c-2,0-3.9,0-5.9,0c-5,0-9.5-4.1-7.6-10.7c21.4-76.1-2.5-123.2-32.7-149.6c-8.2-7.1-9-7.5-17.1-7.2
		c-6.4,0.2-14,1-20.4,2.6c-1.2,0.2-2.3,1.4-0.6,2.7c15.5,13,36.1,35.5,46,70.5c0.4,1.2-0.4,1.1-1.4,1.2c-8.8,0.5-11.8-4.9-14.6-8.3
		c-20-24.9-42.6-40.1-59.4-50.2c-1.7-1-2-1-3.2-0.2c-6.8,3.9-14.4,10.2-19.8,15.8c-1.1,1.2-0.9,1.7,0.4,2.5
		c15.2,8.2,38.4,24.3,59.9,51.6c1.4,1.7,1.5,2.5,0.6,2.9c-4.2,2.5-11,2.5-18.7-2.3c-20.5-12.8-41.4-21.8-57.7-26.5
		c-1.7-0.5-2.1-0.4-2.7,1.1c-3.9,8.3-8.3,19.3-9.8,28.6c-0.2,1.2-0.2,1.4,0.9,1.6c44.9,9.1,69.5,33.8,72.3,66.7
		c0.5,5.8-6,11.2-12.4,9.2c-7-2.2-13.7-4.7-20.7-6.9c-0.7-0.2-1.5-0.4-2.3-0.4c-9.7,0-19.3,0-29,0c-1.2,0-2.1,0.9-0.7,2.5
		c7.2,9.2,11.5,14.5,16.7,23.1c0.5,0.9,1.1,1.2,2.2,1.2c3.6,0,7.1,0,10.7,0c1.4,0,2.6-0.4,3.8-1.1c3.8-2.2,7.7-4.4,11.5-6.6
		c1.2-0.7,2.3-1.1,3.7-1.1c35.1,0,72.7,0,107.7,0c2.2,0,4.5,2.6,4.5,4.9c0,0.2,0,0.5,0,0.7c0,0.9,0.4,1.1,1.2,1
		c9.1-1.8,16.6-6.3,23.7-12C338.4,374.4,338.4,373.9,337.7,373.3"/>
	
		<linearGradient id="XMLID_4_" gradientUnits="userSpaceOnUse" x1="129.3364" y1="374.2366" x2="131.7914" y2="374.2366" gradientTransform="matrix(8.0815 10.566 10.566 -8.0815 -4733.6514 1993.236)">
		<stop  offset="0" style="stop-color:#151313"/>
		<stop  offset="0.1626" style="stop-color:#CCC4C4"/>
		<stop  offset="0.4961" style="stop-color:#B7ACAD"/>
		<stop  offset="1" style="stop-color:#151313"/>
	</linearGradient>
	<path id="XMLID_59_" fill="url(#XMLID_4_)" d="M288.5,334.8c1.7,11.5-6.3,22.2-17.8,23.9s-22.2-6.3-23.9-17.8s6.3-22.2,17.8-23.9
		C276.1,315.2,286.8,323.2,288.5,334.8"/>
	
		<linearGradient id="XMLID_5_" gradientUnits="userSpaceOnUse" x1="126.4807" y1="372.0374" x2="128.9357" y2="372.0374" gradientTransform="matrix(-12.0566 4.8983 -4.8974 -12.0556 3621.6655 4202.1411)">
		<stop  offset="0" style="stop-color:#151313"/>
		<stop  offset="0.25" style="stop-color:#CCC4C4"/>
		<stop  offset="0.5" style="stop-color:#B7ACAD"/>
		<stop  offset="1" style="stop-color:#151313"/>
	</linearGradient>
	<path id="XMLID_60_" fill="url(#XMLID_5_)" d="M270.9,317l-6.4,41.7c9.1,1.4,18.3-3.6,22.2-12.3c4.8-10.7,0-23.1-10.7-27.9
		C274.5,317.8,272.8,317.3,270.9,317z"/>
	<path id="XMLID_61_" fill="#FFFFFF" d="M285.4,337.3c0,7.9-6.4,14.1-14.1,14.1c-7.9,0-14.1-6.4-14.1-14.1c0-7.9,6.4-14.1,14.1-14.1
		C279,323.2,285.4,329.5,285.4,337.3"/>
	<path id="XMLID_62_" fill="#141414" d="M284.7,337.3c0,3.7-1.5,7.1-3.9,9.5c-2.5,2.5-5.8,3.9-9.6,3.9c-3.7,0-7.1-1.5-9.5-3.9
		c-2.5-2.5-3.9-5.8-3.9-9.5c0-3.7,1.5-7.1,3.9-9.6s5.8-3.9,9.5-3.9c3.7,0,7.1,1.5,9.6,3.9C283.2,330.2,284.7,333.7,284.7,337.3h1.4
		c0-8.2-6.6-14.9-14.9-14.9c-8.2,0-14.9,6.6-14.9,14.9c0,8.2,6.6,14.9,14.9,14.9c8.2,0,14.9-6.6,14.9-14.9H284.7L284.7,337.3z"/>
</g>
</svg>
