<svg version="1.1" id="Layer_1" xmlns="http://www.w3.org/2000/svg" x="0" y="0" viewBox="0 0 500 500" xml:space="preserve"><style>.st0{fill:#808184}.st5{fill:#404041}.st15{fill:red}</style><g id="XMLID_2_"><g id="XMLID_1_"><path class="st0" d="M61.9 195.5c0 67.2 84.4 121.8 188.2 121.8s188.2-54.7 188.2-121.8c0-67.2-84.4-121.8-188.2-121.8S61.9 128.3 61.9 195.5zm1.8 0c0-66.1 83.6-119.9 186.4-119.9 102.8 0 186.4 53.8 186.4 119.9 0 66.1-83.6 119.9-186.4 119.9-102.8 0-186.4-53.8-186.4-119.9z"/><path class="st0" d="M232.2 96.2c-43 2.7-75.4 14.8-80.6 29.9-.5 1.5-.7 2.9-.7 4.4 0 2.4.6 4.7 1.9 7 5.9 10.4 24.5 19.1 51.3 23.8l.9.2.1-.9c4.6-28.9 14.7-51.8 27.7-62.7L235 96l-2.8.2zm-77.8 40.3c-1.1-2-1.7-4-1.7-6.1 0-1.2.2-2.5.6-3.7 4.7-13.9 36-25.5 76.4-28.5-12.3 11.6-21.8 33.5-26.3 61-25.2-4.5-43.5-13-49-22.7zm-2.8-10.4zM225.9 163.1l-.2 1 1 .1c7.6.6 15.4.9 23.3.9s15.7-.3 23.3-.9l1-.1-.2-1c-4.1-24.2-13.4-39.3-24.1-39.3-10.7 0-19.9 15-24.1 39.3zm24.2-37.4c9.6 0 18.1 14 22.1 36.7-7.2.5-14.6.8-22.1.8-7.5 0-14.9-.3-22.1-.8 4-22.7 12.4-36.7 22.1-36.7zM267.3 97.8c13 10.9 23.2 33.7 27.7 62.7l.1.9.9-.2c26.7-4.7 45.4-13.4 51.3-23.8 2.1-3.7 2.5-7.6 1.2-11.4-5.2-15.2-37.5-27.2-80.6-29.9l-2.9-.2 2.3 1.9zm3.1.5c40.4 3 71.7 14.5 76.4 28.5.4 1.2.6 2.5.6 3.7 0 2-.6 4.1-1.7 6.1-5.4 9.7-23.8 18.1-49.1 22.7-4.4-27.5-13.9-49.4-26.2-61zM122.9 138.9c-19.5 17-29.9 37.2-29.9 58.4 0 50.1 59.2 92.6 137.7 98.7l2.8.2-2.1-1.9c-17.9-15.9-28.9-53.4-28.9-97.7l.2-8.6-.8-.2c-43.3-8.1-73-26.6-77.5-48.3l-.3-1.5-1.2.9zm-28.1 58.4c0-20.2 9.8-39.4 28.2-55.9 5.6 21.6 35.1 39.9 77.7 48.1 0 1.3-.1 7.1-.1 7.1 0 43.2 10.5 80 27.6 97.2-76.2-6.8-133.4-48-133.4-96.5zM223.6 191.8v1.1c0 38.9 11.6 69.3 26.5 69.3s26.5-30.5 26.5-69.3v-2.1l-1 .1c-8.3.8-16.9 1.1-25.5 1.1s-17.2-.4-25.5-1.1l-1-.1v1zm1.8 1.1s0-.1 0 0c8.1.6 16.3 1 24.7 1 8.3 0 16.6-.4 24.7-1.1v.1c0 37.8-10.8 67.4-24.7 67.4-13.9 0-24.7-29.6-24.7-67.4zM375.8 139.4c-4.5 21.7-34.2 40.2-77.5 48.3l-.8.1.1 8.7c0 44.4-11.1 81.8-28.9 97.7l-2.1 1.9 2.8-.2c78.5-6.1 137.7-48.5 137.7-98.7 0-21.1-10.3-41.3-29.9-58.4l-1.2-1-.2 1.6zm1.4 2c18.4 16.5 28.2 35.7 28.2 55.9 0 48.6-57.2 89.7-133.4 96.5 17.1-17.2 27.6-54 27.6-97.2 0 0-.1-5.8-.1-7.1 42.6-8.2 72-26.5 77.7-48.1z"/><linearGradient id="SVGID_1_" gradientUnits="userSpaceOnUse" x1="250.088" y1="290.749" x2="250.088" y2="153.002"><stop offset="0" stop-color="#d0d2d3"/><stop offset=".158" stop-color="#f1f1f2"/><stop offset=".164" stop-color="#f0f0f1"/><stop offset=".259" stop-color="#e8e9ea"/><stop offset=".44" stop-color="#e6e7e8"/><stop offset=".559" stop-color="#cfd0d1"/><stop offset=".809" stop-color="#949597"/><stop offset="1" stop-color="#626366"/></linearGradient><path d="M375.9 123.3c.3.8.5 1.6.7 2.4 1.1 4.5.9 9-.5 13.4 19 16.3 30.2 36.4 30.2 58.2 0 54.4-69.9 98.5-156.2 98.5-86.2 0-156.2-44.1-156.2-98.5 0-21.8 11.2-41.9 30.2-58.2-1.4-4.3-1.6-8.8-.5-13.4.2-.8.5-1.7.9-2.5-25.9 19.2-41.6 44.4-41.6 72 0 60.2 74.9 109 167.2 109 92.4 0 167.2-48.8 167.2-109 0-27.5-15.6-52.7-41.4-71.9z" fill="url(#SVGID_1_)"/><linearGradient id="XMLID_4_" gradientUnits="userSpaceOnUse" x1="274.411" y1="171.329" x2="228.665" y2="132.943"><stop offset="0" stop-color="#e6e7e8"/><stop offset=".44" stop-color="#e6e7e8"/><stop offset=".559" stop-color="#cfd0d1"/><stop offset=".809" stop-color="#949597"/><stop offset="1" stop-color="#626366"/></linearGradient><path id="XMLID_31_" d="M226.8 163.2l-4.8 3.6c4-31.2 15-51.2 28.1-51.2 13 0 24.1 20 28.1 51.2l-4.8-3.6c-4.1-23.7-12.9-38.5-23.2-38.5-10.4 0-19.3 14.8-23.4 38.5z" fill="url(#XMLID_4_)"/><linearGradient id="XMLID_5_" gradientUnits="userSpaceOnUse" x1="278.802" y1="236.427" x2="212.631" y2="198.223"><stop offset="0" stop-color="#e6e7e8"/><stop offset=".44" stop-color="#e6e7e8"/><stop offset=".559" stop-color="#cfd0d1"/><stop offset=".809" stop-color="#949597"/><stop offset="1" stop-color="#626366"/></linearGradient><path id="XMLID_30_" d="M279.6 184.4l-3.9 7.4v1.1c0 38.9-11.5 68.4-25.6 68.4-14.1 0-25.6-29.5-25.6-68.4v-1.3l-3.9-7.2c-.1 2.8-.2 5.6-.2 8.4 0 44.1 13.3 77.5 29.7 77.5s29.7-33.4 29.7-77.5c-.1-2.8-.1-5.6-.2-8.4z" fill="url(#XMLID_5_)"/><linearGradient id="SVGID_2_" gradientUnits="userSpaceOnUse" x1="250.085" y1="185.783" x2="250.085" y2="111.143"><stop offset="0" stop-color="#e6e7e8"/><stop offset=".44" stop-color="#e6e7e8"/><stop offset=".559" stop-color="#cfd0d1"/><stop offset=".809" stop-color="#949597"/><stop offset="1" stop-color="#626366"/></linearGradient><path d="M273.3 163.2c-7.4.6-15.1.9-23.2.9s-15.9-.3-23.2-.9l-4.8 3.6c8.9.8 18.3 1.3 28.1 1.3s19.2-.5 28.1-1.3l-5-3.6zm85.4-38.2c-5.9-20.2-54.3-35-108.6-35-54.4 0-102.8 14.8-108.6 35-5.1 17.5 22.7 33.8 66.6 40.2l-3.8-4.8c-35.5-6.3-56.6-19.7-51.7-34 5.9-17.3 48.8-29.9 97.6-29.9s91.7 12.6 97.6 29.9c4.9 14.3-16.2 27.7-51.7 34l-3.8 4.8c43.7-6.4 71.5-22.7 66.4-40.2z" fill="url(#SVGID_2_)"/><path id="XMLID_27_" class="st5" d="M376.1 139.1c7.3 6.2 13.4 13 18.2 20.3-1.7-11.8-6.2-22.6-12.8-31.6-1.8-1.5-3.6-2.9-5.5-4.4.3.8.5 1.6.7 2.4 1 4.5.8 8.9-.6 13.3z"/><path id="XMLID_26_" class="st5" d="M124.1 139.1c-1.4-4.3-1.6-8.8-.5-13.4.2-.8.5-1.7.9-2.5-2 1.5-3.9 3-5.7 4.5-6.6 9.1-11.1 19.9-12.8 31.6 4.7-7.2 10.8-14 18.1-20.2z"/><linearGradient id="SVGID_3_" gradientUnits="userSpaceOnUse" x1="250.085" y1="74.586" x2="250.085" y2="316.369"><stop offset="0" stop-color="#c5c7c9"/><stop offset=".048" stop-color="#d4d5d7"/><stop offset=".12" stop-color="#e6e7e8"/><stop offset=".124" stop-color="#e8e9ea"/><stop offset=".147" stop-color="#efeff0"/><stop offset=".21" stop-color="#f1f1f2"/><stop offset=".545" stop-color="#f1f1f2"/><stop offset=".612" stop-color="#ccccce"/><stop offset=".692" stop-color="#a6a7a9"/><stop offset=".772" stop-color="#88898b"/><stop offset=".851" stop-color="#737477"/><stop offset=".928" stop-color="#66676a"/><stop offset="1" stop-color="#626366"/></linearGradient><path d="M62.8 195.5c0-66.8 83.9-120.9 187.3-120.9s187.3 54.1 187.3 120.9c0 66.8-83.9 120.9-187.3 120.9S62.8 262.2 62.8 195.5zm187.3 108.7c92.4 0 167.2-48.8 167.2-109s-74.9-109-167.2-109c-92.4 0-167.2 48.8-167.2 109-.1 60.2 74.8 109 167.2 109z" fill="url(#SVGID_3_)"/><path d="M81.8 195.2c0 60.8 75.5 110.2 168.3 110.2 92.8 0 168.3-49.4 168.3-110.2S342.9 85 250.1 85c-92.8 0-168.3 49.4-168.3 110.2zm2.1 0c0-59.5 74.5-107.9 166.1-107.9s166.1 48.4 166.1 107.9c0 59.5-74.5 107.9-166.1 107.9-91.5 0-166.1-48.4-166.1-107.9z" fill="#fff"/><linearGradient id="SVGID_4_" gradientUnits="userSpaceOnUse" x1="250.088" y1="74.576" x2="250.088" y2="316.355"><stop offset="0" stop-color="#c5c7c9"/><stop offset=".048" stop-color="#d4d5d7"/><stop offset=".12" stop-color="#e6e7e8"/><stop offset=".124" stop-color="#e8e9ea"/><stop offset=".147" stop-color="#efeff0"/><stop offset=".21" stop-color="#f1f1f2"/><stop offset=".545" stop-color="#f1f1f2"/><stop offset=".612" stop-color="#ccccce"/><stop offset=".692" stop-color="#a6a7a9"/><stop offset=".772" stop-color="#88898b"/><stop offset=".851" stop-color="#737477"/><stop offset=".928" stop-color="#66676a"/><stop offset="1" stop-color="#626366"/></linearGradient><path d="M206.1 196.5c0-58.2 19.7-106.5 44-106.5s44 48.3 44 106.5c0 58.8-19.7 106.5-44 106.5-24.3.1-44-47.6-44-106.5zm44 73.8c16.4 0 29.7-33.4 29.7-77.5 0-45.7-13.3-77.2-29.7-77.2s-29.7 31.5-29.7 77.2c0 44.2 13.3 77.5 29.7 77.5z" fill="url(#SVGID_4_)"/><linearGradient id="SVGID_5_" gradientUnits="userSpaceOnUse" x1="250.085" y1="74.593" x2="250.085" y2="316.378"><stop offset="0" stop-color="#c5c7c9"/><stop offset=".048" stop-color="#d4d5d7"/><stop offset=".12" stop-color="#e6e7e8"/><stop offset=".124" stop-color="#e8e9ea"/><stop offset=".147" stop-color="#efeff0"/><stop offset=".21" stop-color="#f1f1f2"/><stop offset=".545" stop-color="#f1f1f2"/><stop offset=".612" stop-color="#ccccce"/><stop offset=".692" stop-color="#a6a7a9"/><stop offset=".772" stop-color="#88898b"/><stop offset=".851" stop-color="#737477"/><stop offset=".928" stop-color="#66676a"/><stop offset="1" stop-color="#626366"/></linearGradient><path d="M123.6 125.7c4.8-19.9 63.2-48.9 126.5-48.9s119.7 20.7 126.5 48.9c7.7 31.6-48.6 60.1-126.5 60.1-78 .1-134.2-28.5-126.5-60.1zM250.1 90c-54.4 0-102.8 14.8-108.6 35-6.6 22.6 41.7 43.1 108.6 43.1 66.9 0 115.2-20.5 108.6-43.1-5.8-20.2-54.2-35-108.6-35z" fill="url(#SVGID_5_)"/><linearGradient id="SVGID_6_" gradientUnits="userSpaceOnUse" x1="250.088" y1="124.72" x2="250.088" y2="193.632"><stop offset=".006" stop-color="#e6e7e8"/><stop offset="1" stop-color="#6d6e70"/></linearGradient><path d="M220.6 184.4l4.1 7.4c8.2.7 16.7 1.1 25.5 1.1s17.4-.4 25.6-1.2l3.9-7.4c-9.4.9-19.3 1.4-29.5 1.4-10.4.2-20.2-.4-29.6-1.3zm156.7-51.9c-1 22.6-34.3 42.6-83.6 50.1l4.8 6c48.2-9 79.9-31.1 78.8-56.1zm-254.4 0c-1.1 24.9 30.6 47.1 78.8 56.1l4.8-6c-49.3-7.5-82.6-27.5-83.6-50.1z" fill="url(#SVGID_6_)"/><linearGradient id="XMLID_6_" gradientUnits="userSpaceOnUse" x1="273.007" y1="74.583" x2="273.007" y2="192.953"><stop offset="0" stop-color="#e6e7e8"/><stop offset=".44" stop-color="#e6e7e8"/><stop offset=".559" stop-color="#cfd0d1"/><stop offset=".809" stop-color="#949597"/><stop offset="1" stop-color="#626366"/></linearGradient><path id="XMLID_14_" d="M292.1 165.2l3.8-4.8c-6.6-42.1-24.7-70.4-45.8-70.4 19.7 0 36.5 31.9 42 75.2z" fill="url(#XMLID_6_)"/><linearGradient id="XMLID_7_" gradientUnits="userSpaceOnUse" x1="227.166" y1="74.583" x2="227.166" y2="192.953"><stop offset="0" stop-color="#e6e7e8"/><stop offset=".44" stop-color="#e6e7e8"/><stop offset=".559" stop-color="#cfd0d1"/><stop offset=".809" stop-color="#949597"/><stop offset="1" stop-color="#626366"/></linearGradient><path id="XMLID_13_" d="M208.1 165.2c5.6-43.3 22.3-75.2 42-75.2-21.2 0-39.2 28.3-45.8 70.4l3.8 4.8z" fill="url(#XMLID_7_)"/><linearGradient id="XMLID_8_" gradientUnits="userSpaceOnUse" x1="225.804" y1="74.583" x2="225.804" y2="270.339"><stop offset="0" stop-color="#e6e7e8"/><stop offset=".44" stop-color="#e6e7e8"/><stop offset=".559" stop-color="#cfd0d1"/><stop offset=".809" stop-color="#949597"/><stop offset="1" stop-color="#626366"/></linearGradient><path id="XMLID_12_" d="M206.1 196.5c0-4.7.1-9.3.4-13.9l-4.8 6c-.1 2.6-.1 5.2-.1 7.9 0 62.3 21.3 106.5 48.6 106.5-24.4.1-44.1-47.6-44.1-106.5z" fill="url(#XMLID_8_)"/><linearGradient id="XMLID_9_" gradientUnits="userSpaceOnUse" x1="274.372" y1="74.583" x2="274.372" y2="270.339"><stop offset="0" stop-color="#e6e7e8"/><stop offset=".44" stop-color="#e6e7e8"/><stop offset=".559" stop-color="#cfd0d1"/><stop offset=".809" stop-color="#949597"/><stop offset="1" stop-color="#626366"/></linearGradient><path id="XMLID_11_" d="M298.5 188.6l-4.8-6c.3 4.5.4 9.2.4 13.9 0 58.8-19.7 106.5-44 106.5 27.2 0 48.6-44.2 48.6-106.5 0-2.6-.1-5.3-.2-7.9z" fill="url(#XMLID_9_)"/></g><g id="XMLID_48_"><path id="XMLID_58_" class="st15" d="M249.8 388.4c0-21.1 17.1-38.1 38.1-38.1 21.1 0 38.1 17.1 38.1 38.1 0 21.1-17.1 38.1-38.1 38.1-21.1 0-38.1-17.1-38.1-38.1zm38.1 24.1c11.8 0 21.3-10.8 21.3-24.1s-9.5-24.1-21.3-24.1-21.3 10.8-21.3 24.1 9.5 24.1 21.3 24.1z"/><path id="XMLID_57_" class="st15" d="M369.3 366.1v58.6h-16.1v-58.6h.1-22.5v-13.3h60.9v13.3h-22.4z"/><path id="XMLID_54_" class="st15" d="M411.1 408.6l-6.2 16.2h-18.8l29.7-71.9h20l29.7 71.9h-18.8l-6.2-16.2h-29.4zm14.7-12.1h10.1l-10-26.3h-.1l-10 26.3h10z"/><path id="XMLID_53_" class="st15" d="M73.2 366.1v58.6H57.1v-58.6h.1-22.5v-13.3h60.9v13.3H73.2z"/><path id="XMLID_50_" class="st15" d="M99.7 388.4c0-21.1 17.1-38.1 38.1-38.1 21.1 0 38.1 17.1 38.1 38.1 0 21.1-17.1 38.1-38.1 38.1s-38.1-17.1-38.1-38.1zm38.1 24.1c11.8 0 21.3-10.8 21.3-24.1s-9.5-24.1-21.3-24.1-21.3 10.8-21.3 24.1 9.6 24.1 21.3 24.1z"/><path id="XMLID_49_" class="st15" d="M212.9 424.8h8.1v-27.3l28-44.6h-18.8l-17.4 30.2-17.4-30.2h-18.8l28 44.6v27.3h8.3z"/></g></g></svg>