<?xml version="1.0" encoding="utf-8"?>
<!-- Generator: Adobe Illustrator 27.2.0, SVG Export Plug-In . SVG Version: 6.00 Build 0)  -->
<svg version="1.1" id="Layer_1" xmlns="http://www.w3.org/2000/svg" xmlns:xlink="http://www.w3.org/1999/xlink" x="0px" y="0px"
	 viewBox="0 0 872.73 549.35" style="enable-background:new 0 0 872.73 549.35;" xml:space="preserve">
<style type="text/css">
	.st0{fill:#2097AB;}
	.st1{fill:#0F8592;}
	.st2{fill:#101F28;}
	.st3{fill:#C8DAD4;}
	.st4{fill:#40BBD6;}
	.st5{fill:#FFFFFF;}
	.st6{fill:none;stroke:#035660;stroke-miterlimit:10;}
	.st7{fill:#EE2526;}
	.st8{clip-path:url(#SVGID_00000122690971409389152540000007354487860469275264_);}
	.st9{fill:#FABF1F;}
	.st10{fill:#F79223;}
	.st11{fill:#FCCFB7;}
	.st12{fill:#8F3F22;}
	.st13{fill:#F8ACA5;}
	.st14{fill:#6D2715;}
	.st15{fill:#95B6B4;}
	.st16{fill:none;stroke:#101F28;stroke-miterlimit:10;}
	.st17{fill:#ED1C24;}
	.st18{fill:#5274B9;}
	.st19{opacity:0.7;fill:#FFFFFF;enable-background:new    ;}
</style>
<g>
	<polygon class="st0" points="654.69,226.2 670.38,227.54 662.54,254.87 	"/>
	<path class="st1" d="M717.08,335.98c-9.82-31.91-62.38-109.78-62.38-109.78s-197.06-18.79-245.32-5.71
		c-48.26,13.08-124.89,92.67-124.89,92.67s-72.57,8.6-108.69,19.11c-36.12,10.51-43.74,24.67-43.74,24.67l-1.33,39.23l-11.27,5.4
		c1.64,21.42,12.89,46.49,12.89,46.49h67.46H332.1h245.86h132.28h9.29c9.82-13.91,13.36-40.09,13.36-40.09
		S726.89,367.89,717.08,335.98z"/>
	<g>
		<circle class="st2" cx="644.1" cy="427.03" r="50"/>
		<circle class="st3" cx="644.1" cy="427.03" r="26.94"/>
	</g>
	<path class="st4" d="M717.08,335.98c-9.82-31.91-62.38-109.78-62.38-109.78s-197.06-18.79-245.32-5.71
		c-48.26,13.08-124.89,92.67-124.89,92.67s-72.57,8.6-108.69,19.11c-36.12,10.51-43.74,24.67-43.74,24.67l-1.33,39.23l-11.27,5.4
		c1.64,21.42,12.89,46.49,12.89,46.49h67.46v-7.57c0-36.53,29.61-66.14,66.14-66.14h0c36.53,0,66.14,29.61,66.14,66.14v7.57h245.86
		v-7.57c0-36.53,29.61-66.14,66.14-66.14h0c36.53,0,66.14,29.61,66.14,66.14v7.57h9.29c9.82-13.91,13.36-40.09,13.36-40.09
		S726.89,367.89,717.08,335.98z"/>
	<path class="st1" d="M414.66,227.86c-30.66,7.94-113.66,95.81-113.66,95.81l343.1-15.41l26.29-23.79c0,0-30.28-39.3-56.23-49.86
		C588.2,224.05,443.27,220.45,414.66,227.86z"/>
	<g>
		<circle class="st2" cx="265.96" cy="427.03" r="50"/>
		<circle class="st3" cx="265.96" cy="427.03" r="26.94"/>
	</g>
	<path class="st5" d="M612.8,237.93c-15.79-6.42-81.29-10.4-132.92-10.4c-31.57,0-55.01,1.38-64.32,3.8
		c-19.19,4.97-60.89,43.69-87.62,70.09l12.33,16.89l302.39-13.58l22.83-20.66C658.3,275.25,633.79,246.47,612.8,237.93z"/>
	<polygon class="st4" points="500.48,217.34 492.88,331.59 517.1,331.59 514.56,219.23 	"/>
	<path class="st0" d="M180.65,377c5.38-5.77,10.21-18.84,10.21-18.84l-58.79-1.22l-1.02,30.04
		C144.73,385.47,176.45,381.51,180.65,377z"/>
	<path class="st5" d="M143.53,378.75c0,0,22.12,1.57,33.52,0.24c1.72-0.64,2.97-1.31,3.61-1.98c5.38-5.77,10.21-18.84,10.21-18.84
		l-47.33,5.76V378.75z"/>
	<path class="st0" d="M135.67,416.91l38.42-5.04c0,0,6.21,13.58,3.31,24.34h-37.12C140.28,436.21,137.21,426.05,135.67,416.91z"/>
	<path class="st1" d="M169.89,416.91l-22.49,2.67l2.11,13.76h22.11C171.62,433.33,172.39,427.2,169.89,416.91z"/>
	<path class="st5" d="M170.14,418l-13.22,1.57l2.11,13.76h12.58C171.62,433.33,172.32,427.63,170.14,418z"/>
	<path class="st0" d="M214.74,398.67l-84-2.49l-11.27,5.4h93.03C213.22,400.58,213.96,399.61,214.74,398.67z"/>
	<path class="st0" d="M443.73,334.36l49.15-2.78l-2.17,6.66c-0.68,2.1-2.58,3.57-4.79,3.71l-33.53,2.06
		c-2.11,0.13-4.11-0.99-5.09-2.87L443.73,334.36z"/>
	<path class="st0" d="M599.92,326.45l49.15-2.78l-2.17,6.66c-0.68,2.1-2.58,3.57-4.79,3.71l-33.53,2.06
		c-2.11,0.13-4.11-0.99-5.09-2.87L599.92,326.45z"/>
	<path class="st6" d="M315.99,296.47c0,0,2.31,69.96,23.07,136.86h166.12l2.57-212.42c0,0-81.88-2.18-95.87,3.04
		C397.88,229.17,315.99,296.47,315.99,296.47z"/>
	<path class="st6" d="M507.75,220.91c0,0,90.83,1.78,110.44,10.79s40.37,29.72,59.4,54.83c0,0-5.2,63.18-12.12,83.94
		c0,0-75.54-19.61-93.42,62.86h-66.88L507.75,220.91z"/>
	<path class="st7" d="M705.85,329.89l18.37,33.1c0,0,5.85-22.61,3.54-26.88S705.85,329.89,705.85,329.89z"/>
	<g>
		<defs>
			<path id="SVGID_1_" d="M523.84,228.39l-58.48-49.13l-34.57,7.17l-43.93,62c-19.34,14.89-42.09,36.38-58.92,52.99l12.33,16.89
				l149.39-6.71l12.64,29.43l32.32-0.48l10.2-102.49L523.84,228.39z"/>
		</defs>
		<clipPath id="SVGID_00000091729085812006903870000012353403225841088400_">
			<use xlink:href="#SVGID_1_"  style="overflow:visible;"/>
		</clipPath>
		<g style="clip-path:url(#SVGID_00000091729085812006903870000012353403225841088400_);">
			<path class="st9" d="M426.99,257.62c0,0-7.59,5.91-15.55,19.49c-7.97,13.58-17.31,22.76-17.31,22.76s5.42,16.22,23.28,22.54
				c0,0,11.61-12.61,15.72-26.28C433.12,296.13,434.26,267.43,426.99,257.62z"/>
			<path class="st10" d="M404.55,314.79c3.3,2.96,7.52,5.73,12.85,7.62c0,0,11.61-12.61,15.72-26.28c0,0,0.5-12.63-1.29-23.99
				l-6.88-1.77C424.96,270.37,421.86,296.19,404.55,314.79z"/>
			<path class="st9" d="M426.99,257.62c0,0,11.34-7.31,32.5-6.87c22.06,0.45,35.66,10.02,35.66,10.02l-11.04,89.96
				c0,0-36.17,4.07-64.57-6.91C419.55,343.83,420.24,290.11,426.99,257.62z"/>
			<path class="st10" d="M458.29,242.95c0,0-9.7,0.94-13.15,2.72c-3.45,1.79-10.59,18.4-10.59,18.4s5.62-5.37,9.15-5.99
				c3.53-0.62,8.84,3.76,8.84,3.76L458.29,242.95z"/>
			<path class="st11" d="M467.93,225.55c0,0-0.91,19.41,0,26.55c0,0-10.95,9.56-15.4,9.74c0,0-3.78-4.63-5.2-10.18
				c0,0,4.48-13.67,5.31-19.2C452.65,232.46,457.55,227.76,467.93,225.55z"/>
			<path class="st12" d="M445.14,195.76c0,0-6.04-0.35-7.15,5.77s2.16,11.65,2.16,11.65L445.14,195.76z"/>
			<path class="st13" d="M450.55,241.16c4.18,0.37,10.6,0.04,17.02-3.82c0.1-6.25,0.36-11.79,0.36-11.79
				c-10.38,2.21-15.28,6.9-15.28,6.9C452.33,234.57,451.48,237.88,450.55,241.16z"/>
			<path class="st11" d="M459.56,194.21c-11.57-1.76-19.78,1.16-20.69,16.6c-0.91,15.44,1.91,24.7,5.88,27.59s16.61-1.25,21.52-8.29
				c4.91-7.04,8.72-19.21,5.07-27.23C467.71,194.85,459.56,194.21,459.56,194.21z"/>
			<path class="st14" d="M456.66,209.34c0.5,0,0.91,0.57,0.91,1.28s-0.41,1.28-0.91,1.28c-0.5,0-0.91-0.57-0.91-1.28
				S456.16,209.34,456.66,209.34z"/>
			<path class="st14" d="M443.24,208.06c0.5,0,0.91,0.57,0.91,1.28c0,0.71-0.41,1.28-0.91,1.28c-0.5,0-0.91-0.57-0.91-1.28
				C442.33,208.63,442.74,208.06,443.24,208.06z"/>
			<path class="st12" d="M461.79,207.1l-7.59-2.74c0,0,1.06-2.7,2.37-2.51S462.38,204.69,461.79,207.1z"/>
			<path class="st12" d="M446.81,203.4c0,0-2.63-0.77-5.31,0c0,0,0.62-1.68,1.74-2.21C444.36,200.67,446.86,199.53,446.81,203.4z"/>
			<path class="st12" d="M467.73,230.94c0,0,8.44-11.52,10.25-18.66c1.8-7.14-1.8-7.81-1.8-7.81s1.58-6.31-3.92-9.99
				c-5.49-3.67-11.37-11.16-21.81-10.96c-14.09,0.27-7.46,14.54-7.46,14.54c12.84-1.51,21.05,1.77,21.05,1.77s-0.64,6.12,3.9,10.19
				c0,0-0.91,8.69,1.4,11.91C469.33,221.92,466.61,226.74,467.73,230.94z"/>
			<path class="st11" d="M470.54,219.57c0,0,6.2-9.09,7.35-3.19c1.15,5.9-9.36,13.82-12.65,11.24L470.54,219.57z"/>
			<path class="st13" d="M469.79,223.53c0,0,4.82-7.22,5.15-5.65C475.26,219.45,467.38,228.73,469.79,223.53z"/>
			<path class="st12" d="M469.33,212.28c0,0-3.16,7.23-6.2,10.79c-3.04,3.56-6.76,2.33-6.76,2.33c-3.84-5.99-9.04-6.04-9.04-6.04
				h-2.78c0,0-3.24-0.02-5.33,5.73l-0.18-1.57c0,0-3.24,11.47-1.28,15.01c0.95,1.71,4.48,4.17,7.39,4.36
				c7.48,0.51,20.06-2.3,20.99-7.18c0.44-2.3,1.33-7.1,1.33-7.1c0.31-3.3,3.47-13.08,3.47-13.08L469.33,212.28z"/>
			<path class="st13" d="M447.7,210.81c0,0-0.9,4.36-2.03,5.35s-4.01,1.19-2.44,2.89c1.57,1.7,3.32,2.31,5.58,0.28
				C449.93,218.32,447.7,210.81,447.7,210.81z"/>
			<path class="st10" d="M452.54,261.84c0,0,1.74-6.92,5.1-8.33c3.35-1.41,9.97-6.23,9.97-6.23l-0.08-6.01c0,0,2.62,0.98,3.4,2.42
				s2.64,8.54,2.64,8.54s-6.09,10.95-7.01,14.25c-0.92,3.3-1.32,7.15-1.32,7.15s-4.89-12.43-6-13.14S452.54,261.84,452.54,261.84z"
				/>
			<path class="st9" d="M495.16,260.77c0,0,7.8,6.51,12.63,15.09s15,25.98,15,25.98s12.13,30.64-1.08,34.57
				c-13.21,3.93-17.27-4.24-17.27-4.24l-19.51-27.15C484.92,305.03,484.74,275.77,495.16,260.77z"/>
			<path class="st2" d="M522.79,301.84c0,0-0.15-0.26-0.43-0.74c-10.43-14.23-20.47,20.48-17.92,31.07c0,0,4.06,8.17,17.27,4.24
				C534.92,332.48,522.79,301.84,522.79,301.84z"/>
			<path class="st11" d="M523.78,265.28c0,0-15.14,46.11-15.9,54.47s7.61,14.76,13.92,11.61c6.31-3.15,9.66-16.26,9.61-22.85
				s2.31-42.02,2.31-42.02L523.78,265.28z"/>
			<g>
				<path class="st11" d="M535.68,254.75c0,0,2.02-12.26,2.82-16.68c0,0-4.41,0.16-5.94,4.18s-1.83,10.52-1.83,10.52L535.68,254.75z
					"/>
				<path class="st13" d="M532.18,243.38c1.91,1.56,3.42,3.48,4.53,5.16c-0.57,3.41-1.03,6.22-1.03,6.22l-4.95-1.99
					C530.72,252.76,530.98,247.38,532.18,243.38z"/>
				<path class="st11" d="M533.62,268.44c0,0,3.66-12.43,4.1-17.62c0,0-7.27-5.37-9.87-5.61c-2.6-0.25-8.43,2.93-9.09,4.38
					s0.37,3.41,0.37,3.41s-1.87,1.73-1.88,2.87c-0.01,1.14,1.88,3.08,1.88,3.08s-1.71,1.88-1.68,2.65c0.03,0.77,1.6,2.7,1.6,2.7
					s-1.06,1.8-0.79,2.92s6.17,3.14,6.17,3.14s0.77-0.7-0.17-2.55L533.62,268.44z"/>
				<polygon class="st13" points="519.13,253 525.49,248.73 518.74,251.99 				"/>
				<polygon class="st13" points="519.13,258.95 524.34,254.36 518.27,257.95 				"/>
				<polygon class="st13" points="519.05,264.31 523.84,258.37 518.41,263.46 				"/>
			</g>
			<path class="st5" d="M441.66,225.1l10.31-1.14C451.97,223.96,448.1,232.83,441.66,225.1z"/>
			<path class="st11" d="M368.55,283.68c0,0,18.88,16.3,29.74,24.42c9.29,6.94,15.37,12.76,15.37,12.76s-13.67,10.52-19.53,7.27
				c-18.96-10.52-35.54-42.94-35.54-42.94L368.55,283.68z"/>
			<path class="st13" d="M356.47,285.13c0,0,2.2-4.65,10.52-8.9c0,0,2.32-0.19,1.59,4.37c0,0,3.36,0.23,1.79,4.98
				c0,0,2.93,2.09,0.42,6.13c0,0,0.96,1.64,1.02,4.64c0.06,2.99-2.39,7.55-2.39,7.55s-3.74-0.42-5.58-1.37S359,291.56,359,291.56
				L356.47,285.13z"/>
			<path class="st11" d="M378.49,292.88c0,0-4.11-9.21-6.07-11c-1.96-1.79-11.61-7.44-11.61-7.44s-2.06,6.78,7.45,9.79
				c0,0,1.05,3.93,1.17,8.65c0.12,4.72,5.66,11.33,5.66,11.33S379.81,300.92,378.49,292.88z"/>
			<g>
				<path class="st15" d="M373.29,292.76c-4.31,1.57-8.61,3.13-12.92,4.7c2.45,6.74,4.91,13.48,7.36,20.22
					c4.31-1.57,8.61-3.13,12.92-4.7C380.39,305.63,377.82,298.55,373.29,292.76z"/>
				
					<rect x="329.52" y="306.68" transform="matrix(0.9397 -0.342 0.342 0.9397 -85.3931 139.3318)" class="st15" width="45.76" height="10.25"/>
				
					<rect x="360.57" y="292.18" transform="matrix(0.9397 -0.342 0.342 0.9397 -82.6132 144.1467)" class="st3" width="13.75" height="28.3"/>
				<path class="st2" d="M359.6,272.73L359.6,272.73c-2.14,0.78-3.24,3.14-2.46,5.28l20.62,56.65c0.78,2.14,3.14,3.24,5.28,2.46l0,0
					c2.14-0.78,3.24-3.14,2.46-5.28l-20.62-56.65C364.1,273.05,361.73,271.95,359.6,272.73z"/>
			</g>
			<path class="st16" d="M452.54,261.84c0,0-3.17,16-3.41,26.16"/>
			<path class="st16" d="M488.85,310.49c0,0-5.14-7.35-2.37-24.3c2.78-16.95,6.4-22.11,6.4-22.11"/>
			<path class="st16" d="M426.27,261.34c0,0-3.78,18.83-5.85,57.48"/>
		</g>
	</g>
</g>
<path class="st17" d="M724.49,40.68c-10.93-9.16-27.75-7.79-38.13,2.87c-10.39-10.66-27.2-12.03-38.13-2.87
	c-14.21,11.89-12.03,31.3-2.05,41.69l33.08,33.62c1.91,1.91,4.37,3.01,7.11,3.01c2.73,0,5.19-1.09,7.11-3.01l33.08-33.62
	C736.65,72.11,738.7,52.57,724.49,40.68z M720.12,75.94l-33.08,33.62c-0.41,0.41-0.82,0.41-1.23,0l-33.08-33.62
	c-6.83-6.97-8.2-20.23,1.37-28.43c7.38-6.15,18.59-5.19,25.69,1.91l6.56,6.7l6.56-6.7c7.11-7.24,18.45-8.2,25.69-2.05
	C728.32,55.71,726.95,69.11,720.12,75.94L720.12,75.94z"/>
<g>
	<g id="freepik--speech-bubble-3--inject-3">
		<path class="st18" d="M604.1,168.55c0-5.9-3.1-11.1-8-14.9c0.2-0.8,0.2-1.6,0.2-2.3c0-7.8-7.9-14.1-17.8-14.3
			c-3-7.5-11.9-13-22.5-13c-8.4,0-15.8,3.5-20,8.7c-1.1-0.1-2.1-0.2-3.2-0.2c-10.1,0-18.2,6.4-18.2,14.3c0,1.3,0.2,2.7,0.7,3.9
			c-6.4,3.4-10.6,9.1-10.6,15.6c0,6.3,3.9,11.8,9.9,15.3c0,0.1,0,0.1,0,0.2c0,7.7,7.7,14,17.3,14.3c5.3,5.2,13.5,8.5,22.6,8.5
			c6,0.1,12-1.5,17.2-4.4c0.8,0.1,1.7,0.1,2.5,0.1c10.1,0,18.2-6.4,18.2-14.3v-0.1C599.5,182.05,604.1,175.65,604.1,168.55z"/>
		<path class="st18" d="M472.9,158.55c0,1.3-1.5,2.4-3.4,2.4s-3.4-1.1-3.4-2.4s1.5-2.4,3.4-2.4S472.9,157.25,472.9,158.55z"/>
		<path class="st18" d="M499.4,156.95c0,3.8-4.4,6.9-9.9,6.9s-9.9-3.1-9.9-6.9s4.4-6.9,9.9-6.9S499.4,153.15,499.4,156.95z"/>
		<path class="st19" d="M604.1,168.55c0-5.9-3.1-11.1-8-14.9c0.2-0.8,0.2-1.6,0.2-2.3c0-7.8-7.9-14.1-17.8-14.3
			c-3-7.5-11.9-13-22.5-13c-8.4,0-15.8,3.5-20,8.7c-1.1-0.1-2.1-0.2-3.2-0.2c-10.1,0-18.2,6.4-18.2,14.3c0,1.3,0.2,2.7,0.7,3.9
			c-6.4,3.4-10.6,9.1-10.6,15.6c0,6.3,3.9,11.8,9.9,15.3c0,0.1,0,0.1,0,0.2c0,7.7,7.7,14,17.3,14.3c5.3,5.2,13.5,8.5,22.6,8.5
			c6,0.1,12-1.5,17.2-4.4c0.8,0.1,1.7,0.1,2.5,0.1c10.1,0,18.2-6.4,18.2-14.3v-0.1C599.5,182.05,604.1,175.65,604.1,168.55z"/>
		<path class="st19" d="M472.9,158.55c0,1.3-1.5,2.4-3.4,2.4s-3.4-1.1-3.4-2.4s1.5-2.4,3.4-2.4S472.9,157.25,472.9,158.55z"/>
		<path class="st19" d="M499.4,156.95c0,3.8-4.4,6.9-9.9,6.9s-9.9-3.1-9.9-6.9s4.4-6.9,9.9-6.9S499.4,153.15,499.4,156.95z"/>
	</g>
	<g id="freepik--Symbol--inject-3">
		<path class="st18" d="M560.13,155.43c0.2-2.7-2-4.6-5.6-4.9c-3-0.4-6,0.8-8,3.1l-4.4-3.3c2.9-3.4,7.4-5.3,13.4-4.9
			c7,0.5,11.5,4,11.1,9.5c-0.6,7.8-8.8,7.9-9.2,13.5l-6.1-0.4C551.63,160.93,559.73,160.13,560.13,155.43z M549.83,175.63
			c0.3-2.1,2.2-3.6,4.3-3.3c1.9,0.2,3.4,1.9,3.3,3.9c-0.3,2.1-2.2,3.6-4.3,3.3C551.23,179.23,549.83,177.63,549.83,175.63z"/>
	</g>
</g>
</svg>
